<?xml version="1.0" encoding="us-ascii" standalone="no"?><svg xmlns="http://www.w3.org/2000/svg" xmlns:xlink="http://www.w3.org/1999/xlink" contentStyleType="text/css" height="476px" preserveAspectRatio="none" style="width:1040px;height:476px;background:#FFFFFF;" version="1.1" viewBox="0 0 1040 476" width="1040px" zoomAndPan="magnify"><defs><linearGradient id="g1hyuch3lq4e450" x1="0%" x2="100%" y1="0%" y2="100%"><stop offset="0%" stop-color="#F2AA4C"/><stop offset="100%" stop-color="#CE4A7E"/></linearGradient></defs><g><text fill="#000000" font-family="sans-serif" font-size="14" font-weight="bold" lengthAdjust="spacing" textLength="171" x="433.5" y="30.1074">US12 Sequence Diagram</text><rect fill="#FFFFFF" height="251.3281" style="stroke:#181818;stroke-width:1.0;" width="10" x="26.5" y="133.2422"/><rect fill="#FFFFFF" height="219.0371" style="stroke:#181818;stroke-width:1.0;" width="10" x="333.5" y="156.5332"/><rect fill="#FFFFFF" height="156.4551" style="stroke:#181818;stroke-width:1.0;" width="10" x="447.5" y="187.8242"/><rect fill="#FFFFFF" height="31.291" style="stroke:#181818;stroke-width:1.0;" width="10" x="886.5" y="219.1152"/><rect fill="#FFFFFF" height="31.291" style="stroke:#181818;stroke-width:1.0;" width="10" x="973.5" y="281.6973"/><line style="stroke:#181818;stroke-width:0.5;stroke-dasharray:5.0,5.0;" x1="31" x2="31" y1="123.2422" y2="393.5703"/><line style="stroke:#181818;stroke-width:0.5;stroke-dasharray:5.0,5.0;" x1="338" x2="338" y1="123.2422" y2="393.5703"/><line style="stroke:#181818;stroke-width:0.5;stroke-dasharray:5.0,5.0;" x1="452.5" x2="452.5" y1="123.2422" y2="393.5703"/><line style="stroke:#181818;stroke-width:0.5;stroke-dasharray:5.0,5.0;" x1="891" x2="891" y1="123.2422" y2="393.5703"/><line style="stroke:#181818;stroke-width:0.5;stroke-dasharray:5.0,5.0;" x1="978" x2="978" y1="123.2422" y2="393.5703"/><text fill="#000000" font-family="sans-serif" font-size="14" lengthAdjust="spacing" textLength="47" x="5" y="119.7285">Reader</text><ellipse cx="31.5" cy="53.1211" fill="url(#g1hyuch3lq4e450)" rx="8" ry="8" style="stroke:#181818;stroke-width:0.5;"/><path d="M31.5,61.1211 L31.5,88.1211 M18.5,69.1211 L44.5,69.1211 M31.5,88.1211 L18.5,103.1211 M31.5,88.1211 L44.5,103.1211 " fill="none" style="stroke:#181818;stroke-width:0.5;"/><text fill="#000000" font-family="sans-serif" font-size="14" lengthAdjust="spacing" textLength="47" x="5" y="407.6777">Reader</text><ellipse cx="31.5" cy="419.6914" fill="url(#g1hyuch3lq4e450)" rx="8" ry="8" style="stroke:#181818;stroke-width:0.5;"/><path d="M31.5,427.6914 L31.5,454.6914 M18.5,435.6914 L44.5,435.6914 M31.5,454.6914 L18.5,469.6914 M31.5,454.6914 L44.5,469.6914 " fill="none" style="stroke:#181818;stroke-width:0.5;"/><rect fill="url(#g1hyuch3lq4e450)" height="32.6211" rx="2.5" ry="2.5" style="stroke:#181818;stroke-width:0.5;" width="105" x="286" y="89.6211"/><text fill="#000000" font-family="sans-serif" font-size="14" lengthAdjust="spacing" textLength="91" x="293" y="111.7285">UserController</text><rect fill="url(#g1hyuch3lq4e450)" height="32.6211" rx="2.5" ry="2.5" style="stroke:#181818;stroke-width:0.5;" width="105" x="286" y="392.5703"/><text fill="#000000" font-family="sans-serif" font-size="14" lengthAdjust="spacing" textLength="91" x="293" y="414.6777">UserController</text><rect fill="url(#g1hyuch3lq4e450)" height="32.6211" rx="2.5" ry="2.5" style="stroke:#181818;stroke-width:0.5;" width="90" x="407.5" y="89.6211"/><text fill="#000000" font-family="sans-serif" font-size="14" lengthAdjust="spacing" textLength="76" x="414.5" y="111.7285">UserService</text><rect fill="url(#g1hyuch3lq4e450)" height="32.6211" rx="2.5" ry="2.5" style="stroke:#181818;stroke-width:0.5;" width="90" x="407.5" y="392.5703"/><text fill="#000000" font-family="sans-serif" font-size="14" lengthAdjust="spacing" textLength="76" x="414.5" y="414.6777">UserService</text><rect fill="url(#g1hyuch3lq4e450)" height="32.6211" rx="2.5" ry="2.5" style="stroke:#181818;stroke-width:0.5;" width="43" x="870" y="89.6211"/><text fill="#000000" font-family="sans-serif" font-size="14" lengthAdjust="spacing" textLength="29" x="877" y="111.7285">User</text><rect fill="url(#g1hyuch3lq4e450)" height="32.6211" rx="2.5" ry="2.5" style="stroke:#181818;stroke-width:0.5;" width="43" x="870" y="392.5703"/><text fill="#000000" font-family="sans-serif" font-size="14" lengthAdjust="spacing" textLength="29" x="877" y="414.6777">User</text><rect fill="url(#g1hyuch3lq4e450)" height="32.6211" rx="2.5" ry="2.5" style="stroke:#181818;stroke-width:0.5;" width="111" x="923" y="89.6211"/><text fill="#000000" font-family="sans-serif" font-size="14" lengthAdjust="spacing" textLength="97" x="930" y="111.7285">UserRepository</text><rect fill="url(#g1hyuch3lq4e450)" height="32.6211" rx="2.5" ry="2.5" style="stroke:#181818;stroke-width:0.5;" width="111" x="923" y="392.5703"/><text fill="#000000" font-family="sans-serif" font-size="14" lengthAdjust="spacing" textLength="97" x="930" y="414.6777">UserRepository</text><rect fill="#FFFFFF" height="251.3281" style="stroke:#181818;stroke-width:1.0;" width="10" x="26.5" y="133.2422"/><rect fill="#FFFFFF" height="219.0371" style="stroke:#181818;stroke-width:1.0;" width="10" x="333.5" y="156.5332"/><rect fill="#FFFFFF" height="156.4551" style="stroke:#181818;stroke-width:1.0;" width="10" x="447.5" y="187.8242"/><rect fill="#FFFFFF" height="31.291" style="stroke:#181818;stroke-width:1.0;" width="10" x="886.5" y="219.1152"/><rect fill="#FFFFFF" height="31.291" style="stroke:#181818;stroke-width:1.0;" width="10" x="973.5" y="281.6973"/><polygon fill="#181818" points="321.5,152.5332,331.5,156.5332,321.5,160.5332,325.5,156.5332" style="stroke:#181818;stroke-width:1.0;"/><line style="stroke:#181818;stroke-width:1.0;" x1="36.5" x2="327.5" y1="156.5332" y2="156.5332"/><text fill="#000000" font-family="sans-serif" font-size="13" font-weight="bold" lengthAdjust="spacing" textLength="7" x="43.5" y="151.2705">1</text><text fill="#000000" font-family="sans-serif" font-size="13" lengthAdjust="spacing" textLength="267" x="54.5" y="151.2705">request to update personal data (PATCH/user)</text><polygon fill="#181818" points="435.5,183.8242,445.5,187.8242,435.5,191.8242,439.5,187.8242" style="stroke:#181818;stroke-width:1.0;"/><line style="stroke:#181818;stroke-width:1.0;" x1="343.5" x2="441.5" y1="187.8242" y2="187.8242"/><text fill="#000000" font-family="sans-serif" font-size="13" font-weight="bold" lengthAdjust="spacing" textLength="7" x="350.5" y="182.5615">2</text><text fill="#000000" font-family="sans-serif" font-size="13" lengthAdjust="spacing" textLength="74" x="361.5" y="182.5615">updateUser()</text><polygon fill="#181818" points="874.5,215.1152,884.5,219.1152,874.5,223.1152,878.5,219.1152" style="stroke:#181818;stroke-width:1.0;"/><line style="stroke:#181818;stroke-width:1.0;" x1="457.5" x2="880.5" y1="219.1152" y2="219.1152"/><text fill="#000000" font-family="sans-serif" font-size="13" font-weight="bold" lengthAdjust="spacing" textLength="7" x="464.5" y="213.8525">3</text><text fill="#000000" font-family="sans-serif" font-size="13" lengthAdjust="spacing" textLength="399" x="475.5" y="213.8525">updateUser(name, email, dateOfBirth, phoneNumber, GDPRConsent)</text><polygon fill="#181818" points="468.5,246.4063,458.5,250.4063,468.5,254.4063,464.5,250.4063" style="stroke:#181818;stroke-width:1.0;"/><line style="stroke:#181818;stroke-width:1.0;stroke-dasharray:2.0,2.0;" x1="462.5" x2="890.5" y1="250.4063" y2="250.4063"/><text fill="#000000" font-family="sans-serif" font-size="13" font-weight="bold" lengthAdjust="spacing" textLength="7" x="474.5" y="245.1436">4</text><text fill="#000000" font-family="sans-serif" font-size="13" lengthAdjust="spacing" textLength="25" x="485.5" y="245.1436">user</text><polygon fill="#181818" points="961.5,277.6973,971.5,281.6973,961.5,285.6973,965.5,281.6973" style="stroke:#181818;stroke-width:1.0;"/><line style="stroke:#181818;stroke-width:1.0;" x1="457.5" x2="967.5" y1="281.6973" y2="281.6973"/><text fill="#000000" font-family="sans-serif" font-size="13" font-weight="bold" lengthAdjust="spacing" textLength="7" x="464.5" y="276.4346">5</text><text fill="#000000" font-family="sans-serif" font-size="13" lengthAdjust="spacing" textLength="86" x="475.5" y="276.4346">saveUser(user)</text><polygon fill="#181818" points="468.5,308.9883,458.5,312.9883,468.5,316.9883,464.5,312.9883" style="stroke:#181818;stroke-width:1.0;"/><line style="stroke:#181818;stroke-width:1.0;stroke-dasharray:2.0,2.0;" x1="462.5" x2="977.5" y1="312.9883" y2="312.9883"/><text fill="#000000" font-family="sans-serif" font-size="13" font-weight="bold" lengthAdjust="spacing" textLength="7" x="474.5" y="307.7256">6</text><text fill="#000000" font-family="sans-serif" font-size="13" lengthAdjust="spacing" textLength="25" x="485.5" y="307.7256">user</text><polygon fill="#181818" points="354.5,340.2793,344.5,344.2793,354.5,348.2793,350.5,344.2793" style="stroke:#181818;stroke-width:1.0;"/><line style="stroke:#181818;stroke-width:1.0;stroke-dasharray:2.0,2.0;" x1="348.5" x2="451.5" y1="344.2793" y2="344.2793"/><text fill="#000000" font-family="sans-serif" font-size="13" font-weight="bold" lengthAdjust="spacing" textLength="7" x="360.5" y="339.0166">7</text><text fill="#000000" font-family="sans-serif" font-size="13" lengthAdjust="spacing" textLength="25" x="371.5" y="339.0166">user</text><polygon fill="#181818" points="47.5,371.5703,37.5,375.5703,47.5,379.5703,43.5,375.5703" style="stroke:#181818;stroke-width:1.0;"/><line style="stroke:#181818;stroke-width:1.0;stroke-dasharray:2.0,2.0;" x1="41.5" x2="337.5" y1="375.5703" y2="375.5703"/><text fill="#000000" font-family="sans-serif" font-size="13" font-weight="bold" lengthAdjust="spacing" textLength="7" x="53.5" y="370.3076">8</text><text fill="#000000" font-family="sans-serif" font-size="13" lengthAdjust="spacing" textLength="152" x="64.5" y="370.3076">informs operation success</text><!--SRC=[ZP91QiCm44NtEiMGBfg0NTCGA7WHS9suNRKXRWwWA9D6O4kgD0hqzfLb9QNGHPQZ-N_qtqZt9oBZog9e_Tu9Amr9hLgqPocGVDyz2DqN3hyyAe7vGV9Fotl6I5A7i6iVvz2c9gmkJUv9Sq7op0b1grWht-_Hij0Kf2rCjiWFQ2V07NY75kwQULKjwgOfwlMYUbet3JFSaXJIS4KmsGLHhHLPtNN99yXsD_aIJZJTUbTATfDsYqOx6R2-eyk6yZ_VTIK3SDX4vCwNaQCChh16Hq0Ql3aCCeFMQSKx21M7wQRwg5-BmJHZ4JrOGr4c-H1aEcDffdT_pXNlCGFikUooOHo-7v-bfLC6vgGLliN7oU1bjTc69JjKD0ln8BzSCKPEimU-4Xm_ZxF7H17wgl-LN_dYqPWxN_geakgeRUz01r8-_3jmNWXqZh4V]--></g></svg>