<?xml version="1.0" encoding="us-ascii" standalone="no"?><svg xmlns="http://www.w3.org/2000/svg" xmlns:xlink="http://www.w3.org/1999/xlink" contentStyleType="text/css" height="652px" preserveAspectRatio="none" style="width:804px;height:652px;background:#FFFFFF;" version="1.1" viewBox="0 0 804 652" width="804px" zoomAndPan="magnify"><defs><linearGradient id="g4d6q0qijlal40" x1="0%" x2="100%" y1="0%" y2="100%"><stop offset="0%" stop-color="#F2AA4C"/><stop offset="100%" stop-color="#CE4A7E"/></linearGradient></defs><g><text fill="#000000" font-family="sans-serif" font-size="14" font-weight="bold" lengthAdjust="spacing" textLength="138" x="326.25" y="25.1074">US12 Class Diagram</text><!--class UserController--><g id="elem_UserController"><rect codeLine="8" fill="url(#g4d6q0qijlal40)" height="44.6211" id="UserController" rx="2.5" ry="2.5" style="stroke:#181818;stroke-width:0.5;" width="97" x="277.5" y="46.6211"/><text fill="#000000" font-family="sans-serif" font-size="14" lengthAdjust="spacing" textLength="91" x="280.5" y="66.7285">UserController</text><line style="stroke:#181818;stroke-width:0.5;" x1="278.5" x2="373.5" y1="75.2422" y2="75.2422"/><line style="stroke:#181818;stroke-width:0.5;" x1="278.5" x2="373.5" y1="83.2422" y2="83.2422"/></g><!--class UserService--><g id="elem_UserService"><rect codeLine="11" fill="url(#g4d6q0qijlal40)" height="63.2422" id="UserService" rx="2.5" ry="2.5" style="stroke:#181818;stroke-width:0.5;" width="158" x="247" y="170.6211"/><text fill="#000000" font-family="sans-serif" font-size="14" lengthAdjust="spacing" textLength="76" x="288" y="190.7285">UserService</text><line style="stroke:#181818;stroke-width:0.5;" x1="248" x2="404" y1="199.2422" y2="199.2422"/><line style="stroke:#181818;stroke-width:0.5;" x1="248" x2="404" y1="207.2422" y2="207.2422"/><ellipse cx="258" cy="222.0527" fill="#84BE84" rx="3" ry="3" style="stroke:#038048;stroke-width:1.0;"/><text fill="#000000" font-family="sans-serif" font-size="14" lengthAdjust="spacing" textLength="132" x="267" y="226.3496">UpdateReader():void</text></g><!--class UserRepository--><g id="elem_UserRepository"><rect codeLine="15" fill="url(#g4d6q0qijlal40)" height="79.2031" id="UserRepository" rx="2.5" ry="2.5" style="stroke:#181818;stroke-width:0.5;" width="194" x="229" y="312.6211"/><text fill="#000000" font-family="sans-serif" font-size="12" font-style="italic" lengthAdjust="spacing" textLength="61" x="295.5" y="330.5703">&#171;interface&#187;</text><text fill="#000000" font-family="sans-serif" font-size="14" font-style="italic" lengthAdjust="spacing" textLength="98" x="277" y="348.6895">UserRepository</text><line style="stroke:#181818;stroke-width:0.5;" x1="230" x2="422" y1="357.2031" y2="357.2031"/><line style="stroke:#181818;stroke-width:0.5;" x1="230" x2="422" y1="365.2031" y2="365.2031"/><ellipse cx="240" cy="380.0137" fill="#84BE84" rx="3" ry="3" style="stroke:#038048;stroke-width:1.0;"/><text fill="#000000" font-family="sans-serif" font-size="14" lengthAdjust="spacing" textLength="168" x="249" y="384.3105">saveUser(user obj): Result</text></g><!--class User--><g id="elem_User"><rect codeLine="20" fill="url(#g4d6q0qijlal40)" height="174.9688" id="User" rx="2.5" ry="2.5" style="stroke:#181818;stroke-width:0.5;" width="638" x="7" y="470.6211"/><text fill="#000000" font-family="sans-serif" font-size="14" lengthAdjust="spacing" textLength="29" x="311.5" y="490.7285">User</text><line style="stroke:#181818;stroke-width:0.5;" x1="8" x2="644" y1="499.2422" y2="499.2422"/><rect fill="none" height="6" style="stroke:#C82930;stroke-width:1.0;" width="6" x="15" y="511.0527"/><text fill="#000000" font-family="sans-serif" font-size="14" lengthAdjust="spacing" textLength="35" x="27" y="518.3496">name</text><rect fill="none" height="6" style="stroke:#C82930;stroke-width:1.0;" width="6" x="15" y="529.6738"/><text fill="#000000" font-family="sans-serif" font-size="14" lengthAdjust="spacing" textLength="33" x="27" y="536.9707">email</text><rect fill="none" height="6" style="stroke:#C82930;stroke-width:1.0;" width="6" x="15" y="548.2949"/><text fill="#000000" font-family="sans-serif" font-size="14" lengthAdjust="spacing" textLength="72" x="27" y="555.5918">dateOfBirth</text><rect fill="none" height="6" style="stroke:#C82930;stroke-width:1.0;" width="6" x="15" y="566.916"/><text fill="#000000" font-family="sans-serif" font-size="14" lengthAdjust="spacing" textLength="89" x="27" y="574.2129">phoneNumber</text><rect fill="none" height="6" style="stroke:#C82930;stroke-width:1.0;" width="6" x="15" y="585.5371"/><text fill="#000000" font-family="sans-serif" font-size="14" lengthAdjust="spacing" textLength="40" x="27" y="592.834">GDPR</text><rect fill="none" height="6" style="stroke:#C82930;stroke-width:1.0;" width="6" x="15" y="604.1582"/><text fill="#000000" font-family="sans-serif" font-size="14" lengthAdjust="spacing" textLength="24" x="27" y="611.4551">role</text><line style="stroke:#181818;stroke-width:0.5;" x1="8" x2="644" y1="618.9688" y2="618.9688"/><ellipse cx="18" cy="633.7793" fill="#84BE84" rx="3" ry="3" style="stroke:#038048;stroke-width:1.0;"/><text fill="#000000" font-family="sans-serif" font-size="14" lengthAdjust="spacing" textLength="612" x="27" y="638.0762">updateUser(string name, string email, string dateOfBirth, int phoneNumber, string GDPRConsent)</text></g><!--class Role--><g id="elem_Role"><rect codeLine="30" fill="url(#g4d6q0qijlal40)" height="81.8633" id="Role" rx="2.5" ry="2.5" style="stroke:#181818;stroke-width:0.5;" width="77" x="720.5" y="517.1211"/><text fill="#000000" font-family="sans-serif" font-size="14" lengthAdjust="spacing" textLength="29" x="744.5" y="537.2285">Role</text><line style="stroke:#181818;stroke-width:0.5;" x1="721.5" x2="796.5" y1="545.7422" y2="545.7422"/><rect fill="none" height="6" style="stroke:#C82930;stroke-width:1.0;" width="6" x="728.5" y="557.5527"/><text fill="#000000" font-family="sans-serif" font-size="14" lengthAdjust="spacing" textLength="51" x="740.5" y="564.8496">librarian</text><rect fill="none" height="6" style="stroke:#C82930;stroke-width:1.0;" width="6" x="728.5" y="576.1738"/><text fill="#000000" font-family="sans-serif" font-size="14" lengthAdjust="spacing" textLength="42" x="740.5" y="583.4707">reader</text><line style="stroke:#181818;stroke-width:0.5;" x1="721.5" x2="796.5" y1="590.9844" y2="590.9844"/></g><!--link UserController to UserService--><g id="link_UserController_UserService"><path codeLine="36" d="M326,91.7511 C326,113.1211 326,140.0111 326,164.1411 " fill="none" id="UserController-to-UserService" style="stroke:#181818;stroke-width:1.0;stroke-dasharray:7.0,7.0;"/><polygon fill="#181818" points="326,170.1411,330,161.1411,326,165.1411,322,161.1411,326,170.1411" style="stroke:#181818;stroke-width:1.0;"/><text fill="#000000" font-family="sans-serif" font-size="13" lengthAdjust="spacing" textLength="28" x="327" y="136.6494">uses</text></g><!--link UserService to UserRepository--><g id="link_UserService_UserRepository"><path codeLine="37" d="M326,233.7911 C326,256.6511 326,282.0311 326,306.5811 " fill="none" id="UserService-to-UserRepository" style="stroke:#181818;stroke-width:1.0;stroke-dasharray:7.0,7.0;"/><polygon fill="#181818" points="326,312.5811,330,303.5811,326,307.5811,322,303.5811,326,312.5811" style="stroke:#181818;stroke-width:1.0;"/><text fill="#000000" font-family="sans-serif" font-size="13" lengthAdjust="spacing" textLength="28" x="327" y="278.6494">uses</text></g><!--link UserRepository to User--><g id="link_UserRepository_User"><path codeLine="38" d="M326,391.9711 C326,414.1711 326,436.9411 326,464.2411 " fill="none" id="UserRepository-to-User" style="stroke:#181818;stroke-width:1.0;"/><polygon fill="#181818" points="326,470.2411,330,461.2411,326,465.2411,322,461.2411,326,470.2411" style="stroke:#181818;stroke-width:1.0;"/><text fill="#000000" font-family="sans-serif" font-size="13" lengthAdjust="spacing" textLength="48" x="327" y="436.6494">Records</text><text fill="#000000" font-family="sans-serif" font-size="13" lengthAdjust="spacing" textLength="7" x="318.4422" y="413.7122">1</text><text fill="#000000" font-family="sans-serif" font-size="13" lengthAdjust="spacing" textLength="20" x="305.1719" y="459.3013">0..*</text></g><!--link User to Role--><g id="link_User_Role"><path codeLine="39" d="M645.23,558.1211 C674.52,558.1211 700.53,558.1211 720.27,558.1211 " fill="none" id="User-Role" style="stroke:#181818;stroke-width:1.0;"/><polygon fill="#000000" points="672.25,545.7666,663.2049,542.8277,663.2049,548.7055,672.25,545.7666" style="stroke:#000000;stroke-width:1.0;"/><text fill="#000000" font-family="sans-serif" font-size="13" lengthAdjust="spacing" textLength="26" x="676.25" y="551.1494">have</text><text fill="#000000" font-family="sans-serif" font-size="13" lengthAdjust="spacing" textLength="7" x="652.794" y="554.954">1</text><text fill="#000000" font-family="sans-serif" font-size="13" lengthAdjust="spacing" textLength="7" x="705.4838" y="553.6217">1</text></g><!--SRC=[RL7HQi8m57tFLrpSmtIQEcKmA59mQlUsZOeV4DkhpKYRSfCAG_RlIwBJRlWI4dBEkUUUSrzQsvXuF5wtMvEJRApKzHhf87EqRQMYN5VZN0bZU275daJ5M2aBX5nIhf0nAwr2sAmdKrXu62n_OIpGO6EG5hgsf9L2WhjqEfy_BT9ql5WzpPzNQGf7zjq5dwVVG1xPSDCKmcA6ea3g3-A3beLdozeYxOHZUOKC6ssarVG5izdbAqbkInfnGC_gj-u0lVqSn92XQPNroXrZD-cy5XKoZfMGYd5lxdtt8icMZ3Ubhl6jhRP8ZBykFpB6NGZ8XcrO8imqbcIz1oyoWlCZQ5rU7SaHk6MW8ti1UNKNii7Q3gvfPcxQxS2vabiI94NjF8Kmmwv_kugYf5j8xF8nhDkG1_mB_0hgbD2Rz83pfFSOHG-zGF09vvgA4_G48BalBG_tO3o614hN3Vi1]--></g></svg>