<?xml version="1.0" encoding="us-ascii" standalone="no"?><svg xmlns="http://www.w3.org/2000/svg" xmlns:xlink="http://www.w3.org/1999/xlink" contentStyleType="text/css" height="652px" preserveAspectRatio="none" style="width:393px;height:652px;background:#FFFFFF;" version="1.1" viewBox="0 0 393 652" width="393px" zoomAndPan="magnify"><defs><linearGradient id="gggie0j3urttm0" x1="0%" x2="100%" y1="0%" y2="100%"><stop offset="0%" stop-color="#F2AA4C"/><stop offset="100%" stop-color="#CE4A7E"/></linearGradient></defs><g><text fill="#000000" font-family="sans-serif" font-size="14" font-weight="bold" lengthAdjust="spacing" textLength="138" x="120.5" y="25.1074">US13 Class Diagram</text><!--class UserController--><g id="elem_UserController"><rect codeLine="10" fill="url(#gggie0j3urttm0)" height="44.6211" id="UserController" rx="2.5" ry="2.5" style="stroke:#181818;stroke-width:0.5;" width="97" x="127" y="46.6211"/><text fill="#000000" font-family="sans-serif" font-size="14" lengthAdjust="spacing" textLength="91" x="130" y="66.7285">UserController</text><line style="stroke:#181818;stroke-width:0.5;" x1="128" x2="223" y1="75.2422" y2="75.2422"/><line style="stroke:#181818;stroke-width:0.5;" x1="128" x2="223" y1="83.2422" y2="83.2422"/></g><!--class UserService--><g id="elem_UserService"><rect codeLine="13" fill="url(#gggie0j3urttm0)" height="63.2422" id="UserService" rx="2.5" ry="2.5" style="stroke:#181818;stroke-width:0.5;" width="337" x="7" y="170.6211"/><text fill="#000000" font-family="sans-serif" font-size="14" lengthAdjust="spacing" textLength="76" x="137.5" y="190.7285">UserService</text><line style="stroke:#181818;stroke-width:0.5;" x1="8" x2="343" y1="199.2422" y2="199.2422"/><line style="stroke:#181818;stroke-width:0.5;" x1="8" x2="343" y1="207.2422" y2="207.2422"/><ellipse cx="18" cy="222.0527" fill="#84BE84" rx="3" ry="3" style="stroke:#038048;stroke-width:1.0;"/><text fill="#000000" font-family="sans-serif" font-size="14" lengthAdjust="spacing" textLength="311" x="27" y="226.3496">getUserByReaderNumber(int readerNumber):void</text></g><!--class UserRepository--><g id="elem_UserRepository"><rect codeLine="17" fill="url(#gggie0j3urttm0)" height="97.8242" id="UserRepository" rx="2.5" ry="2.5" style="stroke:#181818;stroke-width:0.5;" width="307" x="22" y="312.6211"/><text fill="#000000" font-family="sans-serif" font-size="12" font-style="italic" lengthAdjust="spacing" textLength="61" x="145" y="330.5703">&#171;interface&#187;</text><text fill="#000000" font-family="sans-serif" font-size="14" font-style="italic" lengthAdjust="spacing" textLength="98" x="126.5" y="348.6895">UserRepository</text><line style="stroke:#181818;stroke-width:0.5;" x1="23" x2="328" y1="357.2031" y2="357.2031"/><line style="stroke:#181818;stroke-width:0.5;" x1="23" x2="328" y1="365.2031" y2="365.2031"/><ellipse cx="33" cy="380.0137" fill="#84BE84" rx="3" ry="3" style="stroke:#038048;stroke-width:1.0;"/><text fill="#000000" font-family="sans-serif" font-size="14" lengthAdjust="spacing" textLength="281" x="42" y="384.3105">getUserByReaderNumber(int readerNumber)</text><ellipse cx="33" cy="398.6348" fill="#84BE84" rx="3" ry="3" style="stroke:#038048;stroke-width:1.0;"/><text fill="#000000" font-family="sans-serif" font-size="14" lengthAdjust="spacing" textLength="146" x="42" y="402.9316">getUserDetails():Result</text></g><!--class User--><g id="elem_User"><rect codeLine="23" fill="url(#gggie0j3urttm0)" height="156.3477" id="User" rx="2.5" ry="2.5" style="stroke:#181818;stroke-width:0.5;" width="115" x="118" y="489.6211"/><text fill="#000000" font-family="sans-serif" font-size="14" lengthAdjust="spacing" textLength="29" x="161" y="509.7285">User</text><line style="stroke:#181818;stroke-width:0.5;" x1="119" x2="232" y1="518.2422" y2="518.2422"/><rect fill="none" height="6" style="stroke:#C82930;stroke-width:1.0;" width="6" x="126" y="530.0527"/><text fill="#000000" font-family="sans-serif" font-size="14" lengthAdjust="spacing" textLength="35" x="138" y="537.3496">name</text><rect fill="none" height="6" style="stroke:#C82930;stroke-width:1.0;" width="6" x="126" y="548.6738"/><text fill="#000000" font-family="sans-serif" font-size="14" lengthAdjust="spacing" textLength="33" x="138" y="555.9707">email</text><rect fill="none" height="6" style="stroke:#C82930;stroke-width:1.0;" width="6" x="126" y="567.2949"/><text fill="#000000" font-family="sans-serif" font-size="14" lengthAdjust="spacing" textLength="72" x="138" y="574.5918">dateOfBirth</text><rect fill="none" height="6" style="stroke:#C82930;stroke-width:1.0;" width="6" x="126" y="585.916"/><text fill="#000000" font-family="sans-serif" font-size="14" lengthAdjust="spacing" textLength="89" x="138" y="593.2129">phoneNumber</text><rect fill="none" height="6" style="stroke:#C82930;stroke-width:1.0;" width="6" x="126" y="604.5371"/><text fill="#000000" font-family="sans-serif" font-size="14" lengthAdjust="spacing" textLength="40" x="138" y="611.834">GDPR</text><rect fill="none" height="6" style="stroke:#C82930;stroke-width:1.0;" width="6" x="126" y="623.1582"/><text fill="#000000" font-family="sans-serif" font-size="14" lengthAdjust="spacing" textLength="24" x="138" y="630.4551">role</text><line style="stroke:#181818;stroke-width:0.5;" x1="119" x2="232" y1="637.9688" y2="637.9688"/></g><!--class Role--><g id="elem_Role"><rect codeLine="32" fill="url(#gggie0j3urttm0)" height="81.8633" id="Role" rx="2.5" ry="2.5" style="stroke:#181818;stroke-width:0.5;" width="77" x="309" y="526.6211"/><text fill="#000000" font-family="sans-serif" font-size="14" lengthAdjust="spacing" textLength="29" x="333" y="546.7285">Role</text><line style="stroke:#181818;stroke-width:0.5;" x1="310" x2="385" y1="555.2422" y2="555.2422"/><rect fill="none" height="6" style="stroke:#C82930;stroke-width:1.0;" width="6" x="317" y="567.0527"/><text fill="#000000" font-family="sans-serif" font-size="14" lengthAdjust="spacing" textLength="51" x="329" y="574.3496">librarian</text><rect fill="none" height="6" style="stroke:#C82930;stroke-width:1.0;" width="6" x="317" y="585.6738"/><text fill="#000000" font-family="sans-serif" font-size="14" lengthAdjust="spacing" textLength="42" x="329" y="592.9707">reader</text><line style="stroke:#181818;stroke-width:0.5;" x1="310" x2="385" y1="600.4844" y2="600.4844"/></g><!--link UserController to UserService--><g id="link_UserController_UserService"><path codeLine="39" d="M175.5,91.7511 C175.5,113.1211 175.5,140.0111 175.5,164.1411 " fill="none" id="UserController-to-UserService" style="stroke:#181818;stroke-width:1.0;stroke-dasharray:7.0,7.0;"/><polygon fill="#181818" points="175.5,170.1411,179.5,161.1411,175.5,165.1411,171.5,161.1411,175.5,170.1411" style="stroke:#181818;stroke-width:1.0;"/><text fill="#000000" font-family="sans-serif" font-size="13" lengthAdjust="spacing" textLength="28" x="176.5" y="136.6494">uses</text></g><!--link UserService to UserRepository--><g id="link_UserService_UserRepository"><path codeLine="40" d="M175.5,233.8611 C175.5,256.2411 175.5,280.9911 175.5,306.5911 " fill="none" id="UserService-to-UserRepository" style="stroke:#181818;stroke-width:1.0;stroke-dasharray:7.0,7.0;"/><polygon fill="#181818" points="175.5,312.5911,179.5,303.5911,175.5,307.5911,171.5,303.5911,175.5,312.5911" style="stroke:#181818;stroke-width:1.0;"/><text fill="#000000" font-family="sans-serif" font-size="13" lengthAdjust="spacing" textLength="28" x="176.5" y="278.6494">uses</text></g><!--link UserRepository to User--><g id="link_UserRepository_User"><path codeLine="41" d="M175.5,410.7111 C175.5,434.1511 175.5,456.9211 175.5,483.3411 " fill="none" id="UserRepository-to-User" style="stroke:#181818;stroke-width:1.0;"/><polygon fill="#181818" points="175.5,489.3411,179.5,480.3411,175.5,484.3411,171.5,480.3411,175.5,489.3411" style="stroke:#181818;stroke-width:1.0;"/><text fill="#000000" font-family="sans-serif" font-size="13" lengthAdjust="spacing" textLength="48" x="176.5" y="455.6494">Records</text><text fill="#000000" font-family="sans-serif" font-size="13" lengthAdjust="spacing" textLength="7" x="168.0297" y="432.5094">1</text><text fill="#000000" font-family="sans-serif" font-size="13" lengthAdjust="spacing" textLength="20" x="154.5781" y="478.3668">0..*</text></g><!--link User to Role--><g id="link_User_Role"><path codeLine="42" d="M233.25,567.6211 C258.14,567.6211 286.57,567.6211 308.85,567.6211 " fill="none" id="User-Role" style="stroke:#181818;stroke-width:1.0;"/><polygon fill="#000000" points="260.5,555.2666,251.4549,552.3277,251.4549,558.2055,260.5,555.2666" style="stroke:#000000;stroke-width:1.0;"/><text fill="#000000" font-family="sans-serif" font-size="13" lengthAdjust="spacing" textLength="26" x="264.5" y="560.6494">have</text><text fill="#000000" font-family="sans-serif" font-size="13" lengthAdjust="spacing" textLength="7" x="241.0977" y="563.5567">1</text><text fill="#000000" font-family="sans-serif" font-size="13" lengthAdjust="spacing" textLength="7" x="294.0786" y="563.1217">1</text></g><!--SRC=[fP71Qi9048RlynIBFLHRDgcjK0WIq6XwQql41rYJqIniic5s8eZqtPj4qLYyzRQxyyty__xpc3DNBl3zLRrnAUcAjIrNI7kT8jU5yL9R-AbHpibCgnsf0Y3N6OfKKseGW3KR5ElL-4r4BIOMP-o60kXcYBL3Ycp9P8r14W_nwsmsYUBOZvQJsVioZiKHVlhmsSeTyWZFE-IMcHyIL1dIPrria8QwP46zXr6mjpfhnpOLfArgnhLj2LRMQRPq4DFffHI6_zAwW0jafOqRZe84NMsurU_zwww8B5M18B5eEa5cYl5hEzV4ESWgjoMUD41-BBuJa4s6U0qhQMxtyvH6RqYHLcNJqtdjlC3jBZmlx0SUr0uTz3VG0dzokqAzB0VZWP0o7BnutjEWQmX4Wgcbx8IU0DAxd6Ltxfm78XIvskCl]--></g></svg>