<svg xmlns="http://www.w3.org/2000/svg" xmlns:xlink="http://www.w3.org/1999/xlink" contentStyleType="text/css" height="641px" preserveAspectRatio="none" style="width:1427px;height:641px;background:#DDDDDD;" version="1.1" viewBox="0 0 1427 641" width="1427px" zoomAndPan="magnify"><defs/><g><rect fill="#DDDDDD" height="641" style="stroke:none;stroke-width:1.0;" width="1427" x="0" y="0"/><rect fill="#ADD8E6" height="629.4805" rx="3.5" ry="3.5" style="stroke:#181818;stroke-width:0.5;" width="120.041" x="1301.0342" y="6"/><text fill="#000000" font-family="sans-serif" font-size="13" font-weight="bold" lengthAdjust="spacing" textLength="100.439" x="1310.8352" y="20.0283">Message Broker</text><rect fill="#FFFFFF" height="486.6563" style="stroke:#454645;stroke-width:1.0;" width="10" x="140.8145" y="94.2031"/><rect fill="#FFFFFF" height="424.0742" style="stroke:#454645;stroke-width:1.0;" width="10" x="248.0591" y="125.4941"/><rect fill="#FFFFFF" height="142.4551" style="stroke:#454645;stroke-width:1.0;" width="10" x="448.688" y="156.7852"/><rect fill="#FFFFFF" height="31.291" style="stroke:#454645;stroke-width:1.0;" width="10" x="690.4814" y="188.0762"/><rect fill="#FFFFFF" height="31.291" style="stroke:#454645;stroke-width:1.0;" width="10" x="690.4814" y="330.5313"/><rect fill="#FFFFFF" height="321.9102" style="stroke:#454645;stroke-width:1.0;" width="10" x="786.0674" y="267.9492"/><rect fill="#FFFFFF" height="93.873" style="stroke:#454645;stroke-width:1.0;" width="10" x="877.7603" y="424.4043"/><rect fill="#FFFFFF" height="31.291" style="stroke:#454645;stroke-width:1.0;" width="10" x="1356.0547" y="455.6953"/><line style="stroke:#454645;stroke-width:0.5;stroke-dasharray:5.0,5.0;" x1="145.6904" x2="145.6904" y1="60.9121" y2="598.8594"/><line style="stroke:#454645;stroke-width:0.5;stroke-dasharray:5.0,5.0;" x1="252.9385" x2="252.9385" y1="60.9121" y2="598.8594"/><line style="stroke:#454645;stroke-width:0.5;stroke-dasharray:5.0,5.0;" x1="453.4502" x2="453.4502" y1="60.9121" y2="598.8594"/><line style="stroke:#454645;stroke-width:0.5;stroke-dasharray:5.0,5.0;" x1="695.2368" x2="695.2368" y1="60.9121" y2="598.8594"/><line style="stroke:#454645;stroke-width:0.5;stroke-dasharray:5.0,5.0;" x1="790.7261" x2="790.7261" y1="60.9121" y2="598.8594"/><line style="stroke:#454645;stroke-width:0.5;stroke-dasharray:5.0,5.0;" x1="882.4087" x2="882.4087" y1="60.9121" y2="598.8594"/><line style="stroke:#454645;stroke-width:0.5;stroke-dasharray:5.0,5.0;" x1="1361.0342" x2="1361.0342" y1="60.9121" y2="598.8594"/><rect fill="#FF6F61" height="32.6211" rx="3.5" ry="3.5" style="stroke:#454645;stroke-width:1.5;" width="104.248" x="93.6904" y="27.291"/><text fill="#FFFFFF" font-family="sans-serif" font-size="14" lengthAdjust="spacing" textLength="90.248" x="100.6904" y="49.3984">UserController</text><rect fill="#FF6F61" height="32.6211" rx="3.5" ry="3.5" style="stroke:#454645;stroke-width:1.5;" width="104.248" x="93.6904" y="597.8594"/><text fill="#FFFFFF" font-family="sans-serif" font-size="14" lengthAdjust="spacing" textLength="90.248" x="100.6904" y="619.9668">UserController</text><rect fill="#FF6F61" height="32.6211" rx="3.5" ry="3.5" style="stroke:#454645;stroke-width:1.5;" width="90.2412" x="207.9385" y="27.291"/><text fill="#FFFFFF" font-family="sans-serif" font-size="14" lengthAdjust="spacing" textLength="76.2412" x="214.9385" y="49.3984">UserService</text><rect fill="#FF6F61" height="32.6211" rx="3.5" ry="3.5" style="stroke:#454645;stroke-width:1.5;" width="90.2412" x="207.9385" y="597.8594"/><text fill="#FFFFFF" font-family="sans-serif" font-size="14" lengthAdjust="spacing" textLength="76.2412" x="214.9385" y="619.9668">UserService</text><rect fill="#FF6F61" height="32.6211" rx="3.5" ry="3.5" style="stroke:#454645;stroke-width:1.5;" width="110.4756" x="398.4502" y="27.291"/><text fill="#FFFFFF" font-family="sans-serif" font-size="14" lengthAdjust="spacing" textLength="96.4756" x="405.4502" y="49.3984">UserRepository</text><rect fill="#FF6F61" height="32.6211" rx="3.5" ry="3.5" style="stroke:#454645;stroke-width:1.5;" width="110.4756" x="398.4502" y="597.8594"/><text fill="#FFFFFF" font-family="sans-serif" font-size="14" lengthAdjust="spacing" textLength="96.4756" x="405.4502" y="619.9668">UserRepository</text><rect fill="#FF6F61" height="32.6211" rx="3.5" ry="3.5" style="stroke:#454645;stroke-width:1.5;" width="96.4893" x="647.2368" y="27.291"/><text fill="#FFFFFF" font-family="sans-serif" font-size="14" lengthAdjust="spacing" textLength="82.4893" x="654.2368" y="49.3984">dbRepository</text><rect fill="#FF6F61" height="32.6211" rx="3.5" ry="3.5" style="stroke:#454645;stroke-width:1.5;" width="96.4893" x="647.2368" y="597.8594"/><text fill="#FFFFFF" font-family="sans-serif" font-size="14" lengthAdjust="spacing" textLength="82.4893" x="654.2368" y="619.9668">dbRepository</text><rect fill="#FF6F61" height="32.6211" rx="3.5" ry="3.5" style="stroke:#454645;stroke-width:1.5;" width="74.6826" x="753.7261" y="27.291"/><text fill="#FFFFFF" font-family="sans-serif" font-size="14" lengthAdjust="spacing" textLength="60.6826" x="760.7261" y="49.3984">user:User</text><rect fill="#FF6F61" height="32.6211" rx="3.5" ry="3.5" style="stroke:#454645;stroke-width:1.5;" width="74.6826" x="753.7261" y="597.8594"/><text fill="#FFFFFF" font-family="sans-serif" font-size="14" lengthAdjust="spacing" textLength="60.6826" x="760.7261" y="619.9668">user:User</text><rect fill="#FF6F61" height="32.6211" rx="3.5" ry="3.5" style="stroke:#454645;stroke-width:1.5;" width="88.7031" x="838.4087" y="27.291"/><text fill="#FFFFFF" font-family="sans-serif" font-size="14" lengthAdjust="spacing" textLength="74.7031" x="845.4087" y="49.3984">UserSender</text><rect fill="#FF6F61" height="32.6211" rx="3.5" ry="3.5" style="stroke:#454645;stroke-width:1.5;" width="88.7031" x="838.4087" y="597.8594"/><text fill="#FFFFFF" font-family="sans-serif" font-size="14" lengthAdjust="spacing" textLength="74.7031" x="845.4087" y="619.9668">UserSender</text><rect fill="#FF6F61" height="32.6211" rx="3.5" ry="3.5" style="stroke:#454645;stroke-width:1.5;" width="112.041" x="1305.0342" y="27.291"/><text fill="#FFFFFF" font-family="sans-serif" font-size="14" lengthAdjust="spacing" textLength="98.041" x="1312.0342" y="49.3984">MessageBroker</text><rect fill="#FF6F61" height="32.6211" rx="3.5" ry="3.5" style="stroke:#454645;stroke-width:1.5;" width="112.041" x="1305.0342" y="597.8594"/><text fill="#FFFFFF" font-family="sans-serif" font-size="14" lengthAdjust="spacing" textLength="98.041" x="1312.0342" y="619.9668">MessageBroker</text><rect fill="#FFFFFF" height="486.6563" style="stroke:#454645;stroke-width:1.0;" width="10" x="140.8145" y="94.2031"/><rect fill="#FFFFFF" height="424.0742" style="stroke:#454645;stroke-width:1.0;" width="10" x="248.0591" y="125.4941"/><rect fill="#FFFFFF" height="142.4551" style="stroke:#454645;stroke-width:1.0;" width="10" x="448.688" y="156.7852"/><rect fill="#FFFFFF" height="31.291" style="stroke:#454645;stroke-width:1.0;" width="10" x="690.4814" y="188.0762"/><rect fill="#FFFFFF" height="31.291" style="stroke:#454645;stroke-width:1.0;" width="10" x="690.4814" y="330.5313"/><rect fill="#FFFFFF" height="321.9102" style="stroke:#454645;stroke-width:1.0;" width="10" x="786.0674" y="267.9492"/><rect fill="#FFFFFF" height="93.873" style="stroke:#454645;stroke-width:1.0;" width="10" x="877.7603" y="424.4043"/><rect fill="#FFFFFF" height="31.291" style="stroke:#454645;stroke-width:1.0;" width="10" x="1356.0547" y="455.6953"/><ellipse cx="7.5" cy="93.4531" fill="#000000" rx="4" ry="4" style="stroke:#454645;stroke-width:1.5;"/><polygon fill="#454645" points="128.8145,90.2031,138.8145,94.2031,128.8145,98.2031,132.8145,94.2031" style="stroke:#454645;stroke-width:1.0;"/><line style="stroke:#454645;stroke-width:1.0;" x1="12" x2="134.8145" y1="94.2031" y2="94.2031"/><text fill="#000000" font-family="sans-serif" font-size="13" font-weight="bold" lengthAdjust="spacing" textLength="7.23" x="15" y="88.9404">1</text><text fill="#000000" font-family="sans-serif" font-size="13" lengthAdjust="spacing" textLength="102.5845" x="26.23" y="88.9404">POST/createUser</text><polygon fill="#454645" points="236.0591,121.4941,246.0591,125.4941,236.0591,129.4941,240.0591,125.4941" style="stroke:#454645;stroke-width:1.0;"/><line style="stroke:#454645;stroke-width:1.0;" x1="150.8145" x2="242.0591" y1="125.4941" y2="125.4941"/><text fill="#000000" font-family="sans-serif" font-size="13" font-weight="bold" lengthAdjust="spacing" textLength="7.23" x="157.8145" y="120.2314">2</text><text fill="#000000" font-family="sans-serif" font-size="13" lengthAdjust="spacing" textLength="36.1309" x="169.0444" y="120.2314">create</text><polygon fill="#454645" points="436.688,152.7852,446.688,156.7852,436.688,160.7852,440.688,156.7852" style="stroke:#454645;stroke-width:1.0;"/><line style="stroke:#454645;stroke-width:1.0;" x1="258.0591" x2="442.688" y1="156.7852" y2="156.7852"/><text fill="#000000" font-family="sans-serif" font-size="13" font-weight="bold" lengthAdjust="spacing" textLength="7.23" x="265.0591" y="151.5225">3</text><text fill="#000000" font-family="sans-serif" font-size="13" lengthAdjust="spacing" textLength="160.3989" x="276.2891" y="151.5225">create(resource, username)</text><polygon fill="#454645" points="678.4814,184.0762,688.4814,188.0762,678.4814,192.0762,682.4814,188.0762" style="stroke:#454645;stroke-width:1.0;"/><line style="stroke:#454645;stroke-width:1.0;" x1="458.688" x2="684.4814" y1="188.0762" y2="188.0762"/><text fill="#000000" font-family="sans-serif" font-size="13" font-weight="bold" lengthAdjust="spacing" textLength="7.23" x="465.688" y="182.8135">4</text><text fill="#000000" font-family="sans-serif" font-size="13" lengthAdjust="spacing" textLength="201.5635" x="476.918" y="182.8135">findByEmail(username).isPresent()</text><polygon fill="#454645" points="469.688,215.3672,459.688,219.3672,469.688,223.3672,465.688,219.3672" style="stroke:#454645;stroke-width:1.0;"/><line style="stroke:#454645;stroke-width:1.0;stroke-dasharray:2.0,2.0;" x1="463.688" x2="694.4814" y1="219.3672" y2="219.3672"/><text fill="#000000" font-family="sans-serif" font-size="13" font-weight="bold" lengthAdjust="spacing" textLength="7.23" x="475.688" y="214.1045">5</text><text fill="#000000" font-family="sans-serif" font-size="13" lengthAdjust="spacing" textLength="20.2363" x="486.918" y="214.1045">null</text><polygon fill="#454645" points="774.0674,263.9492,784.0674,267.9492,774.0674,271.9492,778.0674,267.9492" style="stroke:#454645;stroke-width:1.0;"/><line style="stroke:#454645;stroke-width:1.0;" x1="458.688" x2="780.0674" y1="267.9492" y2="267.9492"/><text fill="#000000" font-family="sans-serif" font-size="13" font-weight="bold" lengthAdjust="spacing" textLength="7.23" x="465.688" y="254.041">6</text><text fill="#000000" font-family="sans-serif" font-size="13" lengthAdjust="spacing" textLength="230.4771" x="476.918" y="245.3955">User(username,password, name, email,</text><text fill="#000000" font-family="sans-serif" font-size="13" lengthAdjust="spacing" textLength="237.0469" x="480.5298" y="262.6865">role, date_of_birth, phone_number, gdpr)</text><polygon fill="#454645" points="269.0591,295.2402,259.0591,299.2402,269.0591,303.2402,265.0591,299.2402" style="stroke:#454645;stroke-width:1.0;"/><line style="stroke:#454645;stroke-width:1.0;stroke-dasharray:2.0,2.0;" x1="263.0591" x2="452.688" y1="299.2402" y2="299.2402"/><text fill="#000000" font-family="sans-serif" font-size="13" font-weight="bold" lengthAdjust="spacing" textLength="7.23" x="275.0591" y="293.9775">7</text><text fill="#000000" font-family="sans-serif" font-size="13" lengthAdjust="spacing" textLength="3.6118" x="286.2891" y="293.9775">&#160;</text><polygon fill="#454645" points="678.4814,326.5313,688.4814,330.5313,678.4814,334.5313,682.4814,330.5313" style="stroke:#454645;stroke-width:1.0;"/><line style="stroke:#454645;stroke-width:1.0;" x1="453.688" x2="684.4814" y1="330.5313" y2="330.5313"/><text fill="#000000" font-family="sans-serif" font-size="13" font-weight="bold" lengthAdjust="spacing" textLength="7.23" x="460.688" y="325.2686">8</text><text fill="#000000" font-family="sans-serif" font-size="13" lengthAdjust="spacing" textLength="61.4072" x="471.918" y="325.2686">save(user)</text><polygon fill="#454645" points="464.688,357.8223,454.688,361.8223,464.688,365.8223,460.688,361.8223" style="stroke:#454645;stroke-width:1.0;"/><line style="stroke:#454645;stroke-width:1.0;stroke-dasharray:2.0,2.0;" x1="458.688" x2="694.4814" y1="361.8223" y2="361.8223"/><text fill="#000000" font-family="sans-serif" font-size="13" font-weight="bold" lengthAdjust="spacing" textLength="7.23" x="470.688" y="356.5596">9</text><text fill="#000000" font-family="sans-serif" font-size="13" lengthAdjust="spacing" textLength="3.6118" x="481.918" y="356.5596">&#160;</text><polygon fill="#454645" points="269.0591,389.1133,259.0591,393.1133,269.0591,397.1133,265.0591,393.1133" style="stroke:#454645;stroke-width:1.0;"/><line style="stroke:#454645;stroke-width:1.0;stroke-dasharray:2.0,2.0;" x1="263.0591" x2="452.688" y1="393.1133" y2="393.1133"/><text fill="#000000" font-family="sans-serif" font-size="13" font-weight="bold" lengthAdjust="spacing" textLength="14.46" x="275.0591" y="387.8506">10</text><text fill="#000000" font-family="sans-serif" font-size="13" lengthAdjust="spacing" textLength="3.6118" x="293.519" y="387.8506">&#160;</text><polygon fill="#454645" points="865.7603,420.4043,875.7603,424.4043,865.7603,428.4043,869.7603,424.4043" style="stroke:#454645;stroke-width:1.0;"/><line style="stroke:#454645;stroke-width:1.0;" x1="258.0591" x2="871.7603" y1="424.4043" y2="424.4043"/><text fill="#000000" font-family="sans-serif" font-size="13" font-weight="bold" lengthAdjust="spacing" textLength="14.46" x="265.0591" y="419.1416">11</text><text fill="#000000" font-family="sans-serif" font-size="13" lengthAdjust="spacing" textLength="135.8335" x="283.519" y="419.1416">sendCreatedUser(user)</text><polygon fill="#454645" points="1344.0547,451.6953,1354.0547,455.6953,1344.0547,459.6953,1348.0547,455.6953" style="stroke:#454645;stroke-width:1.0;"/><line style="stroke:#454645;stroke-width:1.0;" x1="887.7603" x2="1350.0547" y1="455.6953" y2="455.6953"/><text fill="#000000" font-family="sans-serif" font-size="13" font-weight="bold" lengthAdjust="spacing" textLength="14.46" x="894.7603" y="450.4326">12</text><text fill="#000000" font-family="sans-serif" font-size="13" lengthAdjust="spacing" textLength="430.8345" x="913.2202" y="450.4326">convertAndSend(topic.getName(), "user.created."+ user.getEmail(), entity);</text><polygon fill="#454645" points="898.7603,482.9863,888.7603,486.9863,898.7603,490.9863,894.7603,486.9863" style="stroke:#454645;stroke-width:1.0;"/><line style="stroke:#454645;stroke-width:1.0;stroke-dasharray:2.0,2.0;" x1="892.7603" x2="1360.0547" y1="486.9863" y2="486.9863"/><text fill="#000000" font-family="sans-serif" font-size="13" font-weight="bold" lengthAdjust="spacing" textLength="14.46" x="904.7603" y="481.7236">13</text><text fill="#000000" font-family="sans-serif" font-size="13" lengthAdjust="spacing" textLength="3.6118" x="923.2202" y="481.7236">&#160;</text><polygon fill="#454645" points="269.0591,514.2773,259.0591,518.2773,269.0591,522.2773,265.0591,518.2773" style="stroke:#454645;stroke-width:1.0;"/><line style="stroke:#454645;stroke-width:1.0;stroke-dasharray:2.0,2.0;" x1="263.0591" x2="881.7603" y1="518.2773" y2="518.2773"/><text fill="#000000" font-family="sans-serif" font-size="13" font-weight="bold" lengthAdjust="spacing" textLength="14.46" x="275.0591" y="513.0146">14</text><text fill="#000000" font-family="sans-serif" font-size="13" lengthAdjust="spacing" textLength="25.2891" x="293.519" y="513.0146">user</text><polygon fill="#454645" points="161.8145,545.5684,151.8145,549.5684,161.8145,553.5684,157.8145,549.5684" style="stroke:#454645;stroke-width:1.0;"/><line style="stroke:#454645;stroke-width:1.0;stroke-dasharray:2.0,2.0;" x1="155.8145" x2="252.0591" y1="549.5684" y2="549.5684"/><text fill="#000000" font-family="sans-serif" font-size="13" font-weight="bold" lengthAdjust="spacing" textLength="14.46" x="167.8145" y="544.3057">15</text><text fill="#000000" font-family="sans-serif" font-size="13" lengthAdjust="spacing" textLength="3.6118" x="186.2744" y="544.3057">&#160;</text><ellipse cx="7.5" cy="580.1094" fill="#000000" rx="4" ry="4" style="stroke:#454645;stroke-width:1.5;"/><polygon fill="#454645" points="24.5,576.8594,14.5,580.8594,24.5,584.8594,20.5,580.8594" style="stroke:#454645;stroke-width:1.0;"/><line style="stroke:#454645;stroke-width:1.0;stroke-dasharray:2.0,2.0;" x1="18.5" x2="144.8145" y1="580.8594" y2="580.8594"/><text fill="#000000" font-family="sans-serif" font-size="13" font-weight="bold" lengthAdjust="spacing" textLength="14.46" x="25" y="575.5967">16</text><text fill="#000000" font-family="sans-serif" font-size="13" lengthAdjust="spacing" textLength="21.6899" x="43.46" y="575.5967">201</text><!--SRC=[XP9DZvH048Rl_IjAF0WH6FM8niJTU5GthdjQaqb3rq97wCRkOdJ-lSN7i7nC8XUeugatLM_LgugezTdXqDRIKDVKQM6RWyVV7Pe24wLbwMGZXEp8cgx9qGsViY1zaeHWZH0lgC86WUnPY5OwqeLkMGmUFBfRQyZPkaO7qaEmJWKx_1xTIHSuirEy1xzZQxqcwyup-vnQuohVmCl4Ndb0Elx8-kXQYqOjfXd3G8ZS_eNW2telIuGRPtzn5bxMkgmehpiKmCzIgqTxTaG7lQbwAXQi3AmgnADDFcxSpE3ks_sFG-6Gjz3_4Xktfuh9m0n6KeYbonFpxCO52nrwsxa2O-YTCBB1Q2nTMCdLIoSpUD96tPm_DrBNuLoMQd_7QcWeZ8H3wfm1qzNr5RM7Y-bpTTnAx_zOfs8OGi1UFFvfWAVaK76lH_jqpBMZAeQsiWQFuvd6KAhMxRfEDhxyToWlJpZqS-d-yhhcv7WC6K-hRWSZrJnE91R7m_Xw_MoyDITqzCcedWd9jhf8IwIlF7SOnUD9fkDwL1gy7XRJ0wFVJB35cixHUx5kT03NpUwlYK_iGv9iJ-pTcxVY7m00]--></g></svg>