<svg xmlns="http://www.w3.org/2000/svg" xmlns:xlink="http://www.w3.org/1999/xlink" contentStyleType="text/css" height="340px" preserveAspectRatio="none" style="width:356px;height:340px;background:#DDDDDD;" version="1.1" viewBox="0 0 356 340" width="356px" zoomAndPan="magnify"><title>Create User Sequence Diagram</title><defs/><g><rect fill="#DDDDDD" height="340" style="stroke:none;stroke-width:1.0;" width="356" x="0" y="0"/><text fill="#000000" font-family="sans-serif" font-size="14" font-weight="bold" lengthAdjust="spacing" textLength="208.5371" x="80.738" y="30.1074">Create User Sequence Diagram</text><rect fill="#FFFFFF" height="182.4551" style="stroke:#454645;stroke-width:1.0;" width="10" x="240.5615" y="111.5332"/><rect fill="none" height="50.582" rx="3.5" ry="3.5" style="stroke:#454645;stroke-width:1.0;" width="274.8994" x="11" y="170.8242"/><rect fill="none" height="50.582" rx="3.5" ry="3.5" style="stroke:#454645;stroke-width:1.0;" width="274.8994" x="11" y="235.4063"/><line style="stroke:#454645;stroke-width:0.5;stroke-dasharray:5.0,5.0;" x1="245.2236" x2="245.2236" y1="78.2422" y2="302.9883"/><rect fill="#FF6F61" height="32.6211" rx="3.5" ry="3.5" style="stroke:#454645;stroke-width:1.5;" width="60.6758" x="215.2236" y="44.6211"/><text fill="#FFFFFF" font-family="sans-serif" font-size="14" lengthAdjust="spacing" textLength="46.6758" x="222.2236" y="66.7285">System</text><rect fill="#FF6F61" height="32.6211" rx="3.5" ry="3.5" style="stroke:#454645;stroke-width:1.5;" width="60.6758" x="215.2236" y="301.9883"/><text fill="#FFFFFF" font-family="sans-serif" font-size="14" lengthAdjust="spacing" textLength="46.6758" x="222.2236" y="324.0957">System</text><rect fill="#FFFFFF" height="182.4551" style="stroke:#454645;stroke-width:1.0;" width="10" x="240.5615" y="111.5332"/><ellipse cx="7.5" cy="110.7832" fill="#000000" rx="4" ry="4" style="stroke:#454645;stroke-width:1.5;"/><polygon fill="#454645" points="228.5615,107.5332,238.5615,111.5332,228.5615,115.5332,232.5615,111.5332" style="stroke:#454645;stroke-width:1.0;"/><line style="stroke:#454645;stroke-width:1.0;" x1="12" x2="234.5615" y1="111.5332" y2="111.5332"/><text fill="#000000" font-family="sans-serif" font-size="13" font-weight="bold" lengthAdjust="spacing" textLength="7.23" x="15" y="106.2705">1</text><text fill="#000000" font-family="sans-serif" font-size="13" lengthAdjust="spacing" textLength="102.5845" x="26.23" y="106.2705">POST/createUser</text><line style="stroke:#454645;stroke-width:1.0;" x1="250.5615" x2="292.5615" y1="142.8242" y2="142.8242"/><line style="stroke:#454645;stroke-width:1.0;" x1="292.5615" x2="292.5615" y1="142.8242" y2="155.8242"/><line style="stroke:#454645;stroke-width:1.0;" x1="251.5615" x2="292.5615" y1="155.8242" y2="155.8242"/><polygon fill="#454645" points="261.5615,151.8242,251.5615,155.8242,261.5615,159.8242,257.5615,155.8242" style="stroke:#454645;stroke-width:1.0;"/><text fill="#000000" font-family="sans-serif" font-size="13" font-weight="bold" lengthAdjust="spacing" textLength="7.23" x="257.5615" y="137.5615">2</text><text fill="#000000" font-family="sans-serif" font-size="13" lengthAdjust="spacing" textLength="80.2217" x="268.7915" y="137.5615">validates data</text><path d="M14.5,170.8242 L76.2109,170.8242 L76.2109,180.1152 L66.2109,190.1152 L11,190.1152 L11,174.3242 A3.5,3.5 0 0 1 14.5,170.8242 " fill="#EEEEEE" style="stroke:#454645;stroke-width:1.5;"/><rect fill="none" height="50.582" rx="3.5" ry="3.5" style="stroke:#454645;stroke-width:1.0;" width="274.8994" x="11" y="170.8242"/><text fill="#454645" font-family="sans-serif" font-size="13" font-weight="bold" lengthAdjust="spacing" textLength="20.2109" x="26" y="185.8525">opt</text><text fill="#454645" font-family="sans-serif" font-size="11" font-weight="bold" lengthAdjust="spacing" textLength="58.0669" x="91.2109" y="184.6943">[valid data]</text><ellipse cx="7.5" cy="212.6563" fill="#000000" rx="4" ry="4" style="stroke:#454645;stroke-width:1.5;"/><polygon fill="#454645" points="24.5,209.4063,14.5,213.4063,24.5,217.4063,20.5,213.4063" style="stroke:#454645;stroke-width:1.0;"/><line style="stroke:#454645;stroke-width:1.0;stroke-dasharray:2.0,2.0;" x1="18.5" x2="239.5615" y1="213.4063" y2="213.4063"/><text fill="#000000" font-family="sans-serif" font-size="13" font-weight="bold" lengthAdjust="spacing" textLength="7.23" x="25" y="208.1436">3</text><text fill="#000000" font-family="sans-serif" font-size="13" lengthAdjust="spacing" textLength="77.3208" x="36.23" y="208.1436">201 (created)</text><path d="M14.5,235.4063 L76.2109,235.4063 L76.2109,244.6973 L66.2109,254.6973 L11,254.6973 L11,238.9063 A3.5,3.5 0 0 1 14.5,235.4063 " fill="#EEEEEE" style="stroke:#454645;stroke-width:1.5;"/><rect fill="none" height="50.582" rx="3.5" ry="3.5" style="stroke:#454645;stroke-width:1.0;" width="274.8994" x="11" y="235.4063"/><text fill="#454645" font-family="sans-serif" font-size="13" font-weight="bold" lengthAdjust="spacing" textLength="20.2109" x="26" y="250.4346">opt</text><text fill="#454645" font-family="sans-serif" font-size="11" font-weight="bold" lengthAdjust="spacing" textLength="67.8423" x="91.2109" y="249.2764">[invalid data]</text><ellipse cx="7.5" cy="277.2383" fill="#000000" rx="4" ry="4" style="stroke:#454645;stroke-width:1.5;"/><polygon fill="#454645" points="24.5,273.9883,14.5,277.9883,24.5,281.9883,20.5,277.9883" style="stroke:#454645;stroke-width:1.0;"/><line style="stroke:#454645;stroke-width:1.0;stroke-dasharray:2.0,2.0;" x1="18.5" x2="239.5615" y1="277.9883" y2="277.9883"/><text fill="#000000" font-family="sans-serif" font-size="13" font-weight="bold" lengthAdjust="spacing" textLength="7.23" x="25" y="272.7256">4</text><text fill="#000000" font-family="sans-serif" font-size="13" lengthAdjust="spacing" textLength="202.3315" x="36.23" y="272.7256">: 4## (Not Found, Bad Request, ...)</text><!--SRC=[VO-nJiD038PtFyMFEhH8JK8HKrGn068ig86favkpsfDoTo7dgzIt9-bHmOG7MxQ-pvRdHzK-rbNLT-mrkQviWwkYV2NnhHJ6yc5WHyH9WqzkBmFHZHx52JISYTHg9tWUX5Nm6ML0y-FYvUhkGl68vXnLN8ttj-QZQY_yX1EtQa-Jd07A1N-C4tVMZ4J4c9b2htcKMuon2-kYkEBtToiiyW5pI-8DHkDYMV-FL-DXDiDY4nIl8Ncpn1CRRATdeYvHbkNlicy0]--></g></svg>