<svg xmlns="http://www.w3.org/2000/svg" xmlns:xlink="http://www.w3.org/1999/xlink" contentStyleType="text/css" height="784px" preserveAspectRatio="none" style="width:1046px;height:784px;background:#DDDDDD;" version="1.1" viewBox="0 0 1046 784" width="1046px" zoomAndPan="magnify"><defs/><g><rect fill="#DDDDDD" height="784" style="stroke:none;stroke-width:1.0;" width="1046" x="0" y="0"/><rect fill="#ADD8E6" height="772.3535" rx="3.5" ry="3.5" style="stroke:#181818;stroke-width:0.5;" width="106.439" x="934.311" y="6"/><text fill="#000000" font-family="sans-serif" font-size="13" font-weight="bold" lengthAdjust="spacing" textLength="100.439" x="937.311" y="20.0283">Message Broker</text><rect fill="#FFFFFF" height="184.0371" style="stroke:#FFFFFF;stroke-width:1.0;" width="10" x="221.4326" y="94.2031"/><line style="stroke:#454645;stroke-width:1.0;" x1="221.4326" x2="221.4326" y1="94.2031" y2="278.2402"/><line style="stroke:#454645;stroke-width:1.0;" x1="231.4326" x2="231.4326" y1="94.2031" y2="278.2402"/><line style="stroke:#454645;stroke-width:1.0;" x1="221.4326" x2="231.4326" y1="94.2031" y2="94.2031"/><rect fill="#FFFFFF" height="426.4922" style="stroke:#FFFFFF;stroke-width:1.0;" width="10" x="221.4326" y="306.2402"/><line style="stroke:#454645;stroke-width:1.0;" x1="221.4326" x2="221.4326" y1="306.2402" y2="732.7324"/><line style="stroke:#454645;stroke-width:1.0;" x1="231.4326" x2="231.4326" y1="306.2402" y2="732.7324"/><rect fill="#FFFFFF" height="102.1641" style="stroke:#454645;stroke-width:1.0;" width="10" x="226.4326" y="168.0762"/><rect fill="#FFFFFF" height="368.6191" style="stroke:#454645;stroke-width:1.0;" width="10" x="226.4326" y="364.1133"/><rect fill="#FFFFFF" height="337.3281" style="stroke:#454645;stroke-width:1.0;" width="10" x="523.1841" y="395.4043"/><rect fill="#FFFFFF" height="42.291" style="stroke:#454645;stroke-width:1.0;" width="10" x="528.1841" y="434.6953"/><rect fill="#FFFFFF" height="217.4551" style="stroke:#454645;stroke-width:1.0;" width="10" x="631.9795" y="515.2773"/><rect fill="#FFFFFF" height="42.291" style="stroke:#454645;stroke-width:1.0;" width="10" x="636.9795" y="554.5684"/><rect fill="#FFFFFF" height="97.582" style="stroke:#454645;stroke-width:1.0;" width="10" x="748.0049" y="635.1504"/><rect fill="#FFFFFF" height="42.291" style="stroke:#454645;stroke-width:1.0;" width="10" x="753.0049" y="674.4414"/><rect fill="#FFFFFF" height="39.291" style="stroke:#FFFFFF;stroke-width:1.0;" width="10" x="982.5305" y="238.9492"/><line style="stroke:#454645;stroke-width:1.0;" x1="982.5305" x2="982.5305" y1="238.9492" y2="278.2402"/><line style="stroke:#454645;stroke-width:1.0;" x1="992.5305" x2="992.5305" y1="238.9492" y2="278.2402"/><line style="stroke:#454645;stroke-width:1.0;" x1="982.5305" x2="992.5305" y1="238.9492" y2="238.9492"/><rect fill="#FFFFFF" height="426.4922" style="stroke:#FFFFFF;stroke-width:1.0;" width="10" x="982.5305" y="306.2402"/><line style="stroke:#454645;stroke-width:1.0;" x1="982.5305" x2="982.5305" y1="306.2402" y2="732.7324"/><line style="stroke:#454645;stroke-width:1.0;" x1="992.5305" x2="992.5305" y1="306.2402" y2="732.7324"/><line style="stroke:#454645;stroke-width:0.5;stroke-dasharray:5.0,5.0;" x1="225.7603" x2="225.7603" y1="60.9121" y2="278.2402"/><line style="stroke:#454645;stroke-width:1.0;stroke-dasharray:1.0,4.0;" x1="225.7603" x2="225.7603" y1="278.2402" y2="306.2402"/><line style="stroke:#454645;stroke-width:0.5;stroke-dasharray:5.0,5.0;" x1="225.7603" x2="225.7603" y1="306.2402" y2="741.7324"/><line style="stroke:#454645;stroke-width:0.5;stroke-dasharray:5.0,5.0;" x1="528.1221" x2="528.1221" y1="60.9121" y2="278.2402"/><line style="stroke:#454645;stroke-width:1.0;stroke-dasharray:1.0,4.0;" x1="528.1221" x2="528.1221" y1="278.2402" y2="306.2402"/><line style="stroke:#454645;stroke-width:0.5;stroke-dasharray:5.0,5.0;" x1="528.1221" x2="528.1221" y1="306.2402" y2="741.7324"/><line style="stroke:#454645;stroke-width:0.5;stroke-dasharray:5.0,5.0;" x1="636.3071" x2="636.3071" y1="60.9121" y2="278.2402"/><line style="stroke:#454645;stroke-width:1.0;stroke-dasharray:1.0,4.0;" x1="636.3071" x2="636.3071" y1="278.2402" y2="306.2402"/><line style="stroke:#454645;stroke-width:0.5;stroke-dasharray:5.0,5.0;" x1="636.3071" x2="636.3071" y1="306.2402" y2="741.7324"/><line style="stroke:#454645;stroke-width:0.5;stroke-dasharray:5.0,5.0;" x1="752.9429" x2="752.9429" y1="60.9121" y2="278.2402"/><line style="stroke:#454645;stroke-width:1.0;stroke-dasharray:1.0,4.0;" x1="752.9429" x2="752.9429" y1="278.2402" y2="306.2402"/><line style="stroke:#454645;stroke-width:0.5;stroke-dasharray:5.0,5.0;" x1="752.9429" x2="752.9429" y1="306.2402" y2="741.7324"/><line style="stroke:#454645;stroke-width:0.5;stroke-dasharray:5.0,5.0;" x1="987.0305" x2="987.0305" y1="60.9121" y2="278.2402"/><line style="stroke:#454645;stroke-width:1.0;stroke-dasharray:1.0,4.0;" x1="987.0305" x2="987.0305" y1="278.2402" y2="306.2402"/><line style="stroke:#454645;stroke-width:0.5;stroke-dasharray:5.0,5.0;" x1="987.0305" x2="987.0305" y1="306.2402" y2="741.7324"/><rect fill="#FF6F61" height="32.6211" rx="3.5" ry="3.5" style="stroke:#454645;stroke-width:1.5;" width="51.3447" x="200.7603" y="27.291"/><text fill="#FFFFFF" font-family="sans-serif" font-size="14" lengthAdjust="spacing" textLength="37.3447" x="207.7603" y="49.3984">userC</text><rect fill="#FF6F61" height="32.6211" rx="3.5" ry="3.5" style="stroke:#454645;stroke-width:1.5;" width="51.3447" x="200.7603" y="740.7324"/><text fill="#FFFFFF" font-family="sans-serif" font-size="14" lengthAdjust="spacing" textLength="37.3447" x="207.7603" y="762.8398">userC</text><rect fill="#FF6F61" height="32.6211" rx="3.5" ry="3.5" style="stroke:#454645;stroke-width:1.5;" width="52.124" x="502.1221" y="27.291"/><text fill="#FFFFFF" font-family="sans-serif" font-size="14" lengthAdjust="spacing" textLength="38.124" x="509.1221" y="49.3984">userQ</text><rect fill="#FF6F61" height="32.6211" rx="3.5" ry="3.5" style="stroke:#454645;stroke-width:1.5;" width="52.124" x="502.1221" y="740.7324"/><text fill="#FFFFFF" font-family="sans-serif" font-size="14" lengthAdjust="spacing" textLength="38.124" x="509.1221" y="762.8398">userQ</text><rect fill="#FF6F61" height="32.6211" rx="3.5" ry="3.5" style="stroke:#454645;stroke-width:1.5;" width="51.3447" x="611.3071" y="27.291"/><text fill="#FFFFFF" font-family="sans-serif" font-size="14" lengthAdjust="spacing" textLength="37.3447" x="618.3071" y="49.3984">userC</text><rect fill="#FF6F61" height="32.6211" rx="3.5" ry="3.5" style="stroke:#454645;stroke-width:1.5;" width="51.3447" x="611.3071" y="740.7324"/><text fill="#FFFFFF" font-family="sans-serif" font-size="14" lengthAdjust="spacing" textLength="37.3447" x="618.3071" y="762.8398">userC</text><rect fill="#FF6F61" height="32.6211" rx="3.5" ry="3.5" style="stroke:#454645;stroke-width:1.5;" width="52.124" x="726.9429" y="27.291"/><text fill="#FFFFFF" font-family="sans-serif" font-size="14" lengthAdjust="spacing" textLength="38.124" x="733.9429" y="49.3984">userQ</text><rect fill="#FF6F61" height="32.6211" rx="3.5" ry="3.5" style="stroke:#454645;stroke-width:1.5;" width="52.124" x="726.9429" y="740.7324"/><text fill="#FFFFFF" font-family="sans-serif" font-size="14" lengthAdjust="spacing" textLength="38.124" x="733.9429" y="762.8398">userQ</text><rect fill="#FF6F61" height="32.6211" rx="3.5" ry="3.5" style="stroke:#454645;stroke-width:1.5;" width="35" x="970.0305" y="27.291"/><text fill="#FFFFFF" font-family="sans-serif" font-size="14" lengthAdjust="spacing" textLength="21" x="977.0305" y="49.3984">MB</text><rect fill="#FF6F61" height="32.6211" rx="3.5" ry="3.5" style="stroke:#454645;stroke-width:1.5;" width="35" x="970.0305" y="740.7324"/><text fill="#FFFFFF" font-family="sans-serif" font-size="14" lengthAdjust="spacing" textLength="21" x="977.0305" y="762.8398">MB</text><rect fill="#FFFFFF" height="184.0371" style="stroke:#FFFFFF;stroke-width:1.0;" width="10" x="221.4326" y="94.2031"/><line style="stroke:#454645;stroke-width:1.0;" x1="221.4326" x2="221.4326" y1="94.2031" y2="278.2402"/><line style="stroke:#454645;stroke-width:1.0;" x1="231.4326" x2="231.4326" y1="94.2031" y2="278.2402"/><line style="stroke:#454645;stroke-width:1.0;" x1="221.4326" x2="231.4326" y1="94.2031" y2="94.2031"/><rect fill="#FFFFFF" height="426.4922" style="stroke:#FFFFFF;stroke-width:1.0;" width="10" x="221.4326" y="306.2402"/><line style="stroke:#454645;stroke-width:1.0;" x1="221.4326" x2="221.4326" y1="306.2402" y2="732.7324"/><line style="stroke:#454645;stroke-width:1.0;" x1="231.4326" x2="231.4326" y1="306.2402" y2="732.7324"/><rect fill="#FFFFFF" height="102.1641" style="stroke:#454645;stroke-width:1.0;" width="10" x="226.4326" y="168.0762"/><rect fill="#FFFFFF" height="368.6191" style="stroke:#454645;stroke-width:1.0;" width="10" x="226.4326" y="364.1133"/><rect fill="#FFFFFF" height="337.3281" style="stroke:#454645;stroke-width:1.0;" width="10" x="523.1841" y="395.4043"/><rect fill="#FFFFFF" height="42.291" style="stroke:#454645;stroke-width:1.0;" width="10" x="528.1841" y="434.6953"/><rect fill="#FFFFFF" height="217.4551" style="stroke:#454645;stroke-width:1.0;" width="10" x="631.9795" y="515.2773"/><rect fill="#FFFFFF" height="42.291" style="stroke:#454645;stroke-width:1.0;" width="10" x="636.9795" y="554.5684"/><rect fill="#FFFFFF" height="97.582" style="stroke:#454645;stroke-width:1.0;" width="10" x="748.0049" y="635.1504"/><rect fill="#FFFFFF" height="42.291" style="stroke:#454645;stroke-width:1.0;" width="10" x="753.0049" y="674.4414"/><rect fill="#FFFFFF" height="39.291" style="stroke:#FFFFFF;stroke-width:1.0;" width="10" x="982.5305" y="238.9492"/><line style="stroke:#454645;stroke-width:1.0;" x1="982.5305" x2="982.5305" y1="238.9492" y2="278.2402"/><line style="stroke:#454645;stroke-width:1.0;" x1="992.5305" x2="992.5305" y1="238.9492" y2="278.2402"/><line style="stroke:#454645;stroke-width:1.0;" x1="982.5305" x2="992.5305" y1="238.9492" y2="238.9492"/><rect fill="#FFFFFF" height="426.4922" style="stroke:#FFFFFF;stroke-width:1.0;" width="10" x="982.5305" y="306.2402"/><line style="stroke:#454645;stroke-width:1.0;" x1="982.5305" x2="982.5305" y1="306.2402" y2="732.7324"/><line style="stroke:#454645;stroke-width:1.0;" x1="992.5305" x2="992.5305" y1="306.2402" y2="732.7324"/><ellipse cx="7.5" cy="93.4531" fill="#000000" rx="4" ry="4" style="stroke:#454645;stroke-width:1.5;"/><polygon fill="#454645" points="209.4326,90.2031,219.4326,94.2031,209.4326,98.2031,213.4326,94.2031" style="stroke:#454645;stroke-width:1.0;"/><line style="stroke:#454645;stroke-width:1.0;" x1="12" x2="215.4326" y1="94.2031" y2="94.2031"/><text fill="#000000" font-family="sans-serif" font-size="13" font-weight="bold" lengthAdjust="spacing" textLength="7.23" x="15" y="88.9404">1</text><text fill="#000000" font-family="sans-serif" font-size="13" lengthAdjust="spacing" textLength="93.2026" x="26.23" y="88.9404">Post/createUser</text><line style="stroke:#454645;stroke-width:1.0;" x1="231.4326" x2="278.4326" y1="155.0762" y2="155.0762"/><line style="stroke:#454645;stroke-width:1.0;" x1="278.4326" x2="278.4326" y1="155.0762" y2="168.0762"/><line style="stroke:#454645;stroke-width:1.0;" x1="237.4326" x2="278.4326" y1="168.0762" y2="168.0762"/><polygon fill="#454645" points="247.4326,164.0762,237.4326,168.0762,247.4326,172.0762,243.4326,168.0762" style="stroke:#454645;stroke-width:1.0;"/><text fill="#000000" font-family="sans-serif" font-size="13" font-weight="bold" lengthAdjust="spacing" textLength="7.23" x="243.4326" y="132.5225">2</text><text fill="#000000" font-family="sans-serif" font-size="13" lengthAdjust="spacing" textLength="215.3252" x="254.6626" y="115.2314">saveUser({user.created.#, username,</text><text fill="#000000" font-family="sans-serif" font-size="13" lengthAdjust="spacing" textLength="249.2979" x="258.2744" y="132.5225">password, name, email, role, date_of_birth,</text><text fill="#000000" font-family="sans-serif" font-size="13" lengthAdjust="spacing" textLength="129.3716" x="258.2744" y="149.8135">phone_number, gdpr})</text><polygon fill="#454645" points="970.5305,234.9492,980.5305,238.9492,970.5305,242.9492,974.5305,238.9492" style="stroke:#454645;stroke-width:1.0;"/><line style="stroke:#454645;stroke-width:1.0;" x1="236.4326" x2="976.5305" y1="238.9492" y2="238.9492"/><text fill="#000000" font-family="sans-serif" font-size="13" font-weight="bold" lengthAdjust="spacing" textLength="7.23" x="243.4326" y="216.3955">3</text><text fill="#000000" font-family="sans-serif" font-size="13" lengthAdjust="spacing" textLength="201.6143" x="254.6626" y="199.1045">publish({user.created.#, username,</text><text fill="#000000" font-family="sans-serif" font-size="13" lengthAdjust="spacing" textLength="249.2979" x="258.2744" y="216.3955">password, name, email, role, date_of_birth,</text><text fill="#000000" font-family="sans-serif" font-size="13" lengthAdjust="spacing" textLength="129.3716" x="258.2744" y="233.6865">phone_number, gdpr})</text><ellipse cx="7.5" cy="269.4902" fill="#000000" rx="4" ry="4" style="stroke:#454645;stroke-width:1.5;"/><polygon fill="#454645" points="24.5,266.2402,14.5,270.2402,24.5,274.2402,20.5,270.2402" style="stroke:#454645;stroke-width:1.0;"/><line style="stroke:#454645;stroke-width:1.0;stroke-dasharray:2.0,2.0;" x1="18.5" x2="220.4326" y1="270.2402" y2="270.2402"/><text fill="#000000" font-family="sans-serif" font-size="13" font-weight="bold" lengthAdjust="spacing" textLength="7.23" x="25" y="264.9775">4</text><text fill="#000000" font-family="sans-serif" font-size="13" lengthAdjust="spacing" textLength="21.6899" x="36.23" y="264.9775">201</text><polygon fill="#454645" points="247.4326,360.1133,237.4326,364.1133,247.4326,368.1133,243.4326,364.1133" style="stroke:#454645;stroke-width:1.0;"/><line style="stroke:#454645;stroke-width:1.0;" x1="241.4326" x2="981.5305" y1="364.1133" y2="364.1133"/><text fill="#000000" font-family="sans-serif" font-size="13" font-weight="bold" lengthAdjust="spacing" textLength="7.23" x="253.4326" y="341.5596">5</text><text fill="#000000" font-family="sans-serif" font-size="13" lengthAdjust="spacing" textLength="191.4897" x="264.6626" y="324.2686">notify({user.created.#, username,</text><text fill="#000000" font-family="sans-serif" font-size="13" lengthAdjust="spacing" textLength="249.2979" x="268.2744" y="341.5596">password, name, email, role, date_of_birth,</text><text fill="#000000" font-family="sans-serif" font-size="13" lengthAdjust="spacing" textLength="129.3716" x="268.2744" y="358.8506">phone_number, gdpr})</text><path d="M5,320.3857 L5,357.3857 A3.5,3.5 0 0 0 8.5,360.8857 L213.5,360.8857 A3.5,3.5 0 0 0 217,357.3857 L217,326.8857 L207,316.8857 L8.5,316.8857 A3.5,3.5 0 0 0 5,320.3857 " fill="#90EE90" style="stroke:#454645;stroke-width:1.0;"/><path d="M207,316.8857 L207,325.1357 A1.75,1.75 0 0 0 208.75,326.8857 L217,326.8857 L207,316.8857 " fill="#90EE90" style="stroke:#454645;stroke-width:1.0;"/><text fill="#454645" font-family="sans-serif" font-size="13" lengthAdjust="spacing" textLength="127.9053" x="11" y="335.9141">Because the user was</text><text fill="#454645" font-family="sans-serif" font-size="13" lengthAdjust="spacing" textLength="191.1025" x="11" y="353.2051">created here, it's not saved again</text><polygon fill="#454645" points="544.1841,391.4043,534.1841,395.4043,544.1841,399.4043,540.1841,395.4043" style="stroke:#454645;stroke-width:1.0;"/><line style="stroke:#454645;stroke-width:1.0;" x1="538.1841" x2="981.5305" y1="395.4043" y2="395.4043"/><text fill="#000000" font-family="sans-serif" font-size="13" font-weight="bold" lengthAdjust="spacing" textLength="7.23" x="550.1841" y="390.1416">6</text><text fill="#000000" font-family="sans-serif" font-size="13" lengthAdjust="spacing" textLength="155.3462" x="561.4141" y="390.1416">notify(user.created.#, user)</text><line style="stroke:#454645;stroke-width:1.0;" x1="533.1841" x2="580.1841" y1="421.6953" y2="421.6953"/><line style="stroke:#454645;stroke-width:1.0;" x1="580.1841" x2="580.1841" y1="421.6953" y2="434.6953"/><line style="stroke:#454645;stroke-width:1.0;" x1="539.1841" x2="580.1841" y1="434.6953" y2="434.6953"/><polygon fill="#454645" points="549.1841,430.6953,539.1841,434.6953,549.1841,438.6953,545.1841,434.6953" style="stroke:#454645;stroke-width:1.0;"/><text fill="#000000" font-family="sans-serif" font-size="13" font-weight="bold" lengthAdjust="spacing" textLength="7.23" x="545.1841" y="416.4326">7</text><text fill="#000000" font-family="sans-serif" font-size="13" lengthAdjust="spacing" textLength="63.5654" x="556.4141" y="416.4326">saveUser()</text><line style="stroke:#454645;stroke-width:1.0;stroke-dasharray:2.0,2.0;" x1="538.1841" x2="580.1841" y1="475.9863" y2="475.9863"/><line style="stroke:#454645;stroke-width:1.0;stroke-dasharray:2.0,2.0;" x1="580.1841" x2="580.1841" y1="475.9863" y2="488.9863"/><line style="stroke:#454645;stroke-width:1.0;stroke-dasharray:2.0,2.0;" x1="533.1841" x2="580.1841" y1="488.9863" y2="488.9863"/><polygon fill="#454645" points="543.1841,484.9863,533.1841,488.9863,543.1841,492.9863,539.1841,488.9863" style="stroke:#454645;stroke-width:1.0;"/><text fill="#000000" font-family="sans-serif" font-size="13" font-weight="bold" lengthAdjust="spacing" textLength="7.23" x="545.1841" y="470.7236">8</text><text fill="#000000" font-family="sans-serif" font-size="13" lengthAdjust="spacing" textLength="13.73" x="556.4141" y="470.7236">ok</text><polygon fill="#454645" points="652.9795,511.2773,642.9795,515.2773,652.9795,519.2773,648.9795,515.2773" style="stroke:#454645;stroke-width:1.0;"/><line style="stroke:#454645;stroke-width:1.0;" x1="646.9795" x2="981.5305" y1="515.2773" y2="515.2773"/><text fill="#000000" font-family="sans-serif" font-size="13" font-weight="bold" lengthAdjust="spacing" textLength="7.23" x="658.9795" y="510.0146">9</text><text fill="#000000" font-family="sans-serif" font-size="13" lengthAdjust="spacing" textLength="155.3462" x="670.2095" y="510.0146">notify(user.created.#, user)</text><line style="stroke:#454645;stroke-width:1.0;" x1="641.9795" x2="688.9795" y1="541.5684" y2="541.5684"/><line style="stroke:#454645;stroke-width:1.0;" x1="688.9795" x2="688.9795" y1="541.5684" y2="554.5684"/><line style="stroke:#454645;stroke-width:1.0;" x1="647.9795" x2="688.9795" y1="554.5684" y2="554.5684"/><polygon fill="#454645" points="657.9795,550.5684,647.9795,554.5684,657.9795,558.5684,653.9795,554.5684" style="stroke:#454645;stroke-width:1.0;"/><text fill="#000000" font-family="sans-serif" font-size="13" font-weight="bold" lengthAdjust="spacing" textLength="14.46" x="653.9795" y="536.3057">10</text><text fill="#000000" font-family="sans-serif" font-size="13" lengthAdjust="spacing" textLength="63.5654" x="672.4395" y="536.3057">saveUser()</text><line style="stroke:#454645;stroke-width:1.0;stroke-dasharray:2.0,2.0;" x1="646.9795" x2="688.9795" y1="595.8594" y2="595.8594"/><line style="stroke:#454645;stroke-width:1.0;stroke-dasharray:2.0,2.0;" x1="688.9795" x2="688.9795" y1="595.8594" y2="608.8594"/><line style="stroke:#454645;stroke-width:1.0;stroke-dasharray:2.0,2.0;" x1="641.9795" x2="688.9795" y1="608.8594" y2="608.8594"/><polygon fill="#454645" points="651.9795,604.8594,641.9795,608.8594,651.9795,612.8594,647.9795,608.8594" style="stroke:#454645;stroke-width:1.0;"/><text fill="#000000" font-family="sans-serif" font-size="13" font-weight="bold" lengthAdjust="spacing" textLength="14.46" x="653.9795" y="590.5967">11</text><text fill="#000000" font-family="sans-serif" font-size="13" lengthAdjust="spacing" textLength="13.73" x="672.4395" y="590.5967">ok</text><polygon fill="#454645" points="769.0049,631.1504,759.0049,635.1504,769.0049,639.1504,765.0049,635.1504" style="stroke:#454645;stroke-width:1.0;"/><line style="stroke:#454645;stroke-width:1.0;" x1="763.0049" x2="981.5305" y1="635.1504" y2="635.1504"/><text fill="#000000" font-family="sans-serif" font-size="13" font-weight="bold" lengthAdjust="spacing" textLength="14.46" x="775.0049" y="629.8877">12</text><text fill="#000000" font-family="sans-serif" font-size="13" lengthAdjust="spacing" textLength="155.3462" x="793.4648" y="629.8877">notify(user.created.#, user)</text><line style="stroke:#454645;stroke-width:1.0;" x1="758.0049" x2="805.0049" y1="661.4414" y2="661.4414"/><line style="stroke:#454645;stroke-width:1.0;" x1="805.0049" x2="805.0049" y1="661.4414" y2="674.4414"/><line style="stroke:#454645;stroke-width:1.0;" x1="764.0049" x2="805.0049" y1="674.4414" y2="674.4414"/><polygon fill="#454645" points="774.0049,670.4414,764.0049,674.4414,774.0049,678.4414,770.0049,674.4414" style="stroke:#454645;stroke-width:1.0;"/><text fill="#000000" font-family="sans-serif" font-size="13" font-weight="bold" lengthAdjust="spacing" textLength="14.46" x="770.0049" y="656.1787">13</text><text fill="#000000" font-family="sans-serif" font-size="13" lengthAdjust="spacing" textLength="63.5654" x="788.4648" y="656.1787">saveUser()</text><line style="stroke:#454645;stroke-width:1.0;stroke-dasharray:2.0,2.0;" x1="763.0049" x2="805.0049" y1="715.7324" y2="715.7324"/><line style="stroke:#454645;stroke-width:1.0;stroke-dasharray:2.0,2.0;" x1="805.0049" x2="805.0049" y1="715.7324" y2="728.7324"/><line style="stroke:#454645;stroke-width:1.0;stroke-dasharray:2.0,2.0;" x1="758.0049" x2="805.0049" y1="728.7324" y2="728.7324"/><polygon fill="#454645" points="768.0049,724.7324,758.0049,728.7324,768.0049,732.7324,764.0049,728.7324" style="stroke:#454645;stroke-width:1.0;"/><text fill="#000000" font-family="sans-serif" font-size="13" font-weight="bold" lengthAdjust="spacing" textLength="14.46" x="770.0049" y="710.4697">14</text><text fill="#000000" font-family="sans-serif" font-size="13" lengthAdjust="spacing" textLength="13.73" x="788.4648" y="710.4697">ok</text><!--SRC=[lL8zRuCm4DtlLroJ8Ot4H-aOLHt8Z5I6JgaK6RY05MDJsoIDglxt6cXIgaHgfZ2Pn_Fxk6DMMTkOHHWsWadRrYB8LHqQUcz9vkGNd9MQrG2ijKgsTKQwFxBSyXspX4e2tDcAQaAh3W0hvJzZQqWl5_YYZ0rpJOxtwX20XcdBSzuufu5pXgJd76HcE4JdxEEtD0B8r0TE4ZA6bOInLblI4vmANbOs4oq1kcSiaCH0ia1t3M0m-arksAwFVF_P0S7GeGYcNa-Gh2OFtwIJCsQlTE7X057DkF1GA-5U2dTbhJRhZ6jR3VHAILeFK_ImB1hzDV-rJk85DcqckAbkOBjIJxv_hFlu444G1019F1g2L9Pl3ZV8uem81MrijwEOSkOSqFrJlHFkcUdmdm1OaNRAtCvC5x3VL86iP5psw-oqnZtIKuzBDORnfoFoQVDpq6HRBL5j_ymbka9m6Otf_qccrqYcqPX-KV8R]--></g></svg>