<svg xmlns="http://www.w3.org/2000/svg" xmlns:xlink="http://www.w3.org/1999/xlink" contentStyleType="text/css" height="373px" preserveAspectRatio="none" style="width:775px;height:373px;background:#DDDDDD;" version="1.1" viewBox="0 0 775 373" width="775px" zoomAndPan="magnify"><defs/><g><rect fill="#DDDDDD" height="373" style="stroke:none;stroke-width:1.0;" width="775" x="0" y="0"/><rect fill="#ADD8E6" height="361.8613" rx="3.5" ry="3.5" style="stroke:#181818;stroke-width:0.5;" width="120.041" x="1" y="6"/><text fill="#000000" font-family="sans-serif" font-size="13" font-weight="bold" lengthAdjust="spacing" textLength="100.439" x="10.801" y="20.0283">Message Broker</text><rect fill="#FFFFFF" height="228.0371" style="stroke:#454645;stroke-width:1.0;" width="10" x="259.603" y="94.2031"/><rect fill="#FFFFFF" height="196.7461" style="stroke:#454645;stroke-width:1.0;" width="10" x="388.7002" y="125.4941"/><rect fill="#FFFFFF" height="156.4551" style="stroke:#454645;stroke-width:1.0;" width="10" x="517.7974" y="156.7852"/><rect fill="#FFFFFF" height="93.873" style="stroke:#454645;stroke-width:1.0;" width="10" x="620.3765" y="188.0762"/><rect fill="#FFFFFF" height="31.291" style="stroke:#454645;stroke-width:1.0;" width="10" x="715.9624" y="219.3672"/><line style="stroke:#454645;stroke-width:0.5;stroke-dasharray:5.0,5.0;" x1="61" x2="61" y1="60.9121" y2="331.2402"/><line style="stroke:#454645;stroke-width:0.5;stroke-dasharray:5.0,5.0;" x1="264.2031" x2="264.2031" y1="60.9121" y2="331.2402"/><line style="stroke:#454645;stroke-width:0.5;stroke-dasharray:5.0,5.0;" x1="393.5796" x2="393.5796" y1="60.9121" y2="331.2402"/><line style="stroke:#454645;stroke-width:0.5;stroke-dasharray:5.0,5.0;" x1="522.5596" x2="522.5596" y1="60.9121" y2="331.2402"/><line style="stroke:#454645;stroke-width:0.5;stroke-dasharray:5.0,5.0;" x1="625.0352" x2="625.0352" y1="60.9121" y2="331.2402"/><line style="stroke:#454645;stroke-width:0.5;stroke-dasharray:5.0,5.0;" x1="720.7178" x2="720.7178" y1="60.9121" y2="331.2402"/><rect fill="#FF6F61" height="32.6211" rx="3.5" ry="3.5" style="stroke:#454645;stroke-width:1.5;" width="112.041" x="5" y="27.291"/><text fill="#FFFFFF" font-family="sans-serif" font-size="14" lengthAdjust="spacing" textLength="98.041" x="12" y="49.3984">MessageBroker</text><rect fill="#FF6F61" height="32.6211" rx="3.5" ry="3.5" style="stroke:#454645;stroke-width:1.5;" width="112.041" x="5" y="330.2402"/><text fill="#FFFFFF" font-family="sans-serif" font-size="14" lengthAdjust="spacing" textLength="98.041" x="12" y="352.3477">MessageBroker</text><rect fill="#FF6F61" height="32.6211" rx="3.5" ry="3.5" style="stroke:#454645;stroke-width:1.5;" width="98.7998" x="215.2031" y="27.291"/><text fill="#FFFFFF" font-family="sans-serif" font-size="14" lengthAdjust="spacing" textLength="84.7998" x="222.2031" y="49.3984">UserReceiver</text><rect fill="#FF6F61" height="32.6211" rx="3.5" ry="3.5" style="stroke:#454645;stroke-width:1.5;" width="98.7998" x="215.2031" y="330.2402"/><text fill="#FFFFFF" font-family="sans-serif" font-size="14" lengthAdjust="spacing" textLength="84.7998" x="222.2031" y="352.3477">UserReceiver</text><rect fill="#FF6F61" height="32.6211" rx="3.5" ry="3.5" style="stroke:#454645;stroke-width:1.5;" width="90.2412" x="348.5796" y="27.291"/><text fill="#FFFFFF" font-family="sans-serif" font-size="14" lengthAdjust="spacing" textLength="76.2412" x="355.5796" y="49.3984">UserService</text><rect fill="#FF6F61" height="32.6211" rx="3.5" ry="3.5" style="stroke:#454645;stroke-width:1.5;" width="90.2412" x="348.5796" y="330.2402"/><text fill="#FFFFFF" font-family="sans-serif" font-size="14" lengthAdjust="spacing" textLength="76.2412" x="355.5796" y="352.3477">UserService</text><rect fill="#FF6F61" height="32.6211" rx="3.5" ry="3.5" style="stroke:#454645;stroke-width:1.5;" width="110.4756" x="467.5596" y="27.291"/><text fill="#FFFFFF" font-family="sans-serif" font-size="14" lengthAdjust="spacing" textLength="96.4756" x="474.5596" y="49.3984">UserRepository</text><rect fill="#FF6F61" height="32.6211" rx="3.5" ry="3.5" style="stroke:#454645;stroke-width:1.5;" width="110.4756" x="467.5596" y="330.2402"/><text fill="#FFFFFF" font-family="sans-serif" font-size="14" lengthAdjust="spacing" textLength="96.4756" x="474.5596" y="352.3477">UserRepository</text><rect fill="#FF6F61" height="32.6211" rx="3.5" ry="3.5" style="stroke:#454645;stroke-width:1.5;" width="74.6826" x="588.0352" y="27.291"/><text fill="#FFFFFF" font-family="sans-serif" font-size="14" lengthAdjust="spacing" textLength="60.6826" x="595.0352" y="49.3984">user:User</text><rect fill="#FF6F61" height="32.6211" rx="3.5" ry="3.5" style="stroke:#454645;stroke-width:1.5;" width="74.6826" x="588.0352" y="330.2402"/><text fill="#FFFFFF" font-family="sans-serif" font-size="14" lengthAdjust="spacing" textLength="60.6826" x="595.0352" y="352.3477">user:User</text><rect fill="#FF6F61" height="32.6211" rx="3.5" ry="3.5" style="stroke:#454645;stroke-width:1.5;" width="96.4893" x="672.7178" y="27.291"/><text fill="#FFFFFF" font-family="sans-serif" font-size="14" lengthAdjust="spacing" textLength="82.4893" x="679.7178" y="49.3984">dbRepository</text><rect fill="#FF6F61" height="32.6211" rx="3.5" ry="3.5" style="stroke:#454645;stroke-width:1.5;" width="96.4893" x="672.7178" y="330.2402"/><text fill="#FFFFFF" font-family="sans-serif" font-size="14" lengthAdjust="spacing" textLength="82.4893" x="679.7178" y="352.3477">dbRepository</text><rect fill="#FFFFFF" height="228.0371" style="stroke:#454645;stroke-width:1.0;" width="10" x="259.603" y="94.2031"/><rect fill="#FFFFFF" height="196.7461" style="stroke:#454645;stroke-width:1.0;" width="10" x="388.7002" y="125.4941"/><rect fill="#FFFFFF" height="156.4551" style="stroke:#454645;stroke-width:1.0;" width="10" x="517.7974" y="156.7852"/><rect fill="#FFFFFF" height="93.873" style="stroke:#454645;stroke-width:1.0;" width="10" x="620.3765" y="188.0762"/><rect fill="#FFFFFF" height="31.291" style="stroke:#454645;stroke-width:1.0;" width="10" x="715.9624" y="219.3672"/><polygon fill="#454645" points="247.603,90.2031,257.603,94.2031,247.603,98.2031,251.603,94.2031" style="stroke:#454645;stroke-width:1.0;"/><line style="stroke:#454645;stroke-width:1.0;" x1="61.0205" x2="253.603" y1="94.2031" y2="94.2031"/><text fill="#000000" font-family="sans-serif" font-size="13" font-weight="bold" lengthAdjust="spacing" textLength="7.23" x="68.0205" y="88.9404">1</text><text fill="#000000" font-family="sans-serif" font-size="13" lengthAdjust="spacing" textLength="168.3525" x="79.2505" y="88.9404">notify(user.created,userJson)</text><polygon fill="#454645" points="376.7002,121.4941,386.7002,125.4941,376.7002,129.4941,380.7002,125.4941" style="stroke:#454645;stroke-width:1.0;"/><line style="stroke:#454645;stroke-width:1.0;" x1="269.603" x2="382.7002" y1="125.4941" y2="125.4941"/><text fill="#000000" font-family="sans-serif" font-size="13" font-weight="bold" lengthAdjust="spacing" textLength="7.23" x="276.603" y="120.2314">2</text><text fill="#000000" font-family="sans-serif" font-size="13" lengthAdjust="spacing" textLength="88.8672" x="287.833" y="120.2314">save(userJson)</text><polygon fill="#454645" points="505.7974,152.7852,515.7974,156.7852,505.7974,160.7852,509.7974,156.7852" style="stroke:#454645;stroke-width:1.0;"/><line style="stroke:#454645;stroke-width:1.0;" x1="398.7002" x2="511.7974" y1="156.7852" y2="156.7852"/><text fill="#000000" font-family="sans-serif" font-size="13" font-weight="bold" lengthAdjust="spacing" textLength="7.23" x="405.7002" y="151.5225">3</text><text fill="#000000" font-family="sans-serif" font-size="13" lengthAdjust="spacing" textLength="88.8672" x="416.9302" y="151.5225">save(userJson)</text><polygon fill="#454645" points="608.3765,184.0762,618.3765,188.0762,608.3765,192.0762,612.3765,188.0762" style="stroke:#454645;stroke-width:1.0;"/><line style="stroke:#454645;stroke-width:1.0;" x1="527.7974" x2="614.3765" y1="188.0762" y2="188.0762"/><text fill="#000000" font-family="sans-serif" font-size="13" font-weight="bold" lengthAdjust="spacing" textLength="7.23" x="534.7974" y="182.8135">4</text><text fill="#000000" font-family="sans-serif" font-size="13" lengthAdjust="spacing" textLength="36.1309" x="546.0273" y="182.8135">create</text><polygon fill="#454645" points="703.9624,215.3672,713.9624,219.3672,703.9624,223.3672,707.9624,219.3672" style="stroke:#454645;stroke-width:1.0;"/><line style="stroke:#454645;stroke-width:1.0;" x1="527.7974" x2="709.9624" y1="219.3672" y2="219.3672"/><text fill="#000000" font-family="sans-serif" font-size="13" font-weight="bold" lengthAdjust="spacing" textLength="7.23" x="534.7974" y="214.1045">5</text><text fill="#000000" font-family="sans-serif" font-size="13" lengthAdjust="spacing" textLength="61.4072" x="546.0273" y="214.1045">save(user)</text><polygon fill="#454645" points="538.7974,246.6582,528.7974,250.6582,538.7974,254.6582,534.7974,250.6582" style="stroke:#454645;stroke-width:1.0;"/><line style="stroke:#454645;stroke-width:1.0;stroke-dasharray:2.0,2.0;" x1="532.7974" x2="719.9624" y1="250.6582" y2="250.6582"/><text fill="#000000" font-family="sans-serif" font-size="13" font-weight="bold" lengthAdjust="spacing" textLength="7.23" x="544.7974" y="245.3955">6</text><text fill="#000000" font-family="sans-serif" font-size="13" lengthAdjust="spacing" textLength="25.2891" x="556.0273" y="245.3955">user</text><polygon fill="#454645" points="538.7974,277.9492,528.7974,281.9492,538.7974,285.9492,534.7974,281.9492" style="stroke:#454645;stroke-width:1.0;"/><line style="stroke:#454645;stroke-width:1.0;stroke-dasharray:2.0,2.0;" x1="532.7974" x2="624.3765" y1="281.9492" y2="281.9492"/><text fill="#000000" font-family="sans-serif" font-size="13" font-weight="bold" lengthAdjust="spacing" textLength="7.23" x="544.7974" y="276.6865">7</text><text fill="#000000" font-family="sans-serif" font-size="13" lengthAdjust="spacing" textLength="25.2891" x="556.0273" y="276.6865">user</text><polygon fill="#454645" points="409.7002,309.2402,399.7002,313.2402,409.7002,317.2402,405.7002,313.2402" style="stroke:#454645;stroke-width:1.0;"/><line style="stroke:#454645;stroke-width:1.0;stroke-dasharray:2.0,2.0;" x1="403.7002" x2="521.7974" y1="313.2402" y2="313.2402"/><text fill="#000000" font-family="sans-serif" font-size="13" font-weight="bold" lengthAdjust="spacing" textLength="7.23" x="415.7002" y="307.9775">8</text><text fill="#000000" font-family="sans-serif" font-size="13" lengthAdjust="spacing" textLength="25.2891" x="426.9302" y="307.9775">user</text><!--SRC=[TP31JiCm38RlVefG3cmIM-yzS01nGU8on0EagUcYfN59d8g-FGdDHbj6JhRr_N_y- -x8tFkgB7iZBOVEx1LrfSVFW5RXhj6oTR83a879Xgv6zrDAnNgGZ88im0qViKF1D0BKz2MAL_HUjYWU7PtG5UBMwFR8jGa88hvUEjPAz_53aT695D9Vn5aBQ1iHJG7cgdUFxeaiEp8cozBeW0hra5Hh-0tTe1LUoDp_1G_OazTCRfovdaTB_DcovWaB4QiIkoIQUcKt7nG0o_2xXtMkoXBhZt6JxFVAOJnuSv-Q5qzs2oiwwtEqIdWvu6P9dy-GqTzbhjApvQDWYbk9QOyhm3pSp6yB3ZauArBpR_qD]--></g></svg>