<svg xmlns="http://www.w3.org/2000/svg" xmlns:xlink="http://www.w3.org/1999/xlink" contentStyleType="text/css" height="1469px" preserveAspectRatio="none" style="width:597px;height:1469px;background:#DDDDDD;" version="1.1" viewBox="0 0 597 1469" width="597px" zoomAndPan="magnify"><defs/><g><rect fill="#DDDDDD" height="1469" style="stroke:none;stroke-width:1.0;" width="597" x="0" y="0"/><!--cluster users--><g id="cluster_users"><rect fill="none" height="1207" rx="3.5" ry="3.5" style="stroke:#454645;stroke-width:1.0;" width="518" x="7" y="256"/><rect fill="none" height="10" style="stroke:#454645;stroke-width:1.0;" width="15" x="505" y="261"/><rect fill="none" height="2" style="stroke:#454645;stroke-width:1.0;" width="4" x="503" y="263"/><rect fill="none" height="2" style="stroke:#454645;stroke-width:1.0;" width="4" x="503" y="267"/><text fill="#000000" font-family="sans-serif" font-size="14" font-weight="bold" lengthAdjust="spacing" textLength="134.6133" x="198.6934" y="284.1074">&#171;Users Commands&#187;</text></g><text fill="#000000" font-family="sans-serif" font-size="14" lengthAdjust="spacing" textLength="104.2412" x="137.3794" y="234.4863">REST API Users</text><rect fill="#F1F1F1" height="12" style="stroke:#181818;stroke-width:1.5;" width="12" x="183.5" y="250"/><text fill="#000000" font-family="sans-serif" font-size="14" lengthAdjust="spacing" textLength="63.0205" x="435.9897" y="234.4863">RabbitMQ</text><rect fill="#F1F1F1" height="12" style="stroke:#181818;stroke-width:1.5;" width="12" x="461.5" y="250"/><text fill="#000000" font-family="sans-serif" font-size="14" lengthAdjust="spacing" textLength="19.4482" x="374.2759" y="234.4863">DB</text><rect fill="#F1F1F1" height="12" style="stroke:#181818;stroke-width:1.5;" width="12" x="378" y="250"/><!--entity routes--><g id="elem_routes"><rect fill="#F1F1F1" height="48.6211" rx="3.5" ry="3.5" style="stroke:#181818;stroke-width:0.5;" width="84.3584" x="133" y="578"/><rect fill="#F1F1F1" height="10" style="stroke:#181818;stroke-width:0.5;" width="15" x="197.3584" y="583"/><rect fill="#F1F1F1" height="2" style="stroke:#181818;stroke-width:0.5;" width="4" x="195.3584" y="585"/><rect fill="#F1F1F1" height="2" style="stroke:#181818;stroke-width:0.5;" width="4" x="195.3584" y="589"/><text fill="#000000" font-family="sans-serif" font-size="14" lengthAdjust="spacing" textLength="44.3584" x="148" y="613.1074">Routes</text></g><!--entity userController--><g id="elem_userController"><rect fill="#F1F1F1" height="48.6211" rx="3.5" ry="3.5" style="stroke:#181818;stroke-width:0.5;" width="130.248" x="231" y="783"/><rect fill="#F1F1F1" height="10" style="stroke:#181818;stroke-width:0.5;" width="15" x="341.248" y="788"/><rect fill="#F1F1F1" height="2" style="stroke:#181818;stroke-width:0.5;" width="4" x="339.248" y="790"/><rect fill="#F1F1F1" height="2" style="stroke:#181818;stroke-width:0.5;" width="4" x="339.248" y="794"/><text fill="#000000" font-family="sans-serif" font-size="14" lengthAdjust="spacing" textLength="90.248" x="246" y="818.1074">UserController</text></g><!--entity userService--><g id="elem_userService"><rect fill="#F1F1F1" height="48.6211" rx="3.5" ry="3.5" style="stroke:#181818;stroke-width:0.5;" width="116.2412" x="81" y="988"/><rect fill="#F1F1F1" height="10" style="stroke:#181818;stroke-width:0.5;" width="15" x="177.2412" y="993"/><rect fill="#F1F1F1" height="2" style="stroke:#181818;stroke-width:0.5;" width="4" x="175.2412" y="995"/><rect fill="#F1F1F1" height="2" style="stroke:#181818;stroke-width:0.5;" width="4" x="175.2412" y="999"/><text fill="#000000" font-family="sans-serif" font-size="14" lengthAdjust="spacing" textLength="76.2412" x="96" y="1023.1074">UserService</text></g><!--entity user--><g id="elem_user"><rect fill="#F1F1F1" height="48.6211" rx="3.5" ry="3.5" style="stroke:#181818;stroke-width:0.5;" width="111.5791" x="60" y="1193"/><rect fill="#F1F1F1" height="10" style="stroke:#181818;stroke-width:0.5;" width="15" x="151.5791" y="1198"/><rect fill="#F1F1F1" height="2" style="stroke:#181818;stroke-width:0.5;" width="4" x="149.5791" y="1200"/><rect fill="#F1F1F1" height="2" style="stroke:#181818;stroke-width:0.5;" width="4" x="149.5791" y="1204"/><text fill="#000000" font-family="sans-serif" font-size="14" lengthAdjust="spacing" textLength="71.5791" x="75" y="1228.1074">User model</text></g><!--entity userReceiver--><g id="elem_userReceiver"><rect fill="#F1F1F1" height="48.6211" rx="3.5" ry="3.5" style="stroke:#181818;stroke-width:0.5;" width="124.7998" x="207.5" y="1193"/><rect fill="#F1F1F1" height="10" style="stroke:#181818;stroke-width:0.5;" width="15" x="312.2998" y="1198"/><rect fill="#F1F1F1" height="2" style="stroke:#181818;stroke-width:0.5;" width="4" x="310.2998" y="1200"/><rect fill="#F1F1F1" height="2" style="stroke:#181818;stroke-width:0.5;" width="4" x="310.2998" y="1204"/><text fill="#000000" font-family="sans-serif" font-size="14" lengthAdjust="spacing" textLength="84.7998" x="222.5" y="1228.1074">UserReceiver</text></g><!--entity usersDBRepository--><g id="elem_usersDBRepository"><rect fill="#F1F1F1" height="48.6211" rx="3.5" ry="3.5" style="stroke:#181818;stroke-width:0.5;" width="162.9238" x="106.5" y="1398"/><rect fill="#F1F1F1" height="10" style="stroke:#181818;stroke-width:0.5;" width="15" x="249.4238" y="1403"/><rect fill="#F1F1F1" height="2" style="stroke:#181818;stroke-width:0.5;" width="4" x="247.4238" y="1405"/><rect fill="#F1F1F1" height="2" style="stroke:#181818;stroke-width:0.5;" width="4" x="247.4238" y="1409"/><text fill="#000000" font-family="sans-serif" font-size="14" lengthAdjust="spacing" textLength="122.9238" x="121.5" y="1433.1074">UsersDBRepository</text></g><!--entity userRepository--><g id="elem_userRepository"><rect fill="#F1F1F1" height="48.6211" rx="3.5" ry="3.5" style="stroke:#181818;stroke-width:0.5;" width="136.4756" x="60" y="783"/><rect fill="#F1F1F1" height="10" style="stroke:#181818;stroke-width:0.5;" width="15" x="176.4756" y="788"/><rect fill="#F1F1F1" height="2" style="stroke:#181818;stroke-width:0.5;" width="4" x="174.4756" y="790"/><rect fill="#F1F1F1" height="2" style="stroke:#181818;stroke-width:0.5;" width="4" x="174.4756" y="794"/><text fill="#000000" font-family="sans-serif" font-size="14" lengthAdjust="spacing" textLength="96.4756" x="75" y="818.1074">UserRepository</text></g><!--entity userDriver--><g id="elem_userDriver"><rect fill="#F1F1F1" height="48.6211" rx="3.5" ry="3.5" style="stroke:#181818;stroke-width:0.5;" width="141.1172" x="367.5" y="1193"/><rect fill="#F1F1F1" height="10" style="stroke:#181818;stroke-width:0.5;" width="15" x="488.6172" y="1198"/><rect fill="#F1F1F1" height="2" style="stroke:#181818;stroke-width:0.5;" width="4" x="486.6172" y="1200"/><rect fill="#F1F1F1" height="2" style="stroke:#181818;stroke-width:0.5;" width="4" x="486.6172" y="1204"/><text fill="#000000" font-family="sans-serif" font-size="14" lengthAdjust="spacing" textLength="101.1172" x="382.5" y="1228.1074">Driver Users DB</text></g><!--entity messageBroker--><g id="elem_messageBroker"><rect fill="#F1F1F1" height="48.6211" rx="3.5" ry="3.5" style="stroke:#181818;stroke-width:0.5;" width="138.041" x="243" y="988"/><rect fill="#F1F1F1" height="10" style="stroke:#181818;stroke-width:0.5;" width="15" x="361.041" y="993"/><rect fill="#F1F1F1" height="2" style="stroke:#181818;stroke-width:0.5;" width="4" x="359.041" y="995"/><rect fill="#F1F1F1" height="2" style="stroke:#181818;stroke-width:0.5;" width="4" x="359.041" y="999"/><text fill="#000000" font-family="sans-serif" font-size="14" lengthAdjust="spacing" textLength="98.041" x="258" y="1023.1074">MessageBroker</text></g><!--entity model--><g id="elem_model"><ellipse cx="122" cy="1115" fill="#F1F1F1" rx="8" ry="8" style="stroke:#181818;stroke-width:0.5;"/></g><!--entity userC--><g id="elem_userC"><ellipse cx="257" cy="705" fill="#F1F1F1" rx="8" ry="8" style="stroke:#181818;stroke-width:0.5;"/></g><!--entity userDBRepo--><g id="elem_userDBRepo"><ellipse cx="270" cy="1320" fill="#F1F1F1" rx="8" ry="8" style="stroke:#181818;stroke-width:0.5;"/></g><!--entity userR--><g id="elem_userR"><ellipse cx="270" cy="1115" fill="#F1F1F1" rx="8" ry="8" style="stroke:#181818;stroke-width:0.5;"/></g><!--entity userS--><g id="elem_userS"><ellipse cx="139" cy="910" fill="#F1F1F1" rx="8" ry="8" style="stroke:#181818;stroke-width:0.5;"/></g><!--entity userRepo--><g id="elem_userRepo"><ellipse cx="89" cy="705" fill="#F1F1F1" rx="8" ry="8" style="stroke:#181818;stroke-width:0.5;"/></g><!--entity HttpClient--><g id="elem_HttpClient"><ellipse cx="190" cy="147" fill="#F1F1F1" rx="8" ry="8" style="stroke:#181818;stroke-width:0.5;"/></g><!--entity db--><g id="elem_db"><ellipse cx="381" cy="147" fill="#F1F1F1" rx="8" ry="8" style="stroke:#181818;stroke-width:0.5;"/><text fill="#000000" font-family="sans-serif" font-size="14" lengthAdjust="spacing" textLength="57.6064" x="352.1968" y="179.1074">database</text></g><!--entity rabbit--><g id="elem_rabbit"><ellipse cx="510" cy="147" fill="#F1F1F1" rx="8" ry="8" style="stroke:#181818;stroke-width:0.5;"/></g><!--entity NodeHTTP--><g id="elem_NodeHTTP"><rect fill="#F1F1F1" height="48.6211" rx="3.5" ry="3.5" style="stroke:#181818;stroke-width:0.5;" width="105.3584" x="137.5" y="7"/><rect fill="#F1F1F1" height="10" style="stroke:#181818;stroke-width:0.5;" width="15" x="222.8584" y="12"/><rect fill="#F1F1F1" height="2" style="stroke:#181818;stroke-width:0.5;" width="4" x="220.8584" y="14"/><rect fill="#F1F1F1" height="2" style="stroke:#181818;stroke-width:0.5;" width="4" x="220.8584" y="18"/><text fill="#000000" font-family="sans-serif" font-size="14" lengthAdjust="spacing" textLength="65.3584" x="152.5" y="42.1074">Http Client</text></g><!--entity UsersComp--><g id="elem_UsersComp"><rect fill="#F1F1F1" height="48.6211" rx="3.5" ry="3.5" style="stroke:#181818;stroke-width:0.5;" width="103.0205" x="488.5" y="7"/><rect fill="#F1F1F1" height="10" style="stroke:#181818;stroke-width:0.5;" width="15" x="571.5205" y="12"/><rect fill="#F1F1F1" height="2" style="stroke:#181818;stroke-width:0.5;" width="4" x="569.5205" y="14"/><rect fill="#F1F1F1" height="2" style="stroke:#181818;stroke-width:0.5;" width="4" x="569.5205" y="18"/><text fill="#000000" font-family="sans-serif" font-size="14" lengthAdjust="spacing" textLength="63.0205" x="503.5" y="42.1074">RabbitMQ</text></g><!--entity UsersDB--><g id="elem_UsersDB"><rect fill="#F1F1F1" height="48.6211" rx="3.5" ry="3.5" style="stroke:#181818;stroke-width:0.5;" width="148.1377" x="305" y="7"/><rect fill="#F1F1F1" height="10" style="stroke:#181818;stroke-width:0.5;" width="15" x="433.1377" y="12"/><rect fill="#F1F1F1" height="2" style="stroke:#181818;stroke-width:0.5;" width="4" x="431.1377" y="14"/><rect fill="#F1F1F1" height="2" style="stroke:#181818;stroke-width:0.5;" width="4" x="431.1377" y="18"/><text fill="#000000" font-family="sans-serif" font-size="14" lengthAdjust="spacing" textLength="108.1377" x="320" y="42.1074">UsersCommands</text></g><!--link NodeHTTP to HttpClient--><g id="link_NodeHTTP_HttpClient"><path d="M190,56.02 C190,81.6 190,111.1 190,127.94 " fill="none" id="NodeHTTP-to-HttpClient" style="stroke:#454645;stroke-width:1.0;"/><path d="M198.4572,134.8618 A9,9 0 0 0 181.5428 134.8618" fill="none" style="stroke:#454645;stroke-width:1.5;"/></g><!--link HttpClient to out--><g id="link_HttpClient_out"><path d="M190,156.04 C190,176.94 190,232.54 190,249.81 " fill="none" id="HttpClient-out" style="stroke:#454645;stroke-width:1.0;"/></g><!--link out to routes--><g id="link_out_routes"><path d="M189.87,262.26 C189.42,280.58 188,343.24 188,395 C188,395 188,395 188,457 C188,499.69 182.3,549.2 178.45,577.78 " fill="none" id="out-routes" style="stroke:#454645;stroke-width:1.0;"/></g><!--link routes to userC--><g id="link_routes_userC"><path d="M194.23,627.06 C212.21,649.11 231.7584,673.0616 243.8984,687.9416 " fill="none" id="routes-to-userC" style="stroke:#454645;stroke-width:1.0;"/><path d="M254.8271,687.9586 A9,9 0 0 0 241.7211 698.6512" fill="none" style="stroke:#454645;stroke-width:1.5;"/></g><!--link userC to userController--><g id="link_userC_userController"><path d="M260.19,714.22 C265.94,729.04 278.23,760.72 286.8,782.8 " fill="none" id="userC-userController" style="stroke:#454645;stroke-width:1.0;"/></g><!--link userController to userS--><g id="link_userController_userS"><path d="M259.19,832.06 C222.76,855.39 177.8622,884.1187 156.6322,897.7087 " fill="none" id="userController-to-userS" style="stroke:#454645;stroke-width:1.0;"/><path d="M155.3621,908.5633 A9,9 0 0 0 146.2429 894.3176" fill="none" style="stroke:#454645;stroke-width:1.5;"/></g><!--reverse link userS to userService--><g id="link_userS_userService"><path d="M139,929.22 C139,944.04 139,965.72 139,987.8 " fill="none" id="userS-backto-userService" style="stroke:#454645;stroke-width:1.0;"/><path d="M130.5428,922.2982 A9,9 0 0 0 147.4572 922.2982" fill="none" style="stroke:#454645;stroke-width:1.5;"/></g><!--link userService to model--><g id="link_userService_model"><path d="M135.01,1037.06 C131.28,1059.11 127.5833,1080.9493 125.0733,1095.8293 " fill="none" id="userService-to-model" style="stroke:#454645;stroke-width:1.0;"/><path d="M132.2614,1104.0614 A9,9 0 0 0 115.5826 1101.248" fill="none" style="stroke:#454645;stroke-width:1.5;"/></g><!--link model to user--><g id="link_model_user"><path d="M121.51,1124.22 C120.62,1139.04 118.73,1170.72 117.42,1192.8 " fill="none" id="model-user" style="stroke:#454645;stroke-width:1.0;"/></g><!--link UsersComp to rabbit--><g id="link_UsersComp_rabbit"><path d="M533.78,56.02 C527.02,81.6 516.58,121.1 512.13,137.94 " fill="none" id="UsersComp-rabbit" style="stroke:#454645;stroke-width:1.0;"/></g><!--reverse link rabbit to apiUsers--><g id="link_rabbit_apiUsers"><path d="M503.1876,165.3491 C494.9876,186.2491 476.82,232.54 470.04,249.81 " fill="none" id="rabbit-backto-apiUsers" style="stroke:#454645;stroke-width:1.0;"/><path d="M497.8428,155.8166 A9,9 0 0 0 513.5887 161.9944" fill="none" style="stroke:#454645;stroke-width:1.5;"/></g><!--link apiUsers to messageBroker--><g id="link_apiUsers_messageBroker"><path d="M468.46,262.26 C470.02,280.56 475,343.18 475,395 C475,395 475,395 475,518 C475,707.48 365.32,918.18 325.9,987.78 " fill="none" id="apiUsers-messageBroker" style="stroke:#454645;stroke-width:1.0;"/></g><!--link messageBroker to userR--><g id="link_messageBroker_userR"><path d="M302.15,1037.06 C292.94,1059.11 279.69,1090.81 273.47,1105.69 " fill="none" id="messageBroker-userR" style="stroke:#454645;stroke-width:1.0;"/></g><!--reverse link userR to userReceiver--><g id="link_userR_userReceiver"><path d="M270,1134.22 C270,1149.04 270,1170.72 270,1192.8 " fill="none" id="userR-backto-userReceiver" style="stroke:#454645;stroke-width:1.0;"/><path d="M261.5428,1127.2982 A9,9 0 0 0 278.4572 1127.2982" fill="none" style="stroke:#454645;stroke-width:1.5;"/></g><!--link userService to userR--><g id="link_userService_userR"><path d="M169.71,1037.06 C199.36,1059.81 234.4672,1086.7314 253.0072,1100.9614 " fill="none" id="userService-to-userR" style="stroke:#454645;stroke-width:1.0;"/><path d="M263.6474,1098.4669 A9,9 0 0 0 253.3489 1111.8847" fill="none" style="stroke:#454645;stroke-width:1.5;"/></g><!--link userReceiver to userDBRepo--><g id="link_userReceiver_userDBRepo"><path d="M270,1242.06 C270,1264.11 270,1285.81 270,1300.69 " fill="none" id="userReceiver-to-userDBRepo" style="stroke:#454645;stroke-width:1.0;"/><path d="M278.4572,1307.6118 A9,9 0 0 0 261.5428 1307.6118" fill="none" style="stroke:#454645;stroke-width:1.5;"/></g><!--reverse link userDBRepo to usersDBRepository--><g id="link_userDBRepo_usersDBRepository"><path d="M256.9687,1336.9687 C244.8787,1351.7887 225.36,1375.72 207.34,1397.8 " fill="none" id="userDBRepo-backto-usersDBRepository" style="stroke:#454645;stroke-width:1.0;"/><path d="M254.791,1326.2591 A9,9 0 0 0 267.8974 1336.9512" fill="none" style="stroke:#454645;stroke-width:1.5;"/></g><!--link usersDBRepository to userRepo--><g id="link_usersDBRepository_userRepo"><path d="M149.96,1397.78 C101.52,1364.29 24,1298.24 24,1218.5 C24,909 24,909 24,909 C24,852.43 22.87,836.24 42,783 C51.74,755.88 71.76,727.97 82.25,714.41 " fill="none" id="usersDBRepository-userRepo" style="stroke:#454645;stroke-width:1.0;"/></g><!--reverse link userRepo to userRepository--><g id="link_userRepo_userRepository"><path d="M95.8072,723.5429 C101.5572,738.3629 110.23,760.72 118.8,782.8 " fill="none" id="userRepo-backto-userRepository" style="stroke:#454645;stroke-width:1.0;"/><path d="M85.4189,720.1489 A9,9 0 0 0 101.188 714.0306" fill="none" style="stroke:#454645;stroke-width:1.5;"/></g><!--link userRepository to userS--><g id="link_userRepository_userS"><path d="M130.58,832.06 C132.99,854.11 136.46,885.81 138.09,900.69 " fill="none" id="userRepository-userS" style="stroke:#454645;stroke-width:1.0;"/></g><!--link UsersDB to db--><g id="link_UsersDB_db"><path d="M379.41,56.02 C379.87,81.6 380.56,121.1 380.86,137.94 " fill="none" id="UsersDB-db" style="stroke:#454645;stroke-width:1.0;"/></g><!--reverse link db to dbUsers--><g id="link_db_dbUsers"><path d="M381.5074,166.0362 C382.0874,186.9362 383.37,232.54 383.85,249.81 " fill="none" id="db-backto-dbUsers" style="stroke:#454645;stroke-width:1.0;"/><path d="M372.8614,159.3516 A9,9 0 0 0 389.7694 158.8824" fill="none" style="stroke:#454645;stroke-width:1.5;"/></g><!--link dbUsers to userDriver--><g id="link_dbUsers_userDriver"><path d="M387.71,262.23 C399.91,279.95 438,339.69 438,395 C438,395 438,395 438,1013.5 C438,1078.35 438,1154.85 438,1192.75 " fill="none" id="dbUsers-userDriver" style="stroke:#454645;stroke-width:1.0;"/></g><!--link userDriver to userDBRepo--><g id="link_userDriver_userDBRepo"><path d="M398.61,1242.06 C359.24,1265.62 301.44,1300.19 279.19,1313.5 " fill="none" id="userDriver-userDBRepo" style="stroke:#454645;stroke-width:1.0;"/></g><!--SRC=[VLJDRkCW4Bxp5BINxSMR-wggr2GhjOTMNJjz01BFfcXjOm6fLAtwxeKPC3WcJMGPlfzX60R_UBDsDBzMgx4JWptrtS-3wbVk6TK0WwrQAOvQz8nTsJVeWLlrmUHWGVyL1-3NxYyCVt0nDfrq-fnhXHLxOG0bxNvfqsA_bvQnQJL-xIDn2eMIPzN2msxtCXFLw7lwWufN0zfi79ah8jYBeJL9jbtFujpU8igZyEuEfIS4_pF6tMzKsih1hVcxsV7xbqSAX3fridD9dfOO9IfdYkqwr88evF9zkOX0iJKEpmNUjb63rQhhG4_99gXaQ42_omDCwZ0lINdlojrDofAaXWF8zspn29J4hk0rZCf8g_H7gcsEbjTOU2uRjjglJiV2Gu6zW_1pzHCO8uwmrkfVs4EV8tGaYqR5ifGfhFzbYhPwcQylKyqtBX_pax5uEtZLLZVvBKn3Js6dkWV7eRCOlSb9cvYt4gzELI0MJFGqB6ieRuZm7FToAg67CJ1DsNHvAJNw7iIhGm4Ne1EUdTbiYW8gRTwUARjwcHp1P_f8X2DST6wA61GbISmbHYZPaxdWR4AHjck4t6SqV3t8x-O929RG-McO64hq2m00]--></g></svg>