<?xml version="1.0" encoding="us-ascii" standalone="no"?><svg xmlns="http://www.w3.org/2000/svg" xmlns:xlink="http://www.w3.org/1999/xlink" contentStyleType="text/css" height="633px" preserveAspectRatio="none" style="width:354px;height:633px;background:#FFFFFF;" version="1.1" viewBox="0 0 354 633" width="354px" zoomAndPan="magnify"><defs><linearGradient id="g1rn8u5qdcdu4g0" x1="0%" x2="100%" y1="0%" y2="100%"><stop offset="0%" stop-color="#F2AA4C"/><stop offset="100%" stop-color="#CE4A7E"/></linearGradient></defs><g><text fill="#000000" font-family="sans-serif" font-size="14" font-weight="bold" lengthAdjust="spacing" textLength="138" x="101" y="25.1074">US14 Class Diagram</text><!--class UserController--><g id="elem_UserController"><rect codeLine="8" fill="url(#g1rn8u5qdcdu4g0)" height="44.6211" id="UserController" rx="2.5" ry="2.5" style="stroke:#181818;stroke-width:0.5;" width="97" x="88" y="46.6211"/><text fill="#000000" font-family="sans-serif" font-size="14" lengthAdjust="spacing" textLength="91" x="91" y="66.7285">UserController</text><line style="stroke:#181818;stroke-width:0.5;" x1="89" x2="184" y1="75.2422" y2="75.2422"/><line style="stroke:#181818;stroke-width:0.5;" x1="89" x2="184" y1="83.2422" y2="83.2422"/></g><!--class UserService--><g id="elem_UserService"><rect codeLine="11" fill="url(#g1rn8u5qdcdu4g0)" height="63.2422" id="UserService" rx="2.5" ry="2.5" style="stroke:#181818;stroke-width:0.5;" width="241" x="16" y="170.6211"/><text fill="#000000" font-family="sans-serif" font-size="14" lengthAdjust="spacing" textLength="76" x="98.5" y="190.7285">UserService</text><line style="stroke:#181818;stroke-width:0.5;" x1="17" x2="256" y1="199.2422" y2="199.2422"/><line style="stroke:#181818;stroke-width:0.5;" x1="17" x2="256" y1="207.2422" y2="207.2422"/><ellipse cx="27" cy="222.0527" fill="#84BE84" rx="3" ry="3" style="stroke:#038048;stroke-width:1.0;"/><text fill="#000000" font-family="sans-serif" font-size="14" lengthAdjust="spacing" textLength="215" x="36" y="226.3496">getUserByName(string name):void</text></g><!--class UserRepository--><g id="elem_UserRepository"><rect codeLine="15" fill="url(#g1rn8u5qdcdu4g0)" height="79.2031" id="UserRepository" rx="2.5" ry="2.5" style="stroke:#181818;stroke-width:0.5;" width="259" x="7" y="312.6211"/><text fill="#000000" font-family="sans-serif" font-size="12" font-style="italic" lengthAdjust="spacing" textLength="61" x="106" y="330.5703">&#171;interface&#187;</text><text fill="#000000" font-family="sans-serif" font-size="14" font-style="italic" lengthAdjust="spacing" textLength="98" x="87.5" y="348.6895">UserRepository</text><line style="stroke:#181818;stroke-width:0.5;" x1="8" x2="265" y1="357.2031" y2="357.2031"/><line style="stroke:#181818;stroke-width:0.5;" x1="8" x2="265" y1="365.2031" y2="365.2031"/><ellipse cx="18" cy="380.0137" fill="#84BE84" rx="3" ry="3" style="stroke:#038048;stroke-width:1.0;"/><text fill="#000000" font-family="sans-serif" font-size="14" lengthAdjust="spacing" textLength="233" x="27" y="384.3105">getUserByName(string name): Result</text></g><!--class User--><g id="elem_User"><rect codeLine="21" fill="url(#g1rn8u5qdcdu4g0)" height="156.3477" id="User" rx="2.5" ry="2.5" style="stroke:#181818;stroke-width:0.5;" width="115" x="79" y="470.6211"/><text fill="#000000" font-family="sans-serif" font-size="14" lengthAdjust="spacing" textLength="29" x="122" y="490.7285">User</text><line style="stroke:#181818;stroke-width:0.5;" x1="80" x2="193" y1="499.2422" y2="499.2422"/><rect fill="none" height="6" style="stroke:#C82930;stroke-width:1.0;" width="6" x="87" y="511.0527"/><text fill="#000000" font-family="sans-serif" font-size="14" lengthAdjust="spacing" textLength="35" x="99" y="518.3496">name</text><rect fill="none" height="6" style="stroke:#C82930;stroke-width:1.0;" width="6" x="87" y="529.6738"/><text fill="#000000" font-family="sans-serif" font-size="14" lengthAdjust="spacing" textLength="33" x="99" y="536.9707">email</text><rect fill="none" height="6" style="stroke:#C82930;stroke-width:1.0;" width="6" x="87" y="548.2949"/><text fill="#000000" font-family="sans-serif" font-size="14" lengthAdjust="spacing" textLength="72" x="99" y="555.5918">dateOfBirth</text><rect fill="none" height="6" style="stroke:#C82930;stroke-width:1.0;" width="6" x="87" y="566.916"/><text fill="#000000" font-family="sans-serif" font-size="14" lengthAdjust="spacing" textLength="89" x="99" y="574.2129">phoneNumber</text><rect fill="none" height="6" style="stroke:#C82930;stroke-width:1.0;" width="6" x="87" y="585.5371"/><text fill="#000000" font-family="sans-serif" font-size="14" lengthAdjust="spacing" textLength="40" x="99" y="592.834">GDPR</text><rect fill="none" height="6" style="stroke:#C82930;stroke-width:1.0;" width="6" x="87" y="604.1582"/><text fill="#000000" font-family="sans-serif" font-size="14" lengthAdjust="spacing" textLength="24" x="99" y="611.4551">role</text><line style="stroke:#181818;stroke-width:0.5;" x1="80" x2="193" y1="618.9688" y2="618.9688"/></g><!--class Role--><g id="elem_Role"><rect codeLine="30" fill="url(#g1rn8u5qdcdu4g0)" height="81.8633" id="Role" rx="2.5" ry="2.5" style="stroke:#181818;stroke-width:0.5;" width="77" x="270" y="507.6211"/><text fill="#000000" font-family="sans-serif" font-size="14" lengthAdjust="spacing" textLength="29" x="294" y="527.7285">Role</text><line style="stroke:#181818;stroke-width:0.5;" x1="271" x2="346" y1="536.2422" y2="536.2422"/><rect fill="none" height="6" style="stroke:#C82930;stroke-width:1.0;" width="6" x="278" y="548.0527"/><text fill="#000000" font-family="sans-serif" font-size="14" lengthAdjust="spacing" textLength="51" x="290" y="555.3496">librarian</text><rect fill="none" height="6" style="stroke:#C82930;stroke-width:1.0;" width="6" x="278" y="566.6738"/><text fill="#000000" font-family="sans-serif" font-size="14" lengthAdjust="spacing" textLength="42" x="290" y="573.9707">reader</text><line style="stroke:#181818;stroke-width:0.5;" x1="271" x2="346" y1="581.4844" y2="581.4844"/></g><!--link UserController to UserService--><g id="link_UserController_UserService"><path codeLine="37" d="M136.5,91.7511 C136.5,113.1211 136.5,140.0111 136.5,164.1411 " fill="none" id="UserController-to-UserService" style="stroke:#181818;stroke-width:1.0;stroke-dasharray:7.0,7.0;"/><polygon fill="#181818" points="136.5,170.1411,140.5,161.1411,136.5,165.1411,132.5,161.1411,136.5,170.1411" style="stroke:#181818;stroke-width:1.0;"/><text fill="#000000" font-family="sans-serif" font-size="13" lengthAdjust="spacing" textLength="28" x="137.5" y="136.6494">uses</text></g><!--link UserService to UserRepository--><g id="link_UserService_UserRepository"><path codeLine="38" d="M136.5,233.7911 C136.5,256.6511 136.5,282.0311 136.5,306.5811 " fill="none" id="UserService-to-UserRepository" style="stroke:#181818;stroke-width:1.0;stroke-dasharray:7.0,7.0;"/><polygon fill="#181818" points="136.5,312.5811,140.5,303.5811,136.5,307.5811,132.5,303.5811,136.5,312.5811" style="stroke:#181818;stroke-width:1.0;"/><text fill="#000000" font-family="sans-serif" font-size="13" lengthAdjust="spacing" textLength="28" x="137.5" y="278.6494">uses</text></g><!--link UserRepository to User--><g id="link_UserRepository_User"><path codeLine="39" d="M136.5,392.0111 C136.5,414.5211 136.5,437.6411 136.5,464.5911 " fill="none" id="UserRepository-to-User" style="stroke:#181818;stroke-width:1.0;"/><polygon fill="#181818" points="136.5,470.5911,140.5,461.5911,136.5,465.5911,132.5,461.5911,136.5,470.5911" style="stroke:#181818;stroke-width:1.0;"/><text fill="#000000" font-family="sans-serif" font-size="13" lengthAdjust="spacing" textLength="48" x="137.5" y="436.6494">Records</text><text fill="#000000" font-family="sans-serif" font-size="13" lengthAdjust="spacing" textLength="7" x="128.9422" y="413.7586">1</text><text fill="#000000" font-family="sans-serif" font-size="13" lengthAdjust="spacing" textLength="20" x="115.5469" y="459.3693">0..*</text></g><!--link User to Role--><g id="link_User_Role"><path codeLine="40" d="M194.25,548.6211 C219.14,548.6211 247.57,548.6211 269.85,548.6211 " fill="none" id="User-Role" style="stroke:#181818;stroke-width:1.0;"/><polygon fill="#000000" points="221.5,536.2666,212.4549,533.3277,212.4549,539.2055,221.5,536.2666" style="stroke:#000000;stroke-width:1.0;"/><text fill="#000000" font-family="sans-serif" font-size="13" lengthAdjust="spacing" textLength="26" x="225.5" y="541.6494">have</text><text fill="#000000" font-family="sans-serif" font-size="13" lengthAdjust="spacing" textLength="7" x="202.0977" y="544.5567">1</text><text fill="#000000" font-family="sans-serif" font-size="13" lengthAdjust="spacing" textLength="7" x="255.0786" y="544.1217">1</text></g><!--SRC=[bP3BQiCm44Nt-WhXBlf2TbC21HCCYHDtbnQ7V80YJ-m1sJ8ZEH12_xsMqpPkoQQx4Jfpvt9kA-TQ6qVHfjjPHTWwDCq6w80AN5VhK9awKbfQAmgK9ScQiGeBu0f9QM3CeTF0jvl9bASUuyjlZ0rhV6k1KjCuCbe3yPliUJwVfbaMfQlf_6MLPVp4FiRmr_Khv8azbk0yipYkPGrtrX4s9M_w-Ju-62ny4ZOEQ2_x14_cq1gBpj2HpsO_NqdoxtYUW-sqO_x4gEtL7E5Nc81QecQYa0xUzWiaLp7HLgQ1TLVlW9XuNRxdJFHcuA8Wxr_NBN6XSKUIK3RzJ22BFeFxEkotv31CnYRZpe9bOxKU-6Fd0esC1PE02v44Js7u40mBNeCoL9pHCq1OLauCyr0-vWclv04-0G00]--></g></svg>