<?xml version="1.0" encoding="us-ascii" standalone="no"?><svg xmlns="http://www.w3.org/2000/svg" xmlns:xlink="http://www.w3.org/1999/xlink" contentStyleType="text/css" height="431px" preserveAspectRatio="none" style="width:561px;height:431px;background:#FFFFFF;" version="1.1" viewBox="0 0 561 431" width="561px" zoomAndPan="magnify"><defs><linearGradient id="g1bpxxdhzhle9m0" x1="0%" x2="100%" y1="0%" y2="100%"><stop offset="0%" stop-color="#F2AA4C"/><stop offset="100%" stop-color="#CE4A7E"/></linearGradient></defs><g><text fill="#000000" font-family="sans-serif" font-size="14" font-weight="bold" lengthAdjust="spacing" textLength="171" x="194" y="30.1074">US12 Sequence Diagram</text><rect fill="#FFFFFF" height="206.0371" style="stroke:#181818;stroke-width:1.0;" width="10" x="40" y="133.2422"/><rect fill="#FFFFFF" height="156.4551" style="stroke:#181818;stroke-width:1.0;" width="10" x="259" y="173.8242"/><rect fill="#FFFFFF" height="93.873" style="stroke:#181818;stroke-width:1.0;" width="10" x="378" y="205.1152"/><rect fill="#FFFFFF" height="31.291" style="stroke:#181818;stroke-width:1.0;" width="10" x="492.5" y="236.4063"/><line style="stroke:#181818;stroke-width:0.5;stroke-dasharray:5.0,5.0;" x1="45" x2="45" y1="123.2422" y2="348.2793"/><line style="stroke:#181818;stroke-width:0.5;stroke-dasharray:5.0,5.0;" x1="263.5" x2="263.5" y1="123.2422" y2="348.2793"/><line style="stroke:#181818;stroke-width:0.5;stroke-dasharray:5.0,5.0;" x1="383" x2="383" y1="123.2422" y2="348.2793"/><line style="stroke:#181818;stroke-width:0.5;stroke-dasharray:5.0,5.0;" x1="497" x2="497" y1="123.2422" y2="348.2793"/><text fill="#000000" font-family="sans-serif" font-size="14" lengthAdjust="spacing" textLength="74" x="5" y="119.7285">Anonymous</text><ellipse cx="45" cy="53.1211" fill="url(#g1bpxxdhzhle9m0)" rx="8" ry="8" style="stroke:#181818;stroke-width:0.5;"/><path d="M45,61.1211 L45,88.1211 M32,69.1211 L58,69.1211 M45,88.1211 L32,103.1211 M45,88.1211 L58,103.1211 " fill="none" style="stroke:#181818;stroke-width:0.5;"/><text fill="#000000" font-family="sans-serif" font-size="14" lengthAdjust="spacing" textLength="74" x="5" y="362.3867">Anonymous</text><ellipse cx="45" cy="374.4004" fill="url(#g1bpxxdhzhle9m0)" rx="8" ry="8" style="stroke:#181818;stroke-width:0.5;"/><path d="M45,382.4004 L45,409.4004 M32,390.4004 L58,390.4004 M45,409.4004 L32,424.4004 M45,409.4004 L58,424.4004 " fill="none" style="stroke:#181818;stroke-width:0.5;"/><rect fill="url(#g1bpxxdhzhle9m0)" height="32.6211" rx="2.5" ry="2.5" style="stroke:#181818;stroke-width:0.5;" width="109" x="209.5" y="89.6211"/><text fill="#000000" font-family="sans-serif" font-size="14" lengthAdjust="spacing" textLength="95" x="216.5" y="111.7285">:UserController</text><rect fill="url(#g1bpxxdhzhle9m0)" height="32.6211" rx="2.5" ry="2.5" style="stroke:#181818;stroke-width:0.5;" width="109" x="209.5" y="347.2793"/><text fill="#000000" font-family="sans-serif" font-size="14" lengthAdjust="spacing" textLength="95" x="216.5" y="369.3867">:UserController</text><rect fill="url(#g1bpxxdhzhle9m0)" height="32.6211" rx="2.5" ry="2.5" style="stroke:#181818;stroke-width:0.5;" width="94" x="336" y="89.6211"/><text fill="#000000" font-family="sans-serif" font-size="14" lengthAdjust="spacing" textLength="80" x="343" y="111.7285">:UserService</text><rect fill="url(#g1bpxxdhzhle9m0)" height="32.6211" rx="2.5" ry="2.5" style="stroke:#181818;stroke-width:0.5;" width="94" x="336" y="347.2793"/><text fill="#000000" font-family="sans-serif" font-size="14" lengthAdjust="spacing" textLength="80" x="343" y="369.3867">:UserService</text><rect fill="url(#g1bpxxdhzhle9m0)" height="32.6211" rx="2.5" ry="2.5" style="stroke:#181818;stroke-width:0.5;" width="115" x="440" y="89.6211"/><text fill="#000000" font-family="sans-serif" font-size="14" lengthAdjust="spacing" textLength="101" x="447" y="111.7285">:UserRepository</text><rect fill="url(#g1bpxxdhzhle9m0)" height="32.6211" rx="2.5" ry="2.5" style="stroke:#181818;stroke-width:0.5;" width="115" x="440" y="347.2793"/><text fill="#000000" font-family="sans-serif" font-size="14" lengthAdjust="spacing" textLength="101" x="447" y="369.3867">:UserRepository</text><rect fill="#FFFFFF" height="206.0371" style="stroke:#181818;stroke-width:1.0;" width="10" x="40" y="133.2422"/><rect fill="#FFFFFF" height="156.4551" style="stroke:#181818;stroke-width:1.0;" width="10" x="259" y="173.8242"/><rect fill="#FFFFFF" height="93.873" style="stroke:#181818;stroke-width:1.0;" width="10" x="378" y="205.1152"/><rect fill="#FFFFFF" height="31.291" style="stroke:#181818;stroke-width:1.0;" width="10" x="492.5" y="236.4063"/><polygon fill="#181818" points="247,169.8242,257,173.8242,247,177.8242,251,173.8242" style="stroke:#181818;stroke-width:1.0;"/><line style="stroke:#181818;stroke-width:1.0;" x1="50" x2="253" y1="173.8242" y2="173.8242"/><text fill="#000000" font-family="sans-serif" font-size="13" font-weight="bold" lengthAdjust="spacing" textLength="7" x="57" y="159.916">1</text><text fill="#000000" font-family="sans-serif" font-size="13" lengthAdjust="spacing" textLength="179" x="68" y="151.2705">Request to register as a reader</text><text fill="#000000" font-family="sans-serif" font-size="13" lengthAdjust="spacing" textLength="83" x="68" y="168.5615">(POST /users)</text><polygon fill="#181818" points="366,201.1152,376,205.1152,366,209.1152,370,205.1152" style="stroke:#181818;stroke-width:1.0;"/><line style="stroke:#181818;stroke-width:1.0;" x1="269" x2="372" y1="205.1152" y2="205.1152"/><text fill="#000000" font-family="sans-serif" font-size="13" font-weight="bold" lengthAdjust="spacing" textLength="7" x="276" y="199.8525">2</text><text fill="#000000" font-family="sans-serif" font-size="13" lengthAdjust="spacing" textLength="67" x="287" y="199.8525">Create user</text><polygon fill="#181818" points="480.5,232.4063,490.5,236.4063,480.5,240.4063,484.5,236.4063" style="stroke:#181818;stroke-width:1.0;"/><line style="stroke:#181818;stroke-width:1.0;" x1="388" x2="486.5" y1="236.4063" y2="236.4063"/><text fill="#000000" font-family="sans-serif" font-size="13" font-weight="bold" lengthAdjust="spacing" textLength="7" x="395" y="231.1436">3</text><text fill="#000000" font-family="sans-serif" font-size="13" lengthAdjust="spacing" textLength="57" x="406" y="231.1436">Save user</text><polygon fill="#181818" points="399,263.6973,389,267.6973,399,271.6973,395,267.6973" style="stroke:#181818;stroke-width:1.0;"/><line style="stroke:#181818;stroke-width:1.0;stroke-dasharray:2.0,2.0;" x1="393" x2="496.5" y1="267.6973" y2="267.6973"/><text fill="#000000" font-family="sans-serif" font-size="13" font-weight="bold" lengthAdjust="spacing" textLength="7" x="405" y="262.4346">4</text><text fill="#000000" font-family="sans-serif" font-size="13" lengthAdjust="spacing" textLength="64" x="416" y="262.4346">User saved</text><polygon fill="#181818" points="280,294.9883,270,298.9883,280,302.9883,276,298.9883" style="stroke:#181818;stroke-width:1.0;"/><line style="stroke:#181818;stroke-width:1.0;stroke-dasharray:2.0,2.0;" x1="274" x2="382" y1="298.9883" y2="298.9883"/><text fill="#000000" font-family="sans-serif" font-size="13" font-weight="bold" lengthAdjust="spacing" textLength="7" x="286" y="293.7256">5</text><text fill="#000000" font-family="sans-serif" font-size="13" lengthAdjust="spacing" textLength="74" x="297" y="293.7256">User created</text><polygon fill="#181818" points="61,326.2793,51,330.2793,61,334.2793,57,330.2793" style="stroke:#181818;stroke-width:1.0;"/><line style="stroke:#181818;stroke-width:1.0;stroke-dasharray:2.0,2.0;" x1="55" x2="263" y1="330.2793" y2="330.2793"/><text fill="#000000" font-family="sans-serif" font-size="13" font-weight="bold" lengthAdjust="spacing" textLength="7" x="67" y="325.0166">6</text><text fill="#000000" font-family="sans-serif" font-size="13" lengthAdjust="spacing" textLength="14" x="78" y="325.0166">ok</text><!--SRC=[ZP0nJyCm48Lt_ufJ6O0XH5ILa39KYaApWZ3TM5pdL2mIEvpFaVhlkPYq2ntmTdxtlNjtjv_COwpAKgT3jEH6Ti5hfCbPv3Jq3pOCPSJlXDvYqJbp93CeUIPnC9RTP1WX-5pxD1oGb6B7FS9UFwv1BoWydr610i6gzi6VXf3Y2ao4VKI2ctPTrvkcRSjcjwcVTcshr6Y8dNMZyGohQcvhWcSAVO-KoOQflqR-1PUjCgLf-X_qXcE8JXAVCZUNLtDUJZ53IkLzYcrELmabHuWC783mw2ABA6P6AjCXVVYxrnVz3cKIAjwhl9B04hA2Hdh4DcNRERO8SueAj9cM_vogE1DvTXIn- -s_nCY2pNxTCaIq-RU2yANK3m00]--></g></svg>