<?xml version="1.0" encoding="us-ascii" standalone="no"?><svg xmlns="http://www.w3.org/2000/svg" xmlns:xlink="http://www.w3.org/1999/xlink" contentStyleType="text/css" height="458px" preserveAspectRatio="none" style="width:739px;height:458px;background:#FFFFFF;" version="1.1" viewBox="0 0 739 458" width="739px" zoomAndPan="magnify"><defs><linearGradient id="g1nwbgabdh0qk70" x1="0%" x2="100%" y1="0%" y2="100%"><stop offset="0%" stop-color="#F2AA4C"/><stop offset="100%" stop-color="#CE4A7E"/></linearGradient></defs><g><text fill="#000000" font-family="sans-serif" font-size="14" font-weight="bold" lengthAdjust="spacing" textLength="171" x="283.25" y="30.1074">US09 Sequence Diagram</text><rect fill="#FFFFFF" height="169.4551" style="stroke:#181818;stroke-width:1.0;" width="10" x="283" y="156.5332"/><rect fill="#FFFFFF" height="138.1641" style="stroke:#181818;stroke-width:1.0;" width="10" x="455" y="187.8242"/><rect fill="#FFFFFF" height="31.291" style="stroke:#181818;stroke-width:1.0;" width="10" x="662" y="219.1152"/><line style="stroke:#181818;stroke-width:0.5;stroke-dasharray:5.0,5.0;" x1="36" x2="36" y1="123.2422" y2="375.2793"/><line style="stroke:#181818;stroke-width:0.5;stroke-dasharray:5.0,5.0;" x1="287.5" x2="287.5" y1="123.2422" y2="375.2793"/><line style="stroke:#181818;stroke-width:0.5;stroke-dasharray:5.0,5.0;" x1="460" x2="460" y1="123.2422" y2="375.2793"/><line style="stroke:#181818;stroke-width:0.5;stroke-dasharray:5.0,5.0;" x1="666.5" x2="666.5" y1="123.2422" y2="375.2793"/><text fill="#000000" font-family="sans-serif" font-size="14" lengthAdjust="spacing" textLength="56" x="5" y="119.7285">Librarian</text><ellipse cx="36" cy="53.1211" fill="url(#g1nwbgabdh0qk70)" rx="8" ry="8" style="stroke:#181818;stroke-width:0.5;"/><path d="M36,61.1211 L36,88.1211 M23,69.1211 L49,69.1211 M36,88.1211 L23,103.1211 M36,88.1211 L49,103.1211 " fill="none" style="stroke:#181818;stroke-width:0.5;"/><text fill="#000000" font-family="sans-serif" font-size="14" lengthAdjust="spacing" textLength="56" x="5" y="389.3867">Librarian</text><ellipse cx="36" cy="401.4004" fill="url(#g1nwbgabdh0qk70)" rx="8" ry="8" style="stroke:#181818;stroke-width:0.5;"/><path d="M36,409.4004 L36,436.4004 M23,417.4004 L49,417.4004 M36,436.4004 L23,451.4004 M36,436.4004 L49,451.4004 " fill="none" style="stroke:#181818;stroke-width:0.5;"/><rect fill="url(#g1nwbgabdh0qk70)" height="32.6211" rx="2.5" ry="2.5" style="stroke:#181818;stroke-width:0.5;" width="127" x="224.5" y="89.6211"/><text fill="#000000" font-family="sans-serif" font-size="14" lengthAdjust="spacing" textLength="113" x="231.5" y="111.7285">LendingController</text><rect fill="url(#g1nwbgabdh0qk70)" height="32.6211" rx="2.5" ry="2.5" style="stroke:#181818;stroke-width:0.5;" width="127" x="224.5" y="374.2793"/><text fill="#000000" font-family="sans-serif" font-size="14" lengthAdjust="spacing" textLength="113" x="231.5" y="396.3867">LendingController</text><rect fill="url(#g1nwbgabdh0qk70)" height="32.6211" rx="2.5" ry="2.5" style="stroke:#181818;stroke-width:0.5;" width="112" x="404" y="89.6211"/><text fill="#000000" font-family="sans-serif" font-size="14" lengthAdjust="spacing" textLength="98" x="411" y="111.7285">LendingService</text><rect fill="url(#g1nwbgabdh0qk70)" height="32.6211" rx="2.5" ry="2.5" style="stroke:#181818;stroke-width:0.5;" width="112" x="404" y="374.2793"/><text fill="#000000" font-family="sans-serif" font-size="14" lengthAdjust="spacing" textLength="98" x="411" y="396.3867">LendingService</text><rect fill="url(#g1nwbgabdh0qk70)" height="32.6211" rx="2.5" ry="2.5" style="stroke:#181818;stroke-width:0.5;" width="133" x="600.5" y="89.6211"/><text fill="#000000" font-family="sans-serif" font-size="14" lengthAdjust="spacing" textLength="119" x="607.5" y="111.7285">LendingRepository</text><rect fill="url(#g1nwbgabdh0qk70)" height="32.6211" rx="2.5" ry="2.5" style="stroke:#181818;stroke-width:0.5;" width="133" x="600.5" y="374.2793"/><text fill="#000000" font-family="sans-serif" font-size="14" lengthAdjust="spacing" textLength="119" x="607.5" y="396.3867">LendingRepository</text><rect fill="#FFFFFF" height="169.4551" style="stroke:#181818;stroke-width:1.0;" width="10" x="283" y="156.5332"/><rect fill="#FFFFFF" height="138.1641" style="stroke:#181818;stroke-width:1.0;" width="10" x="455" y="187.8242"/><rect fill="#FFFFFF" height="31.291" style="stroke:#181818;stroke-width:1.0;" width="10" x="662" y="219.1152"/><polygon fill="#181818" points="271,152.5332,281,156.5332,271,160.5332,275,156.5332" style="stroke:#181818;stroke-width:1.0;"/><line style="stroke:#181818;stroke-width:1.0;" x1="36" x2="277" y1="156.5332" y2="156.5332"/><text fill="#000000" font-family="sans-serif" font-size="13" font-weight="bold" lengthAdjust="spacing" textLength="7" x="43" y="151.2705">1</text><text fill="#000000" font-family="sans-serif" font-size="13" lengthAdjust="spacing" textLength="217" x="54" y="151.2705">request top 5 lent books (GET/books)</text><polygon fill="#181818" points="443,183.8242,453,187.8242,443,191.8242,447,187.8242" style="stroke:#181818;stroke-width:1.0;"/><line style="stroke:#181818;stroke-width:1.0;" x1="293" x2="449" y1="187.8242" y2="187.8242"/><text fill="#000000" font-family="sans-serif" font-size="13" font-weight="bold" lengthAdjust="spacing" textLength="7" x="300" y="182.5615">2</text><text fill="#000000" font-family="sans-serif" font-size="13" lengthAdjust="spacing" textLength="132" x="311" y="182.5615">find top LentBookTitles</text><polygon fill="#181818" points="650,215.1152,660,219.1152,650,223.1152,654,219.1152" style="stroke:#181818;stroke-width:1.0;"/><line style="stroke:#181818;stroke-width:1.0;" x1="465" x2="656" y1="219.1152" y2="219.1152"/><text fill="#000000" font-family="sans-serif" font-size="13" font-weight="bold" lengthAdjust="spacing" textLength="7" x="472" y="213.8525">3</text><text fill="#000000" font-family="sans-serif" font-size="13" lengthAdjust="spacing" textLength="87" x="483" y="213.8525">get all lendings</text><polygon fill="#181818" points="476,246.4063,466,250.4063,476,254.4063,472,250.4063" style="stroke:#181818;stroke-width:1.0;"/><line style="stroke:#181818;stroke-width:1.0;stroke-dasharray:2.0,2.0;" x1="470" x2="666" y1="250.4063" y2="250.4063"/><text fill="#000000" font-family="sans-serif" font-size="13" font-weight="bold" lengthAdjust="spacing" textLength="7" x="482" y="245.1436">4</text><text fill="#000000" font-family="sans-serif" font-size="13" lengthAdjust="spacing" textLength="87" x="493" y="245.1436">List of lendings</text><line style="stroke:#181818;stroke-width:1.0;" x1="465" x2="507" y1="281.6973" y2="281.6973"/><line style="stroke:#181818;stroke-width:1.0;" x1="507" x2="507" y1="281.6973" y2="294.6973"/><line style="stroke:#181818;stroke-width:1.0;" x1="466" x2="507" y1="294.6973" y2="294.6973"/><polygon fill="#181818" points="476,290.6973,466,294.6973,476,298.6973,472,294.6973" style="stroke:#181818;stroke-width:1.0;"/><text fill="#000000" font-family="sans-serif" font-size="13" font-weight="bold" lengthAdjust="spacing" textLength="7" x="472" y="276.4346">5</text><text fill="#000000" font-family="sans-serif" font-size="13" lengthAdjust="spacing" textLength="172" x="483" y="276.4346">Process lendings to find top 5</text><polygon fill="#181818" points="299,321.9883,289,325.9883,299,329.9883,295,325.9883" style="stroke:#181818;stroke-width:1.0;"/><line style="stroke:#181818;stroke-width:1.0;stroke-dasharray:2.0,2.0;" x1="293" x2="459" y1="325.9883" y2="325.9883"/><text fill="#000000" font-family="sans-serif" font-size="13" font-weight="bold" lengthAdjust="spacing" textLength="7" x="305" y="320.7256">6</text><text fill="#000000" font-family="sans-serif" font-size="13" lengthAdjust="spacing" textLength="102" x="316" y="320.7256">Top 5 Lent Books</text><polygon fill="#181818" points="47,353.2793,37,357.2793,47,361.2793,43,357.2793" style="stroke:#181818;stroke-width:1.0;"/><line style="stroke:#181818;stroke-width:1.0;stroke-dasharray:2.0,2.0;" x1="41" x2="287" y1="357.2793" y2="357.2793"/><text fill="#000000" font-family="sans-serif" font-size="13" font-weight="bold" lengthAdjust="spacing" textLength="7" x="53" y="352.0166">7</text><text fill="#000000" font-family="sans-serif" font-size="13" lengthAdjust="spacing" textLength="14" x="64" y="352.0166">ok</text><!--SRC=[ZPB1JiCm38RlUGfB7833A4AR43qWbR5osG7HyW1fwvLeQL8ITn9lJp9r3IALjbiasv___tUkluXwcoP9BxcYePDtjUuIYzy3gXeNZU2juHrZV22jXgv2mqYGn1G-Y_idACP6U9qQQz86jg8ot0Yku2f_oBBbEi-JzMQPFMxodFNSaAX5xnR25bKZLBlMYeoM4is50mMQWt1xB-l-m5vRuOJzp0sme7Rn72jAmNYNbe1q3okGwC2LrdiBDs-RCZa-RxrnSU24CO359iEUqKWAEw6QumPNe1V7B7tEDkAE0-nV484OpARG8W6NqclsfPWMcbcSrM96vbQu8FGk41iypun5JhnteskqTkAv248KgmWmVw3oU1WV7FZavaITOeihVmurToc_yVG_Kj3xNm00]--></g></svg>