<svg xmlns="http://www.w3.org/2000/svg" xmlns:xlink="http://www.w3.org/1999/xlink" contentStyleType="text/css" height="612px" preserveAspectRatio="none" style="width:2215px;height:612px;background:#DDDDDD;" version="1.1" viewBox="0 0 2215 612" width="2215px" zoomAndPan="magnify"><defs/><g><rect fill="#DDDDDD" height="612" style="stroke:none;stroke-width:1.0;" width="2215" x="0" y="0"/><!--cluster project 2 sisdis--><g id="cluster_project 2 sisdis"><rect fill="none" height="374" rx="3.5" ry="3.5" style="stroke:#454645;stroke-width:1.0;" width="2202" x="7" y="123"/><rect fill="none" height="10" style="stroke:#454645;stroke-width:1.0;" width="15" x="2189" y="128"/><rect fill="none" height="2" style="stroke:#454645;stroke-width:1.0;" width="4" x="2187" y="130"/><rect fill="none" height="2" style="stroke:#454645;stroke-width:1.0;" width="4" x="2187" y="134"/><text fill="#000000" font-family="sans-serif" font-size="14" font-weight="bold" lengthAdjust="spacing" textLength="101.9307" x="1057.0347" y="151.1074">project 2 sisdis</text></g><text fill="#000000" font-family="sans-serif" font-size="14" lengthAdjust="spacing" textLength="96.4824" x="8.2588" y="101.4863">REST API Auth</text><rect fill="#F1F1F1" height="12" style="stroke:#181818;stroke-width:1.5;" width="12" x="50.5" y="117"/><text fill="#000000" font-family="sans-serif" font-size="14" lengthAdjust="spacing" textLength="168.8408" x="124.0796" y="101.4863">REST API Authors Queries</text><rect fill="#F1F1F1" height="12" style="stroke:#181818;stroke-width:1.5;" width="12" x="202.5" y="117"/><text fill="#000000" font-family="sans-serif" font-size="14" lengthAdjust="spacing" textLength="191.3994" x="1080.8003" y="101.4863">REST API Authors Commands</text><rect fill="#F1F1F1" height="12" style="stroke:#181818;stroke-width:1.5;" width="12" x="1170.5" y="117"/><text fill="#000000" font-family="sans-serif" font-size="14" lengthAdjust="spacing" textLength="159.5029" x="302.7485" y="101.4863">REST API Books Queries</text><rect fill="#F1F1F1" height="12" style="stroke:#181818;stroke-width:1.5;" width="12" x="376.5" y="117"/><text fill="#000000" font-family="sans-serif" font-size="14" lengthAdjust="spacing" textLength="182.0615" x="1281.9692" y="101.4863">REST API Books Commands</text><rect fill="#F1F1F1" height="12" style="stroke:#181818;stroke-width:1.5;" width="12" x="1367" y="117"/><text fill="#000000" font-family="sans-serif" font-size="14" lengthAdjust="spacing" textLength="157.1514" x="472.4243" y="101.4863">REST API Users Queries</text><rect fill="#F1F1F1" height="12" style="stroke:#181818;stroke-width:1.5;" width="12" x="545" y="117"/><text fill="#000000" font-family="sans-serif" font-size="14" lengthAdjust="spacing" textLength="179.71" x="1475.145" y="101.4863">REST API Users Commands</text><rect fill="#F1F1F1" height="12" style="stroke:#181818;stroke-width:1.5;" width="12" x="1559" y="117"/><text fill="#000000" font-family="sans-serif" font-size="14" lengthAdjust="spacing" textLength="177.4199" x="642.79" y="101.4863">REST API Lendings Queries</text><rect fill="#F1F1F1" height="12" style="stroke:#181818;stroke-width:1.5;" width="12" x="725.5" y="117"/><text fill="#000000" font-family="sans-serif" font-size="14" lengthAdjust="spacing" textLength="199.9785" x="1667.5107" y="101.4863">REST API Lendings Commands</text><rect fill="#F1F1F1" height="12" style="stroke:#181818;stroke-width:1.5;" width="12" x="1761.5" y="117"/><text fill="#000000" font-family="sans-serif" font-size="14" lengthAdjust="spacing" textLength="237.3164" x="838.3418" y="101.4863">REST API Recommendations Queries</text><rect fill="#F1F1F1" height="12" style="stroke:#181818;stroke-width:1.5;" width="12" x="951" y="117"/><text fill="#000000" font-family="sans-serif" font-size="14" lengthAdjust="spacing" textLength="259.875" x="1885.0625" y="101.4863">REST API Recommendations Commands</text><rect fill="#F1F1F1" height="12" style="stroke:#181818;stroke-width:1.5;" width="12" x="2009" y="117"/><!--entity auth--><g id="elem_auth"><rect fill="#F1F1F1" height="48.6211" rx="3.5" ry="3.5" style="stroke:#181818;stroke-width:0.5;" width="68.7998" x="23.5" y="201"/><rect fill="#F1F1F1" height="10" style="stroke:#181818;stroke-width:0.5;" width="15" x="72.2998" y="206"/><rect fill="#F1F1F1" height="2" style="stroke:#181818;stroke-width:0.5;" width="4" x="70.2998" y="208"/><rect fill="#F1F1F1" height="2" style="stroke:#181818;stroke-width:0.5;" width="4" x="70.2998" y="212"/><text fill="#000000" font-family="sans-serif" font-size="14" lengthAdjust="spacing" textLength="28.7998" x="38.5" y="236.1074">Auth</text></g><!--entity authorsQ--><g id="elem_authorsQ"><rect fill="#F1F1F1" height="48.6211" rx="3.5" ry="3.5" style="stroke:#181818;stroke-width:0.5;" width="137.2686" x="127.5" y="201"/><rect fill="#F1F1F1" height="10" style="stroke:#181818;stroke-width:0.5;" width="15" x="244.7686" y="206"/><rect fill="#F1F1F1" height="2" style="stroke:#181818;stroke-width:0.5;" width="4" x="242.7686" y="208"/><rect fill="#F1F1F1" height="2" style="stroke:#181818;stroke-width:0.5;" width="4" x="242.7686" y="212"/><text fill="#000000" font-family="sans-serif" font-size="14" lengthAdjust="spacing" textLength="97.2686" x="142.5" y="236.1074">AuthorsQueries</text></g><!--entity booksQ--><g id="elem_booksQ"><rect fill="#F1F1F1" height="48.6211" rx="3.5" ry="3.5" style="stroke:#181818;stroke-width:0.5;" width="127.9307" x="300" y="201"/><rect fill="#F1F1F1" height="10" style="stroke:#181818;stroke-width:0.5;" width="15" x="407.9307" y="206"/><rect fill="#F1F1F1" height="2" style="stroke:#181818;stroke-width:0.5;" width="4" x="405.9307" y="208"/><rect fill="#F1F1F1" height="2" style="stroke:#181818;stroke-width:0.5;" width="4" x="405.9307" y="212"/><text fill="#000000" font-family="sans-serif" font-size="14" lengthAdjust="spacing" textLength="87.9307" x="315" y="236.1074">BooksQueries</text></g><!--entity usersQ--><g id="elem_usersQ"><rect fill="#F1F1F1" height="48.6211" rx="3.5" ry="3.5" style="stroke:#181818;stroke-width:0.5;" width="125.5791" x="463" y="201"/><rect fill="#F1F1F1" height="10" style="stroke:#181818;stroke-width:0.5;" width="15" x="568.5791" y="206"/><rect fill="#F1F1F1" height="2" style="stroke:#181818;stroke-width:0.5;" width="4" x="566.5791" y="208"/><rect fill="#F1F1F1" height="2" style="stroke:#181818;stroke-width:0.5;" width="4" x="566.5791" y="212"/><text fill="#000000" font-family="sans-serif" font-size="14" lengthAdjust="spacing" textLength="85.5791" x="478" y="236.1074">UsersQueries</text></g><!--entity lendingsQ--><g id="elem_lendingsQ"><rect fill="#F1F1F1" height="48.6211" rx="3.5" ry="3.5" style="stroke:#181818;stroke-width:0.5;" width="145.8477" x="624" y="201"/><rect fill="#F1F1F1" height="10" style="stroke:#181818;stroke-width:0.5;" width="15" x="749.8477" y="206"/><rect fill="#F1F1F1" height="2" style="stroke:#181818;stroke-width:0.5;" width="4" x="747.8477" y="208"/><rect fill="#F1F1F1" height="2" style="stroke:#181818;stroke-width:0.5;" width="4" x="747.8477" y="212"/><text fill="#000000" font-family="sans-serif" font-size="14" lengthAdjust="spacing" textLength="105.8477" x="639" y="236.1074">LendingsQueries</text></g><!--entity recommendationsQ--><g id="elem_recommendationsQ"><rect fill="#F1F1F1" height="48.6211" rx="3.5" ry="3.5" style="stroke:#181818;stroke-width:0.5;" width="205.7441" x="805" y="201"/><rect fill="#F1F1F1" height="10" style="stroke:#181818;stroke-width:0.5;" width="15" x="990.7441" y="206"/><rect fill="#F1F1F1" height="2" style="stroke:#181818;stroke-width:0.5;" width="4" x="988.7441" y="208"/><rect fill="#F1F1F1" height="2" style="stroke:#181818;stroke-width:0.5;" width="4" x="988.7441" y="212"/><text fill="#000000" font-family="sans-serif" font-size="14" lengthAdjust="spacing" textLength="165.7441" x="820" y="236.1074">RecommendationsQueries</text></g><!--entity authorsC--><g id="elem_authorsC"><rect fill="#F1F1F1" height="48.6211" rx="3.5" ry="3.5" style="stroke:#181818;stroke-width:0.5;" width="159.8271" x="1046" y="201"/><rect fill="#F1F1F1" height="10" style="stroke:#181818;stroke-width:0.5;" width="15" x="1185.8271" y="206"/><rect fill="#F1F1F1" height="2" style="stroke:#181818;stroke-width:0.5;" width="4" x="1183.8271" y="208"/><rect fill="#F1F1F1" height="2" style="stroke:#181818;stroke-width:0.5;" width="4" x="1183.8271" y="212"/><text fill="#000000" font-family="sans-serif" font-size="14" lengthAdjust="spacing" textLength="119.8271" x="1061" y="236.1074">AuthorsCommands</text></g><!--entity booksC--><g id="elem_booksC"><rect fill="#F1F1F1" height="48.6211" rx="3.5" ry="3.5" style="stroke:#181818;stroke-width:0.5;" width="150.4893" x="1241" y="201"/><rect fill="#F1F1F1" height="10" style="stroke:#181818;stroke-width:0.5;" width="15" x="1371.4893" y="206"/><rect fill="#F1F1F1" height="2" style="stroke:#181818;stroke-width:0.5;" width="4" x="1369.4893" y="208"/><rect fill="#F1F1F1" height="2" style="stroke:#181818;stroke-width:0.5;" width="4" x="1369.4893" y="212"/><text fill="#000000" font-family="sans-serif" font-size="14" lengthAdjust="spacing" textLength="110.4893" x="1256" y="236.1074">BooksCommands</text></g><!--entity usersC--><g id="elem_usersC"><rect fill="#F1F1F1" height="48.6211" rx="3.5" ry="3.5" style="stroke:#181818;stroke-width:0.5;" width="148.1377" x="1426" y="201"/><rect fill="#F1F1F1" height="10" style="stroke:#181818;stroke-width:0.5;" width="15" x="1554.1377" y="206"/><rect fill="#F1F1F1" height="2" style="stroke:#181818;stroke-width:0.5;" width="4" x="1552.1377" y="208"/><rect fill="#F1F1F1" height="2" style="stroke:#181818;stroke-width:0.5;" width="4" x="1552.1377" y="212"/><text fill="#000000" font-family="sans-serif" font-size="14" lengthAdjust="spacing" textLength="108.1377" x="1441" y="236.1074">UsersCommands</text></g><!--entity lendingsC--><g id="elem_lendingsC"><rect fill="#F1F1F1" height="48.6211" rx="3.5" ry="3.5" style="stroke:#181818;stroke-width:0.5;" width="168.4063" x="1609" y="201"/><rect fill="#F1F1F1" height="10" style="stroke:#181818;stroke-width:0.5;" width="15" x="1757.4063" y="206"/><rect fill="#F1F1F1" height="2" style="stroke:#181818;stroke-width:0.5;" width="4" x="1755.4063" y="208"/><rect fill="#F1F1F1" height="2" style="stroke:#181818;stroke-width:0.5;" width="4" x="1755.4063" y="212"/><text fill="#000000" font-family="sans-serif" font-size="14" lengthAdjust="spacing" textLength="128.4063" x="1624" y="236.1074">LendingsCommands</text></g><!--entity recommendationsC--><g id="elem_recommendationsC"><rect fill="#F1F1F1" height="48.6211" rx="3.5" ry="3.5" style="stroke:#181818;stroke-width:0.5;" width="228.3027" x="1965" y="201"/><rect fill="#F1F1F1" height="10" style="stroke:#181818;stroke-width:0.5;" width="15" x="2173.3027" y="206"/><rect fill="#F1F1F1" height="2" style="stroke:#181818;stroke-width:0.5;" width="4" x="2171.3027" y="208"/><rect fill="#F1F1F1" height="2" style="stroke:#181818;stroke-width:0.5;" width="4" x="2171.3027" y="212"/><text fill="#000000" font-family="sans-serif" font-size="14" lengthAdjust="spacing" textLength="188.3027" x="1980" y="236.1074">RecommendationsCommands</text></g><!--entity MB--><g id="elem_MB"><rect fill="#F1F1F1" height="48.6211" rx="3.5" ry="3.5" style="stroke:#181818;stroke-width:0.5;" width="141.9307" x="1050" y="432"/><rect fill="#F1F1F1" height="10" style="stroke:#181818;stroke-width:0.5;" width="15" x="1171.9307" y="437"/><rect fill="#F1F1F1" height="2" style="stroke:#181818;stroke-width:0.5;" width="4" x="1169.9307" y="439"/><rect fill="#F1F1F1" height="2" style="stroke:#181818;stroke-width:0.5;" width="4" x="1169.9307" y="443"/><text fill="#000000" font-family="sans-serif" font-size="14" lengthAdjust="spacing" textLength="101.9307" x="1065" y="467.1074">Message Broker</text></g><!--entity publishAPI--><g id="elem_publishAPI"><ellipse cx="1148" cy="341" fill="#F1F1F1" rx="8" ry="8" style="stroke:#181818;stroke-width:0.5;"/><text fill="#000000" font-family="sans-serif" font-size="14" lengthAdjust="spacing" textLength="72.3721" x="1111.814" y="373.1074">Publish API</text></g><!--entity HTTPac--><g id="elem_HTTPac"><ellipse cx="1177" cy="14" fill="#F1F1F1" rx="8" ry="8" style="stroke:#181818;stroke-width:0.5;"/><text fill="#000000" font-family="sans-serif" font-size="14" lengthAdjust="spacing" textLength="76.2344" x="1138.8828" y="46.1074">HTTP Client</text></g><!--entity HTTPaq--><g id="elem_HTTPaq"><ellipse cx="209" cy="14" fill="#F1F1F1" rx="8" ry="8" style="stroke:#181818;stroke-width:0.5;"/><text fill="#000000" font-family="sans-serif" font-size="14" lengthAdjust="spacing" textLength="76.2344" x="170.8828" y="46.1074">HTTP Client</text></g><!--entity HTTPbc--><g id="elem_HTTPbc"><ellipse cx="1373" cy="14" fill="#F1F1F1" rx="8" ry="8" style="stroke:#181818;stroke-width:0.5;"/><text fill="#000000" font-family="sans-serif" font-size="14" lengthAdjust="spacing" textLength="76.2344" x="1334.8828" y="46.1074">HTTP Client</text></g><!--entity HTTPbq--><g id="elem_HTTPbq"><ellipse cx="383" cy="14" fill="#F1F1F1" rx="8" ry="8" style="stroke:#181818;stroke-width:0.5;"/><text fill="#000000" font-family="sans-serif" font-size="14" lengthAdjust="spacing" textLength="76.2344" x="344.8828" y="46.1074">HTTP Client</text></g><!--entity HTTPuc--><g id="elem_HTTPuc"><ellipse cx="1565" cy="14" fill="#F1F1F1" rx="8" ry="8" style="stroke:#181818;stroke-width:0.5;"/><text fill="#000000" font-family="sans-serif" font-size="14" lengthAdjust="spacing" textLength="76.2344" x="1526.8828" y="46.1074">HTTP Client</text></g><!--entity HTTPuq--><g id="elem_HTTPuq"><ellipse cx="551" cy="14" fill="#F1F1F1" rx="8" ry="8" style="stroke:#181818;stroke-width:0.5;"/><text fill="#000000" font-family="sans-serif" font-size="14" lengthAdjust="spacing" textLength="76.2344" x="512.8828" y="46.1074">HTTP Client</text></g><!--entity HTTPlc--><g id="elem_HTTPlc"><ellipse cx="1768" cy="14" fill="#F1F1F1" rx="8" ry="8" style="stroke:#181818;stroke-width:0.5;"/><text fill="#000000" font-family="sans-serif" font-size="14" lengthAdjust="spacing" textLength="76.2344" x="1729.8828" y="46.1074">HTTP Client</text></g><!--entity HTTPlq--><g id="elem_HTTPlq"><ellipse cx="732" cy="14" fill="#F1F1F1" rx="8" ry="8" style="stroke:#181818;stroke-width:0.5;"/><text fill="#000000" font-family="sans-serif" font-size="14" lengthAdjust="spacing" textLength="76.2344" x="693.8828" y="46.1074">HTTP Client</text></g><!--entity HTTPrc--><g id="elem_HTTPrc"><ellipse cx="2015" cy="14" fill="#F1F1F1" rx="8" ry="8" style="stroke:#181818;stroke-width:0.5;"/><text fill="#000000" font-family="sans-serif" font-size="14" lengthAdjust="spacing" textLength="76.2344" x="1976.8828" y="46.1074">HTTP Client</text></g><!--entity HTTPrq--><g id="elem_HTTPrq"><ellipse cx="957" cy="14" fill="#F1F1F1" rx="8" ry="8" style="stroke:#181818;stroke-width:0.5;"/><text fill="#000000" font-family="sans-serif" font-size="14" lengthAdjust="spacing" textLength="76.2344" x="918.8828" y="46.1074">HTTP Client</text></g><!--entity notifyAPIAuthorsQ--><g id="elem_notifyAPIAuthorsQ"><ellipse cx="212" cy="572" fill="#F1F1F1" rx="8" ry="8" style="stroke:#181818;stroke-width:0.5;"/><text fill="#000000" font-family="sans-serif" font-size="14" lengthAdjust="spacing" textLength="115.165" x="154.4175" y="604.1074">notifyAPIAuthorsQ</text></g><!--entity notifyAPIBooksQ--><g id="elem_notifyAPIBooksQ"><ellipse cx="374" cy="572" fill="#F1F1F1" rx="8" ry="8" style="stroke:#181818;stroke-width:0.5;"/><text fill="#000000" font-family="sans-serif" font-size="14" lengthAdjust="spacing" textLength="105.8271" x="321.0864" y="604.1074">notifyAPIBooksQ</text></g><!--entity notifyAPIUsersQ--><g id="elem_notifyAPIUsersQ"><ellipse cx="535" cy="572" fill="#F1F1F1" rx="8" ry="8" style="stroke:#181818;stroke-width:0.5;"/><text fill="#000000" font-family="sans-serif" font-size="14" lengthAdjust="spacing" textLength="103.4756" x="483.2622" y="604.1074">notifyAPIUsersQ</text></g><!--entity notifyAPILendingsQ--><g id="elem_notifyAPILendingsQ"><ellipse cx="711" cy="572" fill="#F1F1F1" rx="8" ry="8" style="stroke:#181818;stroke-width:0.5;"/><text fill="#000000" font-family="sans-serif" font-size="14" lengthAdjust="spacing" textLength="123.7441" x="649.1279" y="604.1074">notifyAPILendingsQ</text></g><!--entity notifyAPIRecommendationsQ--><g id="elem_notifyAPIRecommendationsQ"><ellipse cx="918" cy="572" fill="#F1F1F1" rx="8" ry="8" style="stroke:#181818;stroke-width:0.5;"/><text fill="#000000" font-family="sans-serif" font-size="14" lengthAdjust="spacing" textLength="183.6406" x="826.1797" y="604.1074">notifyAPIRecommendationsQ</text></g><!--entity notifyAPIAuthorsC--><g id="elem_notifyAPIAuthorsC"><ellipse cx="1130" cy="572" fill="#F1F1F1" rx="8" ry="8" style="stroke:#181818;stroke-width:0.5;"/><text fill="#000000" font-family="sans-serif" font-size="14" lengthAdjust="spacing" textLength="114.3857" x="1072.8071" y="604.1074">notifyAPIAuthorsC</text></g><!--entity notifyAPIBooksC--><g id="elem_notifyAPIBooksC"><ellipse cx="1307" cy="572" fill="#F1F1F1" rx="8" ry="8" style="stroke:#181818;stroke-width:0.5;"/><text fill="#000000" font-family="sans-serif" font-size="14" lengthAdjust="spacing" textLength="105.0479" x="1254.4761" y="604.1074">notifyAPIBooksC</text></g><!--entity notifyAPIUsersC--><g id="elem_notifyAPIUsersC"><ellipse cx="1485" cy="572" fill="#F1F1F1" rx="8" ry="8" style="stroke:#181818;stroke-width:0.5;"/><text fill="#000000" font-family="sans-serif" font-size="14" lengthAdjust="spacing" textLength="102.6963" x="1433.6519" y="604.1074">notifyAPIUsersC</text></g><!--entity notifyAPILendingsC--><g id="elem_notifyAPILendingsC"><ellipse cx="1675" cy="572" fill="#F1F1F1" rx="8" ry="8" style="stroke:#181818;stroke-width:0.5;"/><text fill="#000000" font-family="sans-serif" font-size="14" lengthAdjust="spacing" textLength="122.9648" x="1613.5176" y="604.1074">notifyAPILendingsC</text></g><!--entity notifyAPIRecommendationsC--><g id="elem_notifyAPIRecommendationsC"><ellipse cx="1983" cy="572" fill="#F1F1F1" rx="8" ry="8" style="stroke:#181818;stroke-width:0.5;"/><text fill="#000000" font-family="sans-serif" font-size="14" lengthAdjust="spacing" textLength="182.8613" x="1891.5693" y="604.1074">notifyAPIRecommendationsC</text></g><!--link publishAPI to MB--><g id="link_publishAPI_MB"><path d="M1146.06,350.16 C1142.04,367.04 1132.7,406.32 1126.63,431.85 " fill="none" id="publishAPI-MB" style="stroke:#454645;stroke-width:1.0;"/></g><!--link HTTPaq to apiAq--><g id="link_HTTPaq_apiAq"><path d="M209,23.04 C209,43.94 209,99.54 209,116.81 " fill="none" id="HTTPaq-apiAq" style="stroke:#454645;stroke-width:1.0;"/></g><!--link HTTPac to apiAc--><g id="link_HTTPac_apiAc"><path d="M1177,23.04 C1177,43.94 1177,99.54 1177,116.81 " fill="none" id="HTTPac-apiAc" style="stroke:#454645;stroke-width:1.0;"/></g><!--link HTTPrq to apiRq--><g id="link_HTTPrq_apiRq"><path d="M957,23.04 C957,43.94 957,99.54 957,116.81 " fill="none" id="HTTPrq-apiRq" style="stroke:#454645;stroke-width:1.0;"/></g><!--link HTTPrc to apiRc--><g id="link_HTTPrc_apiRc"><path d="M2015,23.04 C2015,43.94 2015,99.54 2015,116.81 " fill="none" id="HTTPrc-apiRc" style="stroke:#454645;stroke-width:1.0;"/></g><!--link HTTPbq to apiBq--><g id="link_HTTPbq_apiBq"><path d="M383,23.04 C383,43.94 383,99.54 383,116.81 " fill="none" id="HTTPbq-apiBq" style="stroke:#454645;stroke-width:1.0;"/></g><!--link HTTPbc to apiBc--><g id="link_HTTPbc_apiBc"><path d="M1373,23.04 C1373,43.94 1373,99.54 1373,116.81 " fill="none" id="HTTPbc-apiBc" style="stroke:#454645;stroke-width:1.0;"/></g><!--link HTTPuq to apiUq--><g id="link_HTTPuq_apiUq"><path d="M551,23.04 C551,43.94 551,99.54 551,116.81 " fill="none" id="HTTPuq-apiUq" style="stroke:#454645;stroke-width:1.0;"/></g><!--link HTTPuc to apiUc--><g id="link_HTTPuc_apiUc"><path d="M1565,23.04 C1565,43.94 1565,99.54 1565,116.81 " fill="none" id="HTTPuc-apiUc" style="stroke:#454645;stroke-width:1.0;"/></g><!--link HTTPlq to apiLq--><g id="link_HTTPlq_apiLq"><path d="M732,23.04 C732,43.94 732,99.54 732,116.81 " fill="none" id="HTTPlq-apiLq" style="stroke:#454645;stroke-width:1.0;"/></g><!--link HTTPlc to apiLc--><g id="link_HTTPlc_apiLc"><path d="M1768,23.04 C1768,43.94 1768,99.54 1768,116.81 " fill="none" id="HTTPlc-apiLc" style="stroke:#454645;stroke-width:1.0;"/></g><!--link apiAuth to auth--><g id="link_apiAuth_auth"><path d="M57.05,129.12 C57.18,142.08 57.53,176.83 57.76,200.61 " fill="none" id="apiAuth-auth" style="stroke:#454645;stroke-width:1.0;"/></g><!--link apiAq to authorsQ--><g id="link_apiAq_authorsQ"><path d="M208.34,129.12 C206.66,142.08 202.17,176.83 199.09,200.61 " fill="none" id="apiAq-authorsQ" style="stroke:#454645;stroke-width:1.0;"/></g><!--link apiRq to recommendationsQ--><g id="link_apiRq_recommendationsQ"><path d="M954.5,129.12 C948.18,142.08 931.24,176.83 919.65,200.61 " fill="none" id="apiRq-recommendationsQ" style="stroke:#454645;stroke-width:1.0;"/></g><!--link apiBq to booksQ--><g id="link_apiBq_booksQ"><path d="M382.03,129.12 C379.58,142.08 373.01,176.83 368.52,200.61 " fill="none" id="apiBq-booksQ" style="stroke:#454645;stroke-width:1.0;"/></g><!--link apiUq to usersQ--><g id="link_apiUq_usersQ"><path d="M549.73,129.12 C546.5,142.08 537.86,176.83 531.94,200.61 " fill="none" id="apiUq-usersQ" style="stroke:#454645;stroke-width:1.0;"/></g><!--link apiLq to lendingsQ--><g id="link_apiLq_lendingsQ"><path d="M730.22,129.12 C725.7,142.08 713.6,176.83 705.32,200.61 " fill="none" id="apiLq-lendingsQ" style="stroke:#454645;stroke-width:1.0;"/></g><!--link apiAc to authorsC--><g id="link_apiAc_authorsC"><path d="M1174.4,129.12 C1167.82,142.08 1150.19,176.83 1138.12,200.61 " fill="none" id="apiAc-authorsC" style="stroke:#454645;stroke-width:1.0;"/></g><!--link apiRc to recommendationsC--><g id="link_apiRc_recommendationsC"><path d="M2018.26,129.12 C2026.51,142.08 2048.65,176.83 2063.78,200.61 " fill="none" id="apiRc-recommendationsC" style="stroke:#454645;stroke-width:1.0;"/></g><!--link apiBc to booksC--><g id="link_apiBc_booksC"><path d="M1370.09,129.12 C1362.74,142.08 1343.03,176.83 1329.55,200.61 " fill="none" id="apiBc-booksC" style="stroke:#454645;stroke-width:1.0;"/></g><!--link apiUc to usersC--><g id="link_apiUc_usersC"><path d="M1561.69,129.12 C1553.31,142.08 1530.83,176.83 1515.45,200.61 " fill="none" id="apiUc-usersC" style="stroke:#454645;stroke-width:1.0;"/></g><!--link apiLc to lendingsC--><g id="link_apiLc_lendingsC"><path d="M1764.18,129.12 C1754.51,142.08 1728.57,176.83 1710.83,200.61 " fill="none" id="apiLc-lendingsC" style="stroke:#454645;stroke-width:1.0;"/></g><!--link authorsQ to notifyAPIAuthorsQ--><g id="link_authorsQ_notifyAPIAuthorsQ"><path d="M197.1,250.18 C200.32,319.5 209.62,519.82 211.62,562.81 " fill="none" id="authorsQ-notifyAPIAuthorsQ" style="stroke:#454645;stroke-width:1.0;"/></g><!--link recommendationsQ to notifyAPIRecommendationsQ--><g id="link_recommendationsQ_notifyAPIRecommendationsQ"><path d="M908.69,250.18 C910.7,319.5 916.51,519.82 917.76,562.81 " fill="none" id="recommendationsQ-notifyAPIRecommendationsQ" style="stroke:#454645;stroke-width:1.0;"/></g><!--link booksQ to notifyAPIBooksQ--><g id="link_booksQ_notifyAPIBooksQ"><path d="M364.69,250.18 C366.7,319.5 372.51,519.82 373.76,562.81 " fill="none" id="booksQ-notifyAPIBooksQ" style="stroke:#454645;stroke-width:1.0;"/></g><!--link usersQ to notifyAPIUsersQ--><g id="link_usersQ_notifyAPIUsersQ"><path d="M526.62,250.18 C528.43,319.5 533.66,519.82 534.79,562.81 " fill="none" id="usersQ-notifyAPIUsersQ" style="stroke:#454645;stroke-width:1.0;"/></g><!--link lendingsQ to notifyAPILendingsQ--><g id="link_lendingsQ_notifyAPILendingsQ"><path d="M697.96,250.18 C700.78,319.5 708.92,519.82 710.67,562.81 " fill="none" id="lendingsQ-notifyAPILendingsQ" style="stroke:#454645;stroke-width:1.0;"/></g><!--link authorsC to notifyAPIAuthorsC--><g id="link_authorsC_notifyAPIAuthorsC"><path d="M1160.42,250.02 C1178.89,264.82 1199.89,285.7 1210,310 C1241.92,386.74 1243.29,420.85 1210,497 C1195.3,530.63 1156.94,555.79 1139.22,566 " fill="none" id="authorsC-notifyAPIAuthorsC" style="stroke:#454645;stroke-width:1.0;"/></g><!--link recommendationsC to notifyAPIRecommendationsC--><g id="link_recommendationsC_notifyAPIRecommendationsC"><path d="M2072.4,250.18 C2053.08,319.5 1997.26,519.82 1985.28,562.81 " fill="none" id="recommendationsC-notifyAPIRecommendationsC" style="stroke:#454645;stroke-width:1.0;"/></g><!--link booksC to notifyAPIBooksC--><g id="link_booksC_notifyAPIBooksC"><path d="M1315.38,250.18 C1313.57,319.5 1308.34,519.82 1307.21,562.81 " fill="none" id="booksC-notifyAPIBooksC" style="stroke:#454645;stroke-width:1.0;"/></g><!--link usersC to notifyAPIUsersC--><g id="link_usersC_notifyAPIUsersC"><path d="M1498.97,250.18 C1495.95,319.5 1487.23,519.82 1485.36,562.81 " fill="none" id="usersC-notifyAPIUsersC" style="stroke:#454645;stroke-width:1.0;"/></g><!--link lendingsC to notifyAPILendingsC--><g id="link_lendingsC_notifyAPILendingsC"><path d="M1691.76,250.18 C1688.14,319.5 1677.67,519.82 1675.43,562.81 " fill="none" id="lendingsC-notifyAPILendingsC" style="stroke:#454645;stroke-width:1.0;"/></g><!--link authorsC to publishAPI--><g id="link_authorsC_publishAPI"><path d="M1130.56,250.02 C1135.52,275.6 1141.2638,305.2834 1144.5338,322.1234 " fill="none" id="authorsC-to-publishAPI" style="stroke:#454645;stroke-width:1.0;"/><path d="M1154.1554,327.3061 A9,9 0 0 0 1137.5511 330.5304" fill="none" style="stroke:#454645;stroke-width:1.5;"/></g><!--link recommendationsC to publishAPI--><g id="link_recommendationsC_publishAPI"><path d="M1964.95,247.27 C1958.89,248.23 1952.87,249.15 1947,250 C1623.05,297.03 1232.1208,332.5349 1167.0708,338.3149 " fill="none" id="recommendationsC-to-publishAPI" style="stroke:#454645;stroke-width:1.0;"/><path d="M1160.9246,347.3516 A9,9 0 0 0 1159.4276 330.5035" fill="none" style="stroke:#454645;stroke-width:1.5;"/></g><!--link booksC to publishAPI--><g id="link_booksC_publishAPI"><path d="M1281.19,250.02 C1241.79,276.64 1188.3666,312.7324 1165.3466,328.2824 " fill="none" id="booksC-to-publishAPI" style="stroke:#454645;stroke-width:1.0;"/><path d="M1164.3448,339.1651 A9,9 0 0 0 1154.8768 325.1488" fill="none" style="stroke:#454645;stroke-width:1.5;"/></g><!--link usersC to publishAPI--><g id="link_usersC_publishAPI"><path d="M1427.07,250.02 C1338.06,278.72 1204.2673,321.8507 1166.7473,333.9507 " fill="none" id="usersC-to-publishAPI" style="stroke:#454645;stroke-width:1.0;"/><path d="M1162.7554,344.1242 A9,9 0 0 0 1157.5638 328.0262" fill="none" style="stroke:#454645;stroke-width:1.5;"/></g><!--link lendingsC to publishAPI--><g id="link_lendingsC_publishAPI"><path d="M1609,246.24 C1603.25,247.53 1597.54,248.79 1592,250 C1417.55,287.97 1213.1905,327.4836 1166.9105,336.3736 " fill="none" id="lendingsC-to-publishAPI" style="stroke:#454645;stroke-width:1.0;"/><path d="M1161.7083,345.9847 A9,9 0 0 0 1158.5175 329.3739" fill="none" style="stroke:#454645;stroke-width:1.5;"/></g><!--link MB to notifyAPIAuthorsQ--><g id="link_MB_notifyAPIAuthorsQ"><path d="M1050,458.92 C906.04,463.06 570.19,479.13 296,541 C267.9,547.34 245.4572,556.3048 230.2672,562.9248 " fill="none" id="MB-to-notifyAPIAuthorsQ" style="stroke:#454645;stroke-width:1.0;"/><path d="M227.3007,573.4432 A9,9 0 0 0 220.543 557.9373" fill="none" style="stroke:#454645;stroke-width:1.5;"/></g><!--link MB to notifyAPIRecommendationsQ--><g id="link_MB_notifyAPIRecommendationsQ"><path d="M1078.94,481.02 C1030.39,508.16 962.5791,546.0812 936.0991,560.8812 " fill="none" id="MB-to-notifyAPIRecommendationsQ" style="stroke:#454645;stroke-width:1.0;"/><path d="M934.1831,571.6406 A9,9 0 0 0 925.9309 556.8758" fill="none" style="stroke:#454645;stroke-width:1.5;"/></g><!--link MB to notifyAPIBooksQ--><g id="link_MB_notifyAPIBooksQ"><path d="M1049.93,461.36 C927.58,469.14 669.87,490.46 458,541 C429.98,547.68 407.5343,556.5574 392.3143,563.0674 " fill="none" id="MB-to-notifyAPIBooksQ" style="stroke:#454645;stroke-width:1.0;"/><path d="M389.2761,573.5653 A9,9 0 0 0 382.6242 558.0137" fill="none" style="stroke:#454645;stroke-width:1.5;"/></g><!--link MB to notifyAPIUsersQ--><g id="link_MB_notifyAPIUsersQ"><path d="M1049.9,465.84 C952.77,478.04 773.57,503.48 624,541 C594.27,548.46 569.5325,557.5217 553.5325,563.7317 " fill="none" id="MB-to-notifyAPIUsersQ" style="stroke:#454645;stroke-width:1.0;"/><path d="M550.1397,574.1204 A9,9 0 0 0 544.0196 558.352" fill="none" style="stroke:#454645;stroke-width:1.5;"/></g><!--link MB to notifyAPILendingsQ--><g id="link_MB_notifyAPILendingsQ"><path d="M1049.7,474.81 C984.81,490.88 886.55,516.02 802,541 C771.85,549.91 746.0591,558.708 729.6791,564.438 " fill="none" id="MB-to-notifyAPILendingsQ" style="stroke:#454645;stroke-width:1.0;"/><path d="M725.9381,574.7065 A9,9 0 0 0 720.353 558.7407" fill="none" style="stroke:#454645;stroke-width:1.5;"/></g><!--link MB to notifyAPIAuthorsC--><g id="link_MB_notifyAPIAuthorsC"><path d="M1122.86,481.02 C1124.89,506.6 1127.2427,536.131 1128.5727,552.971 " fill="none" id="MB-to-notifyAPIAuthorsC" style="stroke:#454645;stroke-width:1.0;"/><path d="M1137.5486,559.2055 A9,9 0 0 0 1120.6867 560.5372" fill="none" style="stroke:#454645;stroke-width:1.5;"/></g><!--link MB to notifyAPIRecommendationsC--><g id="link_MB_notifyAPIRecommendationsC"><path d="M1192.16,466.64 C1310.46,481.87 1555.08,513.48 1762,541 C1844.14,551.92 1933.473,564.1893 1963.833,568.3593 " fill="none" id="MB-to-notifyAPIRecommendationsC" style="stroke:#454645;stroke-width:1.0;"/><path d="M1971.8413,560.9226 A9,9 0 0 0 1969.5396 577.6797" fill="none" style="stroke:#454645;stroke-width:1.5;"/></g><!--link MB to notifyAPIBooksC--><g id="link_MB_notifyAPIBooksC"><path d="M1159.54,481.02 C1203.59,507.9 1264.285,544.9291 1289.165,560.1191 " fill="none" id="MB-to-notifyAPIBooksC" style="stroke:#454645;stroke-width:1.0;"/><path d="M1299.4797,556.5077 A9,9 0 0 0 1290.6658 570.9443" fill="none" style="stroke:#454645;stroke-width:1.5;"/></g><!--link MB to notifyAPIUsersC--><g id="link_MB_notifyAPIUsersC"><path d="M1192.05,479.65 C1284.12,508.36 1427.8933,553.1933 1466.4433,565.2133 " fill="none" id="MB-to-notifyAPIUsersC" style="stroke:#454645;stroke-width:1.0;"/><path d="M1475.5688,559.1999 A9,9 0 0 0 1470.5339 575.3476" fill="none" style="stroke:#454645;stroke-width:1.5;"/></g><!--link MB to notifyAPILendingsC--><g id="link_MB_notifyAPILendingsC"><path d="M1192.36,469.37 C1279.84,484.31 1432.44,511.58 1562,541 C1600.99,549.86 1637.2839,560.0709 1656.3639,565.5909 " fill="none" id="MB-to-notifyAPILendingsC" style="stroke:#454645;stroke-width:1.0;"/><path d="M1665.3634,559.3905 A9,9 0 0 0 1660.6627 575.6386" fill="none" style="stroke:#454645;stroke-width:1.5;"/></g><!--SRC=[ZLRRZfim47ttLxXvwRxGI7tispAgj9KIAQNB1m3n9ku21cDKhQh-Uy4NBhR1YRHIFEVCp9aPJxoVxq8qtRVZiIcpMlHL-QLWrN7uQrXDQX5TQNRZMONG9t4d5S62VI0qmVZGSFQR509_nHtjhhGxuBy8wq_3kA0rFYJVVxtYvyiF_DoB-m5d7SuQEdxVPpBUuPyzuPHqarCRTW5MLLbzdNsARP-OiNSdITo67EmKyKwAj2Dk7MaRSh1Jf3ifJgI-qlhcP3cr3_ZOYKuxYH8oJBuQF3D1MUtaIzh7NUsqIO6ay-9gpRV5N1KB7AQzKg1DDbNER4dCfS6coRulQRqqs3JJk2MpD3QRR5MzzE4Mj57Wka_QvgrmnPGbWhV45K_M25irhgYcI0WKkNAogWHdo6VITTcDu9YpTyAbppcM95eBmj-oWk33fSzBsjt7YoGPZJeFH_GFeGNnvVNrWg6aGsX97CzP4MIq8KOUZ947O_J167qmHXcCKGPZy60CtgwQMZD1tpw6PfkTaqJ7wdLHkxTsK3OlNUtWcgviNlgqYskFoUnridToxMkZUuq0RoDWkn7WQGHiDm8yZO3THe2_4V188s2t4SFceddjS7IDnZr5Qdrm5EdNMIsSEHT8NITzJXJE3PueF3TuhF3SuB72UuEd2kyDdYgyDFX9uQN1XwSCwVyqf6LyHgHCSvBNLWeRBSulifGq8lh1a1B6ituPPChnFF_-oweNuK66BppX9H8NKtXvJeifl3oVYcNuOGP6zJ00zgUEF5jeL-4mdHkkgdDuUarLhGwgjtAgt27CIsXQiQKPRCqGqWnAC_WrWz8CViqmQOPDpNEZHqxqX9SlZaUinPZ4MVP9bcLV2h8WT8wroYVFh7sWCruVIS_M1-d1-g1vf3kgu15LiAqAjbN1hYf0_m40]--></g></svg>