<?xml version="1.0" encoding="us-ascii" standalone="no"?><svg xmlns="http://www.w3.org/2000/svg" xmlns:xlink="http://www.w3.org/1999/xlink" contentStyleType="text/css" height="458px" preserveAspectRatio="none" style="width:673px;height:458px;background:#FFFFFF;" version="1.1" viewBox="0 0 673 458" width="673px" zoomAndPan="magnify"><defs><linearGradient id="g18bovgay2575h0" x1="0%" x2="100%" y1="0%" y2="100%"><stop offset="0%" stop-color="#F2AA4C"/><stop offset="100%" stop-color="#CE4A7E"/></linearGradient></defs><g><text fill="#000000" font-family="sans-serif" font-size="14" font-weight="bold" lengthAdjust="spacing" textLength="171" x="250" y="30.1074">US10 Sequence Diagram</text><rect fill="#FFFFFF" height="169.4551" style="stroke:#181818;stroke-width:1.0;" width="10" x="259" y="156.5332"/><rect fill="#FFFFFF" height="138.1641" style="stroke:#181818;stroke-width:1.0;" width="10" x="388.5" y="187.8242"/><rect fill="#FFFFFF" height="31.291" style="stroke:#181818;stroke-width:1.0;" width="10" x="595.5" y="219.1152"/><line style="stroke:#181818;stroke-width:0.5;stroke-dasharray:5.0,5.0;" x1="36" x2="36" y1="123.2422" y2="375.2793"/><line style="stroke:#181818;stroke-width:0.5;stroke-dasharray:5.0,5.0;" x1="263.5" x2="263.5" y1="123.2422" y2="375.2793"/><line style="stroke:#181818;stroke-width:0.5;stroke-dasharray:5.0,5.0;" x1="393.5" x2="393.5" y1="123.2422" y2="375.2793"/><line style="stroke:#181818;stroke-width:0.5;stroke-dasharray:5.0,5.0;" x1="600" x2="600" y1="123.2422" y2="375.2793"/><text fill="#000000" font-family="sans-serif" font-size="14" lengthAdjust="spacing" textLength="56" x="5" y="119.7285">Librarian</text><ellipse cx="36" cy="53.1211" fill="url(#g18bovgay2575h0)" rx="8" ry="8" style="stroke:#181818;stroke-width:0.5;"/><path d="M36,61.1211 L36,88.1211 M23,69.1211 L49,69.1211 M36,88.1211 L23,103.1211 M36,88.1211 L49,103.1211 " fill="none" style="stroke:#181818;stroke-width:0.5;"/><text fill="#000000" font-family="sans-serif" font-size="14" lengthAdjust="spacing" textLength="56" x="5" y="389.3867">Librarian</text><ellipse cx="36" cy="401.4004" fill="url(#g18bovgay2575h0)" rx="8" ry="8" style="stroke:#181818;stroke-width:0.5;"/><path d="M36,409.4004 L36,436.4004 M23,417.4004 L49,417.4004 M36,436.4004 L23,451.4004 M36,436.4004 L49,451.4004 " fill="none" style="stroke:#181818;stroke-width:0.5;"/><rect fill="url(#g18bovgay2575h0)" height="32.6211" rx="2.5" ry="2.5" style="stroke:#181818;stroke-width:0.5;" width="127" x="200.5" y="89.6211"/><text fill="#000000" font-family="sans-serif" font-size="14" lengthAdjust="spacing" textLength="113" x="207.5" y="111.7285">LendingController</text><rect fill="url(#g18bovgay2575h0)" height="32.6211" rx="2.5" ry="2.5" style="stroke:#181818;stroke-width:0.5;" width="127" x="200.5" y="374.2793"/><text fill="#000000" font-family="sans-serif" font-size="14" lengthAdjust="spacing" textLength="113" x="207.5" y="396.3867">LendingController</text><rect fill="url(#g18bovgay2575h0)" height="32.6211" rx="2.5" ry="2.5" style="stroke:#181818;stroke-width:0.5;" width="112" x="337.5" y="89.6211"/><text fill="#000000" font-family="sans-serif" font-size="14" lengthAdjust="spacing" textLength="98" x="344.5" y="111.7285">LendingService</text><rect fill="url(#g18bovgay2575h0)" height="32.6211" rx="2.5" ry="2.5" style="stroke:#181818;stroke-width:0.5;" width="112" x="337.5" y="374.2793"/><text fill="#000000" font-family="sans-serif" font-size="14" lengthAdjust="spacing" textLength="98" x="344.5" y="396.3867">LendingService</text><rect fill="url(#g18bovgay2575h0)" height="32.6211" rx="2.5" ry="2.5" style="stroke:#181818;stroke-width:0.5;" width="133" x="534" y="89.6211"/><text fill="#000000" font-family="sans-serif" font-size="14" lengthAdjust="spacing" textLength="119" x="541" y="111.7285">LendingRepository</text><rect fill="url(#g18bovgay2575h0)" height="32.6211" rx="2.5" ry="2.5" style="stroke:#181818;stroke-width:0.5;" width="133" x="534" y="374.2793"/><text fill="#000000" font-family="sans-serif" font-size="14" lengthAdjust="spacing" textLength="119" x="541" y="396.3867">LendingRepository</text><rect fill="#FFFFFF" height="169.4551" style="stroke:#181818;stroke-width:1.0;" width="10" x="259" y="156.5332"/><rect fill="#FFFFFF" height="138.1641" style="stroke:#181818;stroke-width:1.0;" width="10" x="388.5" y="187.8242"/><rect fill="#FFFFFF" height="31.291" style="stroke:#181818;stroke-width:1.0;" width="10" x="595.5" y="219.1152"/><polygon fill="#181818" points="247,152.5332,257,156.5332,247,160.5332,251,156.5332" style="stroke:#181818;stroke-width:1.0;"/><line style="stroke:#181818;stroke-width:1.0;" x1="36" x2="253" y1="156.5332" y2="156.5332"/><text fill="#000000" font-family="sans-serif" font-size="13" font-weight="bold" lengthAdjust="spacing" textLength="7" x="43" y="151.2705">1</text><text fill="#000000" font-family="sans-serif" font-size="13" lengthAdjust="spacing" textLength="193" x="54" y="151.2705">request top 5 genres (GET/genre)</text><polygon fill="#181818" points="376.5,183.8242,386.5,187.8242,376.5,191.8242,380.5,187.8242" style="stroke:#181818;stroke-width:1.0;"/><line style="stroke:#181818;stroke-width:1.0;" x1="269" x2="382.5" y1="187.8242" y2="187.8242"/><text fill="#000000" font-family="sans-serif" font-size="13" font-weight="bold" lengthAdjust="spacing" textLength="7" x="276" y="182.5615">2</text><text fill="#000000" font-family="sans-serif" font-size="13" lengthAdjust="spacing" textLength="85" x="287" y="182.5615">find top genres</text><polygon fill="#181818" points="583.5,215.1152,593.5,219.1152,583.5,223.1152,587.5,219.1152" style="stroke:#181818;stroke-width:1.0;"/><line style="stroke:#181818;stroke-width:1.0;" x1="398.5" x2="589.5" y1="219.1152" y2="219.1152"/><text fill="#000000" font-family="sans-serif" font-size="13" font-weight="bold" lengthAdjust="spacing" textLength="7" x="405.5" y="213.8525">3</text><text fill="#000000" font-family="sans-serif" font-size="13" lengthAdjust="spacing" textLength="87" x="416.5" y="213.8525">get all lendings</text><polygon fill="#181818" points="409.5,246.4063,399.5,250.4063,409.5,254.4063,405.5,250.4063" style="stroke:#181818;stroke-width:1.0;"/><line style="stroke:#181818;stroke-width:1.0;stroke-dasharray:2.0,2.0;" x1="403.5" x2="599.5" y1="250.4063" y2="250.4063"/><text fill="#000000" font-family="sans-serif" font-size="13" font-weight="bold" lengthAdjust="spacing" textLength="7" x="415.5" y="245.1436">4</text><text fill="#000000" font-family="sans-serif" font-size="13" lengthAdjust="spacing" textLength="87" x="426.5" y="245.1436">List of lendings</text><line style="stroke:#181818;stroke-width:1.0;" x1="398.5" x2="440.5" y1="281.6973" y2="281.6973"/><line style="stroke:#181818;stroke-width:1.0;" x1="440.5" x2="440.5" y1="281.6973" y2="294.6973"/><line style="stroke:#181818;stroke-width:1.0;" x1="399.5" x2="440.5" y1="294.6973" y2="294.6973"/><polygon fill="#181818" points="409.5,290.6973,399.5,294.6973,409.5,298.6973,405.5,294.6973" style="stroke:#181818;stroke-width:1.0;"/><text fill="#000000" font-family="sans-serif" font-size="13" font-weight="bold" lengthAdjust="spacing" textLength="7" x="405.5" y="276.4346">5</text><text fill="#000000" font-family="sans-serif" font-size="13" lengthAdjust="spacing" textLength="172" x="416.5" y="276.4346">Process lendings to find top 5</text><polygon fill="#181818" points="275,321.9883,265,325.9883,275,329.9883,271,325.9883" style="stroke:#181818;stroke-width:1.0;"/><line style="stroke:#181818;stroke-width:1.0;stroke-dasharray:2.0,2.0;" x1="269" x2="392.5" y1="325.9883" y2="325.9883"/><text fill="#000000" font-family="sans-serif" font-size="13" font-weight="bold" lengthAdjust="spacing" textLength="7" x="281" y="320.7256">6</text><text fill="#000000" font-family="sans-serif" font-size="13" lengthAdjust="spacing" textLength="75" x="292" y="320.7256">Top 5 genres</text><polygon fill="#181818" points="47,353.2793,37,357.2793,47,361.2793,43,357.2793" style="stroke:#181818;stroke-width:1.0;"/><line style="stroke:#181818;stroke-width:1.0;stroke-dasharray:2.0,2.0;" x1="41" x2="263" y1="357.2793" y2="357.2793"/><text fill="#000000" font-family="sans-serif" font-size="13" font-weight="bold" lengthAdjust="spacing" textLength="7" x="53" y="352.0166">7</text><text fill="#000000" font-family="sans-serif" font-size="13" lengthAdjust="spacing" textLength="14" x="64" y="352.0166">ok</text><!--SRC=[ZPB1JiCm38RlUGfB7813AQ1DI3qWLQNbqWEYum6orYiHQL8ITn9lJxfrpKGgiLia__xy_tQkFubwcyHnBxcYePDtjUvYYzy3gXgZHl3My8unFf1MGxT5mqYGn0G-geTxg2OXlCp2chI1KcmDDu8hk2eUqtIL5KMSvQlqAIyArdD3eXQz6mWbgaQeDjEAZ9OIpOKD5PgzS7ClKxzZhwrmndwM6fXt6ps7ZX8mOqfBGBg7DRIe35guUSqtyU5zEuOMUquODhCme9ynXKXW9rHpe1_P0MyIiZ_XFSa7J1o3W4i9ybWAQLxCmlr42_PAuSBhdISs-3ypD3dpteokqTgPvwBx5Qm3mF9HDcV7M31qMbbOEJlEqdN6QQV_a83- -WK0]--></g></svg>