<?xml version="1.0" encoding="us-ascii" standalone="no"?><svg xmlns="http://www.w3.org/2000/svg" xmlns:xlink="http://www.w3.org/1999/xlink" contentStyleType="text/css" height="615px" preserveAspectRatio="none" style="width:175px;height:615px;background:#FFFFFF;" version="1.1" viewBox="0 0 175 615" width="175px" zoomAndPan="magnify"><defs/><g><text fill="#000000" font-family="sans-serif" font-size="14" font-weight="bold" lengthAdjust="spacing" textLength="138" x="11.5" y="25.1074">US08 Class Diagram</text><!--class BookController--><g id="elem_BookController"><rect codeLine="8" fill="#F1F1F1" height="44.6211" id="BookController" rx="2.5" ry="2.5" style="stroke:#181818;stroke-width:0.5;" width="100" x="37.5" y="46.6211"/><text fill="#000000" font-family="sans-serif" font-size="14" lengthAdjust="spacing" textLength="94" x="40.5" y="66.7285">BookController</text><line style="stroke:#181818;stroke-width:0.5;" x1="38.5" x2="136.5" y1="75.2422" y2="75.2422"/><line style="stroke:#181818;stroke-width:0.5;" x1="38.5" x2="136.5" y1="83.2422" y2="83.2422"/></g><!--class BookService--><g id="elem_BookService"><rect codeLine="11" fill="#F1F1F1" height="63.2422" id="BookService" rx="2.5" ry="2.5" style="stroke:#181818;stroke-width:0.5;" width="161" x="7" y="170.6211"/><text fill="#000000" font-family="sans-serif" font-size="14" lengthAdjust="spacing" textLength="79" x="48" y="190.7285">BookService</text><line style="stroke:#181818;stroke-width:0.5;" x1="8" x2="167" y1="199.2422" y2="199.2422"/><line style="stroke:#181818;stroke-width:0.5;" x1="8" x2="167" y1="207.2422" y2="207.2422"/><ellipse cx="18" cy="222.0527" fill="#84BE84" rx="3" ry="3" style="stroke:#038048;stroke-width:1.0;"/><text fill="#000000" font-family="sans-serif" font-size="14" lengthAdjust="spacing" textLength="135" x="27" y="226.3496">getBookByTitle():void</text></g><!--class BookRepository--><g id="elem_BookRepository"><rect codeLine="15" fill="#F1F1F1" height="79.2031" id="BookRepository" rx="2.5" ry="2.5" style="stroke:#181818;stroke-width:0.5;" width="156" x="9.5" y="312.6211"/><text fill="#000000" font-family="sans-serif" font-size="12" font-style="italic" lengthAdjust="spacing" textLength="61" x="57" y="330.5703">&#171;interface&#187;</text><text fill="#000000" font-family="sans-serif" font-size="14" font-style="italic" lengthAdjust="spacing" textLength="101" x="37" y="348.6895">BookRepository</text><line style="stroke:#181818;stroke-width:0.5;" x1="10.5" x2="164.5" y1="357.2031" y2="357.2031"/><line style="stroke:#181818;stroke-width:0.5;" x1="10.5" x2="164.5" y1="365.2031" y2="365.2031"/><ellipse cx="20.5" cy="380.0137" fill="#84BE84" rx="3" ry="3" style="stroke:#038048;stroke-width:1.0;"/><text fill="#000000" font-family="sans-serif" font-size="14" lengthAdjust="spacing" textLength="130" x="29.5" y="384.3105">getBookByTitle(): list</text></g><!--class Book--><g id="elem_Book"><rect codeLine="20" fill="#F1F1F1" height="137.7266" id="Book" rx="2.5" ry="2.5" style="stroke:#181818;stroke-width:0.5;" width="98" x="38.5" y="470.6211"/><text fill="#000000" font-family="sans-serif" font-size="14" lengthAdjust="spacing" textLength="32" x="71.5" y="490.7285">Book</text><line style="stroke:#181818;stroke-width:0.5;" x1="39.5" x2="135.5" y1="499.2422" y2="499.2422"/><ellipse cx="49.5" cy="514.0527" fill="none" rx="3" ry="3" style="stroke:#038048;stroke-width:1.0;"/><text fill="#000000" font-family="sans-serif" font-size="14" lengthAdjust="spacing" textLength="26" x="58.5" y="518.3496">isbn</text><ellipse cx="49.5" cy="532.6738" fill="none" rx="3" ry="3" style="stroke:#038048;stroke-width:1.0;"/><text fill="#000000" font-family="sans-serif" font-size="14" lengthAdjust="spacing" textLength="22" x="58.5" y="536.9707">title</text><ellipse cx="49.5" cy="551.2949" fill="none" rx="3" ry="3" style="stroke:#038048;stroke-width:1.0;"/><text fill="#000000" font-family="sans-serif" font-size="14" lengthAdjust="spacing" textLength="69" x="58.5" y="555.5918">description</text><ellipse cx="49.5" cy="569.916" fill="none" rx="3" ry="3" style="stroke:#038048;stroke-width:1.0;"/><text fill="#000000" font-family="sans-serif" font-size="14" lengthAdjust="spacing" textLength="41" x="58.5" y="574.2129">author</text><ellipse cx="49.5" cy="588.5371" fill="none" rx="3" ry="3" style="stroke:#038048;stroke-width:1.0;"/><text fill="#000000" font-family="sans-serif" font-size="14" lengthAdjust="spacing" textLength="72" x="58.5" y="592.834">coverPhoto</text><line style="stroke:#181818;stroke-width:0.5;" x1="39.5" x2="135.5" y1="600.3477" y2="600.3477"/></g><!--link BookRepository to Book--><g id="link_BookRepository_Book"><path codeLine="28" d="M87.5,392.0111 C87.5,414.7411 87.5,438.0911 87.5,464.5411 " fill="none" id="BookRepository-to-Book" style="stroke:#181818;stroke-width:1.0;"/><polygon fill="#181818" points="87.5,470.5411,91.5,461.5411,87.5,465.5411,83.5,461.5411,87.5,470.5411" style="stroke:#181818;stroke-width:1.0;"/><text fill="#000000" font-family="sans-serif" font-size="13" lengthAdjust="spacing" textLength="60" x="88.5" y="436.6494">belongs to</text><text fill="#000000" font-family="sans-serif" font-size="13" lengthAdjust="spacing" textLength="7" x="79.9422" y="413.7586">1</text><text fill="#000000" font-family="sans-serif" font-size="13" lengthAdjust="spacing" textLength="20" x="66.4688" y="459.5981">0..*</text></g><!--link BookController to BookService--><g id="link_BookController_BookService"><path codeLine="29" d="M87.5,91.7511 C87.5,113.1211 87.5,140.0111 87.5,164.1411 " fill="none" id="BookController-to-BookService" style="stroke:#181818;stroke-width:1.0;stroke-dasharray:7.0,7.0;"/><polygon fill="#181818" points="87.5,170.1411,91.5,161.1411,87.5,165.1411,83.5,161.1411,87.5,170.1411" style="stroke:#181818;stroke-width:1.0;"/><text fill="#000000" font-family="sans-serif" font-size="13" lengthAdjust="spacing" textLength="28" x="88.5" y="136.6494">uses</text></g><!--link BookService to BookRepository--><g id="link_BookService_BookRepository"><path codeLine="30" d="M87.5,233.7911 C87.5,256.6511 87.5,282.0311 87.5,306.5811 " fill="none" id="BookService-to-BookRepository" style="stroke:#181818;stroke-width:1.0;stroke-dasharray:7.0,7.0;"/><polygon fill="#181818" points="87.5,312.5811,91.5,303.5811,87.5,307.5811,83.5,303.5811,87.5,312.5811" style="stroke:#181818;stroke-width:1.0;"/><text fill="#000000" font-family="sans-serif" font-size="13" lengthAdjust="spacing" textLength="28" x="88.5" y="278.6494">uses</text></g><!--SRC=[RO_DJeH048Jl_HGTBluGOBqPik6mwmCOqGU0eONE3ZIPQKWsndUNGTtWnclNLrLTDvtgwFCiAwVQ6yUZiWmbkPaDwTJRr4YV6LjvdpHSjQxg0Jfk20qxOmb0MItXMxbxn6F0yEaNWzM61v7JKGPrOYqv_83FhV9JjPpZbZHS3kVN47bxby_2JQ1vK7BlrK85_OL6yQpYphZVNwIY-3S2BNiD6PlA0BAl1uZNto5kwB8SuchIJXp4HcPopvse1FjLSVGGOP8KqIvDxwCrDCUQh0ojnyNmTtAQ5jkf-UJ9mtPx0AwcVKDV]--></g></svg>
