<svg xmlns="http://www.w3.org/2000/svg" xmlns:xlink="http://www.w3.org/1999/xlink" contentStyleType="text/css" height="437px" preserveAspectRatio="none" style="width:865px;height:437px;background:#FFFFFF;" version="1.1" viewBox="0 0 865 437" width="865px" zoomAndPan="magnify"><defs/><g><line style="stroke:#181818;stroke-width:0.5;stroke-dasharray:5.0,5.0;" x1="35" x2="35" y1="83.6211" y2="353.9492"/><line style="stroke:#181818;stroke-width:0.5;stroke-dasharray:5.0,5.0;" x1="320.0029" x2="320.0029" y1="83.6211" y2="353.9492"/><line style="stroke:#181818;stroke-width:0.5;stroke-dasharray:5.0,5.0;" x1="601.3413" x2="601.3413" y1="83.6211" y2="353.9492"/><line style="stroke:#181818;stroke-width:0.5;stroke-dasharray:5.0,5.0;" x1="719.8237" x2="719.8237" y1="83.6211" y2="353.9492"/><line style="stroke:#181818;stroke-width:0.5;stroke-dasharray:5.0,5.0;" x1="832.1621" x2="832.1621" y1="83.6211" y2="353.9492"/><text fill="#000000" font-family="sans-serif" font-size="14" lengthAdjust="spacing" textLength="54.4756" x="5" y="80.1074">Librarian</text><ellipse cx="35.2378" cy="13.5" fill="#E2E2F0" rx="8" ry="8" style="stroke:#181818;stroke-width:0.5;"/><path d="M35.2378,21.5 L35.2378,48.5 M22.2378,29.5 L48.2378,29.5 M35.2378,48.5 L22.2378,63.5 M35.2378,48.5 L48.2378,63.5 " fill="none" style="stroke:#181818;stroke-width:0.5;"/><text fill="#000000" font-family="sans-serif" font-size="14" lengthAdjust="spacing" textLength="54.4756" x="5" y="368.0566">Librarian</text><ellipse cx="35.2378" cy="380.0703" fill="#E2E2F0" rx="8" ry="8" style="stroke:#181818;stroke-width:0.5;"/><path d="M35.2378,388.0703 L35.2378,415.0703 M22.2378,396.0703 L48.2378,396.0703 M35.2378,415.0703 L22.2378,430.0703 M35.2378,415.0703 L48.2378,430.0703 " fill="none" style="stroke:#181818;stroke-width:0.5;"/><rect fill="#E2E2F0" height="32.6211" rx="2.5" ry="2.5" style="stroke:#181818;stroke-width:0.5;" width="90.2344" x="275.0029" y="50"/><text fill="#000000" font-family="sans-serif" font-size="14" lengthAdjust="spacing" textLength="76.2344" x="282.0029" y="72.1074">HTTP Client</text><rect fill="#E2E2F0" height="32.6211" rx="2.5" ry="2.5" style="stroke:#181818;stroke-width:0.5;" width="90.2344" x="275.0029" y="352.9492"/><text fill="#000000" font-family="sans-serif" font-size="14" lengthAdjust="spacing" textLength="76.2344" x="282.0029" y="375.0566">HTTP Client</text><rect fill="#E2E2F0" height="32.6211" rx="2.5" ry="2.5" style="stroke:#181818;stroke-width:0.5;" width="103.4824" x="550.3413" y="50"/><text fill="#000000" font-family="sans-serif" font-size="14" lengthAdjust="spacing" textLength="89.4824" x="557.3413" y="72.1074">Books Service</text><rect fill="#E2E2F0" height="32.6211" rx="2.5" ry="2.5" style="stroke:#181818;stroke-width:0.5;" width="103.4824" x="550.3413" y="352.9492"/><text fill="#000000" font-family="sans-serif" font-size="14" lengthAdjust="spacing" textLength="89.4824" x="557.3413" y="375.0566">Books Service</text><rect fill="#E2E2F0" height="32.6211" rx="2.5" ry="2.5" style="stroke:#181818;stroke-width:0.5;" width="112.8203" x="663.8237" y="50"/><text fill="#000000" font-family="sans-serif" font-size="14" lengthAdjust="spacing" textLength="98.8203" x="670.8237" y="72.1074">Authors Service</text><rect fill="#E2E2F0" height="32.6211" rx="2.5" ry="2.5" style="stroke:#181818;stroke-width:0.5;" width="112.8203" x="663.8237" y="352.9492"/><text fill="#000000" font-family="sans-serif" font-size="14" lengthAdjust="spacing" textLength="98.8203" x="670.8237" y="375.0566">Authors Service</text><rect fill="#E2E2F0" height="32.6211" rx="2.5" ry="2.5" style="stroke:#181818;stroke-width:0.5;" width="54.4688" x="805.1621" y="50"/><text fill="#000000" font-family="sans-serif" font-size="14" lengthAdjust="spacing" textLength="40.4688" x="812.1621" y="72.1074">Rabbit</text><rect fill="#E2E2F0" height="32.6211" rx="2.5" ry="2.5" style="stroke:#181818;stroke-width:0.5;" width="54.4688" x="805.1621" y="352.9492"/><text fill="#000000" font-family="sans-serif" font-size="14" lengthAdjust="spacing" textLength="40.4688" x="812.1621" y="375.0566">Rabbit</text><polygon fill="#181818" points="308.1201,112.9121,318.1201,116.9121,308.1201,120.9121,312.1201,116.9121" style="stroke:#181818;stroke-width:1.0;"/><line style="stroke:#181818;stroke-width:1.0;" x1="35.2378" x2="314.1201" y1="116.9121" y2="116.9121"/><text fill="#000000" font-family="sans-serif" font-size="13" lengthAdjust="spacing" textLength="260.8823" x="42.2378" y="111.6494">Request to create a Book, Author, and Genre</text><polygon fill="#181818" points="590.0825,144.2031,600.0825,148.2031,590.0825,152.2031,594.0825,148.2031" style="stroke:#181818;stroke-width:1.0;"/><line style="stroke:#181818;stroke-width:1.0;" x1="320.1201" x2="596.0825" y1="148.2031" y2="148.2031"/><text fill="#000000" font-family="sans-serif" font-size="13" lengthAdjust="spacing" textLength="257.9624" x="327.1201" y="142.9404">POST /create/all (with author and genre info)</text><polygon fill="#181818" points="331.1201,175.4941,321.1201,179.4941,331.1201,183.4941,327.1201,179.4941" style="stroke:#181818;stroke-width:1.0;"/><line style="stroke:#181818;stroke-width:1.0;stroke-dasharray:2.0,2.0;" x1="325.1201" x2="601.0825" y1="179.4941" y2="179.4941"/><text fill="#000000" font-family="sans-serif" font-size="13" lengthAdjust="spacing" textLength="112.7471" x="337.1201" y="174.2314">202 Book Accepted</text><polygon fill="#181818" points="46.2378,206.7852,36.2378,210.7852,46.2378,214.7852,42.2378,210.7852" style="stroke:#181818;stroke-width:1.0;"/><line style="stroke:#181818;stroke-width:1.0;stroke-dasharray:2.0,2.0;" x1="40.2378" x2="319.1201" y1="210.7852" y2="210.7852"/><text fill="#000000" font-family="sans-serif" font-size="13" lengthAdjust="spacing" textLength="39.0317" x="52.2378" y="205.5225">200 ok</text><polygon fill="#181818" points="820.3965,238.0762,830.3965,242.0762,820.3965,246.0762,824.3965,242.0762" style="stroke:#181818;stroke-width:1.0;"/><line style="stroke:#181818;stroke-width:1.0;" x1="602.0825" x2="826.3965" y1="242.0762" y2="242.0762"/><text fill="#000000" font-family="sans-serif" font-size="13" lengthAdjust="spacing" textLength="80.9326" x="609.0825" y="236.8135">Create Author</text><polygon fill="#181818" points="731.2339,269.3672,721.2339,273.3672,731.2339,277.3672,727.2339,273.3672" style="stroke:#181818;stroke-width:1.0;"/><line style="stroke:#181818;stroke-width:1.0;stroke-dasharray:2.0,2.0;" x1="725.2339" x2="831.3965" y1="273.3672" y2="273.3672"/><text fill="#000000" font-family="sans-serif" font-size="13" lengthAdjust="spacing" textLength="88.1626" x="737.2339" y="268.1045">Author Created</text><polygon fill="#181818" points="820.3965,300.6582,830.3965,304.6582,820.3965,308.6582,824.3965,304.6582" style="stroke:#181818;stroke-width:1.0;"/><line style="stroke:#181818;stroke-width:1.0;stroke-dasharray:2.0,2.0;" x1="720.2339" x2="826.3965" y1="304.6582" y2="304.6582"/><text fill="#000000" font-family="sans-serif" font-size="13" lengthAdjust="spacing" textLength="80.9326" x="727.2339" y="299.3955">Author Create</text><polygon fill="#181818" points="613.0825,331.9492,603.0825,335.9492,613.0825,339.9492,609.0825,335.9492" style="stroke:#181818;stroke-width:1.0;"/><line style="stroke:#181818;stroke-width:1.0;stroke-dasharray:2.0,2.0;" x1="607.0825" x2="831.3965" y1="335.9492" y2="335.9492"/><text fill="#000000" font-family="sans-serif" font-size="13" lengthAdjust="spacing" textLength="88.1626" x="619.0825" y="330.6865">Author Created</text><!--SRC=[NP31Zi8m34Jl-OeH9v2eG1nxG68vi8TA8EWFkAbtYQYIRcfsVn-Q1DJipRBVpDWcBSwZCeqdRyY21bIg9oz6cvwiOFPProViEyDMPkCubZdpuTnjm8Nzhz4SgD39eTrThixdMEhbu9cQniGm7qgbAXJRb5pYp3zt7WJYe3sJC2ZaBPFT4cHR7DXwLb4pgiD69Kx7IurLrAsewp3_Ct851MKGVez26Flb5YeULap2D-jDiC9EQ-w5stV44wh6-HhkzX9kqmKbzd7JkA6AtQ19BoXJaS1MlTvLJ4moP6gIZljdyG00]--></g></svg>