<svg xmlns="http://www.w3.org/2000/svg" xmlns:xlink="http://www.w3.org/1999/xlink" contentStyleType="text/css" height="591px" preserveAspectRatio="none" style="width:1341px;height:591px;background:#DDDDDD;" version="1.1" viewBox="0 0 1341 591" width="1341px" zoomAndPan="magnify"><defs/><g><rect fill="#DDDDDD" height="591" style="stroke:none;stroke-width:1.0;" width="1341" x="0" y="0"/><rect fill="#ADD8E6" height="579.4434" rx="3.5" ry="3.5" style="stroke:#181818;stroke-width:0.5;" width="127.041" x="1208.6724" y="6"/><text fill="#000000" font-family="sans-serif" font-size="13" font-weight="bold" lengthAdjust="spacing" textLength="100.439" x="1221.9734" y="20.0283">Message Broker</text><rect fill="#FFFFFF" height="368.9102" style="stroke:#454645;stroke-width:1.0;" width="10" x="420.0723" y="116.9121"/><rect fill="#FFFFFF" height="306.3281" style="stroke:#454645;stroke-width:1.0;" width="10" x="563.2412" y="148.2031"/><rect fill="#FFFFFF" height="31.291" style="stroke:#454645;stroke-width:1.0;" width="10" x="691.9502" y="179.4941"/><rect fill="#FFFFFF" height="31.291" style="stroke:#454645;stroke-width:1.0;" width="10" x="809.3291" y="242.0762"/><rect fill="#FFFFFF" height="59.291" style="stroke:#454645;stroke-width:1.0;" width="10" x="915.8218" y="381.2402"/><rect fill="#FFFFFF" height="14" style="stroke:#454645;stroke-width:1.0;" width="10" x="1037.4868" y="335.9492"/><rect fill="#FFFFFF" height="190.1641" style="stroke:#454645;stroke-width:1.0;" width="10" x="1155.6484" y="304.6582"/><rect fill="#FFFFFF" height="14" style="stroke:#454645;stroke-width:1.0;" width="10" x="1267.1929" y="412.5313"/><line style="stroke:#454645;stroke-width:0.5;stroke-dasharray:5.0,5.0;" x1="35" x2="35" y1="83.6211" y2="503.8223"/><line style="stroke:#454645;stroke-width:0.5;stroke-dasharray:5.0,5.0;" x1="424.7725" x2="424.7725" y1="83.6211" y2="503.8223"/><line style="stroke:#454645;stroke-width:0.5;stroke-dasharray:5.0,5.0;" x1="567.9448" x2="567.9448" y1="83.6211" y2="503.8223"/><line style="stroke:#454645;stroke-width:0.5;stroke-dasharray:5.0,5.0;" x1="696.5366" x2="696.5366" y1="83.6211" y2="503.8223"/><line style="stroke:#454645;stroke-width:0.5;stroke-dasharray:5.0,5.0;" x1="813.3638" x2="813.3638" y1="83.6211" y2="503.8223"/><line style="stroke:#454645;stroke-width:0.5;stroke-dasharray:5.0,5.0;" x1="920.2944" x2="920.2944" y1="83.6211" y2="503.8223"/><line style="stroke:#454645;stroke-width:0.5;stroke-dasharray:5.0,5.0;" x1="1042.3491" x2="1042.3491" y1="83.6211" y2="503.8223"/><line style="stroke:#454645;stroke-width:0.5;stroke-dasharray:5.0,5.0;" x1="1160.6245" x2="1160.6245" y1="83.6211" y2="503.8223"/><line style="stroke:#454645;stroke-width:0.5;stroke-dasharray:5.0,5.0;" x1="1271.6724" x2="1271.6724" y1="83.6211" y2="503.8223"/><text fill="#454645" font-family="sans-serif" font-size="14" lengthAdjust="spacing" textLength="54.4756" x="5" y="80.1074">Librarian</text><ellipse cx="35.2378" cy="13.5" fill="#454645" rx="8" ry="8" style="stroke:#454645;stroke-width:0.5;"/><path d="M35.2378,21.5 L35.2378,48.5 M22.2378,29.5 L48.2378,29.5 M35.2378,48.5 L22.2378,63.5 M35.2378,48.5 L48.2378,63.5 " fill="none" style="stroke:#454645;stroke-width:0.5;"/><text fill="#454645" font-family="sans-serif" font-size="14" lengthAdjust="spacing" textLength="54.4756" x="5" y="517.9297">Librarian</text><ellipse cx="35.2378" cy="529.9434" fill="#454645" rx="8" ry="8" style="stroke:#454645;stroke-width:0.5;"/><path d="M35.2378,537.9434 L35.2378,564.9434 M22.2378,545.9434 L48.2378,545.9434 M35.2378,564.9434 L22.2378,579.9434 M35.2378,564.9434 L48.2378,579.9434 " fill="none" style="stroke:#454645;stroke-width:0.5;"/><rect fill="#FF6F61" height="32.6211" rx="3.5" ry="3.5" style="stroke:#454645;stroke-width:1.5;" width="106.5996" x="371.7725" y="50"/><text fill="#FFFFFF" font-family="sans-serif" font-size="14" lengthAdjust="spacing" textLength="92.5996" x="378.7725" y="72.1074">BookController</text><rect fill="#FF6F61" height="32.6211" rx="3.5" ry="3.5" style="stroke:#454645;stroke-width:1.5;" width="106.5996" x="371.7725" y="502.8223"/><text fill="#FFFFFF" font-family="sans-serif" font-size="14" lengthAdjust="spacing" textLength="92.5996" x="378.7725" y="524.9297">BookController</text><rect fill="#FF6F61" height="32.6211" rx="3.5" ry="3.5" style="stroke:#454645;stroke-width:1.5;" width="92.5928" x="521.9448" y="50"/><text fill="#FFFFFF" font-family="sans-serif" font-size="14" lengthAdjust="spacing" textLength="78.5928" x="528.9448" y="72.1074">BookService</text><rect fill="#FF6F61" height="32.6211" rx="3.5" ry="3.5" style="stroke:#454645;stroke-width:1.5;" width="92.5928" x="521.9448" y="502.8223"/><text fill="#FFFFFF" font-family="sans-serif" font-size="14" lengthAdjust="spacing" textLength="78.5928" x="528.9448" y="524.9297">BookService</text><rect fill="#FF6F61" height="32.6211" rx="3.5" ry="3.5" style="stroke:#454645;stroke-width:1.5;" width="112.8271" x="640.5366" y="50"/><text fill="#FFFFFF" font-family="sans-serif" font-size="14" lengthAdjust="spacing" textLength="98.8271" x="647.5366" y="72.1074">BookRepository</text><rect fill="#FF6F61" height="32.6211" rx="3.5" ry="3.5" style="stroke:#454645;stroke-width:1.5;" width="112.8271" x="640.5366" y="502.8223"/><text fill="#FFFFFF" font-family="sans-serif" font-size="14" lengthAdjust="spacing" textLength="98.8271" x="647.5366" y="524.9297">BookRepository</text><rect fill="#FF6F61" height="32.6211" rx="3.5" ry="3.5" style="stroke:#454645;stroke-width:1.5;" width="101.9307" x="763.3638" y="50"/><text fill="#FFFFFF" font-family="sans-serif" font-size="14" lengthAdjust="spacing" textLength="87.9307" x="770.3638" y="72.1074">AuthorService</text><rect fill="#FF6F61" height="32.6211" rx="3.5" ry="3.5" style="stroke:#454645;stroke-width:1.5;" width="101.9307" x="763.3638" y="502.8223"/><text fill="#FFFFFF" font-family="sans-serif" font-size="14" lengthAdjust="spacing" textLength="87.9307" x="770.3638" y="524.9297">AuthorService</text><rect fill="#FF6F61" height="32.6211" rx="3.5" ry="3.5" style="stroke:#454645;stroke-width:1.5;" width="91.0547" x="875.2944" y="50"/><text fill="#FFFFFF" font-family="sans-serif" font-size="14" lengthAdjust="spacing" textLength="77.0547" x="882.2944" y="72.1074">BookSender</text><rect fill="#FF6F61" height="32.6211" rx="3.5" ry="3.5" style="stroke:#454645;stroke-width:1.5;" width="91.0547" x="875.2944" y="502.8223"/><text fill="#FFFFFF" font-family="sans-serif" font-size="14" lengthAdjust="spacing" textLength="77.0547" x="882.2944" y="524.9297">BookSender</text><rect fill="#FF6F61" height="32.6211" rx="3.5" ry="3.5" style="stroke:#454645;stroke-width:1.5;" width="132.2754" x="976.3491" y="50"/><text fill="#FFFFFF" font-family="sans-serif" font-size="14" lengthAdjust="spacing" textLength="118.2754" x="983.3491" y="72.1074">BookDBRepository</text><rect fill="#FF6F61" height="32.6211" rx="3.5" ry="3.5" style="stroke:#454645;stroke-width:1.5;" width="132.2754" x="976.3491" y="502.8223"/><text fill="#FFFFFF" font-family="sans-serif" font-size="14" lengthAdjust="spacing" textLength="118.2754" x="983.3491" y="524.9297">BookDBRepository</text><rect fill="#FF6F61" height="32.6211" rx="3.5" ry="3.5" style="stroke:#454645;stroke-width:1.5;" width="84.0479" x="1118.6245" y="50"/><text fill="#FFFFFF" font-family="sans-serif" font-size="14" lengthAdjust="spacing" textLength="66.1582" x="1129.5142" y="72.1074">book:Book</text><rect fill="#FF6F61" height="32.6211" rx="3.5" ry="3.5" style="stroke:#454645;stroke-width:1.5;" width="84.0479" x="1118.6245" y="502.8223"/><text fill="#FFFFFF" font-family="sans-serif" font-size="14" lengthAdjust="spacing" textLength="66.1582" x="1129.5142" y="524.9297">book:Book</text><rect fill="#FF6F61" height="32.6211" rx="3.5" ry="3.5" style="stroke:#454645;stroke-width:1.5;" width="119.041" x="1212.6724" y="50"/><text fill="#FFFFFF" font-family="sans-serif" font-size="14" lengthAdjust="spacing" textLength="105.041" x="1219.6724" y="72.1074">MesssageBroker</text><rect fill="#FF6F61" height="32.6211" rx="3.5" ry="3.5" style="stroke:#454645;stroke-width:1.5;" width="119.041" x="1212.6724" y="502.8223"/><text fill="#FFFFFF" font-family="sans-serif" font-size="14" lengthAdjust="spacing" textLength="105.041" x="1219.6724" y="524.9297">MesssageBroker</text><rect fill="#FFFFFF" height="368.9102" style="stroke:#454645;stroke-width:1.0;" width="10" x="420.0723" y="116.9121"/><rect fill="#FFFFFF" height="306.3281" style="stroke:#454645;stroke-width:1.0;" width="10" x="563.2412" y="148.2031"/><rect fill="#FFFFFF" height="31.291" style="stroke:#454645;stroke-width:1.0;" width="10" x="691.9502" y="179.4941"/><rect fill="#FFFFFF" height="31.291" style="stroke:#454645;stroke-width:1.0;" width="10" x="809.3291" y="242.0762"/><rect fill="#FFFFFF" height="59.291" style="stroke:#454645;stroke-width:1.0;" width="10" x="915.8218" y="381.2402"/><rect fill="#FFFFFF" height="14" style="stroke:#454645;stroke-width:1.0;" width="10" x="1037.4868" y="335.9492"/><rect fill="#FFFFFF" height="190.1641" style="stroke:#454645;stroke-width:1.0;" width="10" x="1155.6484" y="304.6582"/><rect fill="#FFFFFF" height="14" style="stroke:#454645;stroke-width:1.0;" width="10" x="1267.1929" y="412.5313"/><ellipse cx="7.5" cy="116.1621" fill="#000000" rx="4" ry="4" style="stroke:#454645;stroke-width:1.5;"/><polygon fill="#454645" points="408.0723,112.9121,418.0723,116.9121,408.0723,120.9121,412.0723,116.9121" style="stroke:#454645;stroke-width:1.0;"/><line style="stroke:#454645;stroke-width:1.0;" x1="12" x2="414.0723" y1="116.9121" y2="116.9121"/><text fill="#000000" font-family="sans-serif" font-size="13" lengthAdjust="spacing" textLength="393.0723" x="15" y="111.6494">POST /create/all (isbn, title, description, genre, authors, coverPhoto)</text><polygon fill="#454645" points="551.2412,144.2031,561.2412,148.2031,551.2412,152.2031,555.2412,148.2031" style="stroke:#454645;stroke-width:1.0;"/><line style="stroke:#454645;stroke-width:1.0;" x1="430.0723" x2="557.2412" y1="148.2031" y2="148.2031"/><text fill="#000000" font-family="sans-serif" font-size="13" lengthAdjust="spacing" textLength="114.1689" x="437.0723" y="142.9404">createBookAll(data)</text><polygon fill="#454645" points="679.9502,175.4941,689.9502,179.4941,679.9502,183.4941,683.9502,179.4941" style="stroke:#454645;stroke-width:1.0;"/><line style="stroke:#454645;stroke-width:1.0;" x1="573.2412" x2="685.9502" y1="179.4941" y2="179.4941"/><text fill="#000000" font-family="sans-serif" font-size="13" lengthAdjust="spacing" textLength="99.709" x="580.2412" y="174.2314">checkBookData()</text><polygon fill="#454645" points="584.2412,206.7852,574.2412,210.7852,584.2412,214.7852,580.2412,210.7852" style="stroke:#454645;stroke-width:1.0;"/><line style="stroke:#454645;stroke-width:1.0;stroke-dasharray:2.0,2.0;" x1="578.2412" x2="695.9502" y1="210.7852" y2="210.7852"/><text fill="#000000" font-family="sans-serif" font-size="13" lengthAdjust="spacing" textLength="84.5571" x="590.2412" y="205.5225">bookDataValid</text><polygon fill="#454645" points="797.3291,238.0762,807.3291,242.0762,797.3291,246.0762,801.3291,242.0762" style="stroke:#454645;stroke-width:1.0;"/><line style="stroke:#454645;stroke-width:1.0;" x1="573.2412" x2="803.3291" y1="242.0762" y2="242.0762"/><text fill="#000000" font-family="sans-serif" font-size="13" lengthAdjust="spacing" textLength="141.6289" x="580.2412" y="236.8135">validateAuthors(authors)</text><polygon fill="#454645" points="584.2412,269.3672,574.2412,273.3672,584.2412,277.3672,580.2412,273.3672" style="stroke:#454645;stroke-width:1.0;"/><line style="stroke:#454645;stroke-width:1.0;stroke-dasharray:2.0,2.0;" x1="578.2412" x2="813.3291" y1="273.3672" y2="273.3672"/><text fill="#000000" font-family="sans-serif" font-size="13" lengthAdjust="spacing" textLength="72.2681" x="590.2412" y="268.1045">authorsValid</text><polygon fill="#454645" points="1143.6484,300.6582,1153.6484,304.6582,1143.6484,308.6582,1147.6484,304.6582" style="stroke:#454645;stroke-width:1.0;"/><line style="stroke:#454645;stroke-width:1.0;" x1="696.9502" x2="1149.6484" y1="304.6582" y2="304.6582"/><text fill="#000000" font-family="sans-serif" font-size="13" lengthAdjust="spacing" textLength="323.7241" x="703.9502" y="299.3955">Book(isbn, title, description, genre, authors, coverPhoto)</text><polygon fill="#454645" points="1025.4868,331.9492,1035.4868,335.9492,1025.4868,339.9492,1029.4868,335.9492" style="stroke:#454645;stroke-width:1.0;"/><line style="stroke:#454645;stroke-width:1.0;" x1="573.2412" x2="1031.4868" y1="335.9492" y2="335.9492"/><text fill="#000000" font-family="sans-serif" font-size="13" lengthAdjust="spacing" textLength="351.1841" x="580.2412" y="330.6865">saveBook(isbn, title, description, genre, authors, coverPhoto)</text><polygon fill="#454645" points="584.2412,345.9492,574.2412,349.9492,584.2412,353.9492,580.2412,349.9492" style="stroke:#454645;stroke-width:1.0;"/><line style="stroke:#454645;stroke-width:1.0;stroke-dasharray:2.0,2.0;" x1="578.2412" x2="1041.4868" y1="349.9492" y2="349.9492"/><polygon fill="#454645" points="903.8218,377.2402,913.8218,381.2402,903.8218,385.2402,907.8218,381.2402" style="stroke:#454645;stroke-width:1.0;"/><line style="stroke:#454645;stroke-width:1.0;" x1="573.2412" x2="909.8218" y1="381.2402" y2="381.2402"/><text fill="#000000" font-family="sans-serif" font-size="13" lengthAdjust="spacing" textLength="140.918" x="580.2412" y="375.9775">sendCreatedBook(book)</text><polygon fill="#454645" points="1255.1929,408.5313,1265.1929,412.5313,1255.1929,416.5313,1259.1929,412.5313" style="stroke:#454645;stroke-width:1.0;"/><line style="stroke:#454645;stroke-width:1.0;" x1="925.8218" x2="1261.1929" y1="412.5313" y2="412.5313"/><text fill="#000000" font-family="sans-serif" font-size="13" lengthAdjust="spacing" textLength="296.0991" x="932.8218" y="407.2686">convertAndSend(topic.getName(), "book.created.");</text><polygon fill="#454645" points="936.8218,422.5313,926.8218,426.5313,936.8218,430.5313,932.8218,426.5313" style="stroke:#454645;stroke-width:1.0;"/><line style="stroke:#454645;stroke-width:1.0;stroke-dasharray:2.0,2.0;" x1="930.8218" x2="1271.1929" y1="426.5313" y2="426.5313"/><polygon fill="#454645" points="584.2412,436.5313,574.2412,440.5313,584.2412,444.5313,580.2412,440.5313" style="stroke:#454645;stroke-width:1.0;"/><line style="stroke:#454645;stroke-width:1.0;stroke-dasharray:2.0,2.0;" x1="578.2412" x2="919.8218" y1="440.5313" y2="440.5313"/><polygon fill="#454645" points="441.0723,450.5313,431.0723,454.5313,441.0723,458.5313,437.0723,454.5313" style="stroke:#454645;stroke-width:1.0;"/><line style="stroke:#454645;stroke-width:1.0;stroke-dasharray:2.0,2.0;" x1="435.0723" x2="567.2412" y1="454.5313" y2="454.5313"/><ellipse cx="7.5" cy="485.0723" fill="#000000" rx="4" ry="4" style="stroke:#454645;stroke-width:1.5;"/><polygon fill="#454645" points="24.5,481.8223,14.5,485.8223,24.5,489.8223,20.5,485.8223" style="stroke:#454645;stroke-width:1.0;"/><line style="stroke:#454645;stroke-width:1.0;stroke-dasharray:2.0,2.0;" x1="18.5" x2="424.0723" y1="485.8223" y2="485.8223"/><text fill="#000000" font-family="sans-serif" font-size="13" lengthAdjust="spacing" textLength="71.5508" x="25" y="480.5596">201 Created</text><!--SRC=[fLB1Rfmm4BtFLqpfeI3jRjeUQHHfDpqcQTHKkUHaOBHOw_KWUq39tzS6ke5bJoa7Z9-VvptUp1VL2jlsM923-AbAqPqIGhO0dwIc8w7m6q0uO8Ttkd3AQMLHURo3HZdHfMwK5Tmn7sxPYcDZoCNpP0ub2_eJkKwNTEAE-oNnDpNiTJ3mTkA-GtFwjfMQtRJo3BbambOJlyDsIVkvks1Y2Ywlz3GimbSUjma05FoAoJrvh_Q4EyU788MVZTxNKfYM0CCpBHEfaJjG-u9pA87WDsYy0hpm-kQi2pa-_dhwWrUbez3JAsKCfjeNTeMYnT0AA_Abqure3jYUh0kOwlFoAoov8_TOit06PzqTbSPGSnm48hGr9gsKg0nWskBnmdjSuKvDvQ5FCT3J31n9wsoVLqIUbT7LeiYicJbsaHIK1zYde_TJiN4_gJNfukWfxzyVpENIJqwd8aUlEleFWU57BkeCevhxiDps-LUzJWmmWybe1_fyQ4BsR8E4R6qLEQbmeylDdkH17IdDLfZ48fkXgzKcoNx0FoFZChEpdBimZDVhzVamVl_w3KUd07y1]--></g></svg>