<svg xmlns="http://www.w3.org/2000/svg" xmlns:xlink="http://www.w3.org/1999/xlink" contentStyleType="text/css" height="668px" preserveAspectRatio="none" style="width:1212px;height:668px;background:#FFFFFF;" version="1.1" viewBox="0 0 1212 668" width="1212px" zoomAndPan="magnify"><defs/><g><rect fill="#ADD8E6" height="656.3164" style="stroke:#181818;stroke-width:0.5;" width="152.71" x="1053.7178" y="6"/><text fill="#000000" font-family="sans-serif" font-size="13" font-weight="bold" lengthAdjust="spacing" textLength="100.439" x="1079.8533" y="20.0283">Message Broker</text><line style="stroke:#181818;stroke-width:0.5;stroke-dasharray:5.0,5.0;" x1="35" x2="35" y1="83.6211" y2="580.6953"/><line style="stroke:#181818;stroke-width:0.5;stroke-dasharray:5.0,5.0;" x1="451.4482" x2="451.4482" y1="83.6211" y2="580.6953"/><line style="stroke:#181818;stroke-width:0.5;stroke-dasharray:5.0,5.0;" x1="787.0015" x2="787.0015" y1="83.6211" y2="580.6953"/><line style="stroke:#181818;stroke-width:0.5;stroke-dasharray:5.0,5.0;" x1="944.7251" x2="944.7251" y1="83.6211" y2="580.6953"/><line style="stroke:#181818;stroke-width:0.5;stroke-dasharray:5.0,5.0;" x1="1129.7178" x2="1129.7178" y1="83.6211" y2="580.6953"/><text fill="#000000" font-family="sans-serif" font-size="14" lengthAdjust="spacing" textLength="54.4756" x="5" y="80.1074">Librarian</text><ellipse cx="35.2378" cy="13.5" fill="#E2E2F0" rx="8" ry="8" style="stroke:#181818;stroke-width:0.5;"/><path d="M35.2378,21.5 L35.2378,48.5 M22.2378,29.5 L48.2378,29.5 M35.2378,48.5 L22.2378,63.5 M35.2378,48.5 L48.2378,63.5 " fill="none" style="stroke:#181818;stroke-width:0.5;"/><text fill="#000000" font-family="sans-serif" font-size="14" lengthAdjust="spacing" textLength="54.4756" x="5" y="594.8027">Librarian</text><ellipse cx="35.2378" cy="606.8164" fill="#E2E2F0" rx="8" ry="8" style="stroke:#181818;stroke-width:0.5;"/><path d="M35.2378,614.8164 L35.2378,641.8164 M22.2378,622.8164 L48.2378,622.8164 M35.2378,641.8164 L22.2378,656.8164 M35.2378,641.8164 L48.2378,656.8164 " fill="none" style="stroke:#181818;stroke-width:0.5;"/><rect fill="#E2E2F0" height="32.6211" rx="2.5" ry="2.5" style="stroke:#181818;stroke-width:0.5;" width="137.7236" x="383.4482" y="50"/><text fill="#000000" font-family="sans-serif" font-size="14" lengthAdjust="spacing" textLength="123.7236" x="390.4482" y="72.1074">booksC[1] : BooksC</text><rect fill="#E2E2F0" height="32.6211" rx="2.5" ry="2.5" style="stroke:#181818;stroke-width:0.5;" width="137.7236" x="383.4482" y="579.6953"/><text fill="#000000" font-family="sans-serif" font-size="14" lengthAdjust="spacing" textLength="123.7236" x="390.4482" y="601.8027">booksC[1] : BooksC</text><rect fill="#E2E2F0" height="32.6211" rx="2.5" ry="2.5" style="stroke:#181818;stroke-width:0.5;" width="137.7236" x="719.0015" y="50"/><text fill="#000000" font-family="sans-serif" font-size="14" lengthAdjust="spacing" textLength="123.7236" x="726.0015" y="72.1074">booksC[2] : BooksC</text><rect fill="#E2E2F0" height="32.6211" rx="2.5" ry="2.5" style="stroke:#181818;stroke-width:0.5;" width="137.7236" x="719.0015" y="579.6953"/><text fill="#000000" font-family="sans-serif" font-size="14" lengthAdjust="spacing" textLength="123.7236" x="726.0015" y="601.8027">booksC[2] : BooksC</text><rect fill="#E2E2F0" height="32.6211" rx="2.5" ry="2.5" style="stroke:#181818;stroke-width:0.5;" width="156.3994" x="866.7251" y="50"/><text fill="#000000" font-family="sans-serif" font-size="14" lengthAdjust="spacing" textLength="142.3994" x="873.7251" y="72.1074">authorsC[1] : AuthorsC</text><rect fill="#E2E2F0" height="32.6211" rx="2.5" ry="2.5" style="stroke:#181818;stroke-width:0.5;" width="156.3994" x="866.7251" y="579.6953"/><text fill="#000000" font-family="sans-serif" font-size="14" lengthAdjust="spacing" textLength="142.3994" x="873.7251" y="601.8027">authorsC[1] : AuthorsC</text><rect fill="#E2E2F0" height="32.6211" rx="2.5" ry="2.5" style="stroke:#181818;stroke-width:0.5;" width="144.71" x="1057.7178" y="50"/><text fill="#000000" font-family="sans-serif" font-size="14" lengthAdjust="spacing" textLength="130.71" x="1064.7178" y="72.1074">MB : MessageBroker</text><rect fill="#E2E2F0" height="32.6211" rx="2.5" ry="2.5" style="stroke:#181818;stroke-width:0.5;" width="144.71" x="1057.7178" y="579.6953"/><text fill="#000000" font-family="sans-serif" font-size="14" lengthAdjust="spacing" textLength="130.71" x="1064.7178" y="601.8027">MB : MessageBroker</text><polygon fill="#181818" points="440.3101,112.9121,450.3101,116.9121,440.3101,120.9121,444.3101,116.9121" style="stroke:#181818;stroke-width:1.0;"/><line style="stroke:#181818;stroke-width:1.0;" x1="35.2378" x2="446.3101" y1="116.9121" y2="116.9121"/><text fill="#000000" font-family="sans-serif" font-size="13" lengthAdjust="spacing" textLength="393.0723" x="42.2378" y="111.6494">POST /create/all (isbn, title, description, genre, authors, coverPhoto)</text><polygon fill="#181818" points="775.8633,144.2031,785.8633,148.2031,775.8633,152.2031,779.8633,148.2031" style="stroke:#181818;stroke-width:1.0;"/><line style="stroke:#181818;stroke-width:1.0;" x1="452.3101" x2="781.8633" y1="148.2031" y2="148.2031"/><text fill="#000000" font-family="sans-serif" font-size="13" lengthAdjust="spacing" textLength="99.709" x="459.3101" y="142.9404">checkBookData()</text><polygon fill="#181818" points="463.3101,175.4941,453.3101,179.4941,463.3101,183.4941,459.3101,179.4941" style="stroke:#181818;stroke-width:1.0;"/><line style="stroke:#181818;stroke-width:1.0;stroke-dasharray:2.0,2.0;" x1="457.3101" x2="786.8633" y1="179.4941" y2="179.4941"/><text fill="#000000" font-family="sans-serif" font-size="13" lengthAdjust="spacing" textLength="93.2153" x="469.3101" y="174.2314">bookDataValid()</text><polygon fill="#181818" points="932.9248,206.7852,942.9248,210.7852,932.9248,214.7852,936.9248,210.7852" style="stroke:#181818;stroke-width:1.0;"/><line style="stroke:#181818;stroke-width:1.0;" x1="452.3101" x2="938.9248" y1="210.7852" y2="210.7852"/><text fill="#000000" font-family="sans-serif" font-size="13" lengthAdjust="spacing" textLength="125.728" x="459.3101" y="205.5225">validateAuthorsData()</text><polygon fill="#181818" points="463.3101,238.0762,453.3101,242.0762,463.3101,246.0762,459.3101,242.0762" style="stroke:#181818;stroke-width:1.0;"/><line style="stroke:#181818;stroke-width:1.0;stroke-dasharray:2.0,2.0;" x1="457.3101" x2="943.9248" y1="242.0762" y2="242.0762"/><text fill="#000000" font-family="sans-serif" font-size="13" lengthAdjust="spacing" textLength="108.3862" x="469.3101" y="236.8135">authorsDataValid()</text><line style="stroke:#181818;stroke-width:1.0;" x1="452.3101" x2="494.3101" y1="273.3672" y2="273.3672"/><line style="stroke:#181818;stroke-width:1.0;" x1="494.3101" x2="494.3101" y1="273.3672" y2="286.3672"/><line style="stroke:#181818;stroke-width:1.0;" x1="453.3101" x2="494.3101" y1="286.3672" y2="286.3672"/><polygon fill="#181818" points="463.3101,282.3672,453.3101,286.3672,463.3101,290.3672,459.3101,286.3672" style="stroke:#181818;stroke-width:1.0;"/><text fill="#000000" font-family="sans-serif" font-size="13" lengthAdjust="spacing" textLength="321.5532" x="459.3101" y="268.1045">save(isbn, title, description, genre, authors, coverPhoto)</text><polygon fill="#181818" points="1118.0728,313.6582,1128.0728,317.6582,1118.0728,321.6582,1122.0728,317.6582" style="stroke:#181818;stroke-width:1.0;"/><line style="stroke:#181818;stroke-width:1.0;" x1="452.3101" x2="1124.0728" y1="317.6582" y2="317.6582"/><text fill="#000000" font-family="sans-serif" font-size="13" lengthAdjust="spacing" textLength="351.9458" x="459.3101" y="312.3955">publish {book_created, isbn, title, description, genre, authors}</text><polygon fill="#181818" points="463.3101,344.9492,453.3101,348.9492,463.3101,352.9492,459.3101,348.9492" style="stroke:#181818;stroke-width:1.0;"/><line style="stroke:#181818;stroke-width:1.0;stroke-dasharray:2.0,2.0;" x1="457.3101" x2="1129.0728" y1="348.9492" y2="348.9492"/><text fill="#000000" font-family="sans-serif" font-size="13" lengthAdjust="spacing" textLength="21.6899" x="469.3101" y="343.6865">201</text><polygon fill="#181818" points="46.2378,376.2402,36.2378,380.2402,46.2378,384.2402,42.2378,380.2402" style="stroke:#181818;stroke-width:1.0;"/><line style="stroke:#181818;stroke-width:1.0;stroke-dasharray:2.0,2.0;" x1="40.2378" x2="451.3101" y1="380.2402" y2="380.2402"/><text fill="#000000" font-family="sans-serif" font-size="13" lengthAdjust="spacing" textLength="71.5508" x="52.2378" y="374.9775">201 Created</text><polygon fill="#181818" points="1118.0728,407.5313,1128.0728,411.5313,1118.0728,415.5313,1122.0728,411.5313" style="stroke:#181818;stroke-width:1.0;"/><line style="stroke:#181818;stroke-width:1.0;" x1="452.3101" x2="1124.0728" y1="411.5313" y2="411.5313"/><text fill="#000000" font-family="sans-serif" font-size="13" lengthAdjust="spacing" textLength="177.0615" x="459.3101" y="406.2686">publish {book_confirmed, isbn}</text><polygon fill="#181818" points="798.8633,438.8223,788.8633,442.8223,798.8633,446.8223,794.8633,442.8223" style="stroke:#181818;stroke-width:1.0;"/><line style="stroke:#181818;stroke-width:1.0;" x1="792.8633" x2="1129.0728" y1="442.8223" y2="442.8223"/><text fill="#000000" font-family="sans-serif" font-size="13" lengthAdjust="spacing" textLength="161.1479" x="804.8633" y="437.5596">notify(book.created.#, book)</text><line style="stroke:#181818;stroke-width:1.0;" x1="787.8633" x2="829.8633" y1="474.1133" y2="474.1133"/><line style="stroke:#181818;stroke-width:1.0;" x1="829.8633" x2="829.8633" y1="474.1133" y2="487.1133"/><line style="stroke:#181818;stroke-width:1.0;" x1="788.8633" x2="829.8633" y1="487.1133" y2="487.1133"/><polygon fill="#181818" points="798.8633,483.1133,788.8633,487.1133,798.8633,491.1133,794.8633,487.1133" style="stroke:#181818;stroke-width:1.0;"/><text fill="#000000" font-family="sans-serif" font-size="13" lengthAdjust="spacing" textLength="65.749" x="794.8633" y="468.8506">saveBook()</text><polygon fill="#181818" points="955.9248,514.4043,945.9248,518.4043,955.9248,522.4043,951.9248,518.4043" style="stroke:#181818;stroke-width:1.0;"/><line style="stroke:#181818;stroke-width:1.0;" x1="949.9248" x2="1129.0728" y1="518.4043" y2="518.4043"/><text fill="#000000" font-family="sans-serif" font-size="13" lengthAdjust="spacing" textLength="161.1479" x="961.9248" y="513.1416">notify(book.created.#, book)</text><line style="stroke:#181818;stroke-width:1.0;" x1="944.9248" x2="986.9248" y1="549.6953" y2="549.6953"/><line style="stroke:#181818;stroke-width:1.0;" x1="986.9248" x2="986.9248" y1="549.6953" y2="562.6953"/><line style="stroke:#181818;stroke-width:1.0;" x1="945.9248" x2="986.9248" y1="562.6953" y2="562.6953"/><polygon fill="#181818" points="955.9248,558.6953,945.9248,562.6953,955.9248,566.6953,951.9248,562.6953" style="stroke:#181818;stroke-width:1.0;"/><text fill="#000000" font-family="sans-serif" font-size="13" lengthAdjust="spacing" textLength="65.749" x="951.9248" y="544.4326">saveBook()</text><!--SRC=[hLBDIyCm5B_dhtXqbmdTvdhiGN3psE5WuaL4qlIvXjMc95bHPF-xIPUfQUfGCAVavVVnlYZJGaB6SqabfpLG1HbfgDISyORM6g9SY9rQFimV8OL5TuyighjkKBQSuNoGaPnX93w3xdKfvCdbshqwbdjyEf5Sl4AqGgNe5c4XnGvb1AEARqkTLtiaO8udlbeOJKSuuOsm5o5O5s2K2SbWSkKNbyBwTdC7CoQHQfpHge8nLtaTW-QwmXWAL4poHdDXObkifOcvYc9WeaMvBeKM5yIJxViaAR0IsSx6RgYcOn-Vm2HCB7VOUrhnmX12XrxxKcWjrDJXFfnJ3pRaHRy8FzlrE8gs-5-zykQLGhFFAwvAUBSzU3hEfeZXjsO7ukaD5PnSpeCA3IhhVc1vT2H_JLJKpro-d58za7uUmLBKGlFdjx5bJrsPqr7SZJxOa81i1s13TbY1KR0RPws25HaG-6Rt0G00]--></g></svg>