<?xml version="1.0" encoding="us-ascii" standalone="no"?><svg xmlns="http://www.w3.org/2000/svg" xmlns:xlink="http://www.w3.org/1999/xlink" contentStyleType="text/css" height="738px" preserveAspectRatio="none" style="width:188px;height:738px;background:#FFFFFF;" version="1.1" viewBox="0 0 188 738" width="188px" zoomAndPan="magnify"><defs/><g><text fill="#000000" font-family="sans-serif" font-size="14" font-weight="bold" lengthAdjust="spacing" textLength="138" x="18" y="25.1074">US10 Class Diagram</text><!--class BookController--><g id="elem_BookController"><rect codeLine="8" fill="#F1F1F1" height="44.6211" id="BookController" rx="2.5" ry="2.5" style="stroke:#181818;stroke-width:0.5;" width="100" x="44" y="46.6211"/><text fill="#000000" font-family="sans-serif" font-size="14" lengthAdjust="spacing" textLength="94" x="47" y="66.7285">BookController</text><line style="stroke:#181818;stroke-width:0.5;" x1="45" x2="143" y1="75.2422" y2="75.2422"/><line style="stroke:#181818;stroke-width:0.5;" x1="45" x2="143" y1="83.2422" y2="83.2422"/></g><!--class BookService--><g id="elem_BookService"><rect codeLine="11" fill="#F1F1F1" height="63.2422" id="BookService" rx="2.5" ry="2.5" style="stroke:#181818;stroke-width:0.5;" width="174" x="7" y="170.6211"/><text fill="#000000" font-family="sans-serif" font-size="14" lengthAdjust="spacing" textLength="79" x="54.5" y="190.7285">BookService</text><line style="stroke:#181818;stroke-width:0.5;" x1="8" x2="180" y1="199.2422" y2="199.2422"/><line style="stroke:#181818;stroke-width:0.5;" x1="8" x2="180" y1="207.2422" y2="207.2422"/><ellipse cx="18" cy="222.0527" fill="#84BE84" rx="3" ry="3" style="stroke:#038048;stroke-width:1.0;"/><text fill="#000000" font-family="sans-serif" font-size="14" lengthAdjust="spacing" textLength="148" x="27" y="226.3496">getBookByGenre():void</text></g><!--class BookRepository--><g id="elem_BookRepository"><rect codeLine="15" fill="#F1F1F1" height="79.2031" id="BookRepository" rx="2.5" ry="2.5" style="stroke:#181818;stroke-width:0.5;" width="169" x="9.5" y="312.6211"/><text fill="#000000" font-family="sans-serif" font-size="12" font-style="italic" lengthAdjust="spacing" textLength="61" x="63.5" y="330.5703">&#171;interface&#187;</text><text fill="#000000" font-family="sans-serif" font-size="14" font-style="italic" lengthAdjust="spacing" textLength="101" x="43.5" y="348.6895">BookRepository</text><line style="stroke:#181818;stroke-width:0.5;" x1="10.5" x2="177.5" y1="357.2031" y2="357.2031"/><line style="stroke:#181818;stroke-width:0.5;" x1="10.5" x2="177.5" y1="365.2031" y2="365.2031"/><ellipse cx="20.5" cy="380.0137" fill="#84BE84" rx="3" ry="3" style="stroke:#038048;stroke-width:1.0;"/><text fill="#000000" font-family="sans-serif" font-size="14" lengthAdjust="spacing" textLength="143" x="29.5" y="384.3105">getBookByGenre(): list</text></g><!--class Genre--><g id="elem_Genre"><rect codeLine="19" fill="#F1F1F1" height="63.2422" id="Genre" rx="2.5" ry="2.5" style="stroke:#181818;stroke-width:0.5;" width="61" x="63.5" y="470.6211"/><text fill="#000000" font-family="sans-serif" font-size="14" lengthAdjust="spacing" textLength="40" x="74" y="490.7285">Genre</text><line style="stroke:#181818;stroke-width:0.5;" x1="64.5" x2="123.5" y1="499.2422" y2="499.2422"/><ellipse cx="74.5" cy="514.0527" fill="none" rx="3" ry="3" style="stroke:#038048;stroke-width:1.0;"/><text fill="#000000" font-family="sans-serif" font-size="14" lengthAdjust="spacing" textLength="35" x="83.5" y="518.3496">name</text><line style="stroke:#181818;stroke-width:0.5;" x1="64.5" x2="123.5" y1="525.8633" y2="525.8633"/></g><!--class Book--><g id="elem_Book"><rect codeLine="24" fill="#F1F1F1" height="119.1055" id="Book" rx="2.5" ry="2.5" style="stroke:#181818;stroke-width:0.5;" width="95" x="46.5" y="612.6211"/><text fill="#000000" font-family="sans-serif" font-size="14" lengthAdjust="spacing" textLength="32" x="78" y="632.7285">Book</text><line style="stroke:#181818;stroke-width:0.5;" x1="47.5" x2="140.5" y1="641.2422" y2="641.2422"/><ellipse cx="57.5" cy="656.0527" fill="none" rx="3" ry="3" style="stroke:#038048;stroke-width:1.0;"/><text fill="#000000" font-family="sans-serif" font-size="14" lengthAdjust="spacing" textLength="26" x="66.5" y="660.3496">isbn</text><ellipse cx="57.5" cy="674.6738" fill="none" rx="3" ry="3" style="stroke:#038048;stroke-width:1.0;"/><text fill="#000000" font-family="sans-serif" font-size="14" lengthAdjust="spacing" textLength="22" x="66.5" y="678.9707">title</text><ellipse cx="57.5" cy="693.2949" fill="none" rx="3" ry="3" style="stroke:#038048;stroke-width:1.0;"/><text fill="#000000" font-family="sans-serif" font-size="14" lengthAdjust="spacing" textLength="69" x="66.5" y="697.5918">description</text><ellipse cx="57.5" cy="711.916" fill="none" rx="3" ry="3" style="stroke:#038048;stroke-width:1.0;"/><text fill="#000000" font-family="sans-serif" font-size="14" lengthAdjust="spacing" textLength="41" x="66.5" y="716.2129">author</text><line style="stroke:#181818;stroke-width:0.5;" x1="47.5" x2="140.5" y1="723.7266" y2="723.7266"/></g><!--link Genre to Book--><g id="link_Genre_Book"><path codeLine="31" d="M94,533.9311 C94,555.8211 94,579.8811 94,606.2811 " fill="none" id="Genre-to-Book" style="stroke:#181818;stroke-width:1.0;"/><polygon fill="#181818" points="94,612.2811,98,603.2811,94,607.2811,90,603.2811,94,612.2811" style="stroke:#181818;stroke-width:1.0;"/><text fill="#000000" font-family="sans-serif" font-size="13" lengthAdjust="spacing" textLength="60" x="95" y="578.6494">belongs to</text><text fill="#000000" font-family="sans-serif" font-size="13" lengthAdjust="spacing" textLength="7" x="86.3109" y="555.9003">1</text><text fill="#000000" font-family="sans-serif" font-size="13" lengthAdjust="spacing" textLength="20" x="72.8438" y="601.4183">0..*</text></g><!--link BookController to BookService--><g id="link_BookController_BookService"><path codeLine="32" d="M94,91.7511 C94,113.1211 94,140.0111 94,164.1411 " fill="none" id="BookController-to-BookService" style="stroke:#181818;stroke-width:1.0;stroke-dasharray:7.0,7.0;"/><polygon fill="#181818" points="94,170.1411,98,161.1411,94,165.1411,90,161.1411,94,170.1411" style="stroke:#181818;stroke-width:1.0;"/><text fill="#000000" font-family="sans-serif" font-size="13" lengthAdjust="spacing" textLength="28" x="95" y="136.6494">uses</text></g><!--link BookService to BookRepository--><g id="link_BookService_BookRepository"><path codeLine="33" d="M94,233.7911 C94,256.6511 94,282.0311 94,306.5811 " fill="none" id="BookService-to-BookRepository" style="stroke:#181818;stroke-width:1.0;stroke-dasharray:7.0,7.0;"/><polygon fill="#181818" points="94,312.5811,98,303.5811,94,307.5811,90,303.5811,94,312.5811" style="stroke:#181818;stroke-width:1.0;"/><text fill="#000000" font-family="sans-serif" font-size="13" lengthAdjust="spacing" textLength="28" x="95" y="278.6494">uses</text></g><!--link BookRepository to Genre--><g id="link_BookRepository_Genre"><path codeLine="34" d="M94,392.0111 C94,416.5011 94,441.6811 94,464.4311 " fill="none" id="BookRepository-to-Genre" style="stroke:#181818;stroke-width:1.0;"/><polygon fill="#181818" points="94,470.4311,98,461.4311,94,465.4311,90,461.4311,94,470.4311" style="stroke:#181818;stroke-width:1.0;"/><text fill="#000000" font-family="sans-serif" font-size="13" lengthAdjust="spacing" textLength="48" x="95" y="436.6494">Records</text><text fill="#000000" font-family="sans-serif" font-size="13" lengthAdjust="spacing" textLength="7" x="86.4422" y="413.7586">1</text><text fill="#000000" font-family="sans-serif" font-size="13" lengthAdjust="spacing" textLength="20" x="71.9375" y="459.1753">0..*</text></g><!--SRC=[RP3DReD038Jl-nGMb_uW8BcYY4DIAVUWFi2ok61bMQDT4ocA-kxDqZOXLQypdpqUF_KYOoYBefwQO3oDGkngz2SoADDWSyD3OQmE8Mj9TruFIlNK8XZong9IGc8Htklr2dOHWxTVJCrZi6K-xjY9PslHmqLzBfsVgAkSTYXHsPxtw3m-lvGdfZRIv0JzXxvIqJ_Wo864_HascvjLLV-k04j1xecp745mUi2eBqw9EeN6gNJkfD8MRnzHgPwaPnz7lfSawmIoh4fMUVwQpFCbD6ZPTG64rMFhFA-MRSifO53B-X7uq-uEBHe_fiwNb710mxuDNm00]--></g></svg>