<?xml version="1.0" encoding="us-ascii" standalone="no"?><svg xmlns="http://www.w3.org/2000/svg" xmlns:xlink="http://www.w3.org/1999/xlink" contentStyleType="text/css" height="596px" preserveAspectRatio="none" style="width:222px;height:596px;background:#FFFFFF;" version="1.1" viewBox="0 0 222 596" width="222px" zoomAndPan="magnify"><defs/><g><text fill="#000000" font-family="sans-serif" font-size="14" font-weight="bold" lengthAdjust="spacing" textLength="138" x="35" y="25.1074">US09 Class Diagram</text><!--class BookController--><g id="elem_BookController"><rect codeLine="8" fill="#F1F1F1" height="44.6211" id="BookController" rx="2.5" ry="2.5" style="stroke:#181818;stroke-width:0.5;" width="100" x="61" y="46.6211"/><text fill="#000000" font-family="sans-serif" font-size="14" lengthAdjust="spacing" textLength="94" x="64" y="66.7285">BookController</text><line style="stroke:#181818;stroke-width:0.5;" x1="62" x2="160" y1="75.2422" y2="75.2422"/><line style="stroke:#181818;stroke-width:0.5;" x1="62" x2="160" y1="83.2422" y2="83.2422"/></g><!--class BookService--><g id="elem_BookService"><rect codeLine="11" fill="#F1F1F1" height="63.2422" id="BookService" rx="2.5" ry="2.5" style="stroke:#181818;stroke-width:0.5;" width="203" x="9.5" y="170.6211"/><text fill="#000000" font-family="sans-serif" font-size="14" lengthAdjust="spacing" textLength="79" x="71.5" y="190.7285">BookService</text><line style="stroke:#181818;stroke-width:0.5;" x1="10.5" x2="211.5" y1="199.2422" y2="199.2422"/><line style="stroke:#181818;stroke-width:0.5;" x1="10.5" x2="211.5" y1="207.2422" y2="207.2422"/><ellipse cx="20.5" cy="222.0527" fill="#84BE84" rx="3" ry="3" style="stroke:#038048;stroke-width:1.0;"/><text fill="#000000" font-family="sans-serif" font-size="14" lengthAdjust="spacing" textLength="177" x="29.5" y="226.3496">getBookDetailsByIsbn():void</text></g><!--class BookRepository--><g id="elem_BookRepository"><rect codeLine="15" fill="#F1F1F1" height="79.2031" id="BookRepository" rx="2.5" ry="2.5" style="stroke:#181818;stroke-width:0.5;" width="208" x="7" y="312.6211"/><text fill="#000000" font-family="sans-serif" font-size="12" font-style="italic" lengthAdjust="spacing" textLength="61" x="80.5" y="330.5703">&#171;interface&#187;</text><text fill="#000000" font-family="sans-serif" font-size="14" font-style="italic" lengthAdjust="spacing" textLength="101" x="60.5" y="348.6895">BookRepository</text><line style="stroke:#181818;stroke-width:0.5;" x1="8" x2="214" y1="357.2031" y2="357.2031"/><line style="stroke:#181818;stroke-width:0.5;" x1="8" x2="214" y1="365.2031" y2="365.2031"/><ellipse cx="18" cy="380.0137" fill="#84BE84" rx="3" ry="3" style="stroke:#038048;stroke-width:1.0;"/><text fill="#000000" font-family="sans-serif" font-size="14" lengthAdjust="spacing" textLength="182" x="27" y="384.3105">getBookDetailsByIsbn():book</text></g><!--class Book--><g id="elem_Book"><rect codeLine="20" fill="#F1F1F1" height="119.1055" id="Book" rx="2.5" ry="2.5" style="stroke:#181818;stroke-width:0.5;" width="95" x="63.5" y="470.6211"/><text fill="#000000" font-family="sans-serif" font-size="14" lengthAdjust="spacing" textLength="32" x="95" y="490.7285">Book</text><line style="stroke:#181818;stroke-width:0.5;" x1="64.5" x2="157.5" y1="499.2422" y2="499.2422"/><ellipse cx="74.5" cy="514.0527" fill="none" rx="3" ry="3" style="stroke:#038048;stroke-width:1.0;"/><text fill="#000000" font-family="sans-serif" font-size="14" lengthAdjust="spacing" textLength="26" x="83.5" y="518.3496">isbn</text><ellipse cx="74.5" cy="532.6738" fill="none" rx="3" ry="3" style="stroke:#038048;stroke-width:1.0;"/><text fill="#000000" font-family="sans-serif" font-size="14" lengthAdjust="spacing" textLength="22" x="83.5" y="536.9707">title</text><ellipse cx="74.5" cy="551.2949" fill="none" rx="3" ry="3" style="stroke:#038048;stroke-width:1.0;"/><text fill="#000000" font-family="sans-serif" font-size="14" lengthAdjust="spacing" textLength="69" x="83.5" y="555.5918">description</text><ellipse cx="74.5" cy="569.916" fill="none" rx="3" ry="3" style="stroke:#038048;stroke-width:1.0;"/><text fill="#000000" font-family="sans-serif" font-size="14" lengthAdjust="spacing" textLength="41" x="83.5" y="574.2129">author</text><line style="stroke:#181818;stroke-width:0.5;" x1="64.5" x2="157.5" y1="581.7266" y2="581.7266"/></g><!--link BookController to BookService--><g id="link_BookController_BookService"><path codeLine="28" d="M111,91.7511 C111,113.1211 111,140.0111 111,164.1411 " fill="none" id="BookController-to-BookService" style="stroke:#181818;stroke-width:1.0;stroke-dasharray:7.0,7.0;"/><polygon fill="#181818" points="111,170.1411,115,161.1411,111,165.1411,107,161.1411,111,170.1411" style="stroke:#181818;stroke-width:1.0;"/><text fill="#000000" font-family="sans-serif" font-size="13" lengthAdjust="spacing" textLength="28" x="112" y="136.6494">uses</text></g><!--link BookService to BookRepository--><g id="link_BookService_BookRepository"><path codeLine="29" d="M111,233.7911 C111,256.6511 111,282.0311 111,306.5811 " fill="none" id="BookService-to-BookRepository" style="stroke:#181818;stroke-width:1.0;stroke-dasharray:7.0,7.0;"/><polygon fill="#181818" points="111,312.5811,115,303.5811,111,307.5811,107,303.5811,111,312.5811" style="stroke:#181818;stroke-width:1.0;"/><text fill="#000000" font-family="sans-serif" font-size="13" lengthAdjust="spacing" textLength="28" x="112" y="278.6494">uses</text></g><!--link BookRepository to Book--><g id="link_BookRepository_Book"><path codeLine="30" d="M111,391.7411 C111,414.8111 111,438.5811 111,464.5011 " fill="none" id="BookRepository-to-Book" style="stroke:#181818;stroke-width:1.0;"/><polygon fill="#181818" points="111,470.5011,115,461.5011,111,465.5011,107,461.5011,111,470.5011" style="stroke:#181818;stroke-width:1.0;"/><text fill="#000000" font-family="sans-serif" font-size="13" lengthAdjust="spacing" textLength="48" x="112" y="436.6494">Records</text><text fill="#000000" font-family="sans-serif" font-size="13" lengthAdjust="spacing" textLength="7" x="103.4203" y="413.7466">1</text><text fill="#000000" font-family="sans-serif" font-size="13" lengthAdjust="spacing" textLength="20" x="89.7813" y="459.2386">1..*</text></g><!--SRC=[VP2zRiCm38HtFGNXfJ-6vMQi4NX8idIDqGUG9JOc8fk6H0S8YhvxBQDDtGvTxxuZZxphHCPObMKpjT466eLuQ31SoA9ClTUM-z9w4sFXo9o2wPNgo25O2jQZKaBY4LwRfsVO9mmEtvXQOh1ZFkzvaC3UOm1uLnzhwslNBESdbAGSK0pvkBk-n7QuVwWkJ2vbQ10CRsPc4tN4aIC9XojijpUhhlyPrCvQ6hJQ3gbFJhElykKIbJky_K7bPfAEmnBwVOVMzRf-DKMCQdrF0luK_O5MvRDD1aLHPnkj7xCbKC4HBGSNFm40]--></g></svg>