<?xml version="1.0" encoding="us-ascii" standalone="no"?><svg xmlns="http://www.w3.org/2000/svg" xmlns:xlink="http://www.w3.org/1999/xlink" contentStyleType="text/css" height="476px" preserveAspectRatio="none" style="width:786px;height:476px;background:#FFFFFF;" version="1.1" viewBox="0 0 786 476" width="786px" zoomAndPan="magnify"><defs><linearGradient id="g39x4o0uduqh30" x1="0%" x2="100%" y1="0%" y2="100%"><stop offset="0%" stop-color="#3B5323"/><stop offset="100%" stop-color="#B0C4DE"/></linearGradient></defs><g><text fill="#000000" font-family="sans-serif" font-size="14" font-weight="bold" lengthAdjust="spacing" textLength="171" x="306.5" y="30.1074">US04 Sequence Diagram</text><rect fill="#FFFFFF" height="251.3281" style="stroke:#181818;stroke-width:1.0;" width="10" x="31" y="133.2422"/><rect fill="#FFFFFF" height="219.0371" style="stroke:#181818;stroke-width:1.0;" width="10" x="374" y="156.5332"/><rect fill="#FFFFFF" height="156.4551" style="stroke:#181818;stroke-width:1.0;" width="10" x="499" y="187.8242"/><rect fill="#FFFFFF" height="31.291" style="stroke:#181818;stroke-width:1.0;" width="10" x="713" y="219.1152"/><rect fill="#FFFFFF" height="31.291" style="stroke:#181818;stroke-width:1.0;" width="10" x="713" y="281.6973"/><line style="stroke:#181818;stroke-width:0.5;stroke-dasharray:5.0,5.0;" x1="36" x2="36" y1="123.2422" y2="393.5703"/><line style="stroke:#181818;stroke-width:0.5;stroke-dasharray:5.0,5.0;" x1="379" x2="379" y1="123.2422" y2="393.5703"/><line style="stroke:#181818;stroke-width:0.5;stroke-dasharray:5.0,5.0;" x1="503.5" x2="503.5" y1="123.2422" y2="393.5703"/><line style="stroke:#181818;stroke-width:0.5;stroke-dasharray:5.0,5.0;" x1="718" x2="718" y1="123.2422" y2="393.5703"/><text fill="#000000" font-family="sans-serif" font-size="14" lengthAdjust="spacing" textLength="56" x="5" y="119.7285">Librarian</text><ellipse cx="36" cy="53.1211" fill="url(#g39x4o0uduqh30)" rx="8" ry="8" style="stroke:#181818;stroke-width:0.5;"/><path d="M36,61.1211 L36,88.1211 M23,69.1211 L49,69.1211 M36,88.1211 L23,103.1211 M36,88.1211 L49,103.1211 " fill="none" style="stroke:#181818;stroke-width:0.5;"/><text fill="#000000" font-family="sans-serif" font-size="14" lengthAdjust="spacing" textLength="56" x="5" y="407.6777">Librarian</text><ellipse cx="36" cy="419.6914" fill="url(#g39x4o0uduqh30)" rx="8" ry="8" style="stroke:#181818;stroke-width:0.5;"/><path d="M36,427.6914 L36,454.6914 M23,435.6914 L49,435.6914 M36,454.6914 L23,469.6914 M36,454.6914 L49,469.6914 " fill="none" style="stroke:#181818;stroke-width:0.5;"/><rect fill="url(#g39x4o0uduqh30)" height="32.6211" rx="2.5" ry="2.5" style="stroke:#181818;stroke-width:0.5;" width="118" x="320" y="89.6211"/><text fill="#000000" font-family="sans-serif" font-size="14" lengthAdjust="spacing" textLength="104" x="327" y="111.7285">AuthorController</text><rect fill="url(#g39x4o0uduqh30)" height="32.6211" rx="2.5" ry="2.5" style="stroke:#181818;stroke-width:0.5;" width="118" x="320" y="392.5703"/><text fill="#000000" font-family="sans-serif" font-size="14" lengthAdjust="spacing" textLength="104" x="327" y="414.6777">AuthorController</text><rect fill="url(#g39x4o0uduqh30)" height="32.6211" rx="2.5" ry="2.5" style="stroke:#181818;stroke-width:0.5;" width="103" x="452.5" y="89.6211"/><text fill="#000000" font-family="sans-serif" font-size="14" lengthAdjust="spacing" textLength="89" x="459.5" y="111.7285">AuthorService</text><rect fill="url(#g39x4o0uduqh30)" height="32.6211" rx="2.5" ry="2.5" style="stroke:#181818;stroke-width:0.5;" width="103" x="452.5" y="392.5703"/><text fill="#000000" font-family="sans-serif" font-size="14" lengthAdjust="spacing" textLength="89" x="459.5" y="414.6777">AuthorService</text><rect fill="url(#g39x4o0uduqh30)" height="32.6211" rx="2.5" ry="2.5" style="stroke:#181818;stroke-width:0.5;" width="124" x="656" y="89.6211"/><text fill="#000000" font-family="sans-serif" font-size="14" lengthAdjust="spacing" textLength="110" x="663" y="111.7285">AuthorRepository</text><rect fill="url(#g39x4o0uduqh30)" height="32.6211" rx="2.5" ry="2.5" style="stroke:#181818;stroke-width:0.5;" width="124" x="656" y="392.5703"/><text fill="#000000" font-family="sans-serif" font-size="14" lengthAdjust="spacing" textLength="110" x="663" y="414.6777">AuthorRepository</text><rect fill="#FFFFFF" height="251.3281" style="stroke:#181818;stroke-width:1.0;" width="10" x="31" y="133.2422"/><rect fill="#FFFFFF" height="219.0371" style="stroke:#181818;stroke-width:1.0;" width="10" x="374" y="156.5332"/><rect fill="#FFFFFF" height="156.4551" style="stroke:#181818;stroke-width:1.0;" width="10" x="499" y="187.8242"/><rect fill="#FFFFFF" height="31.291" style="stroke:#181818;stroke-width:1.0;" width="10" x="713" y="219.1152"/><rect fill="#FFFFFF" height="31.291" style="stroke:#181818;stroke-width:1.0;" width="10" x="713" y="281.6973"/><polygon fill="#181818" points="362,152.5332,372,156.5332,362,160.5332,366,156.5332" style="stroke:#181818;stroke-width:1.0;"/><line style="stroke:#181818;stroke-width:1.0;" x1="41" x2="368" y1="156.5332" y2="156.5332"/><text fill="#000000" font-family="sans-serif" font-size="13" font-weight="bold" lengthAdjust="spacing" textLength="7" x="48" y="151.2705">1</text><text fill="#000000" font-family="sans-serif" font-size="13" lengthAdjust="spacing" textLength="303" x="59" y="151.2705">PUT/author to request the update of an author&#8217;s data</text><polygon fill="#181818" points="487,183.8242,497,187.8242,487,191.8242,491,187.8242" style="stroke:#181818;stroke-width:1.0;"/><line style="stroke:#181818;stroke-width:1.0;" x1="384" x2="493" y1="187.8242" y2="187.8242"/><text fill="#000000" font-family="sans-serif" font-size="13" font-weight="bold" lengthAdjust="spacing" textLength="7" x="391" y="182.5615">2</text><text fill="#000000" font-family="sans-serif" font-size="13" lengthAdjust="spacing" textLength="85" x="402" y="182.5615">updateAuthor()</text><polygon fill="#181818" points="701,215.1152,711,219.1152,701,223.1152,705,219.1152" style="stroke:#181818;stroke-width:1.0;"/><line style="stroke:#181818;stroke-width:1.0;" x1="509" x2="707" y1="219.1152" y2="219.1152"/><text fill="#000000" font-family="sans-serif" font-size="13" font-weight="bold" lengthAdjust="spacing" textLength="7" x="516" y="213.8525">3</text><text fill="#000000" font-family="sans-serif" font-size="13" lengthAdjust="spacing" textLength="174" x="527" y="213.8525">updateAuthor(name,short_bio)</text><polygon fill="#181818" points="520,246.4063,510,250.4063,520,254.4063,516,250.4063" style="stroke:#181818;stroke-width:1.0;"/><line style="stroke:#181818;stroke-width:1.0;stroke-dasharray:2.0,2.0;" x1="514" x2="717" y1="250.4063" y2="250.4063"/><text fill="#000000" font-family="sans-serif" font-size="13" font-weight="bold" lengthAdjust="spacing" textLength="7" x="526" y="245.1436">4</text><text fill="#000000" font-family="sans-serif" font-size="13" lengthAdjust="spacing" textLength="84" x="537" y="245.1436">updatedAuthor</text><polygon fill="#181818" points="701,277.6973,711,281.6973,701,285.6973,705,281.6973" style="stroke:#181818;stroke-width:1.0;"/><line style="stroke:#181818;stroke-width:1.0;" x1="509" x2="707" y1="281.6973" y2="281.6973"/><text fill="#000000" font-family="sans-serif" font-size="13" font-weight="bold" lengthAdjust="spacing" textLength="7" x="516" y="276.4346">5</text><text fill="#000000" font-family="sans-serif" font-size="13" lengthAdjust="spacing" textLength="108" x="527" y="276.4346">saveAuthor(author)</text><polygon fill="#181818" points="520,308.9883,510,312.9883,520,316.9883,516,312.9883" style="stroke:#181818;stroke-width:1.0;"/><line style="stroke:#181818;stroke-width:1.0;stroke-dasharray:2.0,2.0;" x1="514" x2="717" y1="312.9883" y2="312.9883"/><text fill="#000000" font-family="sans-serif" font-size="13" font-weight="bold" lengthAdjust="spacing" textLength="7" x="526" y="307.7256">6</text><text fill="#000000" font-family="sans-serif" font-size="13" lengthAdjust="spacing" textLength="14" x="537" y="307.7256">ok</text><polygon fill="#181818" points="395,340.2793,385,344.2793,395,348.2793,391,344.2793" style="stroke:#181818;stroke-width:1.0;"/><line style="stroke:#181818;stroke-width:1.0;stroke-dasharray:2.0,2.0;" x1="389" x2="503" y1="344.2793" y2="344.2793"/><text fill="#000000" font-family="sans-serif" font-size="13" font-weight="bold" lengthAdjust="spacing" textLength="7" x="401" y="339.0166">7</text><text fill="#000000" font-family="sans-serif" font-size="13" lengthAdjust="spacing" textLength="14" x="412" y="339.0166">ok</text><polygon fill="#181818" points="52,371.5703,42,375.5703,52,379.5703,48,375.5703" style="stroke:#181818;stroke-width:1.0;"/><line style="stroke:#181818;stroke-width:1.0;stroke-dasharray:2.0,2.0;" x1="46" x2="378" y1="375.5703" y2="375.5703"/><text fill="#000000" font-family="sans-serif" font-size="13" font-weight="bold" lengthAdjust="spacing" textLength="7" x="58" y="370.3076">8</text><text fill="#000000" font-family="sans-serif" font-size="13" lengthAdjust="spacing" textLength="152" x="69" y="370.3076">informs operation success</text><!--SRC=[ZLAzJiCm4Dxz5ASo018X5IrBXqgq9HC38dH65_TABH8xdC-Ls7WDNeydmNNIIgqOkldy_VZxJhxSYBH-akTbgBncqufnjYJU6aqIclfMkoRtz1d8QifM1jyP6wN4I4smB8TZA7iG5diGWpZKOhOe1CwcsOQc8bOHrE8O1a-cOcI3TW3e8NXYk1ZDxaTtewB8PyFvUF5O5Af55gDDYrPWy11autZkhB2hQ-AarCBrcSg-LPAT_zuBjSwRcFah2JcE_oaFVNTLOitKA9kcV1DuNhxccEn0NFI86_C2iedqTfMsj0Qqq55-ltyyn5jKgLmqYLwJdjc5khfMlVykpmbciQ4R7q_oLXbthLBaxDXcrN6FNJnkznvTabEj- -W4XrxneikOJKDY6Bjst7XmBJ7klXBue3LvhzGV]--></g></svg>