<?xml version="1.0" encoding="us-ascii" standalone="no"?><svg xmlns="http://www.w3.org/2000/svg" xmlns:xlink="http://www.w3.org/1999/xlink" contentStyleType="text/css" height="794px" preserveAspectRatio="none" style="width:234px;height:794px;background:#FFFFFF;" version="1.1" viewBox="0 0 234 794" width="234px" zoomAndPan="magnify"><defs><linearGradient id="g1a6k64xy9g3ng0" x1="0%" x2="100%" y1="0%" y2="100%"><stop offset="0%" stop-color="#3B5323"/><stop offset="100%" stop-color="#B0C4DE"/></linearGradient></defs><g><text fill="#000000" font-family="sans-serif" font-size="14" font-weight="bold" lengthAdjust="spacing" textLength="138" x="41" y="25.1074">US04 Class Diagram</text><!--class AuthorController--><g id="elem_AuthorController"><rect codeLine="8" fill="url(#g1a6k64xy9g3ng0)" height="44.6211" id="AuthorController" rx="2.5" ry="2.5" style="stroke:#181818;stroke-width:0.5;" width="110" x="62" y="46.6211"/><text fill="#000000" font-family="sans-serif" font-size="14" lengthAdjust="spacing" textLength="104" x="65" y="66.7285">AuthorController</text><line style="stroke:#181818;stroke-width:0.5;" x1="63" x2="171" y1="75.2422" y2="75.2422"/><line style="stroke:#181818;stroke-width:0.5;" x1="63" x2="171" y1="83.2422" y2="83.2422"/></g><!--class AuthorService--><g id="elem_AuthorService"><rect codeLine="11" fill="url(#g1a6k64xy9g3ng0)" height="63.2422" id="AuthorService" rx="2.5" ry="2.5" style="stroke:#181818;stroke-width:0.5;" width="152" x="41" y="170.6211"/><text fill="#000000" font-family="sans-serif" font-size="14" lengthAdjust="spacing" textLength="89" x="72.5" y="190.7285">AuthorService</text><line style="stroke:#181818;stroke-width:0.5;" x1="42" x2="192" y1="199.2422" y2="199.2422"/><line style="stroke:#181818;stroke-width:0.5;" x1="42" x2="192" y1="207.2422" y2="207.2422"/><ellipse cx="52" cy="222.0527" fill="#84BE84" rx="3" ry="3" style="stroke:#038048;stroke-width:1.0;"/><text fill="#000000" font-family="sans-serif" font-size="14" lengthAdjust="spacing" textLength="126" x="61" y="226.3496">updateAuthor():void</text></g><!--class AuthorRepository--><g id="elem_AuthorRepository"><rect codeLine="15" fill="url(#g1a6k64xy9g3ng0)" height="97.8242" id="AuthorRepository" rx="2.5" ry="2.5" style="stroke:#181818;stroke-width:0.5;" width="220" x="7" y="312.6211"/><text fill="#000000" font-family="sans-serif" font-size="12" font-style="italic" lengthAdjust="spacing" textLength="61" x="86.5" y="330.5703">&#171;interface&#187;</text><text fill="#000000" font-family="sans-serif" font-size="14" font-style="italic" lengthAdjust="spacing" textLength="110" x="62" y="348.6895">AuthorRepository</text><line style="stroke:#181818;stroke-width:0.5;" x1="8" x2="226" y1="357.2031" y2="357.2031"/><line style="stroke:#181818;stroke-width:0.5;" x1="8" x2="226" y1="365.2031" y2="365.2031"/><ellipse cx="18" cy="380.0137" fill="#84BE84" rx="3" ry="3" style="stroke:#038048;stroke-width:1.0;"/><text fill="#000000" font-family="sans-serif" font-size="14" lengthAdjust="spacing" textLength="145" x="27" y="384.3105">updateAuthor(): author</text><ellipse cx="18" cy="398.6348" fill="#84BE84" rx="3" ry="3" style="stroke:#038048;stroke-width:1.0;"/><text fill="#000000" font-family="sans-serif" font-size="14" lengthAdjust="spacing" textLength="194" x="27" y="402.9316">saveAuthor(author obj): Result</text></g><!--class Author--><g id="elem_Author"><rect codeLine="21" fill="url(#g1a6k64xy9g3ng0)" height="100.4844" id="Author" rx="2.5" ry="2.5" style="stroke:#181818;stroke-width:0.5;" width="123" x="55.5" y="489.6211"/><text fill="#000000" font-family="sans-serif" font-size="14" lengthAdjust="spacing" textLength="42" x="96" y="509.7285">Author</text><line style="stroke:#181818;stroke-width:0.5;" x1="56.5" x2="177.5" y1="518.2422" y2="518.2422"/><rect fill="none" height="6" style="stroke:#C82930;stroke-width:1.0;" width="6" x="63.5" y="530.0527"/><text fill="#000000" font-family="sans-serif" font-size="14" lengthAdjust="spacing" textLength="35" x="75.5" y="537.3496">name</text><rect fill="none" height="6" style="stroke:#C82930;stroke-width:1.0;" width="6" x="63.5" y="548.6738"/><text fill="#000000" font-family="sans-serif" font-size="14" lengthAdjust="spacing" textLength="59" x="75.5" y="555.9707">short_bio</text><rect fill="none" height="6" style="stroke:#C82930;stroke-width:1.0;" width="6" x="63.5" y="567.2949"/><text fill="#000000" font-family="sans-serif" font-size="14" lengthAdjust="spacing" textLength="97" x="75.5" y="574.5918">author_number</text><line style="stroke:#181818;stroke-width:0.5;" x1="56.5" x2="177.5" y1="582.1055" y2="582.1055"/></g><!--class Book--><g id="elem_Book"><rect codeLine="27" fill="url(#g1a6k64xy9g3ng0)" height="119.1055" id="Book" rx="2.5" ry="2.5" style="stroke:#181818;stroke-width:0.5;" width="95" x="69.5" y="668.6211"/><text fill="#000000" font-family="sans-serif" font-size="14" lengthAdjust="spacing" textLength="32" x="101" y="688.7285">Book</text><line style="stroke:#181818;stroke-width:0.5;" x1="70.5" x2="163.5" y1="697.2422" y2="697.2422"/><ellipse cx="80.5" cy="712.0527" fill="none" rx="3" ry="3" style="stroke:#038048;stroke-width:1.0;"/><text fill="#000000" font-family="sans-serif" font-size="14" lengthAdjust="spacing" textLength="26" x="89.5" y="716.3496">isbn</text><ellipse cx="80.5" cy="730.6738" fill="none" rx="3" ry="3" style="stroke:#038048;stroke-width:1.0;"/><text fill="#000000" font-family="sans-serif" font-size="14" lengthAdjust="spacing" textLength="22" x="89.5" y="734.9707">title</text><ellipse cx="80.5" cy="749.2949" fill="none" rx="3" ry="3" style="stroke:#038048;stroke-width:1.0;"/><text fill="#000000" font-family="sans-serif" font-size="14" lengthAdjust="spacing" textLength="69" x="89.5" y="753.5918">description</text><ellipse cx="80.5" cy="767.916" fill="none" rx="3" ry="3" style="stroke:#038048;stroke-width:1.0;"/><text fill="#000000" font-family="sans-serif" font-size="14" lengthAdjust="spacing" textLength="41" x="89.5" y="772.2129">author</text><line style="stroke:#181818;stroke-width:0.5;" x1="70.5" x2="163.5" y1="779.7266" y2="779.7266"/></g><!--link Author to Book--><g id="link_Author_Book"><path codeLine="34" d="M117,589.6211 C117,613.8011 117,637.1411 117,662.4911 " fill="none" id="Author-to-Book" style="stroke:#181818;stroke-width:1.0;"/><polygon fill="#181818" points="117,668.4911,121,659.4911,117,663.4911,113,659.4911,117,668.4911" style="stroke:#181818;stroke-width:1.0;"/><text fill="#000000" font-family="sans-serif" font-size="13" lengthAdjust="spacing" textLength="60" x="118" y="634.6494">belongs to</text><text fill="#000000" font-family="sans-serif" font-size="13" lengthAdjust="spacing" textLength="7" x="109.4859" y="612.2274">1</text><text fill="#000000" font-family="sans-serif" font-size="13" lengthAdjust="spacing" textLength="20" x="95.7813" y="657.2274">0..*</text></g><!--link AuthorController to AuthorService--><g id="link_AuthorController_AuthorService"><path codeLine="35" d="M117,91.7511 C117,113.1211 117,140.0111 117,164.1411 " fill="none" id="AuthorController-to-AuthorService" style="stroke:#181818;stroke-width:1.0;stroke-dasharray:7.0,7.0;"/><polygon fill="#181818" points="117,170.1411,121,161.1411,117,165.1411,113,161.1411,117,170.1411" style="stroke:#181818;stroke-width:1.0;"/><text fill="#000000" font-family="sans-serif" font-size="13" lengthAdjust="spacing" textLength="28" x="118" y="136.6494">uses</text></g><!--link AuthorService to AuthorRepository--><g id="link_AuthorService_AuthorRepository"><path codeLine="36" d="M117,233.8611 C117,256.2411 117,280.9911 117,306.5911 " fill="none" id="AuthorService-to-AuthorRepository" style="stroke:#181818;stroke-width:1.0;stroke-dasharray:7.0,7.0;"/><polygon fill="#181818" points="117,312.5911,121,303.5911,117,307.5911,113,303.5911,117,312.5911" style="stroke:#181818;stroke-width:1.0;"/><text fill="#000000" font-family="sans-serif" font-size="13" lengthAdjust="spacing" textLength="28" x="118" y="278.6494">uses</text></g><!--link AuthorRepository to Author--><g id="link_AuthorRepository_Author"><path codeLine="37" d="M117,410.7111 C117,435.1411 117,458.7711 117,483.3611 " fill="none" id="AuthorRepository-to-Author" style="stroke:#181818;stroke-width:1.0;"/><polygon fill="#181818" points="117,489.3611,121,480.3611,117,484.3611,113,480.3611,117,489.3611" style="stroke:#181818;stroke-width:1.0;"/><text fill="#000000" font-family="sans-serif" font-size="13" lengthAdjust="spacing" textLength="48" x="118" y="455.6494">Records</text><text fill="#000000" font-family="sans-serif" font-size="13" lengthAdjust="spacing" textLength="7" x="109.5297" y="432.5094">1</text><text fill="#000000" font-family="sans-serif" font-size="13" lengthAdjust="spacing" textLength="20" x="95.6563" y="478.4805">1..*</text></g><!--SRC=[ZL7BRi8m4BplLrZfeOye2HHwYL2a0iq7W7f6ZhC5juutyWEfGlttvW6Kj1nwitPcPySpjpldQficoTeNLXXPEqbwZMOl1JfVgLXGbGZ5hOrAoRU6Lm0xMI8JqWY504uwXUnrFPgoHKjZonCDkZNsxDsEp8AqCwGK6dOpcJzD7YTvdin7Y-do9S_P0Rw6zAE3Azm3XBukkSEUU7UVxacMxRxK3iqRRxPwQ8KrMUd8VBBPx0ncsRz46UzU45g-Fqtx4QFYlS5NQBroxTs1yQlYaUOLGcGRt6qAIH3rKXljgmBDp-VdH1_Nyca22gKjD8HTt12MU2uBmgFLHkNe8HW7B8goO1J73q4dch825UcjPOxWToDnd0rZJxr52yCcMjAVO2-95t6Vxe-x-ptS9YR8bFOR]--></g></svg>