<?xml version="1.0" encoding="us-ascii" standalone="no"?><svg xmlns="http://www.w3.org/2000/svg" xmlns:xlink="http://www.w3.org/1999/xlink" contentStyleType="text/css" height="476px" preserveAspectRatio="none" style="width:768px;height:476px;background:#FFFFFF;" version="1.1" viewBox="0 0 768 476" width="768px" zoomAndPan="magnify"><defs><linearGradient id="g7bfi8dqs8uuv0" x1="0%" x2="100%" y1="0%" y2="100%"><stop offset="0%" stop-color="#3B5323"/><stop offset="100%" stop-color="#B0C4DE"/></linearGradient></defs><g><text fill="#000000" font-family="sans-serif" font-size="14" font-weight="bold" lengthAdjust="spacing" textLength="272" x="247" y="30.1074">US16 Sequence Diagram - Return Book</text><rect fill="#FFFFFF" height="251.3281" style="stroke:#181818;stroke-width:1.0;" width="10" x="17.5" y="133.2422"/><rect fill="#FFFFFF" height="219.0371" style="stroke:#181818;stroke-width:1.0;" width="10" x="298.5" y="156.5332"/><rect fill="#FFFFFF" height="156.4551" style="stroke:#181818;stroke-width:1.0;" width="10" x="471.5" y="187.8242"/><rect fill="#FFFFFF" height="31.291" style="stroke:#181818;stroke-width:1.0;" width="10" x="690.5" y="219.1152"/><rect fill="#FFFFFF" height="31.291" style="stroke:#181818;stroke-width:1.0;" width="10" x="690.5" y="281.6973"/><line style="stroke:#181818;stroke-width:0.5;stroke-dasharray:5.0,5.0;" x1="22" x2="22" y1="123.2422" y2="393.5703"/><line style="stroke:#181818;stroke-width:0.5;stroke-dasharray:5.0,5.0;" x1="303" x2="303" y1="123.2422" y2="393.5703"/><line style="stroke:#181818;stroke-width:0.5;stroke-dasharray:5.0,5.0;" x1="476.5" x2="476.5" y1="123.2422" y2="393.5703"/><line style="stroke:#181818;stroke-width:0.5;stroke-dasharray:5.0,5.0;" x1="695" x2="695" y1="123.2422" y2="393.5703"/><text fill="#000000" font-family="sans-serif" font-size="14" lengthAdjust="spacing" textLength="29" x="5" y="119.7285">User</text><ellipse cx="22.5" cy="53.1211" fill="url(#g7bfi8dqs8uuv0)" rx="8" ry="8" style="stroke:#181818;stroke-width:0.5;"/><path d="M22.5,61.1211 L22.5,88.1211 M9.5,69.1211 L35.5,69.1211 M22.5,88.1211 L9.5,103.1211 M22.5,88.1211 L35.5,103.1211 " fill="none" style="stroke:#181818;stroke-width:0.5;"/><text fill="#000000" font-family="sans-serif" font-size="14" lengthAdjust="spacing" textLength="29" x="5" y="407.6777">User</text><ellipse cx="22.5" cy="419.6914" fill="url(#g7bfi8dqs8uuv0)" rx="8" ry="8" style="stroke:#181818;stroke-width:0.5;"/><path d="M22.5,427.6914 L22.5,454.6914 M9.5,435.6914 L35.5,435.6914 M22.5,454.6914 L9.5,469.6914 M22.5,454.6914 L35.5,469.6914 " fill="none" style="stroke:#181818;stroke-width:0.5;"/><rect fill="url(#g7bfi8dqs8uuv0)" height="32.6211" rx="2.5" ry="2.5" style="stroke:#181818;stroke-width:0.5;" width="127" x="240" y="89.6211"/><text fill="#000000" font-family="sans-serif" font-size="14" lengthAdjust="spacing" textLength="113" x="247" y="111.7285">LendingController</text><rect fill="url(#g7bfi8dqs8uuv0)" height="32.6211" rx="2.5" ry="2.5" style="stroke:#181818;stroke-width:0.5;" width="127" x="240" y="392.5703"/><text fill="#000000" font-family="sans-serif" font-size="14" lengthAdjust="spacing" textLength="113" x="247" y="414.6777">LendingController</text><rect fill="url(#g7bfi8dqs8uuv0)" height="32.6211" rx="2.5" ry="2.5" style="stroke:#181818;stroke-width:0.5;" width="112" x="420.5" y="89.6211"/><text fill="#000000" font-family="sans-serif" font-size="14" lengthAdjust="spacing" textLength="98" x="427.5" y="111.7285">LendingService</text><rect fill="url(#g7bfi8dqs8uuv0)" height="32.6211" rx="2.5" ry="2.5" style="stroke:#181818;stroke-width:0.5;" width="112" x="420.5" y="392.5703"/><text fill="#000000" font-family="sans-serif" font-size="14" lengthAdjust="spacing" textLength="98" x="427.5" y="414.6777">LendingService</text><rect fill="url(#g7bfi8dqs8uuv0)" height="32.6211" rx="2.5" ry="2.5" style="stroke:#181818;stroke-width:0.5;" width="133" x="629" y="89.6211"/><text fill="#000000" font-family="sans-serif" font-size="14" lengthAdjust="spacing" textLength="119" x="636" y="111.7285">LendingRepository</text><rect fill="url(#g7bfi8dqs8uuv0)" height="32.6211" rx="2.5" ry="2.5" style="stroke:#181818;stroke-width:0.5;" width="133" x="629" y="392.5703"/><text fill="#000000" font-family="sans-serif" font-size="14" lengthAdjust="spacing" textLength="119" x="636" y="414.6777">LendingRepository</text><rect fill="#FFFFFF" height="251.3281" style="stroke:#181818;stroke-width:1.0;" width="10" x="17.5" y="133.2422"/><rect fill="#FFFFFF" height="219.0371" style="stroke:#181818;stroke-width:1.0;" width="10" x="298.5" y="156.5332"/><rect fill="#FFFFFF" height="156.4551" style="stroke:#181818;stroke-width:1.0;" width="10" x="471.5" y="187.8242"/><rect fill="#FFFFFF" height="31.291" style="stroke:#181818;stroke-width:1.0;" width="10" x="690.5" y="219.1152"/><rect fill="#FFFFFF" height="31.291" style="stroke:#181818;stroke-width:1.0;" width="10" x="690.5" y="281.6973"/><polygon fill="#181818" points="286.5,152.5332,296.5,156.5332,286.5,160.5332,290.5,156.5332" style="stroke:#181818;stroke-width:1.0;"/><line style="stroke:#181818;stroke-width:1.0;" x1="27.5" x2="292.5" y1="156.5332" y2="156.5332"/><text fill="#000000" font-family="sans-serif" font-size="13" font-weight="bold" lengthAdjust="spacing" textLength="7" x="34.5" y="151.2705">1</text><text fill="#000000" font-family="sans-serif" font-size="13" lengthAdjust="spacing" textLength="241" x="45.5" y="151.2705">POST  /lending/lendingdetails/{lending_id}</text><polygon fill="#181818" points="459.5,183.8242,469.5,187.8242,459.5,191.8242,463.5,187.8242" style="stroke:#181818;stroke-width:1.0;"/><line style="stroke:#181818;stroke-width:1.0;" x1="308.5" x2="465.5" y1="187.8242" y2="187.8242"/><text fill="#000000" font-family="sans-serif" font-size="13" font-weight="bold" lengthAdjust="spacing" textLength="7" x="315.5" y="182.5615">2</text><text fill="#000000" font-family="sans-serif" font-size="13" lengthAdjust="spacing" textLength="133" x="326.5" y="182.5615">getLendingRepository()</text><polygon fill="#181818" points="678.5,215.1152,688.5,219.1152,678.5,223.1152,682.5,219.1152" style="stroke:#181818;stroke-width:1.0;"/><line style="stroke:#181818;stroke-width:1.0;" x1="481.5" x2="684.5" y1="219.1152" y2="219.1152"/><text fill="#000000" font-family="sans-serif" font-size="13" font-weight="bold" lengthAdjust="spacing" textLength="7" x="488.5" y="213.8525">3</text><text fill="#000000" font-family="sans-serif" font-size="13" lengthAdjust="spacing" textLength="133" x="499.5" y="213.8525">getLendingRepository()</text><polygon fill="#181818" points="492.5,246.4063,482.5,250.4063,492.5,254.4063,488.5,250.4063" style="stroke:#181818;stroke-width:1.0;"/><line style="stroke:#181818;stroke-width:1.0;stroke-dasharray:2.0,2.0;" x1="486.5" x2="694.5" y1="250.4063" y2="250.4063"/><text fill="#000000" font-family="sans-serif" font-size="13" font-weight="bold" lengthAdjust="spacing" textLength="7" x="498.5" y="245.1436">4</text><text fill="#000000" font-family="sans-serif" font-size="13" lengthAdjust="spacing" textLength="103" x="509.5" y="245.1436">lendingRepository</text><polygon fill="#181818" points="678.5,277.6973,688.5,281.6973,678.5,285.6973,682.5,281.6973" style="stroke:#181818;stroke-width:1.0;"/><line style="stroke:#181818;stroke-width:1.0;" x1="481.5" x2="684.5" y1="281.6973" y2="281.6973"/><text fill="#000000" font-family="sans-serif" font-size="13" font-weight="bold" lengthAdjust="spacing" textLength="7" x="488.5" y="276.4346">5</text><text fill="#000000" font-family="sans-serif" font-size="13" lengthAdjust="spacing" textLength="179" x="499.5" y="276.4346">findLendingByLendingNumber()</text><polygon fill="#181818" points="492.5,308.9883,482.5,312.9883,492.5,316.9883,488.5,312.9883" style="stroke:#181818;stroke-width:1.0;"/><line style="stroke:#181818;stroke-width:1.0;stroke-dasharray:2.0,2.0;" x1="486.5" x2="694.5" y1="312.9883" y2="312.9883"/><text fill="#000000" font-family="sans-serif" font-size="13" font-weight="bold" lengthAdjust="spacing" textLength="7" x="498.5" y="307.7256">6</text><text fill="#000000" font-family="sans-serif" font-size="13" lengthAdjust="spacing" textLength="41" x="509.5" y="307.7256">lending</text><polygon fill="#181818" points="319.5,340.2793,309.5,344.2793,319.5,348.2793,315.5,344.2793" style="stroke:#181818;stroke-width:1.0;"/><line style="stroke:#181818;stroke-width:1.0;stroke-dasharray:2.0,2.0;" x1="313.5" x2="475.5" y1="344.2793" y2="344.2793"/><text fill="#000000" font-family="sans-serif" font-size="13" font-weight="bold" lengthAdjust="spacing" textLength="7" x="325.5" y="339.0166">7</text><text fill="#000000" font-family="sans-serif" font-size="13" lengthAdjust="spacing" textLength="14" x="336.5" y="339.0166">ok</text><polygon fill="#181818" points="38.5,371.5703,28.5,375.5703,38.5,379.5703,34.5,375.5703" style="stroke:#181818;stroke-width:1.0;"/><line style="stroke:#181818;stroke-width:1.0;stroke-dasharray:2.0,2.0;" x1="32.5" x2="302.5" y1="375.5703" y2="375.5703"/><text fill="#000000" font-family="sans-serif" font-size="13" font-weight="bold" lengthAdjust="spacing" textLength="7" x="44.5" y="370.3076">8</text><text fill="#000000" font-family="sans-serif" font-size="13" lengthAdjust="spacing" textLength="14" x="55.5" y="370.3076">ok</text><!--SRC=[bL8zJyCm4DtzAqvb08OGeC3GWI4jcH2WXix8TOvWuTZ1FbUg4FyTrtK_A0ZAvFjwxzwpVVX2rBb1dbT-weIL7KcZAxGpAP1ygqw4QNE7RnwrmAoMlB6yPOmaAOH9TNO5LMh2QDc43CO1QZKKnhmonZqPBaZEE24O7NFjsodQq1DaBFGc3cqFk0CV0ZZe5vVzytvPviNfy69qKvQiuvQaa1tN1BrRrBNKpT1eiaQf11LarRxGv2_YrBBqZyLZx8oJGVXycy26wayCRErzOOwnQ36xZde7y71VFGBaYMDrraXSAfU_f_n9rX-CHOS1kL4yW0RfcwgZOxPbQWDOAFmB4LraEqlKxlnl_CzIrsb1CK_1NNpk_RPyuLxVq-8ZBVs7ae_peVG9]--></g></svg>