<?xml version="1.0" encoding="us-ascii" standalone="no"?><svg xmlns="http://www.w3.org/2000/svg" xmlns:xlink="http://www.w3.org/1999/xlink" contentStyleType="text/css" height="288px" preserveAspectRatio="none" style="width:530px;height:288px;background:#DDDDDD;" version="1.1" viewBox="0 0 530 288" width="530px" zoomAndPan="magnify"><defs><linearGradient id="goahmnunp1h770" x1="0%" x2="100%" y1="0%" y2="100%"><stop offset="0%" stop-color="#3B5323"/><stop offset="100%" stop-color="#B0C4DE"/></linearGradient></defs><g><rect fill="#DDDDDD" height="288" style="stroke:none;stroke-width:1.0;" width="530" x="0" y="0"/><text fill="#000000" font-family="sans-serif" font-size="14" font-weight="bold" lengthAdjust="spacing" textLength="234" x="147.25" y="30.1074">US17 - System Sequence Diagram</text><rect fill="#FFFFFF" height="63.582" style="stroke:#454645;stroke-width:1.0;" width="10" x="17.5" y="133.2422"/><rect fill="#FFFFFF" height="31.291" style="stroke:#454645;stroke-width:1.0;" width="10" x="487.5" y="156.5332"/><line style="stroke:#454645;stroke-width:0.5;stroke-dasharray:5.0,5.0;" x1="22" x2="22" y1="123.2422" y2="205.8242"/><line style="stroke:#454645;stroke-width:0.5;stroke-dasharray:5.0,5.0;" x1="492.5" x2="492.5" y1="123.2422" y2="205.8242"/><text fill="#454645" font-family="sans-serif" font-size="14" lengthAdjust="spacing" textLength="29" x="5" y="119.7285">User</text><ellipse cx="22.5" cy="53.1211" fill="#454645" rx="8" ry="8" style="stroke:#454645;stroke-width:0.5;"/><path d="M22.5,61.1211 L22.5,88.1211 M9.5,69.1211 L35.5,69.1211 M22.5,88.1211 L9.5,103.1211 M22.5,88.1211 L35.5,103.1211 " fill="none" style="stroke:#454645;stroke-width:0.5;"/><text fill="#454645" font-family="sans-serif" font-size="14" lengthAdjust="spacing" textLength="29" x="5" y="219.9316">User</text><ellipse cx="22.5" cy="231.9453" fill="#454645" rx="8" ry="8" style="stroke:#454645;stroke-width:0.5;"/><path d="M22.5,239.9453 L22.5,266.9453 M9.5,247.9453 L35.5,247.9453 M22.5,266.9453 L9.5,281.9453 M22.5,266.9453 L35.5,281.9453 " fill="none" style="stroke:#454645;stroke-width:0.5;"/><rect fill="url(#goahmnunp1h770)" height="32.6211" rx="3.5" ry="3.5" style="stroke:#454645;stroke-width:1.5;" width="64" x="460.5" y="89.6211"/><text fill="#FFFFFF" font-family="sans-serif" font-size="14" lengthAdjust="spacing" textLength="50" x="467.5" y="111.7285">:System</text><rect fill="url(#goahmnunp1h770)" height="32.6211" rx="3.5" ry="3.5" style="stroke:#454645;stroke-width:1.5;" width="64" x="460.5" y="204.8242"/><text fill="#FFFFFF" font-family="sans-serif" font-size="14" lengthAdjust="spacing" textLength="50" x="467.5" y="226.9316">:System</text><rect fill="#FFFFFF" height="63.582" style="stroke:#454645;stroke-width:1.0;" width="10" x="17.5" y="133.2422"/><rect fill="#FFFFFF" height="31.291" style="stroke:#454645;stroke-width:1.0;" width="10" x="487.5" y="156.5332"/><polygon fill="#454645" points="475.5,152.5332,485.5,156.5332,475.5,160.5332,479.5,156.5332" style="stroke:#454645;stroke-width:1.0;"/><line style="stroke:#454645;stroke-width:1.0;" x1="27.5" x2="481.5" y1="156.5332" y2="156.5332"/><text fill="#000000" font-family="sans-serif" font-size="13" font-weight="bold" lengthAdjust="spacing" textLength="7" x="34.5" y="151.2705">1</text><text fill="#000000" font-family="sans-serif" font-size="13" lengthAdjust="spacing" textLength="430" x="45.5" y="151.2705">User sends a POST to know the details of a lending by his lending number</text><polygon fill="#454645" points="38.5,183.8242,28.5,187.8242,38.5,191.8242,34.5,187.8242" style="stroke:#454645;stroke-width:1.0;"/><line style="stroke:#454645;stroke-width:1.0;stroke-dasharray:2.0,2.0;" x1="32.5" x2="491.5" y1="187.8242" y2="187.8242"/><text fill="#000000" font-family="sans-serif" font-size="13" font-weight="bold" lengthAdjust="spacing" textLength="7" x="44.5" y="182.5615">2</text><text fill="#000000" font-family="sans-serif" font-size="13" lengthAdjust="spacing" textLength="145" x="55.5" y="182.5615">informs operation sucess</text><!--SRC=[FOx1JiCm44Jl_eeX73Y5004XvS2Xb5n1Clu0rzas5h4Tl1jG_nwJ5lOscjbvSpMApDmrpJpPA4kOhbqA3TFdGj5HFNXxo3Oe9LucWj6tZwYXZomKeCyfRFzITf5adVWlAuGKLnsNiAEir8MC50YIZYNd96LKXYbNi0oZPfl5Ep-N4QYw4s2rD2xRpKDxr_Pzixbvlj- -zFrQS88OLSwWVeBkyDi7fZWmBDvUzNkXuIEcRnGs1XBh9qRQ5tSgAHyFs1qnUlwNvx4QTMaq7NpSfnpApqpPYayHl3XYLke7]--></g></svg>