<svg xmlns="http://www.w3.org/2000/svg" xmlns:xlink="http://www.w3.org/1999/xlink" contentStyleType="text/css" height="1796px" preserveAspectRatio="none" style="width:716px;height:1796px;background:#DDDDDD;" version="1.1" viewBox="0 0 716 1796" width="716px" zoomAndPan="magnify"><defs/><g><rect fill="#DDDDDD" height="1796" style="stroke:none;stroke-width:1.0;" width="716" x="0" y="0"/><!--cluster books--><g id="cluster_books"><rect fill="none" height="1534" rx="3.5" ry="3.5" style="stroke:#454645;stroke-width:1.0;" width="633" x="7" y="256"/><rect fill="none" height="10" style="stroke:#454645;stroke-width:1.0;" width="15" x="620" y="261"/><rect fill="none" height="2" style="stroke:#454645;stroke-width:1.0;" width="4" x="618" y="263"/><rect fill="none" height="2" style="stroke:#454645;stroke-width:1.0;" width="4" x="618" y="267"/><text fill="#000000" font-family="sans-serif" font-size="14" font-weight="bold" lengthAdjust="spacing" textLength="134.5928" x="256.2036" y="284.1074">&#171;BooksCommands&#187;</text></g><text fill="#000000" font-family="sans-serif" font-size="14" lengthAdjust="spacing" textLength="106.5928" x="224.2036" y="234.4863">REST API Books</text><rect fill="#F1F1F1" height="12" style="stroke:#181818;stroke-width:1.5;" width="12" x="271.5" y="250"/><text fill="#000000" font-family="sans-serif" font-size="14" lengthAdjust="spacing" textLength="63.0205" x="467.9897" y="234.4863">RabbitMQ</text><rect fill="#F1F1F1" height="12" style="stroke:#181818;stroke-width:1.5;" width="12" x="493.5" y="250"/><text fill="#000000" font-family="sans-serif" font-size="14" lengthAdjust="spacing" textLength="19.4482" x="584.2759" y="234.4863">DB</text><rect fill="#F1F1F1" height="12" style="stroke:#181818;stroke-width:1.5;" width="12" x="588" y="250"/><!--entity routesBooks--><g id="elem_routesBooks"><rect fill="#F1F1F1" height="48.6211" rx="3.5" ry="3.5" style="stroke:#181818;stroke-width:0.5;" width="84.3584" x="215" y="700"/><rect fill="#F1F1F1" height="10" style="stroke:#181818;stroke-width:0.5;" width="15" x="279.3584" y="705"/><rect fill="#F1F1F1" height="2" style="stroke:#181818;stroke-width:0.5;" width="4" x="277.3584" y="707"/><rect fill="#F1F1F1" height="2" style="stroke:#181818;stroke-width:0.5;" width="4" x="277.3584" y="711"/><text fill="#000000" font-family="sans-serif" font-size="14" lengthAdjust="spacing" textLength="44.3584" x="230" y="735.1074">Routes</text></g><!--entity bookController--><g id="elem_bookController"><rect fill="#F1F1F1" height="48.6211" rx="3.5" ry="3.5" style="stroke:#181818;stroke-width:0.5;" width="132.5996" x="206.5" y="905"/><rect fill="#F1F1F1" height="10" style="stroke:#181818;stroke-width:0.5;" width="15" x="319.0996" y="910"/><rect fill="#F1F1F1" height="2" style="stroke:#181818;stroke-width:0.5;" width="4" x="317.0996" y="912"/><rect fill="#F1F1F1" height="2" style="stroke:#181818;stroke-width:0.5;" width="4" x="317.0996" y="916"/><text fill="#000000" font-family="sans-serif" font-size="14" lengthAdjust="spacing" textLength="92.5996" x="221.5" y="940.1074">BookController</text></g><!--entity bookService--><g id="elem_bookService"><rect fill="#F1F1F1" height="48.6211" rx="3.5" ry="3.5" style="stroke:#181818;stroke-width:0.5;" width="118.5928" x="213.5" y="1110"/><rect fill="#F1F1F1" height="10" style="stroke:#181818;stroke-width:0.5;" width="15" x="312.0928" y="1115"/><rect fill="#F1F1F1" height="2" style="stroke:#181818;stroke-width:0.5;" width="4" x="310.0928" y="1117"/><rect fill="#F1F1F1" height="2" style="stroke:#181818;stroke-width:0.5;" width="4" x="310.0928" y="1121"/><text fill="#000000" font-family="sans-serif" font-size="14" lengthAdjust="spacing" textLength="78.5928" x="228.5" y="1145.1074">BookService</text></g><!--entity book--><g id="elem_book"><rect fill="#F1F1F1" height="48.6211" rx="3.5" ry="3.5" style="stroke:#181818;stroke-width:0.5;" width="113.9307" x="102" y="1315"/><rect fill="#F1F1F1" height="10" style="stroke:#181818;stroke-width:0.5;" width="15" x="195.9307" y="1320"/><rect fill="#F1F1F1" height="2" style="stroke:#181818;stroke-width:0.5;" width="4" x="193.9307" y="1322"/><rect fill="#F1F1F1" height="2" style="stroke:#181818;stroke-width:0.5;" width="4" x="193.9307" y="1326"/><text fill="#000000" font-family="sans-serif" font-size="14" lengthAdjust="spacing" textLength="73.9307" x="117" y="1350.1074">Book model</text></g><!--entity bookReceiver--><g id="elem_bookReceiver"><rect fill="#F1F1F1" height="48.6211" rx="3.5" ry="3.5" style="stroke:#181818;stroke-width:0.5;" width="127.1514" x="251.5" y="1315"/><rect fill="#F1F1F1" height="10" style="stroke:#181818;stroke-width:0.5;" width="15" x="358.6514" y="1320"/><rect fill="#F1F1F1" height="2" style="stroke:#181818;stroke-width:0.5;" width="4" x="356.6514" y="1322"/><rect fill="#F1F1F1" height="2" style="stroke:#181818;stroke-width:0.5;" width="4" x="356.6514" y="1326"/><text fill="#000000" font-family="sans-serif" font-size="14" lengthAdjust="spacing" textLength="87.1514" x="266.5" y="1350.1074">BookReceiver</text></g><!--entity booksDBRepository--><g id="elem_booksDBRepository"><rect fill="#F1F1F1" height="48.6211" rx="3.5" ry="3.5" style="stroke:#181818;stroke-width:0.5;" width="165.2754" x="233.5" y="1520"/><rect fill="#F1F1F1" height="10" style="stroke:#181818;stroke-width:0.5;" width="15" x="378.7754" y="1525"/><rect fill="#F1F1F1" height="2" style="stroke:#181818;stroke-width:0.5;" width="4" x="376.7754" y="1527"/><rect fill="#F1F1F1" height="2" style="stroke:#181818;stroke-width:0.5;" width="4" x="376.7754" y="1531"/><text fill="#000000" font-family="sans-serif" font-size="14" lengthAdjust="spacing" textLength="125.2754" x="248.5" y="1555.1074">BooksDBRepository</text></g><!--entity bookRepository--><g id="elem_bookRepository"><rect fill="#F1F1F1" height="48.6211" rx="3.5" ry="3.5" style="stroke:#181818;stroke-width:0.5;" width="138.8271" x="424.5" y="1725"/><rect fill="#F1F1F1" height="10" style="stroke:#181818;stroke-width:0.5;" width="15" x="543.3271" y="1730"/><rect fill="#F1F1F1" height="2" style="stroke:#181818;stroke-width:0.5;" width="4" x="541.3271" y="1732"/><rect fill="#F1F1F1" height="2" style="stroke:#181818;stroke-width:0.5;" width="4" x="541.3271" y="1736"/><text fill="#000000" font-family="sans-serif" font-size="14" lengthAdjust="spacing" textLength="98.8271" x="439.5" y="1760.1074">BookRepository</text></g><!--entity bookDriver--><g id="elem_bookDriver"><rect fill="#F1F1F1" height="48.6211" rx="3.5" ry="3.5" style="stroke:#181818;stroke-width:0.5;" width="143.4688" x="451.5" y="1315"/><rect fill="#F1F1F1" height="10" style="stroke:#181818;stroke-width:0.5;" width="15" x="574.9688" y="1320"/><rect fill="#F1F1F1" height="2" style="stroke:#181818;stroke-width:0.5;" width="4" x="572.9688" y="1322"/><rect fill="#F1F1F1" height="2" style="stroke:#181818;stroke-width:0.5;" width="4" x="572.9688" y="1326"/><text fill="#000000" font-family="sans-serif" font-size="14" lengthAdjust="spacing" textLength="103.4688" x="466.5" y="1350.1074">Driver Books DB</text></g><!--entity authorDriver--><g id="elem_authorDriver"><rect fill="#F1F1F1" height="48.6211" rx="3.5" ry="3.5" style="stroke:#181818;stroke-width:0.5;" width="152.8066" x="433.5" y="1520"/><rect fill="#F1F1F1" height="10" style="stroke:#181818;stroke-width:0.5;" width="15" x="566.3066" y="1525"/><rect fill="#F1F1F1" height="2" style="stroke:#181818;stroke-width:0.5;" width="4" x="564.3066" y="1527"/><rect fill="#F1F1F1" height="2" style="stroke:#181818;stroke-width:0.5;" width="4" x="564.3066" y="1531"/><text fill="#000000" font-family="sans-serif" font-size="14" lengthAdjust="spacing" textLength="112.8066" x="448.5" y="1555.1074">Driver Authors DB</text></g><!--entity messageBrokerBooks--><g id="elem_messageBrokerBooks"><rect fill="#F1F1F1" height="48.6211" rx="3.5" ry="3.5" style="stroke:#181818;stroke-width:0.5;" width="138.041" x="420" y="1110"/><rect fill="#F1F1F1" height="10" style="stroke:#181818;stroke-width:0.5;" width="15" x="538.041" y="1115"/><rect fill="#F1F1F1" height="2" style="stroke:#181818;stroke-width:0.5;" width="4" x="536.041" y="1117"/><rect fill="#F1F1F1" height="2" style="stroke:#181818;stroke-width:0.5;" width="4" x="536.041" y="1121"/><text fill="#000000" font-family="sans-serif" font-size="14" lengthAdjust="spacing" textLength="98.041" x="435" y="1145.1074">MessageBroker</text></g><!--entity authorsDBRepository--><g id="elem_authorsDBRepository"><rect fill="#F1F1F1" height="48.6211" rx="3.5" ry="3.5" style="stroke:#181818;stroke-width:0.5;" width="174.6133" x="23.5" y="1520"/><rect fill="#F1F1F1" height="10" style="stroke:#181818;stroke-width:0.5;" width="15" x="178.1133" y="1525"/><rect fill="#F1F1F1" height="2" style="stroke:#181818;stroke-width:0.5;" width="4" x="176.1133" y="1527"/><rect fill="#F1F1F1" height="2" style="stroke:#181818;stroke-width:0.5;" width="4" x="176.1133" y="1531"/><text fill="#000000" font-family="sans-serif" font-size="14" lengthAdjust="spacing" textLength="134.6133" x="38.5" y="1555.1074">AuthorsDBRepository</text></g><!--entity authorRepository--><g id="elem_authorRepository"><rect fill="#F1F1F1" height="48.6211" rx="3.5" ry="3.5" style="stroke:#181818;stroke-width:0.5;" width="148.165" x="23" y="905"/><rect fill="#F1F1F1" height="10" style="stroke:#181818;stroke-width:0.5;" width="15" x="151.165" y="910"/><rect fill="#F1F1F1" height="2" style="stroke:#181818;stroke-width:0.5;" width="4" x="149.165" y="912"/><rect fill="#F1F1F1" height="2" style="stroke:#181818;stroke-width:0.5;" width="4" x="149.165" y="916"/><text fill="#000000" font-family="sans-serif" font-size="14" lengthAdjust="spacing" textLength="108.165" x="38" y="940.1074">AuthorRepository</text></g><!--entity modelBooks--><g id="elem_modelBooks"><ellipse cx="192" cy="1237" fill="#F1F1F1" rx="8" ry="8" style="stroke:#181818;stroke-width:0.5;"/></g><!--entity bookC--><g id="elem_bookC"><ellipse cx="265" cy="827" fill="#F1F1F1" rx="8" ry="8" style="stroke:#181818;stroke-width:0.5;"/></g><!--entity bookDBRepo--><g id="elem_bookDBRepo"><ellipse cx="334" cy="1442" fill="#F1F1F1" rx="8" ry="8" style="stroke:#181818;stroke-width:0.5;"/></g><!--entity bookR--><g id="elem_bookR"><ellipse cx="315" cy="1237" fill="#F1F1F1" rx="8" ry="8" style="stroke:#181818;stroke-width:0.5;"/></g><!--entity bookS--><g id="elem_bookS"><ellipse cx="273" cy="1032" fill="#F1F1F1" rx="8" ry="8" style="stroke:#181818;stroke-width:0.5;"/></g><!--entity bookRepo--><g id="elem_bookRepo"><ellipse cx="375" cy="1647" fill="#F1F1F1" rx="8" ry="8" style="stroke:#181818;stroke-width:0.5;"/></g><!--entity authorDBRepo--><g id="elem_authorDBRepo"><ellipse cx="245" cy="1442" fill="#F1F1F1" rx="8" ry="8" style="stroke:#181818;stroke-width:0.5;"/></g><!--entity authorRepo--><g id="elem_authorRepo"><ellipse cx="82" cy="1032" fill="#F1F1F1" rx="8" ry="8" style="stroke:#181818;stroke-width:0.5;"/></g><!--entity HttpClient--><g id="elem_HttpClient"><ellipse cx="278" cy="147" fill="#F1F1F1" rx="8" ry="8" style="stroke:#181818;stroke-width:0.5;"/></g><!--entity db--><g id="elem_db"><ellipse cx="606" cy="147" fill="#F1F1F1" rx="8" ry="8" style="stroke:#181818;stroke-width:0.5;"/><text fill="#000000" font-family="sans-serif" font-size="14" lengthAdjust="spacing" textLength="57.6064" x="577.1968" y="179.1074">database</text></g><!--entity rabbit--><g id="elem_rabbit"><ellipse cx="480" cy="147" fill="#F1F1F1" rx="8" ry="8" style="stroke:#181818;stroke-width:0.5;"/></g><!--entity NodeHTTP--><g id="elem_NodeHTTP"><rect fill="#F1F1F1" height="48.6211" rx="3.5" ry="3.5" style="stroke:#181818;stroke-width:0.5;" width="105.3584" x="225.5" y="7"/><rect fill="#F1F1F1" height="10" style="stroke:#181818;stroke-width:0.5;" width="15" x="310.8584" y="12"/><rect fill="#F1F1F1" height="2" style="stroke:#181818;stroke-width:0.5;" width="4" x="308.8584" y="14"/><rect fill="#F1F1F1" height="2" style="stroke:#181818;stroke-width:0.5;" width="4" x="308.8584" y="18"/><text fill="#000000" font-family="sans-serif" font-size="14" lengthAdjust="spacing" textLength="65.3584" x="240.5" y="42.1074">Http Client</text></g><!--entity BooksComp--><g id="elem_BooksComp"><rect fill="#F1F1F1" height="48.6211" rx="3.5" ry="3.5" style="stroke:#181818;stroke-width:0.5;" width="103.0205" x="421.5" y="7"/><rect fill="#F1F1F1" height="10" style="stroke:#181818;stroke-width:0.5;" width="15" x="504.5205" y="12"/><rect fill="#F1F1F1" height="2" style="stroke:#181818;stroke-width:0.5;" width="4" x="502.5205" y="14"/><rect fill="#F1F1F1" height="2" style="stroke:#181818;stroke-width:0.5;" width="4" x="502.5205" y="18"/><text fill="#000000" font-family="sans-serif" font-size="14" lengthAdjust="spacing" textLength="63.0205" x="436.5" y="42.1074">RabbitMQ</text></g><!--entity BooksDB--><g id="elem_BooksDB"><rect fill="#F1F1F1" height="48.6211" rx="3.5" ry="3.5" style="stroke:#181818;stroke-width:0.5;" width="150.4893" x="560" y="7"/><rect fill="#F1F1F1" height="10" style="stroke:#181818;stroke-width:0.5;" width="15" x="690.4893" y="12"/><rect fill="#F1F1F1" height="2" style="stroke:#181818;stroke-width:0.5;" width="4" x="688.4893" y="14"/><rect fill="#F1F1F1" height="2" style="stroke:#181818;stroke-width:0.5;" width="4" x="688.4893" y="18"/><text fill="#000000" font-family="sans-serif" font-size="14" lengthAdjust="spacing" textLength="110.4893" x="575" y="42.1074">BooksCommands</text></g><!--link NodeHTTP to HttpClient--><g id="link_NodeHTTP_HttpClient"><path d="M278,56.02 C278,81.6 278,111.1 278,127.94 " fill="none" id="NodeHTTP-to-HttpClient" style="stroke:#454645;stroke-width:1.0;"/><path d="M286.4572,134.8618 A9,9 0 0 0 269.5428 134.8618" fill="none" style="stroke:#454645;stroke-width:1.5;"/></g><!--link HttpClient to outBooks--><g id="link_HttpClient_outBooks"><path d="M278,156.04 C278,176.94 278,232.54 278,249.81 " fill="none" id="HttpClient-outBooks" style="stroke:#454645;stroke-width:1.0;"/></g><!--link outBooks to routesBooks--><g id="link_outBooks_routesBooks"><path d="M277.54,262.26 C275.98,280.56 271,343.18 271,395 C271,395 271,395 271,579 C271,621.72 264.86,671.22 260.71,699.79 " fill="none" id="outBooks-routesBooks" style="stroke:#454645;stroke-width:1.0;"/></g><!--link routesBooks to bookC--><g id="link_routesBooks_bookC"><path d="M258.88,749.06 C260.63,771.11 262.3528,792.8418 263.5428,807.7218 " fill="none" id="routesBooks-to-bookC" style="stroke:#454645;stroke-width:1.0;"/><path d="M272.5249,813.9474 A9,9 0 0 0 255.6643 815.2958" fill="none" style="stroke:#454645;stroke-width:1.5;"/></g><!--link bookC to bookController--><g id="link_bookC_bookController"><path d="M265.65,836.22 C266.83,851.04 269.36,882.72 271.11,904.8 " fill="none" id="bookC-bookController" style="stroke:#454645;stroke-width:1.0;"/></g><!--link bookController to bookS--><g id="link_bookController_bookS"><path d="M273,954.06 C273,976.11 273,1007.81 273,1022.69 " fill="none" id="bookController-bookS" style="stroke:#454645;stroke-width:1.0;"/></g><!--reverse link bookS to bookService--><g id="link_bookS_bookService"><path d="M273,1051.22 C273,1066.04 273,1087.72 273,1109.8 " fill="none" id="bookS-backto-bookService" style="stroke:#454645;stroke-width:1.0;"/><path d="M264.5428,1044.2982 A9,9 0 0 0 281.4572 1044.2982" fill="none" style="stroke:#454645;stroke-width:1.5;"/></g><!--link bookService to modelBooks--><g id="link_bookService_modelBooks"><path d="M254.01,1159.06 C236.24,1181.11 216.9644,1205.0233 204.9744,1219.9033 " fill="none" id="bookService-to-modelBooks" style="stroke:#454645;stroke-width:1.0;"/><path d="M207.2167,1230.5995 A9,9 0 0 0 194.046 1219.9867" fill="none" style="stroke:#454645;stroke-width:1.5;"/></g><!--link modelBooks to book--><g id="link_modelBooks_book"><path d="M189.3,1246.22 C184.44,1261.04 174.03,1292.72 166.78,1314.8 " fill="none" id="modelBooks-book" style="stroke:#454645;stroke-width:1.0;"/></g><!--link BooksComp to rabbit--><g id="link_BooksComp_rabbit"><path d="M474.45,56.02 C476.03,81.6 478.46,121.1 479.5,137.94 " fill="none" id="BooksComp-rabbit" style="stroke:#454645;stroke-width:1.0;"/></g><!--reverse link rabbit to apiBooks--><g id="link_rabbit_apiBooks"><path d="M483.3389,165.8695 C487.2489,186.7695 495.8,232.54 499.03,249.81 " fill="none" id="rabbit-backto-apiBooks" style="stroke:#454645;stroke-width:1.0;"/><path d="M473.753,160.6209 A9,9 0 0 0 490.3791 157.5105" fill="none" style="stroke:#454645;stroke-width:1.5;"/></g><!--link apiBooks to messageBrokerBooks--><g id="link_apiBooks_messageBrokerBooks"><path d="M501.31,262.22 C505.76,280.42 520,342.71 520,395 C520,395 520,395 520,930.5 C520,996.1 503.99,1072.27 494.98,1109.93 " fill="none" id="apiBooks-messageBrokerBooks" style="stroke:#454645;stroke-width:1.0;"/></g><!--link messageBrokerBooks to bookR--><g id="link_messageBrokerBooks_bookR"><path d="M448.2,1159.06 C407.22,1182.73 346.97,1217.54 324.18,1230.7 " fill="none" id="messageBrokerBooks-bookR" style="stroke:#454645;stroke-width:1.0;"/></g><!--reverse link bookR to bookReceiver--><g id="link_bookR_bookReceiver"><path d="M315,1256.22 C315,1271.04 315,1292.72 315,1314.8 " fill="none" id="bookR-backto-bookReceiver" style="stroke:#454645;stroke-width:1.0;"/><path d="M306.5428,1249.2982 A9,9 0 0 0 323.4572 1249.2982" fill="none" style="stroke:#454645;stroke-width:1.5;"/></g><!--link bookService to bookR--><g id="link_bookService_bookR"><path d="M282.85,1159.06 C292.06,1181.11 301.4533,1203.5836 307.6733,1218.4636 " fill="none" id="bookService-to-bookR" style="stroke:#454645;stroke-width:1.0;"/><path d="M318.1458,1221.5882 A9,9 0 0 0 302.5399 1228.1117" fill="none" style="stroke:#454645;stroke-width:1.5;"/></g><!--link bookReceiver to bookDBRepo--><g id="link_bookReceiver_bookDBRepo"><path d="M319.45,1364.06 C323.62,1386.11 327.7644,1407.9837 330.5744,1422.8637 " fill="none" id="bookReceiver-to-bookDBRepo" style="stroke:#454645;stroke-width:1.0;"/><path d="M340.1691,1428.0959 A9,9 0 0 0 323.5485 1431.2346" fill="none" style="stroke:#454645;stroke-width:1.5;"/></g><!--reverse link bookDBRepo to booksDBRepository--><g id="link_bookDBRepo_booksDBRepository"><path d="M330.7634,1461.0627 C328.1034,1475.8827 324.2,1497.72 320.25,1519.8 " fill="none" id="bookDBRepo-backto-booksDBRepository" style="stroke:#454645;stroke-width:1.0;"/><path d="M323.662,1452.7557 A9,9 0 0 0 340.3104 1455.7439" fill="none" style="stroke:#454645;stroke-width:1.5;"/></g><!--link bookReceiver to authorDBRepo--><g id="link_bookReceiver_authorDBRepo"><path d="M298.59,1364.06 C283.23,1386.11 266.8639,1409.6032 256.5039,1424.4832 " fill="none" id="bookReceiver-to-authorDBRepo" style="stroke:#454645;stroke-width:1.0;"/><path d="M259.4895,1434.9962 A9,9 0 0 0 245.6081 1425.3314" fill="none" style="stroke:#454645;stroke-width:1.5;"/></g><!--reverse link authorDBRepo to authorsDBRepository--><g id="link_authorDBRepo_authorsDBRepository"><path d="M227.79,1455.91 C208.87,1470.1 172.85,1497.11 142.5,1519.87 " fill="none" id="authorDBRepo-backto-authorsDBRepository" style="stroke:#454645;stroke-width:1.0;"/><path d="M228.2531,1444.9911 A9,9 0 0 0 238.4018 1458.5227" fill="none" style="stroke:#454645;stroke-width:1.5;"/></g><!--reverse link authorRepo to authorsDBRepository--><g id="link_authorRepo_authorsDBRepository"><path d="M79.5924,1051.0141 C75.9824,1078.3841 66,1159.99 66,1236 C66,1236 66,1236 66,1340.5 C66,1406.74 89.12,1482.32 102.22,1519.82 " fill="none" id="authorRepo-backto-authorsDBRepository" style="stroke:#454645;stroke-width:1.0;"/><path d="M72.1129,1043.0459 A9,9 0 0 0 88.8821 1045.2576" fill="none" style="stroke:#454645;stroke-width:1.5;"/></g><!--link authorRepository to authorRepo--><g id="link_authorRepository_authorRepo"><path d="M93.48,954.06 C90.19,976.11 85.46,1007.81 83.24,1022.69 " fill="none" id="authorRepository-authorRepo" style="stroke:#454645;stroke-width:1.0;"/></g><!--link booksDBRepository to bookRepo--><g id="link_booksDBRepository_bookRepo"><path d="M329.83,1569.06 C342.78,1591.11 361.39,1622.81 370.12,1637.69 " fill="none" id="booksDBRepository-bookRepo" style="stroke:#454645;stroke-width:1.0;"/></g><!--reverse link bookRepo to bookRepository--><g id="link_bookRepo_bookRepository"><path d="M391.9797,1662.3425 C409.2897,1676.9625 439.37,1702.36 465.7,1724.6 " fill="none" id="bookRepo-backto-bookRepository" style="stroke:#454645;stroke-width:1.0;"/><path d="M381.2346,1664.3373 A9,9 0 0 0 392.1487 1651.4151" fill="none" style="stroke:#454645;stroke-width:1.5;"/></g><!--link bookRepository to bookS--><g id="link_bookRepository_bookS"><path d="M520.21,1724.74 C562.37,1683.49 637.31,1595.77 604,1520 C562.73,1426.12 489.67,1450.12 434,1364 C369.45,1264.14 412.39,1211.22 350,1110 C331.25,1079.58 298.22,1052.11 282.21,1039.81 " fill="none" id="bookRepository-bookS" style="stroke:#454645;stroke-width:1.0;"/></g><!--link BooksDB to db--><g id="link_BooksDB_db"><path d="M628.99,56.02 C622.45,81.6 612.36,121.1 608.06,137.94 " fill="none" id="BooksDB-db" style="stroke:#454645;stroke-width:1.0;"/></g><!--reverse link db to dbBooks--><g id="link_db_dbBooks"><path d="M603.9826,165.9774 C601.6326,186.8774 596.52,232.54 594.58,249.81 " fill="none" id="db-backto-dbBooks" style="stroke:#454645;stroke-width:1.0;"/><path d="M596.3518,158.1539 A9,9 0 0 0 613.1603 160.0439" fill="none" style="stroke:#454645;stroke-width:1.5;"/></g><!--link dbBooks to authorDriver--><g id="link_dbBooks_authorDriver"><path d="M596.43,262.13 C604.66,280.01 631,341.42 631,395 C631,395 631,395 631,1340.5 C631,1414.35 571.18,1484.71 535.66,1519.98 " fill="none" id="dbBooks-authorDriver" style="stroke:#454645;stroke-width:1.0;"/></g><!--link authorDBRepo to authorDriver--><g id="link_authorDBRepo_authorDriver"><path d="M254.12,1446.46 C284.25,1457.88 382.36,1495.09 447.97,1519.98 " fill="none" id="authorDBRepo-authorDriver" style="stroke:#454645;stroke-width:1.0;"/></g><!--link dbBooks to bookDriver--><g id="link_dbBooks_bookDriver"><path d="M594,262.26 C594,280.58 594,343.25 594,395 C594,395 594,395 594,1135.5 C594,1203.64 557.92,1277.79 537.2,1314.76 " fill="none" id="dbBooks-bookDriver" style="stroke:#454645;stroke-width:1.0;"/></g><!--link bookDriver to bookDBRepo--><g id="link_bookDriver_bookDBRepo"><path d="M477.95,1364.07 C446.29,1380.7 402.97,1403.56 365,1424 C357.65,1427.96 349.36,1432.51 343.2,1435.9 " fill="none" id="bookDriver-bookDBRepo" style="stroke:#454645;stroke-width:1.0;"/></g><!--link authorRepository to bookS--><g id="link_authorRepository_bookS"><path d="M138.26,954.06 C179.72,977.73 240.66,1012.54 263.71,1025.7 " fill="none" id="authorRepository-bookS" style="stroke:#454645;stroke-width:1.0;"/></g><!--SRC=[XLLHJyCW47xdLw0l-bBtReo9tKpqGQFT_W1TSIEsfQ7Cn1Z_kt3GSWZLBKlWk-yxxWxkTd7KUXYlLwkXPRq-TUtLNdOhynjaptjTD88T5Ei8ETD7td6gvISHlURgZUqvFJTVDj87usFT2iF7jePfLhEH0wMfKvbYTIqq8VDfzDnweiuLK9vbmnzskvU8L87kwHKOfPJluzeOCMC2EzOtOw1joiZFpKt4kxq5Pcqn-aK8DPz1AYrwS-JzTaVlNXwT7-39auPDpCEXiK6aZ4tfw-5COCEv6RVS7Q1W6JpyocyjUwrast8rXnsWd63BrOVOyvdjzpagxKpTsvcPerHypyK7Edm2ScHJ-OeFSXHQgizGPOpcpqWqouADigUx2wA-obRXy0NstKaVfPhv3BPvnHCVHtRWfPBlFkiE8_dhzFwJz5cAvwLP7HA1AkaikBxmSX8xF9PbamjhsLujcxP_gApFlDdN_OzZG-Bacv1fBD2YAIxn-0bBQmezEYq0nOr5qCPvSxM9suaMfy8R4ajJ-CHHJrd-fOTZt9w0RiVQm3d2o3pINBHkIax3nBbEG4FCFSSKcmEk2ExQ476L1kpWN_p9u6yjQUZW4J5YUNJjcPPmBYBMVpJa2XDCpiYU2tQgIeWqJII8CygjlxXD2P3vm_CptkdDFW1pE7xKu0qyXpXdh4CZBIo39QfIDieV]--></g></svg>