<?xml version="1.0" encoding="us-ascii" standalone="no"?><svg xmlns="http://www.w3.org/2000/svg" xmlns:xlink="http://www.w3.org/1999/xlink" contentStyleType="text/css" height="162px" preserveAspectRatio="none" style="width:735px;height:162px;background:#FFFFFF;" version="1.1" viewBox="0 0 735 162" width="735px" zoomAndPan="magnify"><defs/><g><!--class User--><g id="elem_User"><rect codeLine="8" fill="#F1F1F1" height="148.3477" id="User" rx="2.5" ry="2.5" style="stroke:#181818;stroke-width:0.5;" width="122" x="487.5" y="7"/><text fill="#000000" font-family="sans-serif" font-size="14" lengthAdjust="spacing" textLength="29" x="534" y="27.1074">User</text><line style="stroke:#181818;stroke-width:0.5;" x1="488.5" x2="608.5" y1="35.6211" y2="35.6211"/><ellipse cx="498.5" cy="50.4316" fill="none" rx="3" ry="3" style="stroke:#038048;stroke-width:1.0;"/><text fill="#000000" font-family="sans-serif" font-size="14" lengthAdjust="spacing" textLength="35" x="507.5" y="54.7285">name</text><ellipse cx="498.5" cy="69.0527" fill="none" rx="3" ry="3" style="stroke:#038048;stroke-width:1.0;"/><text fill="#000000" font-family="sans-serif" font-size="14" lengthAdjust="spacing" textLength="33" x="507.5" y="73.3496">email</text><ellipse cx="498.5" cy="87.6738" fill="none" rx="3" ry="3" style="stroke:#038048;stroke-width:1.0;"/><text fill="#000000" font-family="sans-serif" font-size="14" lengthAdjust="spacing" textLength="24" x="507.5" y="91.9707">role</text><ellipse cx="498.5" cy="106.2949" fill="none" rx="3" ry="3" style="stroke:#038048;stroke-width:1.0;"/><text fill="#000000" font-family="sans-serif" font-size="14" lengthAdjust="spacing" textLength="84" x="507.5" y="110.5918">date_of_birth</text><ellipse cx="498.5" cy="124.916" fill="none" rx="3" ry="3" style="stroke:#038048;stroke-width:1.0;"/><text fill="#000000" font-family="sans-serif" font-size="14" lengthAdjust="spacing" textLength="96" x="507.5" y="129.2129">phone_number</text><ellipse cx="498.5" cy="143.5371" fill="none" rx="3" ry="3" style="stroke:#038048;stroke-width:1.0;"/><text fill="#000000" font-family="sans-serif" font-size="14" lengthAdjust="spacing" textLength="29" x="507.5" y="147.834">gdpr</text></g><!--class Genre--><g id="elem_Genre"><rect codeLine="17" fill="#F1F1F1" height="55.2422" id="Genre" rx="2.5" ry="2.5" style="stroke:#181818;stroke-width:0.5;" width="61" x="7" y="53.5"/><text fill="#000000" font-family="sans-serif" font-size="14" lengthAdjust="spacing" textLength="40" x="17.5" y="73.6074">Genre</text><line style="stroke:#181818;stroke-width:0.5;" x1="8" x2="67" y1="82.1211" y2="82.1211"/><ellipse cx="18" cy="96.9316" fill="none" rx="3" ry="3" style="stroke:#038048;stroke-width:1.0;"/><text fill="#000000" font-family="sans-serif" font-size="14" lengthAdjust="spacing" textLength="35" x="27" y="101.2285">name</text></g><!--class Author--><g id="elem_Author"><rect codeLine="21" fill="#F1F1F1" height="92.4844" id="Author" rx="2.5" ry="2.5" style="stroke:#181818;stroke-width:0.5;" width="123" x="329" y="35"/><text fill="#000000" font-family="sans-serif" font-size="14" lengthAdjust="spacing" textLength="42" x="369.5" y="55.1074">Author</text><line style="stroke:#181818;stroke-width:0.5;" x1="330" x2="451" y1="63.6211" y2="63.6211"/><ellipse cx="340" cy="78.4316" fill="none" rx="3" ry="3" style="stroke:#038048;stroke-width:1.0;"/><text fill="#000000" font-family="sans-serif" font-size="14" lengthAdjust="spacing" textLength="35" x="349" y="82.7285">name</text><ellipse cx="340" cy="97.0527" fill="none" rx="3" ry="3" style="stroke:#038048;stroke-width:1.0;"/><text fill="#000000" font-family="sans-serif" font-size="14" lengthAdjust="spacing" textLength="59" x="349" y="101.3496">short_bio</text><ellipse cx="340" cy="115.6738" fill="none" rx="3" ry="3" style="stroke:#038048;stroke-width:1.0;"/><text fill="#000000" font-family="sans-serif" font-size="14" lengthAdjust="spacing" textLength="97" x="349" y="119.9707">author_number</text></g><!--class Book--><g id="elem_Book"><rect codeLine="27" fill="#F1F1F1" height="148.3477" id="Book" rx="2.5" ry="2.5" style="stroke:#181818;stroke-width:0.5;" width="98" x="149.5" y="7"/><text fill="#000000" font-family="sans-serif" font-size="14" lengthAdjust="spacing" textLength="32" x="182.5" y="27.1074">Book</text><line style="stroke:#181818;stroke-width:0.5;" x1="150.5" x2="246.5" y1="35.6211" y2="35.6211"/><ellipse cx="160.5" cy="50.4316" fill="none" rx="3" ry="3" style="stroke:#038048;stroke-width:1.0;"/><text fill="#000000" font-family="sans-serif" font-size="14" lengthAdjust="spacing" textLength="26" x="169.5" y="54.7285">isbn</text><ellipse cx="160.5" cy="69.0527" fill="none" rx="3" ry="3" style="stroke:#038048;stroke-width:1.0;"/><text fill="#000000" font-family="sans-serif" font-size="14" lengthAdjust="spacing" textLength="22" x="169.5" y="73.3496">title</text><ellipse cx="160.5" cy="87.6738" fill="none" rx="3" ry="3" style="stroke:#038048;stroke-width:1.0;"/><text fill="#000000" font-family="sans-serif" font-size="14" lengthAdjust="spacing" textLength="37" x="169.5" y="91.9707">genre</text><ellipse cx="160.5" cy="106.2949" fill="none" rx="3" ry="3" style="stroke:#038048;stroke-width:1.0;"/><text fill="#000000" font-family="sans-serif" font-size="14" lengthAdjust="spacing" textLength="69" x="169.5" y="110.5918">description</text><ellipse cx="160.5" cy="124.916" fill="none" rx="3" ry="3" style="stroke:#038048;stroke-width:1.0;"/><text fill="#000000" font-family="sans-serif" font-size="14" lengthAdjust="spacing" textLength="41" x="169.5" y="129.2129">author</text><ellipse cx="160.5" cy="143.5371" fill="none" rx="3" ry="3" style="stroke:#038048;stroke-width:1.0;"/><text fill="#000000" font-family="sans-serif" font-size="14" lengthAdjust="spacing" textLength="72" x="169.5" y="147.834">coverPhoto</text></g><!--class Role--><g id="elem_Role"><rect codeLine="36" fill="#F1F1F1" height="55.2422" id="Role" rx="2.5" ry="2.5" style="stroke:#181818;stroke-width:0.5;" width="37" x="691" y="53.5"/><text fill="#000000" font-family="sans-serif" font-size="14" lengthAdjust="spacing" textLength="29" x="695" y="73.6074">Role</text><line style="stroke:#181818;stroke-width:0.5;" x1="692" x2="727" y1="82.1211" y2="82.1211"/><ellipse cx="702" cy="96.9316" fill="none" rx="3" ry="3" style="stroke:#038048;stroke-width:1.0;"/><text fill="#000000" font-family="sans-serif" font-size="14" lengthAdjust="spacing" textLength="11" x="711" y="101.2285">id</text></g><!--link Book to Author--><g id="link_Book_Author"><path codeLine="42" d="M247.94,81 C272.61,81 302.69,81 328.85,81 " fill="none" id="Book-Author" style="stroke:#181818;stroke-width:1.0;"/><polygon fill="#000000" points="274.75,68.6455,265.7049,65.7066,265.7049,71.5844,274.75,68.6455" style="stroke:#000000;stroke-width:1.0;"/><text fill="#000000" font-family="sans-serif" font-size="13" lengthAdjust="spacing" textLength="32" x="278.75" y="74.0283">has a</text><text fill="#000000" font-family="sans-serif" font-size="13" lengthAdjust="spacing" textLength="7" x="255.3847" y="76.829">1</text><text fill="#000000" font-family="sans-serif" font-size="13" lengthAdjust="spacing" textLength="20" x="301.0133" y="95.9474">1..*</text></g><!--link Genre to Book--><g id="link_Genre_Book"><path codeLine="43" d="M68.16,81 C91.06,81 122.83,81 149.27,81 " fill="none" id="Genre-Book" style="stroke:#181818;stroke-width:1.0;"/><polygon fill="#000000" points="85.25,68.6455,94.2951,71.5844,94.2951,65.7066,85.25,68.6455" style="stroke:#000000;stroke-width:1.0;"/><text fill="#000000" font-family="sans-serif" font-size="13" lengthAdjust="spacing" textLength="32" x="99.25" y="74.0283">has a</text><text fill="#000000" font-family="sans-serif" font-size="13" lengthAdjust="spacing" textLength="20" x="75.9108" y="96.6533">1..*</text><text fill="#000000" font-family="sans-serif" font-size="13" lengthAdjust="spacing" textLength="20" x="121.6812" y="96.1138">1..*</text></g><!--link User to Role--><g id="link_User_Role"><path codeLine="44" d="M609.83,81 C638.62,81 670.89,81 690.7,81 " fill="none" id="User-Role" style="stroke:#181818;stroke-width:1.0;"/><polygon fill="#000000" points="626.75,68.6455,635.7951,71.5844,635.7951,65.7066,626.75,68.6455" style="stroke:#000000;stroke-width:1.0;"/><text fill="#000000" font-family="sans-serif" font-size="13" lengthAdjust="spacing" textLength="32" x="640.75" y="74.0283">has a</text><text fill="#000000" font-family="sans-serif" font-size="13" lengthAdjust="spacing" textLength="20" x="617.6317" y="95.9549">1..*</text><text fill="#000000" font-family="sans-serif" font-size="13" lengthAdjust="spacing" textLength="7" x="676.0344" y="75.1148">1</text></g><!--SRC=[PP11IyOm38Rl-HLb5y6o3Qz31BryLn4yZwwBQt5jHffv4V-xNVVj6-WjpVlcoPlUEP4bTMsxp2RA6kR6KcZjR5AgHsycDW40d1zHMSzsnhqEA8x6bALYLUy9MIdr3JgQWA0n63-3Pie3UZI2FNtqWsTne1T74VkuXW4Pz3Gk33y7vuAHSSEemhdrdzUyZqz-oY_9G09jYdJmRXClH9-RtwSXWXOlMv9fm-T0c2pxHJp5OnwqfI_aLqT29-GjvozN-N5h0XHgzL2fcltafCvrqznNHxvEFIbdaZAm7t9L_vWBf5EFLslvkt_EQbz-sdu1]--></g></svg>
