<?xml version="1.0" encoding="us-ascii" standalone="no"?><svg xmlns="http://www.w3.org/2000/svg" xmlns:xlink="http://www.w3.org/1999/xlink" contentStyleType="text/css" height="1001px" preserveAspectRatio="none" style="width:1079px;height:1001px;background:#FFFFFF;" version="1.1" viewBox="0 0 1079 1001" width="1079px" zoomAndPan="magnify"><defs><linearGradient id="gj197j1ouptm50" x1="0%" x2="100%" y1="0%" y2="100%"><stop offset="0%" stop-color="#3B5323"/><stop offset="100%" stop-color="#B0C4DE"/></linearGradient></defs><g><text fill="#000000" font-family="sans-serif" font-size="14" font-weight="bold" lengthAdjust="spacing" textLength="239" x="413.25" y="25.1074">US16 Class Diagram - Return Book</text><!--class LendingController--><g id="elem_LendingController"><rect codeLine="7" fill="url(#gj197j1ouptm50)" height="63.2422" id="LendingController" rx="2.5" ry="2.5" style="stroke:#181818;stroke-width:0.5;" width="567" x="220" y="46.6211"/><text fill="#000000" font-family="sans-serif" font-size="14" lengthAdjust="spacing" textLength="113" x="447" y="66.7285">LendingController</text><line style="stroke:#181818;stroke-width:0.5;" x1="221" x2="786" y1="75.2422" y2="75.2422"/><line style="stroke:#181818;stroke-width:0.5;" x1="221" x2="786" y1="83.2422" y2="83.2422"/><ellipse cx="231" cy="98.0527" fill="#84BE84" rx="3" ry="3" style="stroke:#038048;stroke-width:1.0;"/><text fill="#000000" font-family="sans-serif" font-size="14" lengthAdjust="spacing" textLength="541" x="240" y="102.3496">POST /lending/returnBook(readerNumber: long, isbn: String): ResponseEntity&lt;String&gt;</text></g><!--class UserService--><g id="elem_UserService"><rect codeLine="11" fill="url(#gj197j1ouptm50)" height="63.2422" id="UserService" rx="2.5" ry="2.5" style="stroke:#181818;stroke-width:0.5;" width="248" x="25.5" y="207.1211"/><text fill="#000000" font-family="sans-serif" font-size="14" lengthAdjust="spacing" textLength="76" x="111.5" y="227.2285">UserService</text><line style="stroke:#181818;stroke-width:0.5;" x1="26.5" x2="272.5" y1="235.7422" y2="235.7422"/><line style="stroke:#181818;stroke-width:0.5;" x1="26.5" x2="272.5" y1="243.7422" y2="243.7422"/><ellipse cx="36.5" cy="258.5527" fill="#84BE84" rx="3" ry="3" style="stroke:#038048;stroke-width:1.0;"/><text fill="#000000" font-family="sans-serif" font-size="14" lengthAdjust="spacing" textLength="222" x="45.5" y="262.8496">getUser(readerNumber: long): User</text></g><!--class LendingService--><g id="elem_LendingService"><rect codeLine="15" fill="url(#gj197j1ouptm50)" height="100.4844" id="LendingService" rx="2.5" ry="2.5" style="stroke:#181818;stroke-width:0.5;" width="371" x="318" y="188.6211"/><text fill="#000000" font-family="sans-serif" font-size="14" lengthAdjust="spacing" textLength="98" x="454.5" y="208.7285">LendingService</text><line style="stroke:#181818;stroke-width:0.5;" x1="319" x2="688" y1="217.2422" y2="217.2422"/><line style="stroke:#181818;stroke-width:0.5;" x1="319" x2="688" y1="225.2422" y2="225.2422"/><ellipse cx="329" cy="240.0527" fill="#84BE84" rx="3" ry="3" style="stroke:#038048;stroke-width:1.0;"/><text fill="#000000" font-family="sans-serif" font-size="14" lengthAdjust="spacing" textLength="345" x="338" y="244.3496">getLending(readerNumber: long, isbn: String): Lending</text><ellipse cx="329" cy="258.6738" fill="#84BE84" rx="3" ry="3" style="stroke:#038048;stroke-width:1.0;"/><text fill="#000000" font-family="sans-serif" font-size="14" lengthAdjust="spacing" textLength="250" x="338" y="262.9707">calculateFine(lending: Lending): double</text><ellipse cx="329" cy="277.2949" fill="#84BE84" rx="3" ry="3" style="stroke:#038048;stroke-width:1.0;"/><text fill="#000000" font-family="sans-serif" font-size="14" lengthAdjust="spacing" textLength="324" x="338" y="281.5918">processReturn(lending: Lending, fine: double): void</text></g><!--class BookService--><g id="elem_BookService"><rect codeLine="21" fill="url(#gj197j1ouptm50)" height="81.8633" id="BookService" rx="2.5" ry="2.5" style="stroke:#181818;stroke-width:0.5;" width="348" x="724.5" y="197.6211"/><text fill="#000000" font-family="sans-serif" font-size="14" lengthAdjust="spacing" textLength="79" x="859" y="217.7285">BookService</text><line style="stroke:#181818;stroke-width:0.5;" x1="725.5" x2="1071.5" y1="226.2422" y2="226.2422"/><line style="stroke:#181818;stroke-width:0.5;" x1="725.5" x2="1071.5" y1="234.2422" y2="234.2422"/><ellipse cx="735.5" cy="249.0527" fill="#84BE84" rx="3" ry="3" style="stroke:#038048;stroke-width:1.0;"/><text fill="#000000" font-family="sans-serif" font-size="14" lengthAdjust="spacing" textLength="173" x="744.5" y="253.3496">getBook(isbn: String): Book</text><ellipse cx="735.5" cy="267.6738" fill="#84BE84" rx="3" ry="3" style="stroke:#038048;stroke-width:1.0;"/><text fill="#000000" font-family="sans-serif" font-size="14" lengthAdjust="spacing" textLength="322" x="744.5" y="271.9707">updateBookStatus(book: Book, status: String): void</text></g><!--class UserRepository--><g id="elem_UserRepository"><rect codeLine="26" fill="url(#gj197j1ouptm50)" height="63.2422" id="UserRepository" rx="2.5" ry="2.5" style="stroke:#181818;stroke-width:0.5;" width="249" x="7" y="377.1211"/><text fill="#000000" font-family="sans-serif" font-size="14" lengthAdjust="spacing" textLength="97" x="83" y="397.2285">UserRepository</text><line style="stroke:#181818;stroke-width:0.5;" x1="8" x2="255" y1="405.7422" y2="405.7422"/><line style="stroke:#181818;stroke-width:0.5;" x1="8" x2="255" y1="413.7422" y2="413.7422"/><ellipse cx="18" cy="428.5527" fill="#84BE84" rx="3" ry="3" style="stroke:#038048;stroke-width:1.0;"/><text fill="#000000" font-family="sans-serif" font-size="14" lengthAdjust="spacing" textLength="223" x="27" y="432.8496">findById(readerNumber: long): User</text></g><!--class LendingRepository--><g id="elem_LendingRepository"><rect codeLine="30" fill="url(#gj197j1ouptm50)" height="81.8633" id="LendingRepository" rx="2.5" ry="2.5" style="stroke:#181818;stroke-width:0.5;" width="443" x="291" y="367.6211"/><text fill="#000000" font-family="sans-serif" font-size="14" lengthAdjust="spacing" textLength="119" x="453" y="387.7285">LendingRepository</text><line style="stroke:#181818;stroke-width:0.5;" x1="292" x2="733" y1="396.2422" y2="396.2422"/><line style="stroke:#181818;stroke-width:0.5;" x1="292" x2="733" y1="404.2422" y2="404.2422"/><ellipse cx="302" cy="419.0527" fill="#84BE84" rx="3" ry="3" style="stroke:#038048;stroke-width:1.0;"/><text fill="#000000" font-family="sans-serif" font-size="14" lengthAdjust="spacing" textLength="417" x="311" y="423.3496">findByReaderAndBook(readerNumber: long, isbn: String): Lending</text><ellipse cx="302" cy="437.6738" fill="#84BE84" rx="3" ry="3" style="stroke:#038048;stroke-width:1.0;"/><text fill="#000000" font-family="sans-serif" font-size="14" lengthAdjust="spacing" textLength="179" x="311" y="441.9707">save(lending: Lending): void</text></g><!--class BookRepository--><g id="elem_BookRepository"><rect codeLine="35" fill="url(#gj197j1ouptm50)" height="81.8633" id="BookRepository" rx="2.5" ry="2.5" style="stroke:#181818;stroke-width:0.5;" width="197" x="800" y="367.6211"/><text fill="#000000" font-family="sans-serif" font-size="14" lengthAdjust="spacing" textLength="100" x="848.5" y="387.7285">BookRepository</text><line style="stroke:#181818;stroke-width:0.5;" x1="801" x2="996" y1="396.2422" y2="396.2422"/><line style="stroke:#181818;stroke-width:0.5;" x1="801" x2="996" y1="404.2422" y2="404.2422"/><ellipse cx="811" cy="419.0527" fill="#84BE84" rx="3" ry="3" style="stroke:#038048;stroke-width:1.0;"/><text fill="#000000" font-family="sans-serif" font-size="14" lengthAdjust="spacing" textLength="171" x="820" y="423.3496">findById(isbn: String): Book</text><ellipse cx="811" cy="437.6738" fill="#84BE84" rx="3" ry="3" style="stroke:#038048;stroke-width:1.0;"/><text fill="#000000" font-family="sans-serif" font-size="14" lengthAdjust="spacing" textLength="145" x="820" y="441.9707">save(book: Book): void</text></g><!--class Lending--><g id="elem_Lending"><rect codeLine="40" fill="url(#gj197j1ouptm50)" height="119.1055" id="Lending" rx="2.5" ry="2.5" style="stroke:#181818;stroke-width:0.5;" width="166" x="429.5" y="528.6211"/><text fill="#000000" font-family="sans-serif" font-size="14" lengthAdjust="spacing" textLength="51" x="487" y="548.7285">Lending</text><line style="stroke:#181818;stroke-width:0.5;" x1="430.5" x2="594.5" y1="557.2422" y2="557.2422"/><rect fill="none" height="6" style="stroke:#C82930;stroke-width:1.0;" width="6" x="437.5" y="569.0527"/><text fill="#000000" font-family="sans-serif" font-size="14" lengthAdjust="spacing" textLength="71" x="449.5" y="576.3496">book: Book</text><rect fill="none" height="6" style="stroke:#C82930;stroke-width:1.0;" width="6" x="437.5" y="587.6738"/><text fill="#000000" font-family="sans-serif" font-size="14" lengthAdjust="spacing" textLength="65" x="449.5" y="594.9707">user: User</text><rect fill="none" height="6" style="stroke:#C82930;stroke-width:1.0;" width="6" x="437.5" y="606.2949"/><text fill="#000000" font-family="sans-serif" font-size="14" lengthAdjust="spacing" textLength="130" x="449.5" y="613.5918">startDate: LocalDate</text><rect fill="none" height="6" style="stroke:#C82930;stroke-width:1.0;" width="6" x="437.5" y="624.916"/><text fill="#000000" font-family="sans-serif" font-size="14" lengthAdjust="spacing" textLength="140" x="449.5" y="632.2129">returnDate: LocalDate</text><line style="stroke:#181818;stroke-width:0.5;" x1="430.5" x2="594.5" y1="639.7266" y2="639.7266"/></g><!--class Book--><g id="elem_Book"><rect codeLine="47" fill="url(#gj197j1ouptm50)" height="100.4844" id="Book" rx="2.5" ry="2.5" style="stroke:#181818;stroke-width:0.5;" width="140" x="334.5" y="810.6211"/><text fill="#000000" font-family="sans-serif" font-size="14" lengthAdjust="spacing" textLength="32" x="388.5" y="830.7285">Book</text><line style="stroke:#181818;stroke-width:0.5;" x1="335.5" x2="473.5" y1="839.2422" y2="839.2422"/><rect fill="none" height="6" style="stroke:#C82930;stroke-width:1.0;" width="6" x="342.5" y="851.0527"/><text fill="#000000" font-family="sans-serif" font-size="14" lengthAdjust="spacing" textLength="71" x="354.5" y="858.3496">isbn: String</text><rect fill="none" height="6" style="stroke:#C82930;stroke-width:1.0;" width="6" x="342.5" y="869.6738"/><text fill="#000000" font-family="sans-serif" font-size="14" lengthAdjust="spacing" textLength="67" x="354.5" y="876.9707">title: String</text><rect fill="none" height="6" style="stroke:#C82930;stroke-width:1.0;" width="6" x="342.5" y="888.2949"/><text fill="#000000" font-family="sans-serif" font-size="14" lengthAdjust="spacing" textLength="114" x="354.5" y="895.5918">description: String</text><line style="stroke:#181818;stroke-width:0.5;" x1="335.5" x2="473.5" y1="903.1055" y2="903.1055"/></g><!--class User--><g id="elem_User"><rect codeLine="53" fill="url(#gj197j1ouptm50)" height="268.0742" id="User" rx="2.5" ry="2.5" style="stroke:#181818;stroke-width:0.5;" width="222" x="509.5" y="726.6211"/><text fill="#000000" font-family="sans-serif" font-size="14" lengthAdjust="spacing" textLength="29" x="606" y="746.7285">User</text><line style="stroke:#181818;stroke-width:0.5;" x1="510.5" x2="730.5" y1="755.2422" y2="755.2422"/><rect fill="none" height="6" style="stroke:#C82930;stroke-width:1.0;" width="6" x="517.5" y="767.0527"/><text fill="#000000" font-family="sans-serif" font-size="14" lengthAdjust="spacing" textLength="126" x="529.5" y="774.3496">readerNumber: long</text><rect fill="none" height="6" style="stroke:#C82930;stroke-width:1.0;" width="6" x="517.5" y="785.6738"/><text fill="#000000" font-family="sans-serif" font-size="14" lengthAdjust="spacing" textLength="108" x="529.5" y="792.9707">username: String</text><rect fill="none" height="6" style="stroke:#C82930;stroke-width:1.0;" width="6" x="517.5" y="804.2949"/><text fill="#000000" font-family="sans-serif" font-size="14" lengthAdjust="spacing" textLength="105" x="529.5" y="811.5918">password: String</text><rect fill="none" height="6" style="stroke:#C82930;stroke-width:1.0;" width="6" x="517.5" y="822.916"/><text fill="#000000" font-family="sans-serif" font-size="14" lengthAdjust="spacing" textLength="80" x="529.5" y="830.2129">name: String</text><rect fill="none" height="6" style="stroke:#C82930;stroke-width:1.0;" width="6" x="517.5" y="841.5371"/><text fill="#000000" font-family="sans-serif" font-size="14" lengthAdjust="spacing" textLength="110" x="529.5" y="848.834">enabled: boolean</text><rect fill="none" height="6" style="stroke:#C82930;stroke-width:1.0;" width="6" x="517.5" y="860.1582"/><text fill="#000000" font-family="sans-serif" font-size="14" lengthAdjust="spacing" textLength="144" x="529.5" y="867.4551">dateOfBirth: LocalDate</text><rect fill="none" height="6" style="stroke:#C82930;stroke-width:1.0;" width="6" x="517.5" y="878.7793"/><text fill="#000000" font-family="sans-serif" font-size="14" lengthAdjust="spacing" textLength="134" x="529.5" y="886.0762">phoneNumber: String</text><rect fill="none" height="6" style="stroke:#C82930;stroke-width:1.0;" width="6" x="517.5" y="897.4004"/><text fill="#000000" font-family="sans-serif" font-size="14" lengthAdjust="spacing" textLength="88" x="529.5" y="904.6973">gdpr: boolean</text><rect fill="none" height="6" style="stroke:#C82930;stroke-width:1.0;" width="6" x="517.5" y="916.0215"/><text fill="#000000" font-family="sans-serif" font-size="14" lengthAdjust="spacing" textLength="196" x="529.5" y="923.3184">authorities: Set&lt;AuthorityRole&gt;</text><rect fill="none" height="6" style="stroke:#C82930;stroke-width:1.0;" width="6" x="517.5" y="934.6426"/><text fill="#000000" font-family="sans-serif" font-size="14" lengthAdjust="spacing" textLength="116" x="529.5" y="941.9395">books: List&lt;Book&gt;</text><rect fill="none" height="6" style="stroke:#C82930;stroke-width:1.0;" width="6" x="517.5" y="953.2637"/><text fill="#000000" font-family="sans-serif" font-size="14" lengthAdjust="spacing" textLength="130" x="529.5" y="960.5605">genres: List&lt;Genre&gt;</text><rect fill="none" height="6" style="stroke:#C82930;stroke-width:1.0;" width="6" x="517.5" y="971.8848"/><text fill="#000000" font-family="sans-serif" font-size="14" lengthAdjust="spacing" textLength="69" x="529.5" y="979.1816">role: String</text><line style="stroke:#181818;stroke-width:0.5;" x1="510.5" x2="730.5" y1="986.6953" y2="986.6953"/></g><!--link LendingController to UserService--><g id="link_LendingController_UserService"><path codeLine="68" d="M435.25,109.6811 C372.66,137.7011 285.9359,176.5287 223.3259,204.5687 " fill="none" id="LendingController-to-UserService" style="stroke:#181818;stroke-width:1.0;"/><polygon fill="#181818" points="217.85,207.0211,227.6988,206.9931,222.4133,204.9774,224.4289,199.6919,217.85,207.0211" style="stroke:#181818;stroke-width:1.0;"/><text fill="#000000" font-family="sans-serif" font-size="13" lengthAdjust="spacing" textLength="28" x="359.5" y="154.6494">uses</text></g><!--link LendingController to LendingService--><g id="link_LendingController_LendingService"><path codeLine="69" d="M503.5,109.6811 C503.5,131.9911 503.5,156.7011 503.5,182.4511 " fill="none" id="LendingController-to-LendingService" style="stroke:#181818;stroke-width:1.0;"/><polygon fill="#181818" points="503.5,188.4511,507.5,179.4511,503.5,183.4511,499.5,179.4511,503.5,188.4511" style="stroke:#181818;stroke-width:1.0;"/><text fill="#000000" font-family="sans-serif" font-size="13" lengthAdjust="spacing" textLength="28" x="504.5" y="154.6494">uses</text></g><!--link LendingController to BookService--><g id="link_LendingController_BookService"><path codeLine="70" d="M579.66,109.6811 C641.98,134.6911 725.0617,168.0264 793.0617,195.3164 " fill="none" id="LendingController-to-BookService" style="stroke:#181818;stroke-width:1.0;"/><polygon fill="#181818" points="798.63,197.5511,791.7673,190.4868,793.9897,195.6888,788.7877,197.9113,798.63,197.5511" style="stroke:#181818;stroke-width:1.0;"/><text fill="#000000" font-family="sans-serif" font-size="13" lengthAdjust="spacing" textLength="28" x="702.5" y="154.6494">uses</text></g><!--link UserService to UserRepository--><g id="link_UserService_UserRepository"><path codeLine="71" d="M146.2,270.4311 C142.95,300.7511 138.6592,340.7952 135.4192,371.0352 " fill="none" id="UserService-to-UserRepository" style="stroke:#181818;stroke-width:1.0;"/><polygon fill="#181818" points="134.78,377.0011,139.716,368.4784,135.3127,372.0295,131.7616,367.6262,134.78,377.0011" style="stroke:#181818;stroke-width:1.0;"/><text fill="#000000" font-family="sans-serif" font-size="13" lengthAdjust="spacing" textLength="28" x="141.5" y="333.6494">uses</text></g><!--link LendingService to LendingRepository--><g id="link_LendingService_LendingRepository"><path codeLine="72" d="M506.13,288.6611 C507.47,313.7511 508.7711,337.8996 510.0311,361.5696 " fill="none" id="LendingService-to-LendingRepository" style="stroke:#181818;stroke-width:1.0;"/><polygon fill="#181818" points="510.35,367.5611,513.8659,358.3612,510.0842,362.5682,505.8772,358.7864,510.35,367.5611" style="stroke:#181818;stroke-width:1.0;"/><text fill="#000000" font-family="sans-serif" font-size="13" lengthAdjust="spacing" textLength="28" x="510.5" y="333.6494">uses</text></g><!--link BookService to BookRepository--><g id="link_BookService_BookRepository"><path codeLine="73" d="M898.5,279.8611 C898.5,306.3611 898.5,334.9211 898.5,361.4211 " fill="none" id="BookService-to-BookRepository" style="stroke:#181818;stroke-width:1.0;"/><polygon fill="#181818" points="898.5,367.4211,902.5,358.4211,898.5,362.4211,894.5,358.4211,898.5,367.4211" style="stroke:#181818;stroke-width:1.0;"/><text fill="#000000" font-family="sans-serif" font-size="13" lengthAdjust="spacing" textLength="28" x="899.5" y="333.6494">uses</text></g><!--link Lending to Book--><g id="link_Lending_Book"><path codeLine="74" d="M489.07,647.8111 C469.65,696.4511 444.5958,759.2092 426.3158,804.9692 " fill="none" id="Lending-to-Book" style="stroke:#181818;stroke-width:1.0;"/><polygon fill="#181818" points="424.09,810.5411,431.1433,803.6672,425.9449,805.8979,423.7142,800.6994,424.09,810.5411" style="stroke:#181818;stroke-width:1.0;"/><text fill="#000000" font-family="sans-serif" font-size="13" lengthAdjust="spacing" textLength="49" x="475.5" y="692.6494">contains</text><text fill="#000000" font-family="sans-serif" font-size="13" lengthAdjust="spacing" textLength="7" x="478.9562" y="669.7346">1</text><text fill="#000000" font-family="sans-serif" font-size="13" lengthAdjust="spacing" textLength="7" x="419.3527" y="799.318">1</text></g><!--link Lending to User--><g id="link_Lending_User"><path codeLine="75" d="M535.93,647.8111 C545.21,671.0411 554.0558,693.1986 565.0758,720.8086 " fill="none" id="Lending-to-User" style="stroke:#181818;stroke-width:1.0;"/><polygon fill="#181818" points="567.3,726.3811,567.6788,716.5395,565.4465,721.7373,560.2487,719.5051,567.3,726.3811" style="stroke:#181818;stroke-width:1.0;"/><text fill="#000000" font-family="sans-serif" font-size="13" lengthAdjust="spacing" textLength="49" x="555.5" y="692.6494">contains</text><text fill="#000000" font-family="sans-serif" font-size="13" lengthAdjust="spacing" textLength="7" x="531.2344" y="669.7346">1</text><text fill="#000000" font-family="sans-serif" font-size="13" lengthAdjust="spacing" textLength="7" x="557.022" y="715.1635">1</text></g><!--link LendingRepository to Lending--><g id="link_LendingRepository_Lending"><path codeLine="76" d="M512.5,449.9011 C512.5,473.1211 512.5,496.7211 512.5,522.4811 " fill="none" id="LendingRepository-to-Lending" style="stroke:#181818;stroke-width:1.0;"/><polygon fill="#181818" points="512.5,528.4811,516.5,519.4811,512.5,523.4811,508.5,519.4811,512.5,528.4811" style="stroke:#181818;stroke-width:1.0;"/><text fill="#000000" font-family="sans-serif" font-size="13" lengthAdjust="spacing" textLength="43" x="513.5" y="494.6494">records</text><text fill="#000000" font-family="sans-serif" font-size="13" lengthAdjust="spacing" textLength="7" x="504.9641" y="471.5847">1</text><text fill="#000000" font-family="sans-serif" font-size="13" lengthAdjust="spacing" textLength="20" x="491.2813" y="517.2162">0..*</text></g><!--SRC=[bLJRZjem47tFLrZRXz8Mo6vf-n0Xf0qiLQLLjuBo0IQU3LQ37TaE5Qhwxpjs7CW54F22CtDyPkQCPzvlZCbr58RBOgqJnNF3fLY2sl44JB7DXedSXab6jHumJbD5jq6muGn8mbMIGH0ORZ8Wg-N3DpArC38hOMH05iYW18cb_1C4ZeCyWs1Sf5CfZ99P1egy6yLVHvz7ytaOtq-_p9xcS_8l8FZxzEjb-Pk4MNaZL8xCSlKKK0RgPx5TWuf89aNQ9rolHKIMHY7sGuIXTIw5XYU1-Ut7fNqI_A_oM6bGlieB6QHWBF14G0nXFKT2NzXLd1vxJHqUMbvDQ9OK6JKmvm9wNfW31j5C5cliYGFdIYQWTTc33hXFNf6Zke5NTvApOpLMvgjASVrevUpwxG15pZ1RHsQeANHlZSSIq2VQcMhtcYbOUHUGIysDLFiBMM0XBDx_O3TqwGRUXIDznEELBw_HCKrt9nlLLVksKiygxW8ULUw4yYcSZp4WnzlUK6XRh1EoD63db9bXPx4aYO_I7hshdDAshr7ffTZrkhp9xPUMZS5XLHqyZOTpAKQtXxKw1TssW-L8-bSgrZAVG8AWE4m8H0apeABA5YLuUOsvCfkkOFb62gYIQR2bB5TjAbgOZLJSSB230sRyw0tx1S8cjGwY_vbhCxQAL_OKX8BAyTr-L1xSnL1Nihkc1uD9VMb6LYrz1jVSXHUXjKNZSVNDN0Kz3aUJh8xhZBQ7rbTP5V4S7xbxk7CW-n-xEKWmNyh5QSZAJKORKXlb0_X-EFnuL-KOuHjCy4Nfu0q0]--></g></svg>