<?xml version="1.0" encoding="us-ascii" standalone="no"?><svg xmlns="http://www.w3.org/2000/svg" xmlns:xlink="http://www.w3.org/1999/xlink" contentStyleType="text/css" height="1021px" preserveAspectRatio="none" style="width:1330px;height:1021px;background:#FFFFFF;" version="1.1" viewBox="0 0 1330 1021" width="1330px" zoomAndPan="magnify"><defs><linearGradient id="g14ttkf08x8k900" x1="0%" x2="100%" y1="0%" y2="100%"><stop offset="0%" stop-color="#3B5323"/><stop offset="100%" stop-color="#B0C4DE"/></linearGradient></defs><g><text fill="#000000" font-family="sans-serif" font-size="14" font-weight="bold" lengthAdjust="spacing" textLength="272" x="528" y="30.1074">US16 Sequence Diagram - Return Book</text><rect fill="#FFFFFF" height="796.2754" style="stroke:#181818;stroke-width:1.0;" width="10" x="26.5" y="133.2422"/><rect fill="#FFFFFF" height="763.9844" style="stroke:#181818;stroke-width:1.0;" width="10" x="351.5" y="156.5332"/><rect fill="#FFFFFF" height="93.873" style="stroke:#181818;stroke-width:1.0;" width="10" x="530.5" y="187.8242"/><rect fill="#FFFFFF" height="93.873" style="stroke:#181818;stroke-width:1.0;" width="10" x="641.5" y="438.1523"/><rect fill="#FFFFFF" height="366.2012" style="stroke:#181818;stroke-width:1.0;" width="10" x="641.5" y="563.3164"/><rect fill="#FFFFFF" height="36.291" style="stroke:#181818;stroke-width:1.0;" width="10" x="646.5" y="602.6074"/><rect fill="#FFFFFF" height="93.873" style="stroke:#181818;stroke-width:1.0;" width="10" x="646.5" y="670.1895"/><rect fill="#FFFFFF" height="93.873" style="stroke:#181818;stroke-width:1.0;" width="10" x="809.5" y="312.9883"/><rect fill="#FFFFFF" height="93.873" style="stroke:#181818;stroke-width:1.0;" width="10" x="809.5" y="795.3535"/><rect fill="#FFFFFF" height="31.291" style="stroke:#181818;stroke-width:1.0;" width="10" x="921.5" y="219.1152"/><rect fill="#FFFFFF" height="31.291" style="stroke:#181818;stroke-width:1.0;" width="10" x="1053.5" y="469.4434"/><rect fill="#FFFFFF" height="31.291" style="stroke:#181818;stroke-width:1.0;" width="10" x="1053.5" y="701.4805"/><rect fill="#FFFFFF" height="31.291" style="stroke:#181818;stroke-width:1.0;" width="10" x="1187" y="344.2793"/><rect fill="#FFFFFF" height="31.291" style="stroke:#181818;stroke-width:1.0;" width="10" x="1187" y="826.6445"/><line style="stroke:#181818;stroke-width:0.5;stroke-dasharray:5.0,5.0;" x1="31" x2="31" y1="123.2422" y2="938.5176"/><line style="stroke:#181818;stroke-width:0.5;stroke-dasharray:5.0,5.0;" x1="356" x2="356" y1="123.2422" y2="938.5176"/><line style="stroke:#181818;stroke-width:0.5;stroke-dasharray:5.0,5.0;" x1="535.5" x2="535.5" y1="123.2422" y2="938.5176"/><line style="stroke:#181818;stroke-width:0.5;stroke-dasharray:5.0,5.0;" x1="646.5" x2="646.5" y1="123.2422" y2="938.5176"/><line style="stroke:#181818;stroke-width:0.5;stroke-dasharray:5.0,5.0;" x1="814" x2="814" y1="123.2422" y2="938.5176"/><line style="stroke:#181818;stroke-width:0.5;stroke-dasharray:5.0,5.0;" x1="926" x2="926" y1="123.2422" y2="938.5176"/><line style="stroke:#181818;stroke-width:0.5;stroke-dasharray:5.0,5.0;" x1="1058" x2="1058" y1="123.2422" y2="938.5176"/><line style="stroke:#181818;stroke-width:0.5;stroke-dasharray:5.0,5.0;" x1="1192" x2="1192" y1="123.2422" y2="938.5176"/><line style="stroke:#181818;stroke-width:0.5;stroke-dasharray:5.0,5.0;" x1="1291" x2="1291" y1="123.2422" y2="938.5176"/><text fill="#000000" font-family="sans-serif" font-size="14" lengthAdjust="spacing" textLength="47" x="5" y="119.7285">Reader</text><ellipse cx="31.5" cy="53.1211" fill="url(#g14ttkf08x8k900)" rx="8" ry="8" style="stroke:#181818;stroke-width:0.5;"/><path d="M31.5,61.1211 L31.5,88.1211 M18.5,69.1211 L44.5,69.1211 M31.5,88.1211 L18.5,103.1211 M31.5,88.1211 L44.5,103.1211 " fill="none" style="stroke:#181818;stroke-width:0.5;"/><text fill="#000000" font-family="sans-serif" font-size="14" lengthAdjust="spacing" textLength="47" x="5" y="952.625">Reader</text><ellipse cx="31.5" cy="964.6387" fill="url(#g14ttkf08x8k900)" rx="8" ry="8" style="stroke:#181818;stroke-width:0.5;"/><path d="M31.5,972.6387 L31.5,999.6387 M18.5,980.6387 L44.5,980.6387 M31.5,999.6387 L18.5,1014.6387 M31.5,999.6387 L44.5,1014.6387 " fill="none" style="stroke:#181818;stroke-width:0.5;"/><rect fill="url(#g14ttkf08x8k900)" height="32.6211" rx="2.5" ry="2.5" style="stroke:#181818;stroke-width:0.5;" width="127" x="293" y="89.6211"/><text fill="#000000" font-family="sans-serif" font-size="14" lengthAdjust="spacing" textLength="113" x="300" y="111.7285">LendingController</text><rect fill="url(#g14ttkf08x8k900)" height="32.6211" rx="2.5" ry="2.5" style="stroke:#181818;stroke-width:0.5;" width="127" x="293" y="937.5176"/><text fill="#000000" font-family="sans-serif" font-size="14" lengthAdjust="spacing" textLength="113" x="300" y="959.625">LendingController</text><rect fill="url(#g14ttkf08x8k900)" height="32.6211" rx="2.5" ry="2.5" style="stroke:#181818;stroke-width:0.5;" width="90" x="490.5" y="89.6211"/><text fill="#000000" font-family="sans-serif" font-size="14" lengthAdjust="spacing" textLength="76" x="497.5" y="111.7285">UserService</text><rect fill="url(#g14ttkf08x8k900)" height="32.6211" rx="2.5" ry="2.5" style="stroke:#181818;stroke-width:0.5;" width="90" x="490.5" y="937.5176"/><text fill="#000000" font-family="sans-serif" font-size="14" lengthAdjust="spacing" textLength="76" x="497.5" y="959.625">UserService</text><rect fill="url(#g14ttkf08x8k900)" height="32.6211" rx="2.5" ry="2.5" style="stroke:#181818;stroke-width:0.5;" width="112" x="590.5" y="89.6211"/><text fill="#000000" font-family="sans-serif" font-size="14" lengthAdjust="spacing" textLength="98" x="597.5" y="111.7285">LendingService</text><rect fill="url(#g14ttkf08x8k900)" height="32.6211" rx="2.5" ry="2.5" style="stroke:#181818;stroke-width:0.5;" width="112" x="590.5" y="937.5176"/><text fill="#000000" font-family="sans-serif" font-size="14" lengthAdjust="spacing" textLength="98" x="597.5" y="959.625">LendingService</text><rect fill="url(#g14ttkf08x8k900)" height="32.6211" rx="2.5" ry="2.5" style="stroke:#181818;stroke-width:0.5;" width="93" x="768" y="89.6211"/><text fill="#000000" font-family="sans-serif" font-size="14" lengthAdjust="spacing" textLength="79" x="775" y="111.7285">BookService</text><rect fill="url(#g14ttkf08x8k900)" height="32.6211" rx="2.5" ry="2.5" style="stroke:#181818;stroke-width:0.5;" width="93" x="768" y="937.5176"/><text fill="#000000" font-family="sans-serif" font-size="14" lengthAdjust="spacing" textLength="79" x="775" y="959.625">BookService</text><rect fill="url(#g14ttkf08x8k900)" height="32.6211" rx="2.5" ry="2.5" style="stroke:#181818;stroke-width:0.5;" width="111" x="871" y="89.6211"/><text fill="#000000" font-family="sans-serif" font-size="14" lengthAdjust="spacing" textLength="97" x="878" y="111.7285">UserRepository</text><rect fill="url(#g14ttkf08x8k900)" height="32.6211" rx="2.5" ry="2.5" style="stroke:#181818;stroke-width:0.5;" width="111" x="871" y="937.5176"/><text fill="#000000" font-family="sans-serif" font-size="14" lengthAdjust="spacing" textLength="97" x="878" y="959.625">UserRepository</text><rect fill="url(#g14ttkf08x8k900)" height="32.6211" rx="2.5" ry="2.5" style="stroke:#181818;stroke-width:0.5;" width="133" x="992" y="89.6211"/><text fill="#000000" font-family="sans-serif" font-size="14" lengthAdjust="spacing" textLength="119" x="999" y="111.7285">LendingRepository</text><rect fill="url(#g14ttkf08x8k900)" height="32.6211" rx="2.5" ry="2.5" style="stroke:#181818;stroke-width:0.5;" width="133" x="992" y="937.5176"/><text fill="#000000" font-family="sans-serif" font-size="14" lengthAdjust="spacing" textLength="119" x="999" y="959.625">LendingRepository</text><rect fill="url(#g14ttkf08x8k900)" height="32.6211" rx="2.5" ry="2.5" style="stroke:#181818;stroke-width:0.5;" width="114" x="1135" y="89.6211"/><text fill="#000000" font-family="sans-serif" font-size="14" lengthAdjust="spacing" textLength="100" x="1142" y="111.7285">BookRepository</text><rect fill="url(#g14ttkf08x8k900)" height="32.6211" rx="2.5" ry="2.5" style="stroke:#181818;stroke-width:0.5;" width="114" x="1135" y="937.5176"/><text fill="#000000" font-family="sans-serif" font-size="14" lengthAdjust="spacing" textLength="100" x="1142" y="959.625">BookRepository</text><rect fill="url(#g14ttkf08x8k900)" height="32.6211" rx="2.5" ry="2.5" style="stroke:#181818;stroke-width:0.5;" width="65" x="1259" y="89.6211"/><text fill="#000000" font-family="sans-serif" font-size="14" lengthAdjust="spacing" textLength="51" x="1266" y="111.7285">Lending</text><rect fill="url(#g14ttkf08x8k900)" height="32.6211" rx="2.5" ry="2.5" style="stroke:#181818;stroke-width:0.5;" width="65" x="1259" y="937.5176"/><text fill="#000000" font-family="sans-serif" font-size="14" lengthAdjust="spacing" textLength="51" x="1266" y="959.625">Lending</text><rect fill="#FFFFFF" height="796.2754" style="stroke:#181818;stroke-width:1.0;" width="10" x="26.5" y="133.2422"/><rect fill="#FFFFFF" height="763.9844" style="stroke:#181818;stroke-width:1.0;" width="10" x="351.5" y="156.5332"/><rect fill="#FFFFFF" height="93.873" style="stroke:#181818;stroke-width:1.0;" width="10" x="530.5" y="187.8242"/><rect fill="#FFFFFF" height="93.873" style="stroke:#181818;stroke-width:1.0;" width="10" x="641.5" y="438.1523"/><rect fill="#FFFFFF" height="366.2012" style="stroke:#181818;stroke-width:1.0;" width="10" x="641.5" y="563.3164"/><rect fill="#FFFFFF" height="36.291" style="stroke:#181818;stroke-width:1.0;" width="10" x="646.5" y="602.6074"/><rect fill="#FFFFFF" height="93.873" style="stroke:#181818;stroke-width:1.0;" width="10" x="646.5" y="670.1895"/><rect fill="#FFFFFF" height="93.873" style="stroke:#181818;stroke-width:1.0;" width="10" x="809.5" y="312.9883"/><rect fill="#FFFFFF" height="93.873" style="stroke:#181818;stroke-width:1.0;" width="10" x="809.5" y="795.3535"/><rect fill="#FFFFFF" height="31.291" style="stroke:#181818;stroke-width:1.0;" width="10" x="921.5" y="219.1152"/><rect fill="#FFFFFF" height="31.291" style="stroke:#181818;stroke-width:1.0;" width="10" x="1053.5" y="469.4434"/><rect fill="#FFFFFF" height="31.291" style="stroke:#181818;stroke-width:1.0;" width="10" x="1053.5" y="701.4805"/><rect fill="#FFFFFF" height="31.291" style="stroke:#181818;stroke-width:1.0;" width="10" x="1187" y="344.2793"/><rect fill="#FFFFFF" height="31.291" style="stroke:#181818;stroke-width:1.0;" width="10" x="1187" y="826.6445"/><polygon fill="#181818" points="339.5,152.5332,349.5,156.5332,339.5,160.5332,343.5,156.5332" style="stroke:#181818;stroke-width:1.0;"/><line style="stroke:#181818;stroke-width:1.0;" x1="36.5" x2="345.5" y1="156.5332" y2="156.5332"/><text fill="#000000" font-family="sans-serif" font-size="13" font-weight="bold" lengthAdjust="spacing" textLength="7" x="43.5" y="151.2705">1</text><text fill="#000000" font-family="sans-serif" font-size="13" lengthAdjust="spacing" textLength="285" x="54.5" y="151.2705">POST /lending/returnBook/{reader_number}/{isbn}</text><polygon fill="#181818" points="518.5,183.8242,528.5,187.8242,518.5,191.8242,522.5,187.8242" style="stroke:#181818;stroke-width:1.0;"/><line style="stroke:#181818;stroke-width:1.0;" x1="361.5" x2="524.5" y1="187.8242" y2="187.8242"/><text fill="#000000" font-family="sans-serif" font-size="13" font-weight="bold" lengthAdjust="spacing" textLength="7" x="368.5" y="182.5615">2</text><text fill="#000000" font-family="sans-serif" font-size="13" lengthAdjust="spacing" textLength="139" x="379.5" y="182.5615">getUser(reader_number)</text><polygon fill="#181818" points="909.5,215.1152,919.5,219.1152,909.5,223.1152,913.5,219.1152" style="stroke:#181818;stroke-width:1.0;"/><line style="stroke:#181818;stroke-width:1.0;" x1="540.5" x2="915.5" y1="219.1152" y2="219.1152"/><text fill="#000000" font-family="sans-serif" font-size="13" font-weight="bold" lengthAdjust="spacing" textLength="7" x="547.5" y="213.8525">3</text><text fill="#000000" font-family="sans-serif" font-size="13" lengthAdjust="spacing" textLength="140" x="558.5" y="213.8525">findById(reader_number)</text><polygon fill="#181818" points="551.5,246.4063,541.5,250.4063,551.5,254.4063,547.5,250.4063" style="stroke:#181818;stroke-width:1.0;"/><line style="stroke:#181818;stroke-width:1.0;stroke-dasharray:2.0,2.0;" x1="545.5" x2="925.5" y1="250.4063" y2="250.4063"/><text fill="#000000" font-family="sans-serif" font-size="13" font-weight="bold" lengthAdjust="spacing" textLength="7" x="557.5" y="245.1436">4</text><text fill="#000000" font-family="sans-serif" font-size="13" lengthAdjust="spacing" textLength="25" x="568.5" y="245.1436">user</text><polygon fill="#181818" points="372.5,277.6973,362.5,281.6973,372.5,285.6973,368.5,281.6973" style="stroke:#181818;stroke-width:1.0;"/><line style="stroke:#181818;stroke-width:1.0;stroke-dasharray:2.0,2.0;" x1="366.5" x2="534.5" y1="281.6973" y2="281.6973"/><text fill="#000000" font-family="sans-serif" font-size="13" font-weight="bold" lengthAdjust="spacing" textLength="7" x="378.5" y="276.4346">5</text><text fill="#000000" font-family="sans-serif" font-size="13" lengthAdjust="spacing" textLength="25" x="389.5" y="276.4346">user</text><polygon fill="#181818" points="797.5,308.9883,807.5,312.9883,797.5,316.9883,801.5,312.9883" style="stroke:#181818;stroke-width:1.0;"/><line style="stroke:#181818;stroke-width:1.0;" x1="361.5" x2="803.5" y1="312.9883" y2="312.9883"/><text fill="#000000" font-family="sans-serif" font-size="13" font-weight="bold" lengthAdjust="spacing" textLength="7" x="368.5" y="307.7256">6</text><text fill="#000000" font-family="sans-serif" font-size="13" lengthAdjust="spacing" textLength="80" x="379.5" y="307.7256">getBook(isbn)</text><polygon fill="#181818" points="1175,340.2793,1185,344.2793,1175,348.2793,1179,344.2793" style="stroke:#181818;stroke-width:1.0;"/><line style="stroke:#181818;stroke-width:1.0;" x1="819.5" x2="1181" y1="344.2793" y2="344.2793"/><text fill="#000000" font-family="sans-serif" font-size="13" font-weight="bold" lengthAdjust="spacing" textLength="7" x="826.5" y="339.0166">7</text><text fill="#000000" font-family="sans-serif" font-size="13" lengthAdjust="spacing" textLength="78" x="837.5" y="339.0166">findById(isbn)</text><polygon fill="#181818" points="830.5,371.5703,820.5,375.5703,830.5,379.5703,826.5,375.5703" style="stroke:#181818;stroke-width:1.0;"/><line style="stroke:#181818;stroke-width:1.0;stroke-dasharray:2.0,2.0;" x1="824.5" x2="1191" y1="375.5703" y2="375.5703"/><text fill="#000000" font-family="sans-serif" font-size="13" font-weight="bold" lengthAdjust="spacing" textLength="7" x="836.5" y="370.3076">8</text><text fill="#000000" font-family="sans-serif" font-size="13" lengthAdjust="spacing" textLength="28" x="847.5" y="370.3076">book</text><polygon fill="#181818" points="372.5,402.8613,362.5,406.8613,372.5,410.8613,368.5,406.8613" style="stroke:#181818;stroke-width:1.0;"/><line style="stroke:#181818;stroke-width:1.0;stroke-dasharray:2.0,2.0;" x1="366.5" x2="813.5" y1="406.8613" y2="406.8613"/><text fill="#000000" font-family="sans-serif" font-size="13" font-weight="bold" lengthAdjust="spacing" textLength="7" x="378.5" y="401.5986">9</text><text fill="#000000" font-family="sans-serif" font-size="13" lengthAdjust="spacing" textLength="28" x="389.5" y="401.5986">book</text><polygon fill="#181818" points="629.5,434.1523,639.5,438.1523,629.5,442.1523,633.5,438.1523" style="stroke:#181818;stroke-width:1.0;"/><line style="stroke:#181818;stroke-width:1.0;" x1="361.5" x2="635.5" y1="438.1523" y2="438.1523"/><text fill="#000000" font-family="sans-serif" font-size="13" font-weight="bold" lengthAdjust="spacing" textLength="14" x="368.5" y="432.8896">10</text><text fill="#000000" font-family="sans-serif" font-size="13" lengthAdjust="spacing" textLength="189" x="386.5" y="432.8896">getLending(reader_number, isbn)</text><polygon fill="#181818" points="1041.5,465.4434,1051.5,469.4434,1041.5,473.4434,1045.5,469.4434" style="stroke:#181818;stroke-width:1.0;"/><line style="stroke:#181818;stroke-width:1.0;" x1="651.5" x2="1047.5" y1="469.4434" y2="469.4434"/><text fill="#000000" font-family="sans-serif" font-size="13" font-weight="bold" lengthAdjust="spacing" textLength="14" x="658.5" y="464.1807">11</text><text fill="#000000" font-family="sans-serif" font-size="13" lengthAdjust="spacing" textLength="256" x="676.5" y="464.1807">findByReaderAndBook(reader_number, isbn)</text><polygon fill="#181818" points="662.5,496.7344,652.5,500.7344,662.5,504.7344,658.5,500.7344" style="stroke:#181818;stroke-width:1.0;"/><line style="stroke:#181818;stroke-width:1.0;stroke-dasharray:2.0,2.0;" x1="656.5" x2="1057.5" y1="500.7344" y2="500.7344"/><text fill="#000000" font-family="sans-serif" font-size="13" font-weight="bold" lengthAdjust="spacing" textLength="14" x="668.5" y="495.4717">12</text><text fill="#000000" font-family="sans-serif" font-size="13" lengthAdjust="spacing" textLength="41" x="686.5" y="495.4717">lending</text><polygon fill="#181818" points="372.5,528.0254,362.5,532.0254,372.5,536.0254,368.5,532.0254" style="stroke:#181818;stroke-width:1.0;"/><line style="stroke:#181818;stroke-width:1.0;stroke-dasharray:2.0,2.0;" x1="366.5" x2="645.5" y1="532.0254" y2="532.0254"/><text fill="#000000" font-family="sans-serif" font-size="13" font-weight="bold" lengthAdjust="spacing" textLength="14" x="378.5" y="526.7627">13</text><text fill="#000000" font-family="sans-serif" font-size="13" lengthAdjust="spacing" textLength="41" x="396.5" y="526.7627">lending</text><polygon fill="#181818" points="629.5,559.3164,639.5,563.3164,629.5,567.3164,633.5,563.3164" style="stroke:#181818;stroke-width:1.0;"/><line style="stroke:#181818;stroke-width:1.0;" x1="361.5" x2="635.5" y1="563.3164" y2="563.3164"/><text fill="#000000" font-family="sans-serif" font-size="13" font-weight="bold" lengthAdjust="spacing" textLength="14" x="368.5" y="558.0537">14</text><text fill="#000000" font-family="sans-serif" font-size="13" lengthAdjust="spacing" textLength="126" x="386.5" y="558.0537">calculateFine(lending)</text><line style="stroke:#181818;stroke-width:1.0;" x1="651.5" x2="698.5" y1="589.6074" y2="589.6074"/><line style="stroke:#181818;stroke-width:1.0;" x1="698.5" x2="698.5" y1="589.6074" y2="602.6074"/><line style="stroke:#181818;stroke-width:1.0;" x1="657.5" x2="698.5" y1="602.6074" y2="602.6074"/><polygon fill="#181818" points="667.5,598.6074,657.5,602.6074,667.5,606.6074,663.5,602.6074" style="stroke:#181818;stroke-width:1.0;"/><text fill="#000000" font-family="sans-serif" font-size="13" font-weight="bold" lengthAdjust="spacing" textLength="14" x="663.5" y="584.3447">15</text><text fill="#000000" font-family="sans-serif" font-size="13" lengthAdjust="spacing" textLength="126" x="681.5" y="584.3447">calculateFine(lending)</text><polygon fill="#181818" points="372.5,634.8984,362.5,638.8984,372.5,642.8984,368.5,638.8984" style="stroke:#181818;stroke-width:1.0;"/><line style="stroke:#181818;stroke-width:1.0;stroke-dasharray:2.0,2.0;" x1="366.5" x2="640.5" y1="638.8984" y2="638.8984"/><text fill="#000000" font-family="sans-serif" font-size="13" font-weight="bold" lengthAdjust="spacing" textLength="14" x="378.5" y="633.6357">16</text><text fill="#000000" font-family="sans-serif" font-size="13" lengthAdjust="spacing" textLength="20" x="396.5" y="633.6357">fine</text><polygon fill="#181818" points="634.5,666.1895,644.5,670.1895,634.5,674.1895,638.5,670.1895" style="stroke:#181818;stroke-width:1.0;"/><line style="stroke:#181818;stroke-width:1.0;" x1="361.5" x2="640.5" y1="670.1895" y2="670.1895"/><text fill="#000000" font-family="sans-serif" font-size="13" font-weight="bold" lengthAdjust="spacing" textLength="14" x="368.5" y="664.9268">17</text><text fill="#000000" font-family="sans-serif" font-size="13" lengthAdjust="spacing" textLength="161" x="386.5" y="664.9268">processReturn(lending, fine)</text><polygon fill="#181818" points="1041.5,697.4805,1051.5,701.4805,1041.5,705.4805,1045.5,701.4805" style="stroke:#181818;stroke-width:1.0;"/><line style="stroke:#181818;stroke-width:1.0;" x1="656.5" x2="1047.5" y1="701.4805" y2="701.4805"/><text fill="#000000" font-family="sans-serif" font-size="13" font-weight="bold" lengthAdjust="spacing" textLength="14" x="663.5" y="696.2178">18</text><text fill="#000000" font-family="sans-serif" font-size="13" lengthAdjust="spacing" textLength="75" x="681.5" y="696.2178">save(lending)</text><polygon fill="#181818" points="667.5,728.7715,657.5,732.7715,667.5,736.7715,663.5,732.7715" style="stroke:#181818;stroke-width:1.0;"/><line style="stroke:#181818;stroke-width:1.0;stroke-dasharray:2.0,2.0;" x1="661.5" x2="1057.5" y1="732.7715" y2="732.7715"/><text fill="#000000" font-family="sans-serif" font-size="13" font-weight="bold" lengthAdjust="spacing" textLength="14" x="673.5" y="727.5088">19</text><text fill="#000000" font-family="sans-serif" font-size="13" lengthAdjust="spacing" textLength="14" x="691.5" y="727.5088">ok</text><polygon fill="#181818" points="372.5,760.0625,362.5,764.0625,372.5,768.0625,368.5,764.0625" style="stroke:#181818;stroke-width:1.0;"/><line style="stroke:#181818;stroke-width:1.0;stroke-dasharray:2.0,2.0;" x1="366.5" x2="640.5" y1="764.0625" y2="764.0625"/><text fill="#000000" font-family="sans-serif" font-size="13" font-weight="bold" lengthAdjust="spacing" textLength="14" x="378.5" y="758.7998">20</text><text fill="#000000" font-family="sans-serif" font-size="13" lengthAdjust="spacing" textLength="14" x="396.5" y="758.7998">ok</text><polygon fill="#181818" points="797.5,791.3535,807.5,795.3535,797.5,799.3535,801.5,795.3535" style="stroke:#181818;stroke-width:1.0;"/><line style="stroke:#181818;stroke-width:1.0;" x1="361.5" x2="803.5" y1="795.3535" y2="795.3535"/><text fill="#000000" font-family="sans-serif" font-size="13" font-weight="bold" lengthAdjust="spacing" textLength="14" x="368.5" y="790.0908">21</text><text fill="#000000" font-family="sans-serif" font-size="13" lengthAdjust="spacing" textLength="210" x="386.5" y="790.0908">updateBookStatus(book, "available")</text><polygon fill="#181818" points="1175,822.6445,1185,826.6445,1175,830.6445,1179,826.6445" style="stroke:#181818;stroke-width:1.0;"/><line style="stroke:#181818;stroke-width:1.0;" x1="819.5" x2="1181" y1="826.6445" y2="826.6445"/><text fill="#000000" font-family="sans-serif" font-size="13" font-weight="bold" lengthAdjust="spacing" textLength="14" x="826.5" y="821.3818">22</text><text fill="#000000" font-family="sans-serif" font-size="13" lengthAdjust="spacing" textLength="62" x="844.5" y="821.3818">save(book)</text><polygon fill="#181818" points="830.5,853.9355,820.5,857.9355,830.5,861.9355,826.5,857.9355" style="stroke:#181818;stroke-width:1.0;"/><line style="stroke:#181818;stroke-width:1.0;stroke-dasharray:2.0,2.0;" x1="824.5" x2="1191" y1="857.9355" y2="857.9355"/><text fill="#000000" font-family="sans-serif" font-size="13" font-weight="bold" lengthAdjust="spacing" textLength="14" x="836.5" y="852.6729">23</text><text fill="#000000" font-family="sans-serif" font-size="13" lengthAdjust="spacing" textLength="14" x="854.5" y="852.6729">ok</text><polygon fill="#181818" points="372.5,885.2266,362.5,889.2266,372.5,893.2266,368.5,889.2266" style="stroke:#181818;stroke-width:1.0;"/><line style="stroke:#181818;stroke-width:1.0;stroke-dasharray:2.0,2.0;" x1="366.5" x2="813.5" y1="889.2266" y2="889.2266"/><text fill="#000000" font-family="sans-serif" font-size="13" font-weight="bold" lengthAdjust="spacing" textLength="14" x="378.5" y="883.9639">24</text><text fill="#000000" font-family="sans-serif" font-size="13" lengthAdjust="spacing" textLength="14" x="396.5" y="883.9639">ok</text><polygon fill="#181818" points="47.5,916.5176,37.5,920.5176,47.5,924.5176,43.5,920.5176" style="stroke:#181818;stroke-width:1.0;"/><line style="stroke:#181818;stroke-width:1.0;stroke-dasharray:2.0,2.0;" x1="41.5" x2="355.5" y1="920.5176" y2="920.5176"/><text fill="#000000" font-family="sans-serif" font-size="13" font-weight="bold" lengthAdjust="spacing" textLength="14" x="53.5" y="915.2549">25</text><text fill="#000000" font-family="sans-serif" font-size="13" lengthAdjust="spacing" textLength="180" x="71.5" y="915.2549">response (success/failure, fine)</text><!--SRC=[bPJBZjCm58RtVWehBCX8BG4ABB90eZD4Ga82DSmQESwPOk7QmPTAez6yExRZE6b9XypEj__ytxaaBtyPq-coA6hRQAfOPvWKDQWZes3iWR-Yyb1e-6D1K5YtZEmLEI1acE60R-it7t0TB_5DVudNUEUaIk2jbByH8jP8GWqx4WDOYh0Nzj20SdVKI8Mp7P0ML8Q9nbQ3mYyss_URjvkgAhQlhz_TVAugr15b66KT4GPdNq6qJEolfJ1ASXwbr2Z-N-cjYn_JItxFi9nAUN-qHEqhCPKsRhz4vsbtq4dDN9tk4x1oHqk9p-GHUb44Jtqcz-3FSK-USmAKni8dXL3e_VfZQ6I9lt-hV-0YyXOgZ9GdAXvK69UV_H0z5WzCD-8HeT1_9uyjBV4UZ2zWVlB-2WqjZqzzEYM-OwBTtdzfvnw7XDVJo84tnKd8VHe3HsnouF3WkUUyGaFluuip-_5DSarn_6AK9zTmd5p7gGp6iG-dQQrmRpEPu54v1Ue_p4zkwVcVYf5ef_vnVUAJi8VBMN9AEBNSZKR51EJnvWBmKa5oThd1l6sd90Mj-__N46KL14zMIvFZlwQp9N6jccMQjZ0rt7QjooZyF0mnLkV-PeKpSYICauP3Tc6S0e_VNXgbsK4Q6UAibrY1xgJGW7DjgIzDSUUihOAXA7y1]--></g></svg>