<svg xmlns="http://www.w3.org/2000/svg" xmlns:xlink="http://www.w3.org/1999/xlink" contentStyleType="text/css" height="483px" preserveAspectRatio="none" style="width:767px;height:483px;background:#DDDDDD;" version="1.1" viewBox="0 0 767 483" width="767px" zoomAndPan="magnify"><defs/><g><rect fill="#DDDDDD" height="483" style="stroke:none;stroke-width:1.0;" width="767" x="0" y="0"/><!--class User--><g id="elem_User"><rect codeLine="9" fill="#5A86AF" height="185.5898" id="User" rx="3.5" ry="3.5" style="stroke:#181818;stroke-width:0.5;" width="120.1855" x="168" y="7"/><text fill="#000000" font-family="sans-serif" font-size="14" lengthAdjust="spacing" textLength="29.5586" x="213.3135" y="27.1074">User</text><line style="stroke:#181818;stroke-width:0.5;" x1="169" x2="287.1855" y1="35.6211" y2="35.6211"/><ellipse cx="179" cy="50.4316" fill="none" rx="3" ry="3" style="stroke:#038048;stroke-width:1.0;"/><text fill="#000000" font-family="sans-serif" font-size="14" lengthAdjust="spacing" textLength="62.2549" x="188" y="54.7285">username</text><ellipse cx="179" cy="69.0527" fill="none" rx="3" ry="3" style="stroke:#038048;stroke-width:1.0;"/><text fill="#000000" font-family="sans-serif" font-size="14" lengthAdjust="spacing" textLength="59.917" x="188" y="73.3496">password</text><ellipse cx="179" cy="87.6738" fill="none" rx="3" ry="3" style="stroke:#038048;stroke-width:1.0;"/><text fill="#000000" font-family="sans-serif" font-size="14" lengthAdjust="spacing" textLength="35.0205" x="188" y="91.9707">name</text><ellipse cx="179" cy="106.2949" fill="none" rx="3" ry="3" style="stroke:#038048;stroke-width:1.0;"/><text fill="#000000" font-family="sans-serif" font-size="14" lengthAdjust="spacing" textLength="33.4551" x="188" y="110.5918">email</text><ellipse cx="179" cy="124.916" fill="none" rx="3" ry="3" style="stroke:#038048;stroke-width:1.0;"/><text fill="#000000" font-family="sans-serif" font-size="14" lengthAdjust="spacing" textLength="23.3447" x="188" y="129.2129">role</text><ellipse cx="179" cy="143.5371" fill="none" rx="3" ry="3" style="stroke:#038048;stroke-width:1.0;"/><text fill="#000000" font-family="sans-serif" font-size="14" lengthAdjust="spacing" textLength="81.7305" x="188" y="147.834">date_of_birth</text><ellipse cx="179" cy="162.1582" fill="none" rx="3" ry="3" style="stroke:#038048;stroke-width:1.0;"/><text fill="#000000" font-family="sans-serif" font-size="14" lengthAdjust="spacing" textLength="94.1855" x="188" y="166.4551">phone_number</text><ellipse cx="179" cy="180.7793" fill="none" rx="3" ry="3" style="stroke:#038048;stroke-width:1.0;"/><text fill="#000000" font-family="sans-serif" font-size="14" lengthAdjust="spacing" textLength="28.0205" x="188" y="185.0762">gdpr</text></g><!--class Genre--><g id="elem_Genre"><rect codeLine="20" fill="#5A86AF" height="55.2422" id="Genre" rx="3.5" ry="3.5" style="stroke:#181818;stroke-width:0.5;" width="61.0205" x="323.5" y="72.5"/><text fill="#000000" font-family="sans-serif" font-size="14" lengthAdjust="spacing" textLength="38.9102" x="334.5552" y="92.6074">Genre</text><line style="stroke:#181818;stroke-width:0.5;" x1="324.5" x2="383.5205" y1="101.1211" y2="101.1211"/><ellipse cx="334.5" cy="115.9316" fill="none" rx="3" ry="3" style="stroke:#038048;stroke-width:1.0;"/><text fill="#000000" font-family="sans-serif" font-size="14" lengthAdjust="spacing" textLength="35.0205" x="343.5" y="120.2285">name</text></g><!--class Auth--><g id="elem_Auth"><rect codeLine="24" fill="#5A86AF" height="55.2422" id="Auth" rx="3.5" ry="3.5" style="stroke:#181818;stroke-width:0.5;" width="79.6963" x="7" y="72.5"/><text fill="#000000" font-family="sans-serif" font-size="14" lengthAdjust="spacing" textLength="28.7998" x="32.4482" y="92.6074">Auth</text><line style="stroke:#181818;stroke-width:0.5;" x1="8" x2="85.6963" y1="101.1211" y2="101.1211"/><ellipse cx="18" cy="115.9316" fill="none" rx="3" ry="3" style="stroke:#038048;stroke-width:1.0;"/><text fill="#000000" font-family="sans-serif" font-size="14" lengthAdjust="spacing" textLength="53.6963" x="27" y="120.2285">authority</text></g><!--class Author--><g id="elem_Author"><rect codeLine="28" fill="#5A86AF" height="92.4844" id="Author" rx="3.5" ry="3.5" style="stroke:#181818;stroke-width:0.5;" width="120.9512" x="639.5" y="54"/><text fill="#000000" font-family="sans-serif" font-size="14" lengthAdjust="spacing" textLength="41.248" x="679.3516" y="74.1074">Author</text><line style="stroke:#181818;stroke-width:0.5;" x1="640.5" x2="759.4512" y1="82.6211" y2="82.6211"/><ellipse cx="650.5" cy="97.4316" fill="none" rx="3" ry="3" style="stroke:#038048;stroke-width:1.0;"/><text fill="#000000" font-family="sans-serif" font-size="14" lengthAdjust="spacing" textLength="35.0205" x="659.5" y="101.7285">name</text><ellipse cx="650.5" cy="116.0527" fill="none" rx="3" ry="3" style="stroke:#038048;stroke-width:1.0;"/><text fill="#000000" font-family="sans-serif" font-size="14" lengthAdjust="spacing" textLength="57.5928" x="659.5" y="120.3496">short_bio</text><ellipse cx="650.5" cy="134.6738" fill="none" rx="3" ry="3" style="stroke:#038048;stroke-width:1.0;"/><text fill="#000000" font-family="sans-serif" font-size="14" lengthAdjust="spacing" textLength="94.9512" x="659.5" y="138.9707">author_number</text></g><!--class Book--><g id="elem_Book"><rect codeLine="34" fill="#5A86AF" height="129.7266" id="Book" rx="3.5" ry="3.5" style="stroke:#181818;stroke-width:0.5;" width="93.7031" x="465" y="35"/><text fill="#000000" font-family="sans-serif" font-size="14" lengthAdjust="spacing" textLength="31.9102" x="495.8965" y="55.1074">Book</text><line style="stroke:#181818;stroke-width:0.5;" x1="466" x2="557.7031" y1="63.6211" y2="63.6211"/><ellipse cx="476" cy="78.4316" fill="none" rx="3" ry="3" style="stroke:#038048;stroke-width:1.0;"/><text fill="#000000" font-family="sans-serif" font-size="14" lengthAdjust="spacing" textLength="25.6826" x="485" y="82.7285">isbn</text><ellipse cx="476" cy="97.0527" fill="none" rx="3" ry="3" style="stroke:#038048;stroke-width:1.0;"/><text fill="#000000" font-family="sans-serif" font-size="14" lengthAdjust="spacing" textLength="21.7861" x="485" y="101.3496">title</text><ellipse cx="476" cy="115.6738" fill="none" rx="3" ry="3" style="stroke:#038048;stroke-width:1.0;"/><text fill="#000000" font-family="sans-serif" font-size="14" lengthAdjust="spacing" textLength="35.8066" x="485" y="119.9707">genre</text><ellipse cx="476" cy="134.2949" fill="none" rx="3" ry="3" style="stroke:#038048;stroke-width:1.0;"/><text fill="#000000" font-family="sans-serif" font-size="14" lengthAdjust="spacing" textLength="67.7031" x="485" y="138.5918">description</text><ellipse cx="476" cy="152.916" fill="none" rx="3" ry="3" style="stroke:#038048;stroke-width:1.0;"/><text fill="#000000" font-family="sans-serif" font-size="14" lengthAdjust="spacing" textLength="39.6963" x="485" y="157.2129">author</text></g><!--class Lending--><g id="elem_Lending"><rect codeLine="42" fill="#5A86AF" height="204.2109" id="Lending" rx="3.5" ry="3.5" style="stroke:#181818;stroke-width:0.5;" width="230.6885" x="254.5" y="272"/><text fill="#000000" font-family="sans-serif" font-size="14" lengthAdjust="spacing" textLength="49.8271" x="344.9307" y="292.1074">Lending</text><line style="stroke:#181818;stroke-width:0.5;" x1="255.5" x2="484.1885" y1="300.6211" y2="300.6211"/><ellipse cx="265.5" cy="315.4316" fill="none" rx="3" ry="3" style="stroke:#038048;stroke-width:1.0;"/><text fill="#000000" font-family="sans-serif" font-size="14" lengthAdjust="spacing" textLength="100.4063" x="274.5" y="319.7285">lending_number</text><ellipse cx="265.5" cy="334.0527" fill="none" rx="3" ry="3" style="stroke:#038048;stroke-width:1.0;"/><text fill="#000000" font-family="sans-serif" font-size="14" lengthAdjust="spacing" textLength="105.0547" x="274.5" y="338.3496">librarian_number</text><ellipse cx="265.5" cy="352.6738" fill="none" rx="3" ry="3" style="stroke:#038048;stroke-width:1.0;"/><text fill="#000000" font-family="sans-serif" font-size="14" lengthAdjust="spacing" textLength="95.7236" x="274.5" y="356.9707">reader_number</text><ellipse cx="265.5" cy="371.2949" fill="none" rx="3" ry="3" style="stroke:#038048;stroke-width:1.0;"/><text fill="#000000" font-family="sans-serif" font-size="14" lengthAdjust="spacing" textLength="59.9307" x="274.5" y="375.5918">book_title</text><ellipse cx="265.5" cy="389.916" fill="none" rx="3" ry="3" style="stroke:#038048;stroke-width:1.0;"/><text fill="#000000" font-family="sans-serif" font-size="14" lengthAdjust="spacing" textLength="80.1855" x="274.5" y="394.2129">lending_date</text><ellipse cx="265.5" cy="408.5371" fill="none" rx="3" ry="3" style="stroke:#038048;stroke-width:1.0;"/><text fill="#000000" font-family="sans-serif" font-size="14" lengthAdjust="spacing" textLength="71.6064" x="274.5" y="412.834">return_date</text><ellipse cx="265.5" cy="427.1582" fill="none" rx="3" ry="3" style="stroke:#038048;stroke-width:1.0;"/><text fill="#000000" font-family="sans-serif" font-size="14" lengthAdjust="spacing" textLength="204.6885" x="274.5" y="431.4551">number_of_days_till_return_date</text><ellipse cx="265.5" cy="445.7793" fill="none" rx="3" ry="3" style="stroke:#038048;stroke-width:1.0;"/><text fill="#000000" font-family="sans-serif" font-size="14" lengthAdjust="spacing" textLength="181.3506" x="274.5" y="450.0762">number_of_days_in_overdue</text><ellipse cx="265.5" cy="464.4004" fill="none" rx="3" ry="3" style="stroke:#038048;stroke-width:1.0;"/><text fill="#000000" font-family="sans-serif" font-size="14" lengthAdjust="spacing" textLength="77.0547" x="274.5" y="468.6973">fine_amount</text></g><!--link Book to Author--><g id="link_Book_Author"><path codeLine="54" d="M559.44,100 C583.7,100 613.49,100 639.39,100 " fill="none" id="Book-Author" style="stroke:#454645;stroke-width:1.0;"/><polygon fill="#000000" points="586.25,87.6455,577.2049,84.7066,577.2049,90.5844,586.25,87.6455" style="stroke:#000000;stroke-width:1.0;"/><text fill="#000000" font-family="sans-serif" font-size="13" lengthAdjust="spacing" textLength="31.8018" x="590.25" y="93.0283">has a</text><text fill="#000000" font-family="sans-serif" font-size="13" lengthAdjust="spacing" textLength="7.23" x="566.6405" y="95.8727">1</text><text fill="#000000" font-family="sans-serif" font-size="13" lengthAdjust="spacing" textLength="19.5127" x="611.8796" y="115.0525">1..*</text></g><!--link Book to Lending--><g id="link_Book_Lending"><path codeLine="55" d="M478.53,165.12 C461.92,196.92 441.48,236.09 422.82,271.81 " fill="none" id="Book-Lending" style="stroke:#454645;stroke-width:1.0;"/><polygon fill="#000000" points="447.6857,237.0777,454.4775,230.4201,449.2672,227.6995,447.6857,237.0777" style="stroke:#000000;stroke-width:1.0;"/><text fill="#000000" font-family="sans-serif" font-size="13" lengthAdjust="spacing" textLength="39.0317" x="459" y="238.0283">can be</text><text fill="#000000" font-family="sans-serif" font-size="13" lengthAdjust="spacing" textLength="19.5127" x="455.1405" y="186.7695">1..*</text><text fill="#000000" font-family="sans-serif" font-size="13" lengthAdjust="spacing" textLength="19.5127" x="407.0316" y="260.7125">1..*</text></g><!--link Genre to Book--><g id="link_Genre_Book"><path codeLine="56" d="M384.84,100 C407.56,100 438.88,100 464.74,100 " fill="none" id="Genre-Book" style="stroke:#454645;stroke-width:1.0;"/><polygon fill="#000000" points="401.75,87.6455,410.7951,90.5844,410.7951,84.7066,401.75,87.6455" style="stroke:#000000;stroke-width:1.0;"/><text fill="#000000" font-family="sans-serif" font-size="13" lengthAdjust="spacing" textLength="31.8018" x="415.75" y="93.0283">has a</text><text fill="#000000" font-family="sans-serif" font-size="13" lengthAdjust="spacing" textLength="19.5127" x="392.5767" y="115.6533">1..*</text><text fill="#000000" font-family="sans-serif" font-size="13" lengthAdjust="spacing" textLength="19.5127" x="437.4628" y="115.3182">1..*</text></g><!--link User to Lending--><g id="link_User_Lending"><path codeLine="57" d="M276.07,193.09 C289.27,218.36 303.65,245.9 317.1,271.67 " fill="none" id="User-Lending" style="stroke:#454645;stroke-width:1.0;"/><polygon fill="#000000" points="301.6858,228.2133,303.2671,237.5915,308.4774,234.871,301.6858,228.2133" style="stroke:#000000;stroke-width:1.0;"/><text fill="#000000" font-family="sans-serif" font-size="13" lengthAdjust="spacing" textLength="31.8018" x="313" y="238.0283">has a</text><text fill="#000000" font-family="sans-serif" font-size="13" lengthAdjust="spacing" textLength="19.5127" x="259.9145" y="214.6046">1..*</text><text fill="#000000" font-family="sans-serif" font-size="13" lengthAdjust="spacing" textLength="19.5127" x="293.7415" y="260.9084">1..*</text></g><!--link Auth to User--><g id="link_Auth_User"><path codeLine="58" d="M87.17,100 C110.92,100 141.44,100 168,100 " fill="none" id="Auth-User" style="stroke:#454645;stroke-width:1.0;"/><polygon fill="#000000" points="104.5,87.6455,113.5451,90.5844,113.5451,84.7066,104.5,87.6455" style="stroke:#000000;stroke-width:1.0;"/><text fill="#000000" font-family="sans-serif" font-size="13" lengthAdjust="spacing" textLength="31.8018" x="118.5" y="93.0283">has a</text><text fill="#000000" font-family="sans-serif" font-size="13" lengthAdjust="spacing" textLength="7.23" x="94.7216" y="95.5716">1</text><text fill="#000000" font-family="sans-serif" font-size="13" lengthAdjust="spacing" textLength="19.5127" x="140.5496" y="115.107">1..*</text></g><!--SRC=[XP9DImCn48Rl-HMn7WH3MpmeKaIe1xruzRnaDzDDC1_BPDPInFzkacrM5aHloSmpxxmpoPKc6k9kknsiz3Gwk-c2stPMnhXMHlOe7MDC6mMyCzXPcCuEI0SL6RiW3GuuXHDZfOg_HK1-URk_lzi_yqycndJtqW4JGqeV0oecfZiuQImJ69AgK9AW2OUcDKWwiJfuQFpeMa0cUZKW-weTNi0Zp2ro3ru4Ps0_abxaPGe4D7HQCW4NrEGgfZ0b6w6MLHTpwLC8xuj24rlF11dAW_JPNPe7OeTc81Dy5VfHU0MlZEyN8dQApJDRqw948_qSGP0APZkYJJQQSzDQdBUOGHhHdoyJdbUhv2cc0ckRlm3Zc_01gCQKEfZq2DA5qLCsNmPVtQpu6aslQPtEcytrgkvonn-vbf7B2fRaMeMZdz4wUMOxwNaBR7hEIY-LYz2EFvnroz_wHxUovHFyOhPepDWt]--></g></svg>