<?xml version="1.0" encoding="us-ascii" standalone="no"?><svg xmlns="http://www.w3.org/2000/svg" xmlns:xlink="http://www.w3.org/1999/xlink" contentStyleType="text/css" height="458px" preserveAspectRatio="none" style="width:668px;height:458px;background:#FFFFFF;" version="1.1" viewBox="0 0 668 458" width="668px" zoomAndPan="magnify"><defs><linearGradient id="g13gru37l0xx680" x1="0%" x2="100%" y1="0%" y2="100%"><stop offset="0%" stop-color="#F2AA4C"/><stop offset="100%" stop-color="#CE4A7E"/></linearGradient></defs><g><text fill="#000000" font-family="sans-serif" font-size="14" font-weight="bold" lengthAdjust="spacing" textLength="171" x="247.75" y="30.1074">US11 Sequence Diagram</text><rect fill="#FFFFFF" height="200.7461" style="stroke:#181818;stroke-width:1.0;" width="10" x="260" y="156.5332"/><rect fill="#FFFFFF" height="178.4551" style="stroke:#181818;stroke-width:1.0;" width="10" x="420" y="187.8242"/><rect fill="#FFFFFF" height="36.291" style="stroke:#181818;stroke-width:1.0;" width="10" x="425" y="289.6973"/><rect fill="#FFFFFF" height="31.291" style="stroke:#181818;stroke-width:1.0;" width="10" x="589" y="219.1152"/><line style="stroke:#181818;stroke-width:0.5;stroke-dasharray:5.0,5.0;" x1="36" x2="36" y1="123.2422" y2="375.2793"/><line style="stroke:#181818;stroke-width:0.5;stroke-dasharray:5.0,5.0;" x1="264.5" x2="264.5" y1="123.2422" y2="375.2793"/><line style="stroke:#181818;stroke-width:0.5;stroke-dasharray:5.0,5.0;" x1="425" x2="425" y1="123.2422" y2="375.2793"/><line style="stroke:#181818;stroke-width:0.5;stroke-dasharray:5.0,5.0;" x1="593.5" x2="593.5" y1="123.2422" y2="375.2793"/><text fill="#000000" font-family="sans-serif" font-size="14" lengthAdjust="spacing" textLength="56" x="5" y="119.7285">Librarian</text><ellipse cx="36" cy="53.1211" fill="url(#g13gru37l0xx680)" rx="8" ry="8" style="stroke:#181818;stroke-width:0.5;"/><path d="M36,61.1211 L36,88.1211 M23,69.1211 L49,69.1211 M36,88.1211 L23,103.1211 M36,88.1211 L49,103.1211 " fill="none" style="stroke:#181818;stroke-width:0.5;"/><text fill="#000000" font-family="sans-serif" font-size="14" lengthAdjust="spacing" textLength="56" x="5" y="389.3867">Librarian</text><ellipse cx="36" cy="401.4004" fill="url(#g13gru37l0xx680)" rx="8" ry="8" style="stroke:#181818;stroke-width:0.5;"/><path d="M36,409.4004 L36,436.4004 M23,417.4004 L49,417.4004 M36,436.4004 L23,451.4004 M36,436.4004 L49,451.4004 " fill="none" style="stroke:#181818;stroke-width:0.5;"/><rect fill="url(#g13gru37l0xx680)" height="32.6211" rx="2.5" ry="2.5" style="stroke:#181818;stroke-width:0.5;" width="131" x="199.5" y="89.6211"/><text fill="#000000" font-family="sans-serif" font-size="14" lengthAdjust="spacing" textLength="117" x="206.5" y="111.7285">:LendingController</text><rect fill="url(#g13gru37l0xx680)" height="32.6211" rx="2.5" ry="2.5" style="stroke:#181818;stroke-width:0.5;" width="131" x="199.5" y="374.2793"/><text fill="#000000" font-family="sans-serif" font-size="14" lengthAdjust="spacing" textLength="117" x="206.5" y="396.3867">:LendingController</text><rect fill="url(#g13gru37l0xx680)" height="32.6211" rx="2.5" ry="2.5" style="stroke:#181818;stroke-width:0.5;" width="116" x="367" y="89.6211"/><text fill="#000000" font-family="sans-serif" font-size="14" lengthAdjust="spacing" textLength="102" x="374" y="111.7285">:LendingService</text><rect fill="url(#g13gru37l0xx680)" height="32.6211" rx="2.5" ry="2.5" style="stroke:#181818;stroke-width:0.5;" width="116" x="367" y="374.2793"/><text fill="#000000" font-family="sans-serif" font-size="14" lengthAdjust="spacing" textLength="102" x="374" y="396.3867">:LendingService</text><rect fill="url(#g13gru37l0xx680)" height="32.6211" rx="2.5" ry="2.5" style="stroke:#181818;stroke-width:0.5;" width="137" x="525.5" y="89.6211"/><text fill="#000000" font-family="sans-serif" font-size="14" lengthAdjust="spacing" textLength="123" x="532.5" y="111.7285">:LendingRepository</text><rect fill="url(#g13gru37l0xx680)" height="32.6211" rx="2.5" ry="2.5" style="stroke:#181818;stroke-width:0.5;" width="137" x="525.5" y="374.2793"/><text fill="#000000" font-family="sans-serif" font-size="14" lengthAdjust="spacing" textLength="123" x="532.5" y="396.3867">:LendingRepository</text><rect fill="#FFFFFF" height="200.7461" style="stroke:#181818;stroke-width:1.0;" width="10" x="260" y="156.5332"/><rect fill="#FFFFFF" height="178.4551" style="stroke:#181818;stroke-width:1.0;" width="10" x="420" y="187.8242"/><rect fill="#FFFFFF" height="36.291" style="stroke:#181818;stroke-width:1.0;" width="10" x="425" y="289.6973"/><rect fill="#FFFFFF" height="31.291" style="stroke:#181818;stroke-width:1.0;" width="10" x="589" y="219.1152"/><polygon fill="#181818" points="248,152.5332,258,156.5332,248,160.5332,252,156.5332" style="stroke:#181818;stroke-width:1.0;"/><line style="stroke:#181818;stroke-width:1.0;" x1="36" x2="254" y1="156.5332" y2="156.5332"/><text fill="#000000" font-family="sans-serif" font-size="13" font-weight="bold" lengthAdjust="spacing" textLength="7" x="43" y="151.2705">1</text><text fill="#000000" font-family="sans-serif" font-size="13" lengthAdjust="spacing" textLength="194" x="54" y="151.2705">request top 5 readers (GET /user)</text><polygon fill="#181818" points="408,183.8242,418,187.8242,408,191.8242,412,187.8242" style="stroke:#181818;stroke-width:1.0;"/><line style="stroke:#181818;stroke-width:1.0;" x1="270" x2="414" y1="187.8242" y2="187.8242"/><text fill="#000000" font-family="sans-serif" font-size="13" font-weight="bold" lengthAdjust="spacing" textLength="7" x="277" y="182.5615">2</text><text fill="#000000" font-family="sans-serif" font-size="13" lengthAdjust="spacing" textLength="94" x="288" y="182.5615">Find top readers</text><polygon fill="#181818" points="577,215.1152,587,219.1152,577,223.1152,581,219.1152" style="stroke:#181818;stroke-width:1.0;"/><line style="stroke:#181818;stroke-width:1.0;" x1="430" x2="583" y1="219.1152" y2="219.1152"/><text fill="#000000" font-family="sans-serif" font-size="13" font-weight="bold" lengthAdjust="spacing" textLength="7" x="437" y="213.8525">3</text><text fill="#000000" font-family="sans-serif" font-size="13" lengthAdjust="spacing" textLength="90" x="448" y="213.8525">Get all lendings</text><polygon fill="#181818" points="441,246.4063,431,250.4063,441,254.4063,437,250.4063" style="stroke:#181818;stroke-width:1.0;"/><line style="stroke:#181818;stroke-width:1.0;stroke-dasharray:2.0,2.0;" x1="435" x2="593" y1="250.4063" y2="250.4063"/><text fill="#000000" font-family="sans-serif" font-size="13" font-weight="bold" lengthAdjust="spacing" textLength="7" x="447" y="245.1436">4</text><text fill="#000000" font-family="sans-serif" font-size="13" lengthAdjust="spacing" textLength="87" x="458" y="245.1436">List of lendings</text><line style="stroke:#181818;stroke-width:1.0;" x1="430" x2="477" y1="276.6973" y2="276.6973"/><line style="stroke:#181818;stroke-width:1.0;" x1="477" x2="477" y1="276.6973" y2="289.6973"/><line style="stroke:#181818;stroke-width:1.0;" x1="436" x2="477" y1="289.6973" y2="289.6973"/><polygon fill="#181818" points="446,285.6973,436,289.6973,446,293.6973,442,289.6973" style="stroke:#181818;stroke-width:1.0;"/><text fill="#000000" font-family="sans-serif" font-size="13" font-weight="bold" lengthAdjust="spacing" textLength="7" x="442" y="271.4346">5</text><text fill="#000000" font-family="sans-serif" font-size="13" lengthAdjust="spacing" textLength="134" x="453" y="271.4346">Calculate top 5 readers</text><polygon fill="#181818" points="281,321.9883,271,325.9883,281,329.9883,277,325.9883" style="stroke:#181818;stroke-width:1.0;"/><line style="stroke:#181818;stroke-width:1.0;stroke-dasharray:2.0,2.0;" x1="275" x2="419" y1="325.9883" y2="325.9883"/><text fill="#000000" font-family="sans-serif" font-size="13" font-weight="bold" lengthAdjust="spacing" textLength="7" x="287" y="320.7256">6</text><text fill="#000000" font-family="sans-serif" font-size="13" lengthAdjust="spacing" textLength="115" x="298" y="320.7256">List of top 5 readers</text><polygon fill="#181818" points="47,353.2793,37,357.2793,47,361.2793,43,357.2793" style="stroke:#181818;stroke-width:1.0;"/><line style="stroke:#181818;stroke-width:1.0;stroke-dasharray:2.0,2.0;" x1="41" x2="264" y1="357.2793" y2="357.2793"/><text fill="#000000" font-family="sans-serif" font-size="13" font-weight="bold" lengthAdjust="spacing" textLength="7" x="53" y="352.0166">7</text><text fill="#000000" font-family="sans-serif" font-size="13" lengthAdjust="spacing" textLength="14" x="64" y="352.0166">ok</text><!--SRC=[ZP6nJiCm48PtFyMf3C1Geg8Yf0n8LMYwP2Bm0Avpb1EE7SxdIBmzhfksgjI1yVJ_d_sTVVibCeIoADgu3OPf4FAkHHx9eCJUFXZV5m5_8Zg3yuxqZdMlb91OX8zsiO1s2k7r6EeeNXkXKGk2TtbsiTyYfyo8PsXeovf9ExYf7rUhPLNNHRLUhfxNTQtKe5d8qA2TmAniq7NaTfLtmjvQv1de04ROmZNwAZmjbCd0u__1DnnyeAJycrbEurLOdJUQlsIvCfNJmmG1yGCyfKbto07kDkjtA690lbTvYTHFIYNKvBhSdPfgBvh2_PqbR510Mmlsu1LKLfaVuORIHVxp74zm3YjjJRJxpxXGENHEkiSZBZi7nLGwBLY2__u3]--></g></svg>