<?xml version="1.0" encoding="us-ascii" standalone="no"?><svg xmlns="http://www.w3.org/2000/svg" xmlns:xlink="http://www.w3.org/1999/xlink" contentStyleType="text/css" height="476px" preserveAspectRatio="none" style="width:851px;height:476px;background:#FFFFFF;" version="1.1" viewBox="0 0 851 476" width="851px" zoomAndPan="magnify"><defs/><g><text fill="#000000" font-family="sans-serif" font-size="14" font-weight="bold" lengthAdjust="spacing" textLength="171" x="339" y="30.1074">US08 Sequence Diagram</text><rect fill="#FFFFFF" height="251.3281" style="stroke:#181818;stroke-width:1.0;" width="10" x="31" y="133.2422"/><rect fill="#FFFFFF" height="219.0371" style="stroke:#181818;stroke-width:1.0;" width="10" x="358" y="156.5332"/><rect fill="#FFFFFF" height="156.4551" style="stroke:#181818;stroke-width:1.0;" width="10" x="475" y="187.8242"/><rect fill="#FFFFFF" height="31.291" style="stroke:#181818;stroke-width:1.0;" width="10" x="783" y="219.1152"/><rect fill="#FFFFFF" height="31.291" style="stroke:#181818;stroke-width:1.0;" width="10" x="783" y="281.6973"/><line style="stroke:#181818;stroke-width:0.5;stroke-dasharray:5.0,5.0;" x1="36" x2="36" y1="123.2422" y2="393.5703"/><line style="stroke:#181818;stroke-width:0.5;stroke-dasharray:5.0,5.0;" x1="363" x2="363" y1="123.2422" y2="393.5703"/><line style="stroke:#181818;stroke-width:0.5;stroke-dasharray:5.0,5.0;" x1="479.5" x2="479.5" y1="123.2422" y2="393.5703"/><line style="stroke:#181818;stroke-width:0.5;stroke-dasharray:5.0,5.0;" x1="788" x2="788" y1="123.2422" y2="393.5703"/><text fill="#000000" font-family="sans-serif" font-size="14" lengthAdjust="spacing" textLength="56" x="5" y="119.7285">Librarian</text><ellipse cx="36" cy="53.1211" fill="#E2E2F0" rx="8" ry="8" style="stroke:#181818;stroke-width:0.5;"/><path d="M36,61.1211 L36,88.1211 M23,69.1211 L49,69.1211 M36,88.1211 L23,103.1211 M36,88.1211 L49,103.1211 " fill="none" style="stroke:#181818;stroke-width:0.5;"/><text fill="#000000" font-family="sans-serif" font-size="14" lengthAdjust="spacing" textLength="56" x="5" y="407.6777">Librarian</text><ellipse cx="36" cy="419.6914" fill="#E2E2F0" rx="8" ry="8" style="stroke:#181818;stroke-width:0.5;"/><path d="M36,427.6914 L36,454.6914 M23,435.6914 L49,435.6914 M36,454.6914 L23,469.6914 M36,454.6914 L49,469.6914 " fill="none" style="stroke:#181818;stroke-width:0.5;"/><rect fill="#E2E2F0" height="32.6211" rx="2.5" ry="2.5" style="stroke:#181818;stroke-width:0.5;" width="108" x="309" y="89.6211"/><text fill="#000000" font-family="sans-serif" font-size="14" lengthAdjust="spacing" textLength="94" x="316" y="111.7285">BookController</text><rect fill="#E2E2F0" height="32.6211" rx="2.5" ry="2.5" style="stroke:#181818;stroke-width:0.5;" width="108" x="309" y="392.5703"/><text fill="#000000" font-family="sans-serif" font-size="14" lengthAdjust="spacing" textLength="94" x="316" y="414.6777">BookController</text><rect fill="#E2E2F0" height="32.6211" rx="2.5" ry="2.5" style="stroke:#181818;stroke-width:0.5;" width="93" x="433.5" y="89.6211"/><text fill="#000000" font-family="sans-serif" font-size="14" lengthAdjust="spacing" textLength="79" x="440.5" y="111.7285">BookService</text><rect fill="#E2E2F0" height="32.6211" rx="2.5" ry="2.5" style="stroke:#181818;stroke-width:0.5;" width="93" x="433.5" y="392.5703"/><text fill="#000000" font-family="sans-serif" font-size="14" lengthAdjust="spacing" textLength="79" x="440.5" y="414.6777">BookService</text><rect fill="#E2E2F0" height="32.6211" rx="2.5" ry="2.5" style="stroke:#181818;stroke-width:0.5;" width="114" x="731" y="89.6211"/><text fill="#000000" font-family="sans-serif" font-size="14" lengthAdjust="spacing" textLength="100" x="738" y="111.7285">BookRepository</text><rect fill="#E2E2F0" height="32.6211" rx="2.5" ry="2.5" style="stroke:#181818;stroke-width:0.5;" width="114" x="731" y="392.5703"/><text fill="#000000" font-family="sans-serif" font-size="14" lengthAdjust="spacing" textLength="100" x="738" y="414.6777">BookRepository</text><rect fill="#FFFFFF" height="251.3281" style="stroke:#181818;stroke-width:1.0;" width="10" x="31" y="133.2422"/><rect fill="#FFFFFF" height="219.0371" style="stroke:#181818;stroke-width:1.0;" width="10" x="358" y="156.5332"/><rect fill="#FFFFFF" height="156.4551" style="stroke:#181818;stroke-width:1.0;" width="10" x="475" y="187.8242"/><rect fill="#FFFFFF" height="31.291" style="stroke:#181818;stroke-width:1.0;" width="10" x="783" y="219.1152"/><rect fill="#FFFFFF" height="31.291" style="stroke:#181818;stroke-width:1.0;" width="10" x="783" y="281.6973"/><polygon fill="#181818" points="346,152.5332,356,156.5332,346,160.5332,350,156.5332" style="stroke:#181818;stroke-width:1.0;"/><line style="stroke:#181818;stroke-width:1.0;" x1="41" x2="352" y1="156.5332" y2="156.5332"/><text fill="#000000" font-family="sans-serif" font-size="13" font-weight="bold" lengthAdjust="spacing" textLength="7" x="48" y="151.2705">1</text><text fill="#000000" font-family="sans-serif" font-size="13" lengthAdjust="spacing" textLength="287" x="59" y="151.2705">PUT/book to request the update of an book&#8217;s data</text><polygon fill="#181818" points="463,183.8242,473,187.8242,463,191.8242,467,187.8242" style="stroke:#181818;stroke-width:1.0;"/><line style="stroke:#181818;stroke-width:1.0;" x1="368" x2="469" y1="187.8242" y2="187.8242"/><text fill="#000000" font-family="sans-serif" font-size="13" font-weight="bold" lengthAdjust="spacing" textLength="7" x="375" y="182.5615">2</text><text fill="#000000" font-family="sans-serif" font-size="13" lengthAdjust="spacing" textLength="77" x="386" y="182.5615">updateBook()</text><polygon fill="#181818" points="771,215.1152,781,219.1152,771,223.1152,775,219.1152" style="stroke:#181818;stroke-width:1.0;"/><line style="stroke:#181818;stroke-width:1.0;" x1="485" x2="777" y1="219.1152" y2="219.1152"/><text fill="#000000" font-family="sans-serif" font-size="13" font-weight="bold" lengthAdjust="spacing" textLength="7" x="492" y="213.8525">3</text><text fill="#000000" font-family="sans-serif" font-size="13" lengthAdjust="spacing" textLength="268" x="503" y="213.8525">updateBook(title, genre, description, author(s))</text><polygon fill="#181818" points="496,246.4063,486,250.4063,496,254.4063,492,250.4063" style="stroke:#181818;stroke-width:1.0;"/><line style="stroke:#181818;stroke-width:1.0;stroke-dasharray:2.0,2.0;" x1="490" x2="787" y1="250.4063" y2="250.4063"/><text fill="#000000" font-family="sans-serif" font-size="13" font-weight="bold" lengthAdjust="spacing" textLength="7" x="502" y="245.1436">4</text><text fill="#000000" font-family="sans-serif" font-size="13" lengthAdjust="spacing" textLength="76" x="513" y="245.1436">updatedBook</text><polygon fill="#181818" points="771,277.6973,781,281.6973,771,285.6973,775,281.6973" style="stroke:#181818;stroke-width:1.0;"/><line style="stroke:#181818;stroke-width:1.0;" x1="485" x2="777" y1="281.6973" y2="281.6973"/><text fill="#000000" font-family="sans-serif" font-size="13" font-weight="bold" lengthAdjust="spacing" textLength="7" x="492" y="276.4346">5</text><text fill="#000000" font-family="sans-serif" font-size="13" lengthAdjust="spacing" textLength="92" x="503" y="276.4346">saveBook(book)</text><polygon fill="#181818" points="496,308.9883,486,312.9883,496,316.9883,492,312.9883" style="stroke:#181818;stroke-width:1.0;"/><line style="stroke:#181818;stroke-width:1.0;stroke-dasharray:2.0,2.0;" x1="490" x2="787" y1="312.9883" y2="312.9883"/><text fill="#000000" font-family="sans-serif" font-size="13" font-weight="bold" lengthAdjust="spacing" textLength="7" x="502" y="307.7256">6</text><text fill="#000000" font-family="sans-serif" font-size="13" lengthAdjust="spacing" textLength="14" x="513" y="307.7256">ok</text><polygon fill="#181818" points="379,340.2793,369,344.2793,379,348.2793,375,344.2793" style="stroke:#181818;stroke-width:1.0;"/><line style="stroke:#181818;stroke-width:1.0;stroke-dasharray:2.0,2.0;" x1="373" x2="479" y1="344.2793" y2="344.2793"/><text fill="#000000" font-family="sans-serif" font-size="13" font-weight="bold" lengthAdjust="spacing" textLength="7" x="385" y="339.0166">7</text><text fill="#000000" font-family="sans-serif" font-size="13" lengthAdjust="spacing" textLength="14" x="396" y="339.0166">ok</text><polygon fill="#181818" points="52,371.5703,42,375.5703,52,379.5703,48,375.5703" style="stroke:#181818;stroke-width:1.0;"/><line style="stroke:#181818;stroke-width:1.0;stroke-dasharray:2.0,2.0;" x1="46" x2="362" y1="375.5703" y2="375.5703"/><text fill="#000000" font-family="sans-serif" font-size="13" font-weight="bold" lengthAdjust="spacing" textLength="7" x="58" y="370.3076">8</text><text fill="#000000" font-family="sans-serif" font-size="13" lengthAdjust="spacing" textLength="170" x="69" y="370.3076">informs operation (in)success</text><!--SRC=[RL2zJiCm4Dxz5ASkD18XZAX31s1aG8G-mCMvjXQ97UxEbTXu3LwF9y5sqqe59kly_TvTxLKdMJLD6pknx2PrmRV41sT9upZSs30sGk-HlAMwTxXZ78rHfmF1fhszWtO6uV44OjI0Ljq1bI3uCliuTiGcWLO3m-B9TOpiq2y01Q8aR49MPzs4Nc5n7yBRG_3AOHY82yag3tz9SzV2-DVbXQOWBeL-50wdqPpRbM1ZyWFrkaIiu7dpsdH92HeIFMqd2hfFvAal6sq1FMJ2z-UNGFf3auNP8FciPbxENbPcTiwn5qYvu3Nio7DwUZeV_nhIlVQ1br9L9ikWlZJki_xIL_1mTCsjVgjEvFD-wUFOjrx7md1-6tWK21CnvWwmTBwIQ2s96FC3]--></g></svg>
