<?xml version="1.0" encoding="us-ascii" standalone="no"?><svg xmlns="http://www.w3.org/2000/svg" xmlns:xlink="http://www.w3.org/1999/xlink" contentStyleType="text/css" height="414px" preserveAspectRatio="none" style="width:1038px;height:414px;background:#FFFFFF;" version="1.1" viewBox="0 0 1038 414" width="1038px" zoomAndPan="magnify"><defs><linearGradient id="gsxa970l0marv0" x1="0%" x2="100%" y1="0%" y2="100%"><stop offset="0%" stop-color="#3B5323"/><stop offset="100%" stop-color="#B0C4DE"/></linearGradient></defs><g><text fill="#000000" font-family="sans-serif" font-size="14" font-weight="bold" lengthAdjust="spacing" textLength="171" x="432.75" y="30.1074">US05 Sequence Diagram</text><rect fill="#FFFFFF" height="188.7461" style="stroke:#181818;stroke-width:1.0;" width="10" x="17.5" y="133.2422"/><rect fill="#FFFFFF" height="156.4551" style="stroke:#181818;stroke-width:1.0;" width="10" x="393.5" y="156.5332"/><rect fill="#FFFFFF" height="31.291" style="stroke:#181818;stroke-width:1.0;" width="10" x="636.5" y="187.8242"/><line style="stroke:#181818;stroke-width:0.5;stroke-dasharray:5.0,5.0;" x1="22" x2="22" y1="123.2422" y2="330.9883"/><line style="stroke:#181818;stroke-width:0.5;stroke-dasharray:5.0,5.0;" x1="398.5" x2="398.5" y1="123.2422" y2="330.9883"/><line style="stroke:#181818;stroke-width:0.5;stroke-dasharray:5.0,5.0;" x1="641" x2="641" y1="123.2422" y2="330.9883"/><line style="stroke:#181818;stroke-width:0.5;stroke-dasharray:5.0,5.0;" x1="970.5" x2="970.5" y1="123.2422" y2="330.9883"/><text fill="#000000" font-family="sans-serif" font-size="14" lengthAdjust="spacing" textLength="29" x="5" y="119.7285">User</text><ellipse cx="22.5" cy="53.1211" fill="url(#gsxa970l0marv0)" rx="8" ry="8" style="stroke:#181818;stroke-width:0.5;"/><path d="M22.5,61.1211 L22.5,88.1211 M9.5,69.1211 L35.5,69.1211 M22.5,88.1211 L9.5,103.1211 M22.5,88.1211 L35.5,103.1211 " fill="none" style="stroke:#181818;stroke-width:0.5;"/><text fill="#000000" font-family="sans-serif" font-size="14" lengthAdjust="spacing" textLength="29" x="5" y="345.0957">User</text><ellipse cx="22.5" cy="357.1094" fill="url(#gsxa970l0marv0)" rx="8" ry="8" style="stroke:#181818;stroke-width:0.5;"/><path d="M22.5,365.1094 L22.5,392.1094 M9.5,373.1094 L35.5,373.1094 M22.5,392.1094 L9.5,407.1094 M22.5,392.1094 L35.5,407.1094 " fill="none" style="stroke:#181818;stroke-width:0.5;"/><rect fill="url(#gsxa970l0marv0)" height="32.6211" rx="2.5" ry="2.5" style="stroke:#181818;stroke-width:0.5;" width="118" x="339.5" y="89.6211"/><text fill="#000000" font-family="sans-serif" font-size="14" lengthAdjust="spacing" textLength="104" x="346.5" y="111.7285">AuthorController</text><rect fill="url(#gsxa970l0marv0)" height="32.6211" rx="2.5" ry="2.5" style="stroke:#181818;stroke-width:0.5;" width="118" x="339.5" y="329.9883"/><text fill="#000000" font-family="sans-serif" font-size="14" lengthAdjust="spacing" textLength="104" x="346.5" y="352.0957">AuthorController</text><rect fill="url(#gsxa970l0marv0)" height="32.6211" rx="2.5" ry="2.5" style="stroke:#181818;stroke-width:0.5;" width="103" x="590" y="89.6211"/><text fill="#000000" font-family="sans-serif" font-size="14" lengthAdjust="spacing" textLength="89" x="597" y="111.7285">AuthorService</text><rect fill="url(#gsxa970l0marv0)" height="32.6211" rx="2.5" ry="2.5" style="stroke:#181818;stroke-width:0.5;" width="103" x="590" y="329.9883"/><text fill="#000000" font-family="sans-serif" font-size="14" lengthAdjust="spacing" textLength="89" x="597" y="352.0957">AuthorService</text><rect fill="url(#gsxa970l0marv0)" height="32.6211" rx="2.5" ry="2.5" style="stroke:#181818;stroke-width:0.5;" width="124" x="908.5" y="89.6211"/><text fill="#000000" font-family="sans-serif" font-size="14" lengthAdjust="spacing" textLength="110" x="915.5" y="111.7285">AuthorRepository</text><rect fill="url(#gsxa970l0marv0)" height="32.6211" rx="2.5" ry="2.5" style="stroke:#181818;stroke-width:0.5;" width="124" x="908.5" y="329.9883"/><text fill="#000000" font-family="sans-serif" font-size="14" lengthAdjust="spacing" textLength="110" x="915.5" y="352.0957">AuthorRepository</text><rect fill="#FFFFFF" height="188.7461" style="stroke:#181818;stroke-width:1.0;" width="10" x="17.5" y="133.2422"/><rect fill="#FFFFFF" height="156.4551" style="stroke:#181818;stroke-width:1.0;" width="10" x="393.5" y="156.5332"/><rect fill="#FFFFFF" height="31.291" style="stroke:#181818;stroke-width:1.0;" width="10" x="636.5" y="187.8242"/><polygon fill="#181818" points="381.5,152.5332,391.5,156.5332,381.5,160.5332,385.5,156.5332" style="stroke:#181818;stroke-width:1.0;"/><line style="stroke:#181818;stroke-width:1.0;" x1="27.5" x2="387.5" y1="156.5332" y2="156.5332"/><text fill="#000000" font-family="sans-serif" font-size="13" font-weight="bold" lengthAdjust="spacing" textLength="7" x="34.5" y="151.2705">1</text><text fill="#000000" font-family="sans-serif" font-size="13" lengthAdjust="spacing" textLength="336" x="45.5" y="151.2705">GET/id to request the author&#180;s detail by his author number</text><polygon fill="#181818" points="624.5,183.8242,634.5,187.8242,624.5,191.8242,628.5,187.8242" style="stroke:#181818;stroke-width:1.0;"/><line style="stroke:#181818;stroke-width:1.0;" x1="403.5" x2="630.5" y1="187.8242" y2="187.8242"/><text fill="#000000" font-family="sans-serif" font-size="13" font-weight="bold" lengthAdjust="spacing" textLength="7" x="410.5" y="182.5615">2</text><text fill="#000000" font-family="sans-serif" font-size="13" lengthAdjust="spacing" textLength="203" x="421.5" y="182.5615">getAuthorDetailsByAuthorNumber()</text><polygon fill="#181818" points="958.5,215.1152,968.5,219.1152,958.5,223.1152,962.5,219.1152" style="stroke:#181818;stroke-width:1.0;"/><line style="stroke:#181818;stroke-width:1.0;stroke-dasharray:2.0,2.0;" x1="641.5" x2="964.5" y1="219.1152" y2="219.1152"/><text fill="#000000" font-family="sans-serif" font-size="13" font-weight="bold" lengthAdjust="spacing" textLength="7" x="648.5" y="213.8525">3</text><text fill="#000000" font-family="sans-serif" font-size="13" lengthAdjust="spacing" textLength="289" x="659.5" y="213.8525">getAuthorDetailsByAuthorNumber(author_number)</text><polygon fill="#181818" points="652.5,246.4063,642.5,250.4063,652.5,254.4063,648.5,250.4063" style="stroke:#181818;stroke-width:1.0;"/><line style="stroke:#181818;stroke-width:1.0;stroke-dasharray:2.0,2.0;" x1="646.5" x2="969.5" y1="250.4063" y2="250.4063"/><text fill="#000000" font-family="sans-serif" font-size="13" font-weight="bold" lengthAdjust="spacing" textLength="7" x="658.5" y="245.1436">4</text><text fill="#000000" font-family="sans-serif" font-size="13" lengthAdjust="spacing" textLength="175" x="669.5" y="245.1436">authorDetailsByAuthorNumber</text><polygon fill="#181818" points="414.5,277.6973,404.5,281.6973,414.5,285.6973,410.5,281.6973" style="stroke:#181818;stroke-width:1.0;"/><line style="stroke:#181818;stroke-width:1.0;stroke-dasharray:2.0,2.0;" x1="408.5" x2="640.5" y1="281.6973" y2="281.6973"/><text fill="#000000" font-family="sans-serif" font-size="13" font-weight="bold" lengthAdjust="spacing" textLength="7" x="420.5" y="276.4346">5</text><text fill="#000000" font-family="sans-serif" font-size="13" lengthAdjust="spacing" textLength="14" x="431.5" y="276.4346">ok</text><polygon fill="#181818" points="38.5,308.9883,28.5,312.9883,38.5,316.9883,34.5,312.9883" style="stroke:#181818;stroke-width:1.0;"/><line style="stroke:#181818;stroke-width:1.0;stroke-dasharray:2.0,2.0;" x1="32.5" x2="397.5" y1="312.9883" y2="312.9883"/><text fill="#000000" font-family="sans-serif" font-size="13" font-weight="bold" lengthAdjust="spacing" textLength="7" x="44.5" y="307.7256">6</text><text fill="#000000" font-family="sans-serif" font-size="13" lengthAdjust="spacing" textLength="152" x="55.5" y="307.7256">informs operation success</text><!--SRC=[ZPA_JiCm4CPtFyMf3D0XfA9qwL29_WaR0w4pSjsZiKXymNUkrFVY2NWoN2VjH4Ktd-z-_hxlvDjAfELfdfTXmyRRLYov4ltU6fJGrFU6cfpnAw0pc6sjtddTA2LMQeHrEPf0sJTXUMhg8AIDsBqM17AfTg7Pe5UnQOGy3DQCVW2Q8SG3t8pda_73k2Zo-MZnk5mLXMgr5sjigvt0u2b8HNv1JZpLTKyQyVMLP1yeOTVhlM9BRAFTGm9zBFyYpr6FKMB2b2YR9NzJU5wzvNOBGf6FYs81gH1q4lZvPjYYQ5l3vW2LvVuU-csbXF6b-E0KTYYThMKYU7xeofSqUpTKIJPE7tt-Ezu9lNT2GvMoPISfVHaygtJfwBCtcSr2Ggtx8DymK8jU7_yIS306cPNw1G00]--></g></svg>