<?xml version="1.0" encoding="us-ascii" standalone="no"?><svg xmlns="http://www.w3.org/2000/svg" xmlns:xlink="http://www.w3.org/1999/xlink" contentStyleType="text/css" height="775px" preserveAspectRatio="none" style="width:307px;height:775px;background:#FFFFFF;" version="1.1" viewBox="0 0 307 775" width="307px" zoomAndPan="magnify"><defs><linearGradient id="g1tfit14k16s520" x1="0%" x2="100%" y1="0%" y2="100%"><stop offset="0%" stop-color="#3B5323"/><stop offset="100%" stop-color="#B0C4DE"/></linearGradient></defs><g><text fill="#000000" font-family="sans-serif" font-size="14" font-weight="bold" lengthAdjust="spacing" textLength="138" x="77.5" y="25.1074">US05 Class Diagram</text><!--class AuthorController--><g id="elem_AuthorController"><rect codeLine="8" fill="url(#g1tfit14k16s520)" height="44.6211" id="AuthorController" rx="2.5" ry="2.5" style="stroke:#181818;stroke-width:0.5;" width="110" x="98.5" y="46.6211"/><text fill="#000000" font-family="sans-serif" font-size="14" lengthAdjust="spacing" textLength="104" x="101.5" y="66.7285">AuthorController</text><line style="stroke:#181818;stroke-width:0.5;" x1="99.5" x2="207.5" y1="75.2422" y2="75.2422"/><line style="stroke:#181818;stroke-width:0.5;" x1="99.5" x2="207.5" y1="83.2422" y2="83.2422"/></g><!--class AuthorService--><g id="elem_AuthorService"><rect codeLine="11" fill="url(#g1tfit14k16s520)" height="63.2422" id="AuthorService" rx="2.5" ry="2.5" style="stroke:#181818;stroke-width:0.5;" width="278" x="14.5" y="170.6211"/><text fill="#000000" font-family="sans-serif" font-size="14" lengthAdjust="spacing" textLength="89" x="109" y="190.7285">AuthorService</text><line style="stroke:#181818;stroke-width:0.5;" x1="15.5" x2="291.5" y1="199.2422" y2="199.2422"/><line style="stroke:#181818;stroke-width:0.5;" x1="15.5" x2="291.5" y1="207.2422" y2="207.2422"/><ellipse cx="25.5" cy="222.0527" fill="#84BE84" rx="3" ry="3" style="stroke:#038048;stroke-width:1.0;"/><text fill="#000000" font-family="sans-serif" font-size="14" lengthAdjust="spacing" textLength="252" x="34.5" y="226.3496">getAuthorDetailsByAuthorNumber():void</text></g><!--class AuthorRepository--><g id="elem_AuthorRepository"><rect codeLine="15" fill="url(#g1tfit14k16s520)" height="79.2031" id="AuthorRepository" rx="2.5" ry="2.5" style="stroke:#181818;stroke-width:0.5;" width="293" x="7" y="312.6211"/><text fill="#000000" font-family="sans-serif" font-size="12" font-style="italic" lengthAdjust="spacing" textLength="61" x="123" y="330.5703">&#171;interface&#187;</text><text fill="#000000" font-family="sans-serif" font-size="14" font-style="italic" lengthAdjust="spacing" textLength="110" x="98.5" y="348.6895">AuthorRepository</text><line style="stroke:#181818;stroke-width:0.5;" x1="8" x2="299" y1="357.2031" y2="357.2031"/><line style="stroke:#181818;stroke-width:0.5;" x1="8" x2="299" y1="365.2031" y2="365.2031"/><ellipse cx="18" cy="380.0137" fill="#84BE84" rx="3" ry="3" style="stroke:#038048;stroke-width:1.0;"/><text fill="#000000" font-family="sans-serif" font-size="14" lengthAdjust="spacing" textLength="267" x="27" y="384.3105">getAuthorDetailsByAuthorNumber():author</text></g><!--class Author--><g id="elem_Author"><rect codeLine="20" fill="url(#g1tfit14k16s520)" height="100.4844" id="Author" rx="2.5" ry="2.5" style="stroke:#181818;stroke-width:0.5;" width="123" x="92" y="470.6211"/><text fill="#000000" font-family="sans-serif" font-size="14" lengthAdjust="spacing" textLength="42" x="132.5" y="490.7285">Author</text><line style="stroke:#181818;stroke-width:0.5;" x1="93" x2="214" y1="499.2422" y2="499.2422"/><rect fill="none" height="6" style="stroke:#C82930;stroke-width:1.0;" width="6" x="100" y="511.0527"/><text fill="#000000" font-family="sans-serif" font-size="14" lengthAdjust="spacing" textLength="35" x="112" y="518.3496">name</text><rect fill="none" height="6" style="stroke:#C82930;stroke-width:1.0;" width="6" x="100" y="529.6738"/><text fill="#000000" font-family="sans-serif" font-size="14" lengthAdjust="spacing" textLength="59" x="112" y="536.9707">short_bio</text><rect fill="none" height="6" style="stroke:#C82930;stroke-width:1.0;" width="6" x="100" y="548.2949"/><text fill="#000000" font-family="sans-serif" font-size="14" lengthAdjust="spacing" textLength="97" x="112" y="555.5918">author_number</text><line style="stroke:#181818;stroke-width:0.5;" x1="93" x2="214" y1="563.1055" y2="563.1055"/></g><!--class Book--><g id="elem_Book"><rect codeLine="26" fill="url(#g1tfit14k16s520)" height="119.1055" id="Book" rx="2.5" ry="2.5" style="stroke:#181818;stroke-width:0.5;" width="95" x="106" y="649.6211"/><text fill="#000000" font-family="sans-serif" font-size="14" lengthAdjust="spacing" textLength="32" x="137.5" y="669.7285">Book</text><line style="stroke:#181818;stroke-width:0.5;" x1="107" x2="200" y1="678.2422" y2="678.2422"/><ellipse cx="117" cy="693.0527" fill="none" rx="3" ry="3" style="stroke:#038048;stroke-width:1.0;"/><text fill="#000000" font-family="sans-serif" font-size="14" lengthAdjust="spacing" textLength="26" x="126" y="697.3496">isbn</text><ellipse cx="117" cy="711.6738" fill="none" rx="3" ry="3" style="stroke:#038048;stroke-width:1.0;"/><text fill="#000000" font-family="sans-serif" font-size="14" lengthAdjust="spacing" textLength="22" x="126" y="715.9707">title</text><ellipse cx="117" cy="730.2949" fill="none" rx="3" ry="3" style="stroke:#038048;stroke-width:1.0;"/><text fill="#000000" font-family="sans-serif" font-size="14" lengthAdjust="spacing" textLength="69" x="126" y="734.5918">description</text><ellipse cx="117" cy="748.916" fill="none" rx="3" ry="3" style="stroke:#038048;stroke-width:1.0;"/><text fill="#000000" font-family="sans-serif" font-size="14" lengthAdjust="spacing" textLength="41" x="126" y="753.2129">author</text><line style="stroke:#181818;stroke-width:0.5;" x1="107" x2="200" y1="760.7266" y2="760.7266"/></g><!--link Author to Book--><g id="link_Author_Book"><path codeLine="33" d="M153.5,570.6211 C153.5,594.8011 153.5,618.1411 153.5,643.4911 " fill="none" id="Author-to-Book" style="stroke:#181818;stroke-width:1.0;"/><polygon fill="#181818" points="153.5,649.4911,157.5,640.4911,153.5,644.4911,149.5,640.4911,153.5,649.4911" style="stroke:#181818;stroke-width:1.0;"/><text fill="#000000" font-family="sans-serif" font-size="13" lengthAdjust="spacing" textLength="60" x="154.5" y="615.6494">belongs to</text><text fill="#000000" font-family="sans-serif" font-size="13" lengthAdjust="spacing" textLength="7" x="145.9859" y="593.2274">1</text><text fill="#000000" font-family="sans-serif" font-size="13" lengthAdjust="spacing" textLength="20" x="132.2813" y="638.2274">0..*</text></g><!--link AuthorController to AuthorService--><g id="link_AuthorController_AuthorService"><path codeLine="34" d="M153.5,91.7511 C153.5,113.1211 153.5,140.0111 153.5,164.1411 " fill="none" id="AuthorController-to-AuthorService" style="stroke:#181818;stroke-width:1.0;stroke-dasharray:7.0,7.0;"/><polygon fill="#181818" points="153.5,170.1411,157.5,161.1411,153.5,165.1411,149.5,161.1411,153.5,170.1411" style="stroke:#181818;stroke-width:1.0;"/><text fill="#000000" font-family="sans-serif" font-size="13" lengthAdjust="spacing" textLength="28" x="154.5" y="136.6494">uses</text></g><!--link AuthorService to AuthorRepository--><g id="link_AuthorService_AuthorRepository"><path codeLine="35" d="M153.5,233.7911 C153.5,256.6511 153.5,282.0311 153.5,306.5811 " fill="none" id="AuthorService-to-AuthorRepository" style="stroke:#181818;stroke-width:1.0;stroke-dasharray:7.0,7.0;"/><polygon fill="#181818" points="153.5,312.5811,157.5,303.5811,153.5,307.5811,149.5,303.5811,153.5,312.5811" style="stroke:#181818;stroke-width:1.0;"/><text fill="#000000" font-family="sans-serif" font-size="13" lengthAdjust="spacing" textLength="28" x="154.5" y="278.6494">uses</text></g><!--link AuthorRepository to Author--><g id="link_AuthorRepository_Author"><path codeLine="36" d="M153.5,391.7411 C153.5,415.1811 153.5,439.3211 153.5,464.4511 " fill="none" id="AuthorRepository-to-Author" style="stroke:#181818;stroke-width:1.0;"/><polygon fill="#181818" points="153.5,470.4511,157.5,461.4511,153.5,465.4511,149.5,461.4511,153.5,470.4511" style="stroke:#181818;stroke-width:1.0;"/><text fill="#000000" font-family="sans-serif" font-size="13" lengthAdjust="spacing" textLength="48" x="154.5" y="436.6494">Records</text><text fill="#000000" font-family="sans-serif" font-size="13" lengthAdjust="spacing" textLength="7" x="145.9203" y="413.7466">1</text><text fill="#000000" font-family="sans-serif" font-size="13" lengthAdjust="spacing" textLength="20" x="132.0938" y="459.2153">1..*</text></g><!--SRC=[dP5BRy8m48Jl-okizD17b0HAkKGeKWFDiGTGpyXnjc3LoI9xWuHG_tj9mYijfnwj_NPcF7k_PjwuE8eMTUwKrHlML2tGRhL2haiJAYeZPQHpGQ7boieIOAqB54fRPH20DHiK7ul1M4mRJCnE6BHhuhNcDTafLMp96BJYRfIEHy-ZB8lImVHbzfPbOW_VVVoOu0Qx1t-5t54pPAcDItVTyxqkSxGFZ_6MTD4ewehHVig3JWVCSKDECzcTc4pEmoJvfuridurHB_jDjQ2I9KBW3dDUvfeWwBQNLQjs-NzAz7MheaD7ldPv1NxREFW5dky5_YNACOCtz4GG9DuW39-yLZGMEHggLaummU-ZX67IRpwk7Jhe7wE1_ZHv3LxrU_8VjlxTE1PpL6GBzmC0]--></g></svg>