<?xml version="1.0" encoding="us-ascii" standalone="no"?><svg xmlns="http://www.w3.org/2000/svg" xmlns:xlink="http://www.w3.org/1999/xlink" contentStyleType="text/css" height="775px" preserveAspectRatio="none" style="width:194px;height:775px;background:#FFFFFF;" version="1.1" viewBox="0 0 194 775" width="194px" zoomAndPan="magnify"><defs><linearGradient id="gd03dkadlm9qx0" x1="0%" x2="100%" y1="0%" y2="100%"><stop offset="0%" stop-color="#3B5323"/><stop offset="100%" stop-color="#B0C4DE"/></linearGradient></defs><g><text fill="#000000" font-family="sans-serif" font-size="14" font-weight="bold" lengthAdjust="spacing" textLength="138" x="21" y="25.1074">US06 Class Diagram</text><!--class AuthorController--><g id="elem_AuthorController"><rect codeLine="8" fill="url(#gd03dkadlm9qx0)" height="44.6211" id="AuthorController" rx="2.5" ry="2.5" style="stroke:#181818;stroke-width:0.5;" width="110" x="42" y="46.6211"/><text fill="#000000" font-family="sans-serif" font-size="14" lengthAdjust="spacing" textLength="104" x="45" y="66.7285">AuthorController</text><line style="stroke:#181818;stroke-width:0.5;" x1="43" x2="151" y1="75.2422" y2="75.2422"/><line style="stroke:#181818;stroke-width:0.5;" x1="43" x2="151" y1="83.2422" y2="83.2422"/></g><!--class AuthorService--><g id="elem_AuthorService"><rect codeLine="11" fill="url(#gd03dkadlm9qx0)" height="63.2422" id="AuthorService" rx="2.5" ry="2.5" style="stroke:#181818;stroke-width:0.5;" width="180" x="7" y="170.6211"/><text fill="#000000" font-family="sans-serif" font-size="14" lengthAdjust="spacing" textLength="89" x="52.5" y="190.7285">AuthorService</text><line style="stroke:#181818;stroke-width:0.5;" x1="8" x2="186" y1="199.2422" y2="199.2422"/><line style="stroke:#181818;stroke-width:0.5;" x1="8" x2="186" y1="207.2422" y2="207.2422"/><ellipse cx="18" cy="222.0527" fill="#84BE84" rx="3" ry="3" style="stroke:#038048;stroke-width:1.0;"/><text fill="#000000" font-family="sans-serif" font-size="14" lengthAdjust="spacing" textLength="154" x="27" y="226.3496">getAuthorByName():void</text></g><!--class AuthorRepository--><g id="elem_AuthorRepository"><rect codeLine="15" fill="url(#gd03dkadlm9qx0)" height="79.2031" id="AuthorRepository" rx="2.5" ry="2.5" style="stroke:#181818;stroke-width:0.5;" width="175" x="9.5" y="312.6211"/><text fill="#000000" font-family="sans-serif" font-size="12" font-style="italic" lengthAdjust="spacing" textLength="61" x="66.5" y="330.5703">&#171;interface&#187;</text><text fill="#000000" font-family="sans-serif" font-size="14" font-style="italic" lengthAdjust="spacing" textLength="110" x="42" y="348.6895">AuthorRepository</text><line style="stroke:#181818;stroke-width:0.5;" x1="10.5" x2="183.5" y1="357.2031" y2="357.2031"/><line style="stroke:#181818;stroke-width:0.5;" x1="10.5" x2="183.5" y1="365.2031" y2="365.2031"/><ellipse cx="20.5" cy="380.0137" fill="#84BE84" rx="3" ry="3" style="stroke:#038048;stroke-width:1.0;"/><text fill="#000000" font-family="sans-serif" font-size="14" lengthAdjust="spacing" textLength="149" x="29.5" y="384.3105">getAuthorByName(): list</text></g><!--class Author--><g id="elem_Author"><rect codeLine="20" fill="url(#gd03dkadlm9qx0)" height="100.4844" id="Author" rx="2.5" ry="2.5" style="stroke:#181818;stroke-width:0.5;" width="123" x="35.5" y="470.6211"/><text fill="#000000" font-family="sans-serif" font-size="14" lengthAdjust="spacing" textLength="42" x="76" y="490.7285">Author</text><line style="stroke:#181818;stroke-width:0.5;" x1="36.5" x2="157.5" y1="499.2422" y2="499.2422"/><rect fill="none" height="6" style="stroke:#C82930;stroke-width:1.0;" width="6" x="43.5" y="511.0527"/><text fill="#000000" font-family="sans-serif" font-size="14" lengthAdjust="spacing" textLength="35" x="55.5" y="518.3496">name</text><rect fill="none" height="6" style="stroke:#C82930;stroke-width:1.0;" width="6" x="43.5" y="529.6738"/><text fill="#000000" font-family="sans-serif" font-size="14" lengthAdjust="spacing" textLength="59" x="55.5" y="536.9707">short_bio</text><rect fill="none" height="6" style="stroke:#C82930;stroke-width:1.0;" width="6" x="43.5" y="548.2949"/><text fill="#000000" font-family="sans-serif" font-size="14" lengthAdjust="spacing" textLength="97" x="55.5" y="555.5918">author_number</text><line style="stroke:#181818;stroke-width:0.5;" x1="36.5" x2="157.5" y1="563.1055" y2="563.1055"/></g><!--class Book--><g id="elem_Book"><rect codeLine="26" fill="url(#gd03dkadlm9qx0)" height="119.1055" id="Book" rx="2.5" ry="2.5" style="stroke:#181818;stroke-width:0.5;" width="95" x="49.5" y="649.6211"/><text fill="#000000" font-family="sans-serif" font-size="14" lengthAdjust="spacing" textLength="32" x="81" y="669.7285">Book</text><line style="stroke:#181818;stroke-width:0.5;" x1="50.5" x2="143.5" y1="678.2422" y2="678.2422"/><ellipse cx="60.5" cy="693.0527" fill="none" rx="3" ry="3" style="stroke:#038048;stroke-width:1.0;"/><text fill="#000000" font-family="sans-serif" font-size="14" lengthAdjust="spacing" textLength="26" x="69.5" y="697.3496">isbn</text><ellipse cx="60.5" cy="711.6738" fill="none" rx="3" ry="3" style="stroke:#038048;stroke-width:1.0;"/><text fill="#000000" font-family="sans-serif" font-size="14" lengthAdjust="spacing" textLength="22" x="69.5" y="715.9707">title</text><ellipse cx="60.5" cy="730.2949" fill="none" rx="3" ry="3" style="stroke:#038048;stroke-width:1.0;"/><text fill="#000000" font-family="sans-serif" font-size="14" lengthAdjust="spacing" textLength="69" x="69.5" y="734.5918">description</text><ellipse cx="60.5" cy="748.916" fill="none" rx="3" ry="3" style="stroke:#038048;stroke-width:1.0;"/><text fill="#000000" font-family="sans-serif" font-size="14" lengthAdjust="spacing" textLength="41" x="69.5" y="753.2129">author</text><line style="stroke:#181818;stroke-width:0.5;" x1="50.5" x2="143.5" y1="760.7266" y2="760.7266"/></g><!--link Author to Book--><g id="link_Author_Book"><path codeLine="33" d="M97,570.6211 C97,594.8011 97,618.1411 97,643.4911 " fill="none" id="Author-to-Book" style="stroke:#181818;stroke-width:1.0;"/><polygon fill="#181818" points="97,649.4911,101,640.4911,97,644.4911,93,640.4911,97,649.4911" style="stroke:#181818;stroke-width:1.0;"/><text fill="#000000" font-family="sans-serif" font-size="13" lengthAdjust="spacing" textLength="60" x="98" y="615.6494">belongs to</text><text fill="#000000" font-family="sans-serif" font-size="13" lengthAdjust="spacing" textLength="7" x="89.4859" y="593.2274">1</text><text fill="#000000" font-family="sans-serif" font-size="13" lengthAdjust="spacing" textLength="20" x="75.7813" y="638.2274">0..*</text></g><!--link AuthorController to AuthorService--><g id="link_AuthorController_AuthorService"><path codeLine="34" d="M97,91.7511 C97,113.1211 97,140.0111 97,164.1411 " fill="none" id="AuthorController-to-AuthorService" style="stroke:#181818;stroke-width:1.0;stroke-dasharray:7.0,7.0;"/><polygon fill="#181818" points="97,170.1411,101,161.1411,97,165.1411,93,161.1411,97,170.1411" style="stroke:#181818;stroke-width:1.0;"/><text fill="#000000" font-family="sans-serif" font-size="13" lengthAdjust="spacing" textLength="28" x="98" y="136.6494">uses</text></g><!--link AuthorService to AuthorRepository--><g id="link_AuthorService_AuthorRepository"><path codeLine="35" d="M97,233.7911 C97,256.6511 97,282.0311 97,306.5811 " fill="none" id="AuthorService-to-AuthorRepository" style="stroke:#181818;stroke-width:1.0;stroke-dasharray:7.0,7.0;"/><polygon fill="#181818" points="97,312.5811,101,303.5811,97,307.5811,93,303.5811,97,312.5811" style="stroke:#181818;stroke-width:1.0;"/><text fill="#000000" font-family="sans-serif" font-size="13" lengthAdjust="spacing" textLength="28" x="98" y="278.6494">uses</text></g><!--link AuthorRepository to Author--><g id="link_AuthorRepository_Author"><path codeLine="36" d="M97,391.7411 C97,415.1811 97,439.3211 97,464.4511 " fill="none" id="AuthorRepository-to-Author" style="stroke:#181818;stroke-width:1.0;"/><polygon fill="#181818" points="97,470.4511,101,461.4511,97,465.4511,93,461.4511,97,470.4511" style="stroke:#181818;stroke-width:1.0;"/><text fill="#000000" font-family="sans-serif" font-size="13" lengthAdjust="spacing" textLength="48" x="98" y="436.6494">Records</text><text fill="#000000" font-family="sans-serif" font-size="13" lengthAdjust="spacing" textLength="7" x="89.4203" y="413.7466">1</text><text fill="#000000" font-family="sans-serif" font-size="13" lengthAdjust="spacing" textLength="20" x="75.5938" y="459.2153">0..*</text></g><!--SRC=[ZP5DJy9048RlyoiszU17qnP5FJIaYGLxz03nJDhj21ktEsHtIaA8_zr-853bu7cUzztPPwxNp1iNHz6YBfoqQiEAp0BjLadakjAXf2gIEdSkA5M-ida5i5Ob2gcir0Z0YZMAzyNeMKnRJCn-CEXYugNcDTaf6RQaDLfnDKwVnW_ZB8lIqVHnzffbOWzVG_ommGLs3_uAkQVItLjUuSrjl2LLjXNACDgFl0dsm1mtv1IJtOd9v3XCal_s2gqSjyM3vIwc0zD4873Dd9U58WZo3bwQkYhGdZwO4drUSj18y9Kh3FYTKl1BF1u4_BwiRJdiuDrx8WWIRnI6TrvN6ei2DPcL4qpmsteO9aErSUtGmT1s2_qnTmwU-Ho-tuzZCKT9jdJV]--></g></svg>