<svg xmlns="http://www.w3.org/2000/svg" xmlns:xlink="http://www.w3.org/1999/xlink" contentStyleType="text/css" height="647px" preserveAspectRatio="none" style="width:1836px;height:647px;background:#DDDDDD;" version="1.1" viewBox="0 0 1836 647" width="1836px" zoomAndPan="magnify"><defs/><g><rect fill="#DDDDDD" height="647" style="stroke:none;stroke-width:1.0;" width="1836" x="0" y="0"/><rect fill="#ADD8E6" height="635.9473" rx="3.5" ry="3.5" style="stroke:#181818;stroke-width:0.5;" width="120.041" x="1710.1382" y="6"/><text fill="#000000" font-family="sans-serif" font-size="13" font-weight="bold" lengthAdjust="spacing" textLength="100.439" x="1719.9392" y="20.0283">Message Broker</text><rect fill="#FFFFFF" height="199.377" style="stroke:#454645;stroke-width:1.0;" width="10" x="371.3154" y="116.9121"/><rect fill="#FFFFFF" height="136.7949" style="stroke:#454645;stroke-width:1.0;" width="10" x="655.3833" y="148.2031"/><rect fill="#FFFFFF" height="31.291" style="stroke:#454645;stroke-width:1.0;" width="10" x="855.6309" y="354.5801"/><rect fill="#FFFFFF" height="31.291" style="stroke:#454645;stroke-width:1.0;" width="10" x="1045.7715" y="205.7852"/><rect fill="#FFFFFF" height="134.1641" style="stroke:#454645;stroke-width:1.0;" width="10" x="1215.3018" y="417.1621"/><rect fill="#FFFFFF" height="31.291" style="stroke:#454645;stroke-width:1.0;" width="10" x="1765.1587" y="448.4531"/><rect fill="none" height="161.0859" rx="3.5" ry="3.5" style="stroke:#454645;stroke-width:1.0;" width="1125.8677" x="10" y="163.2031"/><line style="stroke:#454645;stroke-width:0.5;stroke-dasharray:5.0,5.0;" x1="45" x2="45" y1="83.6211" y2="560.3262"/><line style="stroke:#454645;stroke-width:0.5;stroke-dasharray:5.0,5.0;" x1="376.1089" x2="376.1089" y1="83.6211" y2="560.3262"/><line style="stroke:#454645;stroke-width:0.5;stroke-dasharray:5.0,5.0;" x1="660.1802" x2="660.1802" y1="83.6211" y2="560.3262"/><line style="stroke:#454645;stroke-width:0.5;stroke-dasharray:5.0,5.0;" x1="860.5864" x2="860.5864" y1="83.6211" y2="560.3262"/><line style="stroke:#454645;stroke-width:0.5;stroke-dasharray:5.0,5.0;" x1="1050.6753" x2="1050.6753" y1="83.6211" y2="560.3262"/><line style="stroke:#454645;stroke-width:0.5;stroke-dasharray:5.0,5.0;" x1="1219.8677" x2="1219.8677" y1="83.6211" y2="560.3262"/><line style="stroke:#454645;stroke-width:0.5;stroke-dasharray:5.0,5.0;" x1="1770.1382" x2="1770.1382" y1="83.6211" y2="560.3262"/><text fill="#454645" font-family="sans-serif" font-size="14" lengthAdjust="spacing" textLength="45.917" x="20" y="80.1074">Reader</text><ellipse cx="45.9585" cy="13.5" fill="#454645" rx="8" ry="8" style="stroke:#454645;stroke-width:0.5;"/><path d="M45.9585,21.5 L45.9585,48.5 M32.9585,29.5 L58.9585,29.5 M45.9585,48.5 L32.9585,63.5 M45.9585,48.5 L58.9585,63.5 " fill="none" style="stroke:#454645;stroke-width:0.5;"/><text fill="#454645" font-family="sans-serif" font-size="14" lengthAdjust="spacing" textLength="45.917" x="20" y="574.4336">Reader</text><ellipse cx="45.9585" cy="586.4473" fill="#454645" rx="8" ry="8" style="stroke:#454645;stroke-width:0.5;"/><path d="M45.9585,594.4473 L45.9585,621.4473 M32.9585,602.4473 L58.9585,602.4473 M45.9585,621.4473 L32.9585,636.4473 M45.9585,621.4473 L58.9585,636.4473 " fill="none" style="stroke:#454645;stroke-width:0.5;"/><rect fill="#FF6F61" height="32.6211" rx="3.5" ry="3.5" style="stroke:#454645;stroke-width:1.5;" width="184.4131" x="284.1089" y="50"/><text fill="#FFFFFF" font-family="sans-serif" font-size="14" lengthAdjust="spacing" textLength="170.4131" x="291.1089" y="72.1074">RecommendationController</text><rect fill="#FF6F61" height="32.6211" rx="3.5" ry="3.5" style="stroke:#454645;stroke-width:1.5;" width="184.4131" x="284.1089" y="559.3262"/><text fill="#FFFFFF" font-family="sans-serif" font-size="14" lengthAdjust="spacing" textLength="170.4131" x="291.1089" y="581.4336">RecommendationController</text><rect fill="#FF6F61" height="32.6211" rx="3.5" ry="3.5" style="stroke:#454645;stroke-width:1.5;" width="170.4063" x="575.1802" y="50"/><text fill="#FFFFFF" font-family="sans-serif" font-size="14" lengthAdjust="spacing" textLength="156.4063" x="582.1802" y="72.1074">RecommendationService</text><rect fill="#FF6F61" height="32.6211" rx="3.5" ry="3.5" style="stroke:#454645;stroke-width:1.5;" width="170.4063" x="575.1802" y="559.3262"/><text fill="#FFFFFF" font-family="sans-serif" font-size="14" lengthAdjust="spacing" textLength="156.4063" x="582.1802" y="581.4336">RecommendationService</text><rect fill="#FF6F61" height="32.6211" rx="3.5" ry="3.5" style="stroke:#454645;stroke-width:1.5;" width="210.0889" x="755.5864" y="50"/><text fill="#FFFFFF" font-family="sans-serif" font-size="14" lengthAdjust="spacing" textLength="196.0889" x="762.5864" y="72.1074">RecommendationDBRepository</text><rect fill="#FF6F61" height="32.6211" rx="3.5" ry="3.5" style="stroke:#454645;stroke-width:1.5;" width="210.0889" x="755.5864" y="559.3262"/><text fill="#FFFFFF" font-family="sans-serif" font-size="14" lengthAdjust="spacing" textLength="196.0889" x="762.5864" y="581.4336">RecommendationDBRepository</text><rect fill="#FF6F61" height="32.6211" rx="3.5" ry="3.5" style="stroke:#454645;stroke-width:1.5;" width="150.1924" x="975.6753" y="50"/><text fill="#FFFFFF" font-family="sans-serif" font-size="14" lengthAdjust="spacing" textLength="136.1924" x="982.6753" y="72.1074">LendingDBRepository</text><rect fill="#FF6F61" height="32.6211" rx="3.5" ry="3.5" style="stroke:#454645;stroke-width:1.5;" width="150.1924" x="975.6753" y="559.3262"/><text fill="#FFFFFF" font-family="sans-serif" font-size="14" lengthAdjust="spacing" textLength="136.1924" x="982.6753" y="581.4336">LendingDBRepository</text><rect fill="#FF6F61" height="32.6211" rx="3.5" ry="3.5" style="stroke:#454645;stroke-width:1.5;" width="168.8682" x="1135.8677" y="50"/><text fill="#FFFFFF" font-family="sans-serif" font-size="14" lengthAdjust="spacing" textLength="154.8682" x="1142.8677" y="72.1074">RecommendationSender</text><rect fill="#FF6F61" height="32.6211" rx="3.5" ry="3.5" style="stroke:#454645;stroke-width:1.5;" width="168.8682" x="1135.8677" y="559.3262"/><text fill="#FFFFFF" font-family="sans-serif" font-size="14" lengthAdjust="spacing" textLength="154.8682" x="1142.8677" y="581.4336">RecommendationSender</text><rect fill="#FF6F61" height="32.6211" rx="3.5" ry="3.5" style="stroke:#454645;stroke-width:1.5;" width="112.041" x="1714.1382" y="50"/><text fill="#FFFFFF" font-family="sans-serif" font-size="14" lengthAdjust="spacing" textLength="98.041" x="1721.1382" y="72.1074">MessageBroker</text><rect fill="#FF6F61" height="32.6211" rx="3.5" ry="3.5" style="stroke:#454645;stroke-width:1.5;" width="112.041" x="1714.1382" y="559.3262"/><text fill="#FFFFFF" font-family="sans-serif" font-size="14" lengthAdjust="spacing" textLength="98.041" x="1721.1382" y="581.4336">MessageBroker</text><rect fill="#FFFFFF" height="199.377" style="stroke:#454645;stroke-width:1.0;" width="10" x="371.3154" y="116.9121"/><rect fill="#FFFFFF" height="136.7949" style="stroke:#454645;stroke-width:1.0;" width="10" x="655.3833" y="148.2031"/><rect fill="#FFFFFF" height="31.291" style="stroke:#454645;stroke-width:1.0;" width="10" x="855.6309" y="354.5801"/><rect fill="#FFFFFF" height="31.291" style="stroke:#454645;stroke-width:1.0;" width="10" x="1045.7715" y="205.7852"/><rect fill="#FFFFFF" height="134.1641" style="stroke:#454645;stroke-width:1.0;" width="10" x="1215.3018" y="417.1621"/><rect fill="#FFFFFF" height="31.291" style="stroke:#454645;stroke-width:1.0;" width="10" x="1765.1587" y="448.4531"/><polygon fill="#454645" points="359.3154,112.9121,369.3154,116.9121,359.3154,120.9121,363.3154,116.9121" style="stroke:#454645;stroke-width:1.0;"/><line style="stroke:#454645;stroke-width:1.0;" x1="45.9585" x2="365.3154" y1="116.9121" y2="116.9121"/><text fill="#000000" font-family="sans-serif" font-size="13" lengthAdjust="spacing" textLength="306.3569" x="52.9585" y="111.6494">POST /api/recommendation (isbn, description, rating)</text><polygon fill="#454645" points="643.3833,144.2031,653.3833,148.2031,643.3833,152.2031,647.3833,148.2031" style="stroke:#454645;stroke-width:1.0;"/><line style="stroke:#454645;stroke-width:1.0;" x1="381.3154" x2="649.3833" y1="148.2031" y2="148.2031"/><text fill="#000000" font-family="sans-serif" font-size="13" lengthAdjust="spacing" textLength="255.0679" x="388.3154" y="142.9404">createRecommendation(request, username)</text><path d="M13.5,163.2031 L70.1709,163.2031 L70.1709,172.4941 L60.1709,182.4941 L10,182.4941 L10,166.7031 A3.5,3.5 0 0 1 13.5,163.2031 " fill="#EEEEEE" style="stroke:#454645;stroke-width:1.5;"/><rect fill="none" height="161.0859" rx="3.5" ry="3.5" style="stroke:#454645;stroke-width:1.0;" width="1125.8677" x="10" y="163.2031"/><text fill="#454645" font-family="sans-serif" font-size="13" font-weight="bold" lengthAdjust="spacing" textLength="15.1709" x="25" y="178.2314">alt</text><text fill="#454645" font-family="sans-serif" font-size="11" font-weight="bold" lengthAdjust="spacing" textLength="85.5615" x="85.1709" y="177.0732">[Lending Exists]</text><polygon fill="#454645" points="1033.7715,201.7852,1043.7715,205.7852,1033.7715,209.7852,1037.7715,205.7852" style="stroke:#454645;stroke-width:1.0;"/><line style="stroke:#454645;stroke-width:1.0;" x1="665.3833" x2="1039.7715" y1="205.7852" y2="205.7852"/><text fill="#000000" font-family="sans-serif" font-size="13" lengthAdjust="spacing" textLength="293.376" x="672.3833" y="200.5225">findLendingByUsernameAndISBN(username, isbn)</text><polygon fill="#454645" points="676.3833,233.0762,666.3833,237.0762,676.3833,241.0762,672.3833,237.0762" style="stroke:#454645;stroke-width:1.0;"/><line style="stroke:#454645;stroke-width:1.0;stroke-dasharray:2.0,2.0;" x1="670.3833" x2="1049.7715" y1="237.0762" y2="237.0762"/><text fill="#000000" font-family="sans-serif" font-size="13" lengthAdjust="spacing" textLength="86.7407" x="682.3833" y="231.8135">Lending Found</text><line style="stroke:#454645;stroke-width:1.0;stroke-dasharray:2.0,2.0;" x1="10" x2="1135.8677" y1="246.0762" y2="246.0762"/><text fill="#454645" font-family="sans-serif" font-size="11" font-weight="bold" lengthAdjust="spacing" textLength="130.7808" x="15" y="257.9463">[Lending Does Not Exist]</text><polygon fill="#454645" points="392.3154,280.998,382.3154,284.998,392.3154,288.998,388.3154,284.998" style="stroke:#454645;stroke-width:1.0;"/><line style="stroke:#454645;stroke-width:1.0;stroke-dasharray:2.0,2.0;" x1="386.3154" x2="659.3833" y1="284.998" y2="284.998"/><text fill="#000000" font-family="sans-serif" font-size="13" lengthAdjust="spacing" textLength="20.2363" x="398.3154" y="279.7354">null</text><polygon fill="#454645" points="56.9585,312.2891,46.9585,316.2891,56.9585,320.2891,52.9585,316.2891" style="stroke:#454645;stroke-width:1.0;"/><line style="stroke:#454645;stroke-width:1.0;stroke-dasharray:2.0,2.0;" x1="50.9585" x2="375.3154" y1="316.2891" y2="316.2891"/><text fill="#000000" font-family="sans-serif" font-size="13" lengthAdjust="spacing" textLength="86.0044" x="62.9585" y="311.0264">404 Not Found</text><polygon fill="#454645" points="843.6309,350.5801,853.6309,354.5801,843.6309,358.5801,847.6309,354.5801" style="stroke:#454645;stroke-width:1.0;"/><line style="stroke:#454645;stroke-width:1.0;" x1="660.3833" x2="849.6309" y1="354.5801" y2="354.5801"/><text fill="#000000" font-family="sans-serif" font-size="13" lengthAdjust="spacing" textLength="165.4644" x="667.3833" y="349.3174">save(new Recommendation)</text><polygon fill="#454645" points="671.3833,381.8711,661.3833,385.8711,671.3833,389.8711,667.3833,385.8711" style="stroke:#454645;stroke-width:1.0;"/><line style="stroke:#454645;stroke-width:1.0;stroke-dasharray:2.0,2.0;" x1="665.3833" x2="859.6309" y1="385.8711" y2="385.8711"/><text fill="#000000" font-family="sans-serif" font-size="13" lengthAdjust="spacing" textLength="142.3589" x="677.3833" y="380.6084">Recommendation Saved</text><polygon fill="#454645" points="1203.3018,413.1621,1213.3018,417.1621,1203.3018,421.1621,1207.3018,417.1621" style="stroke:#454645;stroke-width:1.0;"/><line style="stroke:#454645;stroke-width:1.0;" x1="660.3833" x2="1209.3018" y1="417.1621" y2="417.1621"/><text fill="#000000" font-family="sans-serif" font-size="13" lengthAdjust="spacing" textLength="242.0615" x="667.3833" y="411.8994">sendRecommendations(recommendation)</text><polygon fill="#454645" points="1753.1587,444.4531,1763.1587,448.4531,1753.1587,452.4531,1757.1587,448.4531" style="stroke:#454645;stroke-width:1.0;"/><line style="stroke:#454645;stroke-width:1.0;" x1="1225.3018" x2="1759.1587" y1="448.4531" y2="448.4531"/><text fill="#000000" font-family="sans-serif" font-size="13" lengthAdjust="spacing" textLength="520.8569" x="1232.3018" y="443.1904">convertAndSend(recommendationExchange, "recommendation.created.{username}", json)</text><polygon fill="#454645" points="1236.3018,475.7441,1226.3018,479.7441,1236.3018,483.7441,1232.3018,479.7441" style="stroke:#454645;stroke-width:1.0;"/><line style="stroke:#454645;stroke-width:1.0;stroke-dasharray:2.0,2.0;" x1="1230.3018" x2="1769.1587" y1="479.7441" y2="479.7441"/><text fill="#000000" font-family="sans-serif" font-size="13" lengthAdjust="spacing" textLength="129.3525" x="1242.3018" y="474.4814">Acknowledgment Sent</text><polygon fill="#454645" points="387.3154,507.0352,377.3154,511.0352,387.3154,515.0352,383.3154,511.0352" style="stroke:#454645;stroke-width:1.0;"/><line style="stroke:#454645;stroke-width:1.0;stroke-dasharray:2.0,2.0;" x1="381.3154" x2="659.3833" y1="511.0352" y2="511.0352"/><text fill="#000000" font-family="sans-serif" font-size="13" lengthAdjust="spacing" textLength="151.7471" x="393.3154" y="505.7725">Recommendation Created</text><polygon fill="#454645" points="56.9585,538.3262,46.9585,542.3262,56.9585,546.3262,52.9585,542.3262" style="stroke:#454645;stroke-width:1.0;"/><line style="stroke:#454645;stroke-width:1.0;stroke-dasharray:2.0,2.0;" x1="50.9585" x2="375.3154" y1="542.3262" y2="542.3262"/><text fill="#000000" font-family="sans-serif" font-size="13" lengthAdjust="spacing" textLength="167.6606" x="62.9585" y="537.0635">201 Recommendation Saved</text><!--SRC=[dLFRRjim37tNLt3UGnt0QRkXJtuOqFG235Yx8Ta-GB5PHwjCkPAS9XZsxwDZfuXIsoiQ84Z0GnuUaaSdilQ6wdA9LZH_PURLMde4Gq9yy2ii4RpP2i60iJ17cQC5wM0kAcczobGboNCyCsM9b4kl35qPyjPetMP6Gs0qGh50krOPzjHto5ZnzMoEbN6A5Mzx60xXaEORfoWgNjNtnCV5KzuxUmj4GYpD1g8xT4uM23Dh7ZaA7xKgLdwfQnJ0dqF-BhNDt147aKWmCJ2f47EOVXayHme_lYz-mfcir9aDSY1MRaa9vEWogwecb81bY8g96BpkgrRTSLB8BBABGZ2s-5IZymdK3Yt94YViA_soThZPAEVTRlX-Dt2_dbEayA0exu3PzbT7VadvryNiFjutIw0PSRAZxplqT7YQlS1RKrCkK3jy2LqRT71lV2j-JFleNQZMkgVuSDTDVGeNvnUxTfqK_eh1NGtRFWKdrnWJFXyb7H_xhHiAmx1WzhShQvy5Q-BV476n7PNNlJHc3Du3-y_G6grd3pGfHomtcsmbgM17H25msjesF_spDytVA87VhcaimZSu7PpYCdiaywmnBnZom64ltcE9evLUjTB4_mpo-VnJ_pN-0G00]--></g></svg>