<svg xmlns="http://www.w3.org/2000/svg" xmlns:xlink="http://www.w3.org/1999/xlink" contentStyleType="text/css" height="467px" preserveAspectRatio="none" style="width:910px;height:467px;background:#FFFFFF;" version="1.1" viewBox="0 0 910 467" width="910px" zoomAndPan="magnify"><defs/><g><rect fill="#ADD8E6" height="455.5703" style="stroke:#181818;stroke-width:0.5;" width="152.71" x="752.2163" y="6"/><text fill="#000000" font-family="sans-serif" font-size="13" font-weight="bold" lengthAdjust="spacing" textLength="100.439" x="778.3518" y="20.0283">Message Broker</text><line style="stroke:#181818;stroke-width:0.5;stroke-dasharray:5.0,5.0;" x1="30" x2="30" y1="83.6211" y2="379.9492"/><line style="stroke:#181818;stroke-width:0.5;stroke-dasharray:5.0,5.0;" x1="339.4937" x2="339.4937" y1="83.6211" y2="379.9492"/><line style="stroke:#181818;stroke-width:0.5;stroke-dasharray:5.0,5.0;" x1="563.2173" x2="563.2173" y1="83.6211" y2="379.9492"/><line style="stroke:#181818;stroke-width:0.5;stroke-dasharray:5.0,5.0;" x1="828.2163" x2="828.2163" y1="83.6211" y2="379.9492"/><text fill="#000000" font-family="sans-serif" font-size="14" lengthAdjust="spacing" textLength="45.917" x="5" y="80.1074">Reader</text><ellipse cx="30.9585" cy="13.5" fill="#E2E2F0" rx="8" ry="8" style="stroke:#181818;stroke-width:0.5;"/><path d="M30.9585,21.5 L30.9585,48.5 M17.9585,29.5 L43.9585,29.5 M30.9585,48.5 L17.9585,63.5 M30.9585,48.5 L43.9585,63.5 " fill="none" style="stroke:#181818;stroke-width:0.5;"/><text fill="#000000" font-family="sans-serif" font-size="14" lengthAdjust="spacing" textLength="45.917" x="5" y="394.0566">Reader</text><ellipse cx="30.9585" cy="406.0703" fill="#E2E2F0" rx="8" ry="8" style="stroke:#181818;stroke-width:0.5;"/><path d="M30.9585,414.0703 L30.9585,441.0703 M17.9585,422.0703 L43.9585,422.0703 M30.9585,441.0703 L17.9585,456.0703 M30.9585,441.0703 L43.9585,456.0703 " fill="none" style="stroke:#181818;stroke-width:0.5;"/><rect fill="#E2E2F0" height="32.6211" rx="2.5" ry="2.5" style="stroke:#181818;stroke-width:0.5;" width="137.7236" x="271.4937" y="50"/><text fill="#000000" font-family="sans-serif" font-size="14" lengthAdjust="spacing" textLength="123.7236" x="278.4937" y="72.1074">booksC[1] : BooksC</text><rect fill="#E2E2F0" height="32.6211" rx="2.5" ry="2.5" style="stroke:#181818;stroke-width:0.5;" width="137.7236" x="271.4937" y="378.9492"/><text fill="#000000" font-family="sans-serif" font-size="14" lengthAdjust="spacing" textLength="123.7236" x="278.4937" y="401.0566">booksC[1] : BooksC</text><rect fill="#E2E2F0" height="32.6211" rx="2.5" ry="2.5" style="stroke:#181818;stroke-width:0.5;" width="289.4541" x="419.2173" y="50"/><text fill="#000000" font-family="sans-serif" font-size="14" lengthAdjust="spacing" textLength="275.4541" x="426.2173" y="72.1074">recommendationsC[1] : RecommendationsC</text><rect fill="#E2E2F0" height="32.6211" rx="2.5" ry="2.5" style="stroke:#181818;stroke-width:0.5;" width="289.4541" x="419.2173" y="378.9492"/><text fill="#000000" font-family="sans-serif" font-size="14" lengthAdjust="spacing" textLength="275.4541" x="426.2173" y="401.0566">recommendationsC[1] : RecommendationsC</text><rect fill="#E2E2F0" height="32.6211" rx="2.5" ry="2.5" style="stroke:#181818;stroke-width:0.5;" width="144.71" x="756.2163" y="50"/><text fill="#000000" font-family="sans-serif" font-size="14" lengthAdjust="spacing" textLength="130.71" x="763.2163" y="72.1074">MB : MessageBroker</text><rect fill="#E2E2F0" height="32.6211" rx="2.5" ry="2.5" style="stroke:#181818;stroke-width:0.5;" width="144.71" x="756.2163" y="378.9492"/><text fill="#000000" font-family="sans-serif" font-size="14" lengthAdjust="spacing" textLength="130.71" x="763.2163" y="401.0566">MB : MessageBroker</text><polygon fill="#181818" points="328.3555,112.9121,338.3555,116.9121,328.3555,120.9121,332.3555,116.9121" style="stroke:#181818;stroke-width:1.0;"/><line style="stroke:#181818;stroke-width:1.0;" x1="30.9585" x2="334.3555" y1="116.9121" y2="116.9121"/><text fill="#000000" font-family="sans-serif" font-size="13" lengthAdjust="spacing" textLength="285.397" x="37.9585" y="111.6494">POST /recommendation (isbn, description, rating)</text><line style="stroke:#181818;stroke-width:1.0;" x1="340.3555" x2="382.3555" y1="148.2031" y2="148.2031"/><line style="stroke:#181818;stroke-width:1.0;" x1="382.3555" x2="382.3555" y1="148.2031" y2="161.2031"/><line style="stroke:#181818;stroke-width:1.0;" x1="341.3555" x2="382.3555" y1="161.2031" y2="161.2031"/><polygon fill="#181818" points="351.3555,157.2031,341.3555,161.2031,351.3555,165.2031,347.3555,161.2031" style="stroke:#181818;stroke-width:1.0;"/><text fill="#000000" font-family="sans-serif" font-size="13" lengthAdjust="spacing" textLength="83.8081" x="347.3555" y="142.9404">validateISBN()</text><polygon fill="#181818" points="816.5713,188.4941,826.5713,192.4941,816.5713,196.4941,820.5713,192.4941" style="stroke:#181818;stroke-width:1.0;"/><line style="stroke:#181818;stroke-width:1.0;" x1="340.3555" x2="822.5713" y1="192.4941" y2="192.4941"/><text fill="#000000" font-family="sans-serif" font-size="13" lengthAdjust="spacing" textLength="278.2368" x="347.3555" y="187.2314">publish {book_returned, isbn, description, rating}</text><polygon fill="#181818" points="351.3555,219.7852,341.3555,223.7852,351.3555,227.7852,347.3555,223.7852" style="stroke:#181818;stroke-width:1.0;"/><line style="stroke:#181818;stroke-width:1.0;stroke-dasharray:2.0,2.0;" x1="345.3555" x2="827.5713" y1="223.7852" y2="223.7852"/><text fill="#000000" font-family="sans-serif" font-size="13" lengthAdjust="spacing" textLength="21.6899" x="357.3555" y="218.5225">201</text><polygon fill="#181818" points="41.9585,251.0762,31.9585,255.0762,41.9585,259.0762,37.9585,255.0762" style="stroke:#181818;stroke-width:1.0;"/><line style="stroke:#181818;stroke-width:1.0;stroke-dasharray:2.0,2.0;" x1="35.9585" x2="339.3555" y1="255.0762" y2="255.0762"/><text fill="#000000" font-family="sans-serif" font-size="13" lengthAdjust="spacing" textLength="239.1924" x="47.9585" y="249.8135">201 Book Returned with recommendation</text><polygon fill="#181818" points="816.5713,282.3672,826.5713,286.3672,816.5713,290.3672,820.5713,286.3672" style="stroke:#181818;stroke-width:1.0;"/><line style="stroke:#181818;stroke-width:1.0;" x1="340.3555" x2="822.5713" y1="286.3672" y2="286.3672"/><text fill="#000000" font-family="sans-serif" font-size="13" lengthAdjust="spacing" textLength="177.0615" x="347.3555" y="281.1045">publish {book_confirmed, isbn}</text><polygon fill="#181818" points="574.9443,313.6582,564.9443,317.6582,574.9443,321.6582,570.9443,317.6582" style="stroke:#181818;stroke-width:1.0;"/><line style="stroke:#181818;stroke-width:1.0;" x1="568.9443" x2="827.5713" y1="317.6582" y2="317.6582"/><text fill="#000000" font-family="sans-serif" font-size="13" lengthAdjust="spacing" textLength="240.627" x="580.9443" y="312.3955">notify(book.returned.#, description, rating)</text><line style="stroke:#181818;stroke-width:1.0;" x1="563.9443" x2="605.9443" y1="348.9492" y2="348.9492"/><line style="stroke:#181818;stroke-width:1.0;" x1="605.9443" x2="605.9443" y1="348.9492" y2="361.9492"/><line style="stroke:#181818;stroke-width:1.0;" x1="564.9443" x2="605.9443" y1="361.9492" y2="361.9492"/><polygon fill="#181818" points="574.9443,357.9492,564.9443,361.9492,574.9443,365.9492,570.9443,361.9492" style="stroke:#181818;stroke-width:1.0;"/><text fill="#000000" font-family="sans-serif" font-size="13" lengthAdjust="spacing" textLength="138.0044" x="570.9443" y="343.6865">saveRecommendation()</text><!--SRC=[bL7DJeGm4BxtAIRi1PFTLJnos0EUFAmQy6QCAMKMceMMJ0jgpBwx1SMak9ZOKpFp_SqC5rOJfCWB9E06KjPoibB8bYiBGQxrqTmyHSyGGpB-Wm4rVZEaNWgCV0QXq4s3gk1MQZLnqrbrL9aLV_HOhjyWsACnl4H8I1-H0bZLigniNdV8m3tFT9yuZs_2X7S6NeKv8t3AZAMmsVaZnF1mdpt2fHyUGcbojOO2ZI3P3gKra6kfye9v_3E2FQ-bay7RBBaBpy2zR36qNLvBKy77iF4NGjkHmc8DYmbEp5E0pUy8rrVHtDU1qh4nOjq5ldpWLTeA_Ed_6LbeTP3KJ9bFR9vljtJl69Isyl0U3ZhRQVJjQc7n2of_6XZUezzq9_a4]--></g></svg>