<svg xmlns="http://www.w3.org/2000/svg" xmlns:xlink="http://www.w3.org/1999/xlink" contentStyleType="text/css" height="374px" preserveAspectRatio="none" style="width:754px;height:374px;background:#FFFFFF;" version="1.1" viewBox="0 0 754 374" width="754px" zoomAndPan="magnify"><defs/><g><line style="stroke:#181818;stroke-width:0.5;stroke-dasharray:5.0,5.0;" x1="30" x2="30" y1="83.6211" y2="291.3672"/><line style="stroke:#181818;stroke-width:0.5;stroke-dasharray:5.0,5.0;" x1="196.4829" x2="196.4829" y1="83.6211" y2="291.3672"/><line style="stroke:#181818;stroke-width:0.5;stroke-dasharray:5.0,5.0;" x1="505.8491" x2="505.8491" y1="83.6211" y2="291.3672"/><line style="stroke:#181818;stroke-width:0.5;stroke-dasharray:5.0,5.0;" x1="721.1001" x2="721.1001" y1="83.6211" y2="291.3672"/><text fill="#000000" font-family="sans-serif" font-size="14" lengthAdjust="spacing" textLength="45.917" x="5" y="80.1074">Reader</text><ellipse cx="30.9585" cy="13.5" fill="#E2E2F0" rx="8" ry="8" style="stroke:#181818;stroke-width:0.5;"/><path d="M30.9585,21.5 L30.9585,48.5 M17.9585,29.5 L43.9585,29.5 M30.9585,48.5 L17.9585,63.5 M30.9585,48.5 L43.9585,63.5 " fill="none" style="stroke:#181818;stroke-width:0.5;"/><text fill="#000000" font-family="sans-serif" font-size="14" lengthAdjust="spacing" textLength="45.917" x="5" y="305.4746">Reader</text><ellipse cx="30.9585" cy="317.4883" fill="#E2E2F0" rx="8" ry="8" style="stroke:#181818;stroke-width:0.5;"/><path d="M30.9585,325.4883 L30.9585,352.4883 M17.9585,333.4883 L43.9585,333.4883 M30.9585,352.4883 L17.9585,367.4883 M30.9585,352.4883 L43.9585,367.4883 " fill="none" style="stroke:#181818;stroke-width:0.5;"/><rect fill="#E2E2F0" height="32.6211" rx="2.5" ry="2.5" style="stroke:#181818;stroke-width:0.5;" width="90.2344" x="151.4829" y="50"/><text fill="#000000" font-family="sans-serif" font-size="14" lengthAdjust="spacing" textLength="76.2344" x="158.4829" y="72.1074">HTTP Client</text><rect fill="#E2E2F0" height="32.6211" rx="2.5" ry="2.5" style="stroke:#181818;stroke-width:0.5;" width="90.2344" x="151.4829" y="290.3672"/><text fill="#000000" font-family="sans-serif" font-size="14" lengthAdjust="spacing" textLength="76.2344" x="158.4829" y="312.4746">HTTP Client</text><rect fill="#E2E2F0" height="32.6211" rx="2.5" ry="2.5" style="stroke:#181818;stroke-width:0.5;" width="174.2959" x="418.8491" y="50"/><text fill="#000000" font-family="sans-serif" font-size="14" lengthAdjust="spacing" textLength="160.2959" x="425.8491" y="72.1074">Recommendation Service</text><rect fill="#E2E2F0" height="32.6211" rx="2.5" ry="2.5" style="stroke:#181818;stroke-width:0.5;" width="174.2959" x="418.8491" y="290.3672"/><text fill="#000000" font-family="sans-serif" font-size="14" lengthAdjust="spacing" textLength="160.2959" x="425.8491" y="312.4746">Recommendation Service</text><rect fill="#E2E2F0" height="32.6211" rx="2.5" ry="2.5" style="stroke:#181818;stroke-width:0.5;" width="54.4688" x="694.1001" y="50"/><text fill="#000000" font-family="sans-serif" font-size="14" lengthAdjust="spacing" textLength="40.4688" x="701.1001" y="72.1074">Rabbit</text><rect fill="#E2E2F0" height="32.6211" rx="2.5" ry="2.5" style="stroke:#181818;stroke-width:0.5;" width="54.4688" x="694.1001" y="290.3672"/><text fill="#000000" font-family="sans-serif" font-size="14" lengthAdjust="spacing" textLength="40.4688" x="701.1001" y="312.4746">Rabbit</text><polygon fill="#181818" points="184.6001,112.9121,194.6001,116.9121,184.6001,120.9121,188.6001,116.9121" style="stroke:#181818;stroke-width:1.0;"/><line style="stroke:#181818;stroke-width:1.0;" x1="30.9585" x2="190.6001" y1="116.9121" y2="116.9121"/><text fill="#000000" font-family="sans-serif" font-size="13" lengthAdjust="spacing" textLength="141.6416" x="37.9585" y="111.6494">Send a recommendation</text><polygon fill="#181818" points="493.9971,144.2031,503.9971,148.2031,493.9971,152.2031,497.9971,148.2031" style="stroke:#181818;stroke-width:1.0;"/><line style="stroke:#181818;stroke-width:1.0;" x1="196.6001" x2="499.9971" y1="148.2031" y2="148.2031"/><text fill="#000000" font-family="sans-serif" font-size="13" lengthAdjust="spacing" textLength="285.397" x="203.6001" y="142.9404">POST /recommendation (isbn, description, rating)</text><polygon fill="#181818" points="207.6001,175.4941,197.6001,179.4941,207.6001,183.4941,203.6001,179.4941" style="stroke:#181818;stroke-width:1.0;"/><line style="stroke:#181818;stroke-width:1.0;stroke-dasharray:2.0,2.0;" x1="201.6001" x2="504.9971" y1="179.4941" y2="179.4941"/><text fill="#000000" font-family="sans-serif" font-size="13" lengthAdjust="spacing" textLength="79.5044" x="213.6001" y="174.2314">202 Accepted</text><polygon fill="#181818" points="41.9585,206.7852,31.9585,210.7852,41.9585,214.7852,37.9585,210.7852" style="stroke:#181818;stroke-width:1.0;"/><line style="stroke:#181818;stroke-width:1.0;stroke-dasharray:2.0,2.0;" x1="35.9585" x2="195.6001" y1="210.7852" y2="210.7852"/><text fill="#000000" font-family="sans-serif" font-size="13" lengthAdjust="spacing" textLength="44.0845" x="47.9585" y="205.5225">200 OK</text><polygon fill="#181818" points="709.3345,238.0762,719.3345,242.0762,709.3345,246.0762,713.3345,242.0762" style="stroke:#181818;stroke-width:1.0;"/><line style="stroke:#181818;stroke-width:1.0;" x1="505.9971" x2="715.3345" y1="242.0762" y2="242.0762"/><text fill="#000000" font-family="sans-serif" font-size="13" lengthAdjust="spacing" textLength="191.3374" x="512.9971" y="236.8135">Publish "Send Recommendation"</text><polygon fill="#181818" points="516.9971,269.3672,506.9971,273.3672,516.9971,277.3672,512.9971,273.3672" style="stroke:#181818;stroke-width:1.0;"/><line style="stroke:#181818;stroke-width:1.0;stroke-dasharray:2.0,2.0;" x1="510.9971" x2="720.3345" y1="273.3672" y2="273.3672"/><text fill="#000000" font-family="sans-serif" font-size="13" lengthAdjust="spacing" textLength="177.5947" x="522.9971" y="268.1045">"Recommendation Registered"</text><!--SRC=[NP312i8m44Jl-OeX9mN5qgC7GRm87fIqFv0cYoveMfBezziqKjlUbftPDyDg4riFHTgIXmvGejC-ik5EkmXvhkiRJayc5sMIypZtA3BjwqNEwiYjGqN-muO6-oWjBdJJS0RcKGY5xU57t_S8Pw7XPs2HrUGRiNlShbMDtTo95OV6RM0f6CzTMctWUydTrsAynNQIM1ObZiPG5ycEGIafIGMk5p4zFFngz_7lvidX0JbKddz2YkpAe7_bvSCKtJb4ycJb5m00]--></g></svg>