<svg xmlns="http://www.w3.org/2000/svg" xmlns:xlink="http://www.w3.org/1999/xlink" contentStyleType="text/css" height="684px" preserveAspectRatio="none" style="width:895px;height:684px;background:#DDDDDD;" version="1.1" viewBox="0 0 895 684" width="895px" zoomAndPan="magnify"><defs/><g><rect fill="#DDDDDD" height="684" style="stroke:none;stroke-width:1.0;" width="895" x="0" y="0"/><rect fill="#FFFFFF" height="556.5488" style="stroke:#454645;stroke-width:1.0;" width="10" x="197.8989" y="71.9121"/><rect fill="#FFFFFF" height="136.7949" style="stroke:#454645;stroke-width:1.0;" width="10" x="432.3101" y="103.2031"/><rect fill="#FFFFFF" height="57.582" style="stroke:#454645;stroke-width:1.0;" width="10" x="558.5127" y="134.4941"/><rect fill="#FFFFFF" height="57.582" style="stroke:#454645;stroke-width:1.0;" width="10" x="688.3433" y="278.2891"/><rect fill="#FFFFFF" height="57.582" style="stroke:#454645;stroke-width:1.0;" width="10" x="817.791" y="422.084"/><rect fill="#FFFFFF" height="31.291" style="stroke:#454645;stroke-width:1.0;" width="10" x="817.791" y="510.957"/><rect fill="none" height="98.5039" rx="3.5" ry="3.5" style="stroke:#454645;stroke-width:1.0;" width="489.9443" x="139.9819" y="149.4941"/><rect fill="none" height="98.5039" rx="3.5" ry="3.5" style="stroke:#454645;stroke-width:1.0;" width="626.7783" x="139.9819" y="293.2891"/><rect fill="none" height="161.0859" rx="3.5" ry="3.5" style="stroke:#454645;stroke-width:1.0;" width="748.8398" x="139.9819" y="437.084"/><line style="stroke:#454645;stroke-width:0.5;stroke-dasharray:5.0,5.0;" x1="201.9819" x2="201.9819" y1="38.6211" y2="646.4609"/><line style="stroke:#454645;stroke-width:0.5;stroke-dasharray:5.0,5.0;" x1="436.3965" x2="436.3965" y1="38.6211" y2="646.4609"/><line style="stroke:#454645;stroke-width:0.5;stroke-dasharray:5.0,5.0;" x1="563.0991" x2="563.0991" y1="38.6211" y2="646.4609"/><line style="stroke:#454645;stroke-width:0.5;stroke-dasharray:5.0,5.0;" x1="692.9263" x2="692.9263" y1="38.6211" y2="646.4609"/><line style="stroke:#454645;stroke-width:0.5;stroke-dasharray:5.0,5.0;" x1="822.7603" x2="822.7603" y1="38.6211" y2="646.4609"/><rect fill="#FF6F61" height="32.6211" rx="3.5" ry="3.5" style="stroke:#454645;stroke-width:1.5;" width="105.834" x="149.9819" y="5"/><text fill="#FFFFFF" font-family="sans-serif" font-size="14" lengthAdjust="spacing" textLength="91.834" x="156.9819" y="27.1074">LendController</text><rect fill="#FF6F61" height="32.6211" rx="3.5" ry="3.5" style="stroke:#454645;stroke-width:1.5;" width="105.834" x="149.9819" y="645.4609"/><text fill="#FFFFFF" font-family="sans-serif" font-size="14" lengthAdjust="spacing" textLength="91.834" x="156.9819" y="667.5684">LendController</text><rect fill="#FF6F61" height="32.6211" rx="3.5" ry="3.5" style="stroke:#454645;stroke-width:1.5;" width="91.8271" x="391.3965" y="5"/><text fill="#FFFFFF" font-family="sans-serif" font-size="14" lengthAdjust="spacing" textLength="77.8271" x="398.3965" y="27.1074">LendService</text><rect fill="#FF6F61" height="32.6211" rx="3.5" ry="3.5" style="stroke:#454645;stroke-width:1.5;" width="91.8271" x="391.3965" y="645.4609"/><text fill="#FFFFFF" font-family="sans-serif" font-size="14" lengthAdjust="spacing" textLength="77.8271" x="398.3965" y="667.5684">LendService</text><rect fill="#FF6F61" height="32.6211" rx="3.5" ry="3.5" style="stroke:#454645;stroke-width:1.5;" width="112.8271" x="507.0991" y="5"/><text fill="#FFFFFF" font-family="sans-serif" font-size="14" lengthAdjust="spacing" textLength="98.8271" x="514.0991" y="27.1074">BookRepository</text><rect fill="#FF6F61" height="32.6211" rx="3.5" ry="3.5" style="stroke:#454645;stroke-width:1.5;" width="112.8271" x="507.0991" y="645.4609"/><text fill="#FFFFFF" font-family="sans-serif" font-size="14" lengthAdjust="spacing" textLength="98.8271" x="514.0991" y="667.5684">BookRepository</text><rect fill="#FF6F61" height="32.6211" rx="3.5" ry="3.5" style="stroke:#454645;stroke-width:1.5;" width="126.834" x="629.9263" y="5"/><text fill="#FFFFFF" font-family="sans-serif" font-size="14" lengthAdjust="spacing" textLength="112.834" x="636.9263" y="27.1074">ReaderRepository</text><rect fill="#FF6F61" height="32.6211" rx="3.5" ry="3.5" style="stroke:#454645;stroke-width:1.5;" width="126.834" x="629.9263" y="645.4609"/><text fill="#FFFFFF" font-family="sans-serif" font-size="14" lengthAdjust="spacing" textLength="112.834" x="636.9263" y="667.5684">ReaderRepository</text><rect fill="#FF6F61" height="32.6211" rx="3.5" ry="3.5" style="stroke:#454645;stroke-width:1.5;" width="112.0615" x="766.7603" y="5"/><text fill="#FFFFFF" font-family="sans-serif" font-size="14" lengthAdjust="spacing" textLength="98.0615" x="773.7603" y="27.1074">LendRepository</text><rect fill="#FF6F61" height="32.6211" rx="3.5" ry="3.5" style="stroke:#454645;stroke-width:1.5;" width="112.0615" x="766.7603" y="645.4609"/><text fill="#FFFFFF" font-family="sans-serif" font-size="14" lengthAdjust="spacing" textLength="98.0615" x="773.7603" y="667.5684">LendRepository</text><rect fill="#FFFFFF" height="556.5488" style="stroke:#454645;stroke-width:1.0;" width="10" x="197.8989" y="71.9121"/><rect fill="#FFFFFF" height="136.7949" style="stroke:#454645;stroke-width:1.0;" width="10" x="432.3101" y="103.2031"/><rect fill="#FFFFFF" height="57.582" style="stroke:#454645;stroke-width:1.0;" width="10" x="558.5127" y="134.4941"/><rect fill="#FFFFFF" height="57.582" style="stroke:#454645;stroke-width:1.0;" width="10" x="688.3433" y="278.2891"/><rect fill="#FFFFFF" height="57.582" style="stroke:#454645;stroke-width:1.0;" width="10" x="817.791" y="422.084"/><rect fill="#FFFFFF" height="31.291" style="stroke:#454645;stroke-width:1.0;" width="10" x="817.791" y="510.957"/><ellipse cx="7.5" cy="71.1621" fill="#000000" rx="4" ry="4" style="stroke:#454645;stroke-width:1.5;"/><polygon fill="#454645" points="185.8989,67.9121,195.8989,71.9121,185.8989,75.9121,189.8989,71.9121" style="stroke:#454645;stroke-width:1.0;"/><line style="stroke:#454645;stroke-width:1.0;" x1="12" x2="191.8989" y1="71.9121" y2="71.9121"/><text fill="#000000" font-family="sans-serif" font-size="13" font-weight="bold" lengthAdjust="spacing" textLength="7.23" x="15" y="66.6494">1</text><text fill="#000000" font-family="sans-serif" font-size="13" lengthAdjust="spacing" textLength="154.6353" x="26.23" y="66.6494">POST /lendBookToReader</text><polygon fill="#454645" points="420.3101,99.2031,430.3101,103.2031,420.3101,107.2031,424.3101,103.2031" style="stroke:#454645;stroke-width:1.0;"/><line style="stroke:#454645;stroke-width:1.0;" x1="207.8989" x2="426.3101" y1="103.2031" y2="103.2031"/><text fill="#000000" font-family="sans-serif" font-size="13" font-weight="bold" lengthAdjust="spacing" textLength="7.23" x="214.8989" y="97.9404">2</text><text fill="#000000" font-family="sans-serif" font-size="13" lengthAdjust="spacing" textLength="189.3188" x="226.1289" y="97.9404">lendBook(reader_number, ISBN)</text><polygon fill="#454645" points="546.5127,130.4941,556.5127,134.4941,546.5127,138.4941,550.5127,134.4941" style="stroke:#454645;stroke-width:1.0;"/><line style="stroke:#454645;stroke-width:1.0;" x1="442.3101" x2="552.5127" y1="134.4941" y2="134.4941"/><text fill="#000000" font-family="sans-serif" font-size="13" font-weight="bold" lengthAdjust="spacing" textLength="7.23" x="449.3101" y="129.2314">3</text><text fill="#000000" font-family="sans-serif" font-size="13" lengthAdjust="spacing" textLength="85.9727" x="460.54" y="129.2314">findById(ISBN)</text><path d="M143.4819,149.4941 L200.1528,149.4941 L200.1528,158.7852 L190.1528,168.7852 L139.9819,168.7852 L139.9819,152.9941 A3.5,3.5 0 0 1 143.4819,149.4941 " fill="#EEEEEE" style="stroke:#454645;stroke-width:1.5;"/><rect fill="none" height="98.5039" rx="3.5" ry="3.5" style="stroke:#454645;stroke-width:1.0;" width="489.9443" x="139.9819" y="149.4941"/><text fill="#454645" font-family="sans-serif" font-size="13" font-weight="bold" lengthAdjust="spacing" textLength="15.1709" x="154.9819" y="164.5225">alt</text><text fill="#454645" font-family="sans-serif" font-size="11" font-weight="bold" lengthAdjust="spacing" textLength="69.0723" x="215.1528" y="163.3643">[Book exists]</text><polygon fill="#454645" points="453.3101,188.0762,443.3101,192.0762,453.3101,196.0762,449.3101,192.0762" style="stroke:#454645;stroke-width:1.0;"/><line style="stroke:#454645;stroke-width:1.0;stroke-dasharray:2.0,2.0;" x1="447.3101" x2="562.5127" y1="192.0762" y2="192.0762"/><text fill="#000000" font-family="sans-serif" font-size="13" font-weight="bold" lengthAdjust="spacing" textLength="7.23" x="459.3101" y="186.8135">4</text><text fill="#000000" font-family="sans-serif" font-size="13" lengthAdjust="spacing" textLength="28.1899" x="470.54" y="186.8135">book</text><line style="stroke:#454645;stroke-width:1.0;stroke-dasharray:2.0,2.0;" x1="139.9819" x2="629.9263" y1="201.0762" y2="201.0762"/><text fill="#454645" font-family="sans-serif" font-size="11" font-weight="bold" lengthAdjust="spacing" textLength="111.8423" x="144.9819" y="212.9463">[Book does not exist]</text><polygon fill="#454645" points="218.8989,235.998,208.8989,239.998,218.8989,243.998,214.8989,239.998" style="stroke:#454645;stroke-width:1.0;"/><line style="stroke:#454645;stroke-width:1.0;stroke-dasharray:2.0,2.0;" x1="212.8989" x2="436.3101" y1="239.998" y2="239.998"/><text fill="#000000" font-family="sans-serif" font-size="13" font-weight="bold" lengthAdjust="spacing" textLength="7.23" x="224.8989" y="234.7354">5</text><text fill="#000000" font-family="sans-serif" font-size="13" lengthAdjust="spacing" textLength="132.793" x="236.1289" y="234.7354">error("Book not found")</text><polygon fill="#454645" points="676.3433,274.2891,686.3433,278.2891,676.3433,282.2891,680.3433,278.2891" style="stroke:#454645;stroke-width:1.0;"/><line style="stroke:#454645;stroke-width:1.0;" x1="437.3101" x2="682.3433" y1="278.2891" y2="278.2891"/><text fill="#000000" font-family="sans-serif" font-size="13" font-weight="bold" lengthAdjust="spacing" textLength="7.23" x="444.3101" y="273.0264">6</text><text fill="#000000" font-family="sans-serif" font-size="13" lengthAdjust="spacing" textLength="144.5171" x="455.54" y="273.0264">findById(reader_number)</text><path d="M143.4819,293.2891 L200.1528,293.2891 L200.1528,302.5801 L190.1528,312.5801 L139.9819,312.5801 L139.9819,296.7891 A3.5,3.5 0 0 1 143.4819,293.2891 " fill="#EEEEEE" style="stroke:#454645;stroke-width:1.5;"/><rect fill="none" height="98.5039" rx="3.5" ry="3.5" style="stroke:#454645;stroke-width:1.0;" width="626.7783" x="139.9819" y="293.2891"/><text fill="#454645" font-family="sans-serif" font-size="13" font-weight="bold" lengthAdjust="spacing" textLength="15.1709" x="154.9819" y="308.3174">alt</text><text fill="#454645" font-family="sans-serif" font-size="11" font-weight="bold" lengthAdjust="spacing" textLength="78.8691" x="215.1528" y="307.1592">[Reader exists]</text><polygon fill="#454645" points="448.3101,331.8711,438.3101,335.8711,448.3101,339.8711,444.3101,335.8711" style="stroke:#454645;stroke-width:1.0;"/><line style="stroke:#454645;stroke-width:1.0;stroke-dasharray:2.0,2.0;" x1="442.3101" x2="692.3433" y1="335.8711" y2="335.8711"/><text fill="#000000" font-family="sans-serif" font-size="13" font-weight="bold" lengthAdjust="spacing" textLength="7.23" x="454.3101" y="330.6084">7</text><text fill="#000000" font-family="sans-serif" font-size="13" lengthAdjust="spacing" textLength="37.5781" x="465.54" y="330.6084">reader</text><line style="stroke:#454645;stroke-width:1.0;stroke-dasharray:2.0,2.0;" x1="139.9819" x2="766.7603" y1="344.8711" y2="344.8711"/><text fill="#454645" font-family="sans-serif" font-size="11" font-weight="bold" lengthAdjust="spacing" textLength="121.6392" x="144.9819" y="356.7412">[Reader does not exist]</text><polygon fill="#454645" points="218.8989,379.793,208.8989,383.793,218.8989,387.793,214.8989,383.793" style="stroke:#454645;stroke-width:1.0;"/><line style="stroke:#454645;stroke-width:1.0;stroke-dasharray:2.0,2.0;" x1="212.8989" x2="436.3101" y1="383.793" y2="383.793"/><text fill="#000000" font-family="sans-serif" font-size="13" font-weight="bold" lengthAdjust="spacing" textLength="7.23" x="224.8989" y="378.5303">8</text><text fill="#000000" font-family="sans-serif" font-size="13" lengthAdjust="spacing" textLength="145.7993" x="236.1289" y="378.5303">error("Reader not found")</text><polygon fill="#454645" points="805.791,418.084,815.791,422.084,805.791,426.084,809.791,422.084" style="stroke:#454645;stroke-width:1.0;"/><line style="stroke:#454645;stroke-width:1.0;" x1="437.3101" x2="811.791" y1="422.084" y2="422.084"/><text fill="#000000" font-family="sans-serif" font-size="13" font-weight="bold" lengthAdjust="spacing" textLength="7.23" x="444.3101" y="416.8213">9</text><text fill="#000000" font-family="sans-serif" font-size="13" lengthAdjust="spacing" textLength="240.6206" x="455.54" y="416.8213">countByReader_Number(reader_number)</text><path d="M143.4819,437.084 L200.1528,437.084 L200.1528,446.375 L190.1528,456.375 L139.9819,456.375 L139.9819,440.584 A3.5,3.5 0 0 1 143.4819,437.084 " fill="#EEEEEE" style="stroke:#454645;stroke-width:1.5;"/><rect fill="none" height="161.0859" rx="3.5" ry="3.5" style="stroke:#454645;stroke-width:1.0;" width="748.8398" x="139.9819" y="437.084"/><text fill="#454645" font-family="sans-serif" font-size="13" font-weight="bold" lengthAdjust="spacing" textLength="15.1709" x="154.9819" y="452.1123">alt</text><text fill="#454645" font-family="sans-serif" font-size="11" font-weight="bold" lengthAdjust="spacing" textLength="158.3345" x="215.1528" y="450.9541">[Reader has less than 3 lends]</text><polygon fill="#454645" points="448.3101,475.666,438.3101,479.666,448.3101,483.666,444.3101,479.666" style="stroke:#454645;stroke-width:1.0;"/><line style="stroke:#454645;stroke-width:1.0;stroke-dasharray:2.0,2.0;" x1="442.3101" x2="821.791" y1="479.666" y2="479.666"/><text fill="#000000" font-family="sans-serif" font-size="13" font-weight="bold" lengthAdjust="spacing" textLength="14.46" x="454.3101" y="474.4033">10</text><text fill="#000000" font-family="sans-serif" font-size="13" lengthAdjust="spacing" textLength="59.2681" x="472.77" y="474.4033">lendCount</text><polygon fill="#454645" points="805.791,506.957,815.791,510.957,805.791,514.957,809.791,510.957" style="stroke:#454645;stroke-width:1.0;"/><line style="stroke:#454645;stroke-width:1.0;" x1="437.3101" x2="811.791" y1="510.957" y2="510.957"/><text fill="#000000" font-family="sans-serif" font-size="13" font-weight="bold" lengthAdjust="spacing" textLength="14.46" x="444.3101" y="505.6943">11</text><text fill="#000000" font-family="sans-serif" font-size="13" lengthAdjust="spacing" textLength="200.1606" x="462.77" y="505.6943">createLend(reader_number, ISBN)</text><polygon fill="#454645" points="448.3101,538.248,438.3101,542.248,448.3101,546.248,444.3101,542.248" style="stroke:#454645;stroke-width:1.0;"/><line style="stroke:#454645;stroke-width:1.0;stroke-dasharray:2.0,2.0;" x1="442.3101" x2="821.791" y1="542.248" y2="542.248"/><text fill="#000000" font-family="sans-serif" font-size="13" font-weight="bold" lengthAdjust="spacing" textLength="14.46" x="454.3101" y="536.9854">12</text><text fill="#000000" font-family="sans-serif" font-size="13" lengthAdjust="spacing" textLength="24.5781" x="472.77" y="536.9854">lend</text><line style="stroke:#454645;stroke-width:1.0;stroke-dasharray:2.0,2.0;" x1="139.9819" x2="888.8218" y1="551.248" y2="551.248"/><text fill="#454645" font-family="sans-serif" font-size="11" font-weight="bold" lengthAdjust="spacing" textLength="151.6045" x="144.9819" y="563.1182">[Reader has 3 or more lends]</text><polygon fill="#454645" points="218.8989,586.1699,208.8989,590.1699,218.8989,594.1699,214.8989,590.1699" style="stroke:#454645;stroke-width:1.0;"/><line style="stroke:#454645;stroke-width:1.0;stroke-dasharray:2.0,2.0;" x1="212.8989" x2="436.3101" y1="590.1699" y2="590.1699"/><text fill="#000000" font-family="sans-serif" font-size="13" font-weight="bold" lengthAdjust="spacing" textLength="14.46" x="224.8989" y="584.9072">13</text><text fill="#000000" font-family="sans-serif" font-size="13" lengthAdjust="spacing" textLength="186.9512" x="243.3589" y="584.9072">error("Maximum lends reached")</text><ellipse cx="7.5" cy="627.7109" fill="#000000" rx="4" ry="4" style="stroke:#454645;stroke-width:1.5;"/><polygon fill="#454645" points="24.5,624.4609,14.5,628.4609,24.5,632.4609,20.5,628.4609" style="stroke:#454645;stroke-width:1.0;"/><line style="stroke:#454645;stroke-width:1.0;stroke-dasharray:2.0,2.0;" x1="18.5" x2="201.8989" y1="628.4609" y2="628.4609"/><text fill="#000000" font-family="sans-serif" font-size="13" font-weight="bold" lengthAdjust="spacing" textLength="14.46" x="25" y="623.1982">14</text><text fill="#000000" font-family="sans-serif" font-size="13" lengthAdjust="spacing" textLength="152.439" x="43.46" y="623.1982">Response (Success/Error)</text><!--SRC=[ZP91J-Cm48Nl_XMplT1AsysXjmZjeQiz8B60McuSa766ZONZ2VQaelyUnmweTYf1JidJzpnlddFHClU-hghUICj3PtufwYgFhmDQXUj6o_zETaB8WSaEtHEw-2eLwuDa1B92_E0MEmIcen2zTAoLxiDXS8ss-KEM7Hc33gI7HIujPlWUtK4h_6IdxnpS4htii2UlcTmnihcKupkK3Rh2K8hpA8KXbnP2FD3wTxbY3NUt-tkeJ937IFUKveY2cvpJTZLyy4iNySVKz4-usczlLaASDXEi-R8rFElWFburouHBaoe2VDEUlO3mEEJ1MNWAia3ZCG4DeGTBdCXJ49qZjuorHk2P1jiiLY84cSKfgpm9bAqJ5XcZ9VnCk0IBb6-YYeJPv5dzzKVioVnLyFnAQr21vUqnkHzlOkXoXPCDsl1R6FGUk9KMDl4IiuLCJ1VEZE9NmyCWnb4z_nCKvsOjZKasG0uwSZZb-6PL_-IRxeOkcSOhK2r-zlL0b-lrpBb3tvCDqvVxGQbGGFLtF6ibtW40]--></g></svg>