<svg xmlns="http://www.w3.org/2000/svg" xmlns:xlink="http://www.w3.org/1999/xlink" contentStyleType="text/css" height="686px" preserveAspectRatio="none" style="width:1219px;height:686px;background:#DDDDDD;" version="1.1" viewBox="0 0 1219 686" width="1219px" zoomAndPan="magnify"><defs/><g><rect fill="#DDDDDD" height="686" style="stroke:none;stroke-width:1.0;" width="1219" x="0" y="0"/><rect fill="#ADD8E6" height="674.7715" rx="3.5" ry="3.5" style="stroke:#181818;stroke-width:0.5;" width="120.041" x="1" y="6"/><text fill="#000000" font-family="sans-serif" font-size="13" font-weight="bold" lengthAdjust="spacing" textLength="100.439" x="10.801" y="20.0283">Message Broker</text><rect fill="#FFFFFF" height="540.9473" style="stroke:#454645;stroke-width:1.0;" width="10" x="296.4893" y="94.2031"/><rect fill="#FFFFFF" height="9" style="stroke:#454645;stroke-width:1.0;" width="10" x="301.4893" y="626.1504"/><rect fill="#FFFFFF" height="509.6563" style="stroke:#454645;stroke-width:1.0;" width="10" x="442.2236" y="125.4941"/><rect fill="#FFFFFF" height="125.1641" style="stroke:#454645;stroke-width:1.0;" width="10" x="587.958" y="156.7852"/><rect fill="#FFFFFF" height="125.1641" style="stroke:#454645;stroke-width:1.0;" width="10" x="709.6094" y="313.2402"/><rect fill="#FFFFFF" height="125.1641" style="stroke:#454645;stroke-width:1.0;" width="10" x="840.2192" y="469.6953"/><rect fill="#FFFFFF" height="31.291" style="stroke:#454645;stroke-width:1.0;" width="10" x="1037.6631" y="219.3672"/><rect fill="#FFFFFF" height="31.291" style="stroke:#454645;stroke-width:1.0;" width="10" x="1037.6631" y="375.8223"/><rect fill="#FFFFFF" height="31.291" style="stroke:#454645;stroke-width:1.0;" width="10" x="1037.6631" y="532.2773"/><rect fill="#FFFFFF" height="447.0742" style="stroke:#454645;stroke-width:1.0;" width="10" x="1152.3418" y="188.0762"/><rect fill="#FFFFFF" height="290.6191" style="stroke:#454645;stroke-width:1.0;" width="10" x="1157.3418" y="344.5313"/><rect fill="#FFFFFF" height="134.1641" style="stroke:#454645;stroke-width:1.0;" width="10" x="1162.3418" y="500.9863"/><line style="stroke:#454645;stroke-width:0.5;stroke-dasharray:5.0,5.0;" x1="61" x2="61" y1="60.9121" y2="644.1504"/><line style="stroke:#454645;stroke-width:0.5;stroke-dasharray:5.0,5.0;" x1="300.9551" x2="300.9551" y1="60.9121" y2="644.1504"/><line style="stroke:#454645;stroke-width:0.5;stroke-dasharray:5.0,5.0;" x1="446.9688" x2="446.9688" y1="60.9121" y2="644.1504"/><line style="stroke:#454645;stroke-width:0.5;stroke-dasharray:5.0,5.0;" x1="592.5444" x2="592.5444" y1="60.9121" y2="644.1504"/><line style="stroke:#454645;stroke-width:0.5;stroke-dasharray:5.0,5.0;" x1="714.3716" x2="714.3716" y1="60.9121" y2="644.1504"/><line style="stroke:#454645;stroke-width:0.5;stroke-dasharray:5.0,5.0;" x1="844.8472" x2="844.8472" y1="60.9121" y2="644.1504"/><line style="stroke:#454645;stroke-width:0.5;stroke-dasharray:5.0,5.0;" x1="951.5913" x2="951.5913" y1="60.9121" y2="644.1504"/><line style="stroke:#454645;stroke-width:0.5;stroke-dasharray:5.0,5.0;" x1="1042.4185" x2="1042.4185" y1="60.9121" y2="644.1504"/><line style="stroke:#454645;stroke-width:0.5;stroke-dasharray:5.0,5.0;" x1="1156.9077" x2="1156.9077" y1="60.9121" y2="644.1504"/><rect fill="#FF6F61" height="32.6211" rx="3.5" ry="3.5" style="stroke:#454645;stroke-width:1.5;" width="112.041" x="5" y="27.291"/><text fill="#FFFFFF" font-family="sans-serif" font-size="14" lengthAdjust="spacing" textLength="98.041" x="12" y="49.3984">MessageBroker</text><rect fill="#FF6F61" height="32.6211" rx="3.5" ry="3.5" style="stroke:#454645;stroke-width:1.5;" width="112.041" x="5" y="643.1504"/><text fill="#FFFFFF" font-family="sans-serif" font-size="14" lengthAdjust="spacing" textLength="98.041" x="12" y="665.2578">MessageBroker</text><rect fill="#FF6F61" height="32.6211" rx="3.5" ry="3.5" style="stroke:#454645;stroke-width:1.5;" width="119.0684" x="241.9551" y="27.291"/><text fill="#FFFFFF" font-family="sans-serif" font-size="14" lengthAdjust="spacing" textLength="105.0684" x="248.9551" y="49.3984">LendingReceiver</text><rect fill="#FF6F61" height="32.6211" rx="3.5" ry="3.5" style="stroke:#454645;stroke-width:1.5;" width="119.0684" x="241.9551" y="643.1504"/><text fill="#FFFFFF" font-family="sans-serif" font-size="14" lengthAdjust="spacing" textLength="105.0684" x="248.9551" y="665.2578">LendingReceiver</text><rect fill="#FF6F61" height="32.6211" rx="3.5" ry="3.5" style="stroke:#454645;stroke-width:1.5;" width="110.5098" x="391.9688" y="27.291"/><text fill="#FFFFFF" font-family="sans-serif" font-size="14" lengthAdjust="spacing" textLength="96.5098" x="398.9688" y="49.3984">LendingService</text><rect fill="#FF6F61" height="32.6211" rx="3.5" ry="3.5" style="stroke:#454645;stroke-width:1.5;" width="110.5098" x="391.9688" y="643.1504"/><text fill="#FFFFFF" font-family="sans-serif" font-size="14" lengthAdjust="spacing" textLength="96.5098" x="398.9688" y="665.2578">LendingService</text><rect fill="#FF6F61" height="32.6211" rx="3.5" ry="3.5" style="stroke:#454645;stroke-width:1.5;" width="112.8271" x="536.5444" y="27.291"/><text fill="#FFFFFF" font-family="sans-serif" font-size="14" lengthAdjust="spacing" textLength="98.8271" x="543.5444" y="49.3984">BookRepository</text><rect fill="#FF6F61" height="32.6211" rx="3.5" ry="3.5" style="stroke:#454645;stroke-width:1.5;" width="112.8271" x="536.5444" y="643.1504"/><text fill="#FFFFFF" font-family="sans-serif" font-size="14" lengthAdjust="spacing" textLength="98.8271" x="543.5444" y="665.2578">BookRepository</text><rect fill="#FF6F61" height="32.6211" rx="3.5" ry="3.5" style="stroke:#454645;stroke-width:1.5;" width="110.4756" x="659.3716" y="27.291"/><text fill="#FFFFFF" font-family="sans-serif" font-size="14" lengthAdjust="spacing" textLength="96.4756" x="666.3716" y="49.3984">UserRepository</text><rect fill="#FF6F61" height="32.6211" rx="3.5" ry="3.5" style="stroke:#454645;stroke-width:1.5;" width="110.4756" x="659.3716" y="643.1504"/><text fill="#FFFFFF" font-family="sans-serif" font-size="14" lengthAdjust="spacing" textLength="96.4756" x="666.3716" y="665.2578">UserRepository</text><rect fill="#FF6F61" height="32.6211" rx="3.5" ry="3.5" style="stroke:#454645;stroke-width:1.5;" width="130.7441" x="779.8472" y="27.291"/><text fill="#FFFFFF" font-family="sans-serif" font-size="14" lengthAdjust="spacing" textLength="116.7441" x="786.8472" y="49.3984">LendingRepository</text><rect fill="#FF6F61" height="32.6211" rx="3.5" ry="3.5" style="stroke:#454645;stroke-width:1.5;" width="130.7441" x="779.8472" y="643.1504"/><text fill="#FFFFFF" font-family="sans-serif" font-size="14" lengthAdjust="spacing" textLength="116.7441" x="786.8472" y="665.2578">LendingRepository</text><rect fill="#FF6F61" height="32.6211" rx="3.5" ry="3.5" style="stroke:#454645;stroke-width:1.5;" width="63.8271" x="920.5913" y="27.291"/><text fill="#FFFFFF" font-family="sans-serif" font-size="14" lengthAdjust="spacing" textLength="49.8271" x="927.5913" y="49.3984">Lending</text><rect fill="#FF6F61" height="32.6211" rx="3.5" ry="3.5" style="stroke:#454645;stroke-width:1.5;" width="63.8271" x="920.5913" y="643.1504"/><text fill="#FFFFFF" font-family="sans-serif" font-size="14" lengthAdjust="spacing" textLength="49.8271" x="927.5913" y="665.2578">Lending</text><rect fill="#FF6F61" height="32.6211" rx="3.5" ry="3.5" style="stroke:#454645;stroke-width:1.5;" width="96.4893" x="994.4185" y="27.291"/><text fill="#FFFFFF" font-family="sans-serif" font-size="14" lengthAdjust="spacing" textLength="82.4893" x="1001.4185" y="49.3984">dbRepository</text><rect fill="#FF6F61" height="32.6211" rx="3.5" ry="3.5" style="stroke:#454645;stroke-width:1.5;" width="96.4893" x="994.4185" y="643.1504"/><text fill="#FFFFFF" font-family="sans-serif" font-size="14" lengthAdjust="spacing" textLength="82.4893" x="1001.4185" y="665.2578">dbRepository</text><rect fill="#FF6F61" height="32.6211" rx="3.5" ry="3.5" style="stroke:#454645;stroke-width:1.5;" width="112.8682" x="1100.9077" y="27.291"/><text fill="#FFFFFF" font-family="sans-serif" font-size="14" lengthAdjust="spacing" textLength="98.8682" x="1107.9077" y="49.3984">lending:Lending</text><rect fill="#FF6F61" height="32.6211" rx="3.5" ry="3.5" style="stroke:#454645;stroke-width:1.5;" width="112.8682" x="1100.9077" y="643.1504"/><text fill="#FFFFFF" font-family="sans-serif" font-size="14" lengthAdjust="spacing" textLength="98.8682" x="1107.9077" y="665.2578">lending:Lending</text><rect fill="#FFFFFF" height="540.9473" style="stroke:#454645;stroke-width:1.0;" width="10" x="296.4893" y="94.2031"/><rect fill="#FFFFFF" height="9" style="stroke:#454645;stroke-width:1.0;" width="10" x="301.4893" y="626.1504"/><rect fill="#FFFFFF" height="509.6563" style="stroke:#454645;stroke-width:1.0;" width="10" x="442.2236" y="125.4941"/><rect fill="#FFFFFF" height="125.1641" style="stroke:#454645;stroke-width:1.0;" width="10" x="587.958" y="156.7852"/><rect fill="#FFFFFF" height="125.1641" style="stroke:#454645;stroke-width:1.0;" width="10" x="709.6094" y="313.2402"/><rect fill="#FFFFFF" height="125.1641" style="stroke:#454645;stroke-width:1.0;" width="10" x="840.2192" y="469.6953"/><rect fill="#FFFFFF" height="31.291" style="stroke:#454645;stroke-width:1.0;" width="10" x="1037.6631" y="219.3672"/><rect fill="#FFFFFF" height="31.291" style="stroke:#454645;stroke-width:1.0;" width="10" x="1037.6631" y="375.8223"/><rect fill="#FFFFFF" height="31.291" style="stroke:#454645;stroke-width:1.0;" width="10" x="1037.6631" y="532.2773"/><rect fill="#FFFFFF" height="447.0742" style="stroke:#454645;stroke-width:1.0;" width="10" x="1152.3418" y="188.0762"/><rect fill="#FFFFFF" height="290.6191" style="stroke:#454645;stroke-width:1.0;" width="10" x="1157.3418" y="344.5313"/><rect fill="#FFFFFF" height="134.1641" style="stroke:#454645;stroke-width:1.0;" width="10" x="1162.3418" y="500.9863"/><polygon fill="#454645" points="284.4893,90.2031,294.4893,94.2031,284.4893,98.2031,288.4893,94.2031" style="stroke:#454645;stroke-width:1.0;"/><line style="stroke:#454645;stroke-width:1.0;" x1="61.0205" x2="290.4893" y1="94.2031" y2="94.2031"/><text fill="#000000" font-family="sans-serif" font-size="13" font-weight="bold" lengthAdjust="spacing" textLength="7.23" x="68.0205" y="88.9404">1</text><text fill="#000000" font-family="sans-serif" font-size="13" lengthAdjust="spacing" textLength="205.2388" x="79.2505" y="88.9404">notify(lending.created, lendingJson)</text><polygon fill="#454645" points="430.2236,121.4941,440.2236,125.4941,430.2236,129.4941,434.2236,125.4941" style="stroke:#454645;stroke-width:1.0;"/><line style="stroke:#454645;stroke-width:1.0;" x1="306.4893" x2="436.2236" y1="125.4941" y2="125.4941"/><text fill="#000000" font-family="sans-serif" font-size="13" font-weight="bold" lengthAdjust="spacing" textLength="7.23" x="313.4893" y="120.2314">2</text><text fill="#000000" font-family="sans-serif" font-size="13" lengthAdjust="spacing" textLength="105.5044" x="324.7192" y="120.2314">save(lendingJson)</text><polygon fill="#454645" points="575.958,152.7852,585.958,156.7852,575.958,160.7852,579.958,156.7852" style="stroke:#454645;stroke-width:1.0;"/><line style="stroke:#454645;stroke-width:1.0;" x1="452.2236" x2="581.958" y1="156.7852" y2="156.7852"/><text fill="#000000" font-family="sans-serif" font-size="13" font-weight="bold" lengthAdjust="spacing" textLength="7.23" x="459.2236" y="151.5225">3</text><text fill="#000000" font-family="sans-serif" font-size="13" lengthAdjust="spacing" textLength="105.5044" x="470.4536" y="151.5225">save(lendingJson)</text><polygon fill="#454645" points="1140.3418,184.0762,1150.3418,188.0762,1140.3418,192.0762,1144.3418,188.0762" style="stroke:#454645;stroke-width:1.0;"/><line style="stroke:#454645;stroke-width:1.0;" x1="597.958" x2="1146.3418" y1="188.0762" y2="188.0762"/><text fill="#000000" font-family="sans-serif" font-size="13" font-weight="bold" lengthAdjust="spacing" textLength="7.23" x="604.958" y="182.8135">4</text><text fill="#000000" font-family="sans-serif" font-size="13" lengthAdjust="spacing" textLength="36.1309" x="616.188" y="182.8135">create</text><polygon fill="#454645" points="1025.6631,215.3672,1035.6631,219.3672,1025.6631,223.3672,1029.6631,219.3672" style="stroke:#454645;stroke-width:1.0;"/><line style="stroke:#454645;stroke-width:1.0;" x1="597.958" x2="1031.6631" y1="219.3672" y2="219.3672"/><text fill="#000000" font-family="sans-serif" font-size="13" font-weight="bold" lengthAdjust="spacing" textLength="7.23" x="604.958" y="214.1045">5</text><text fill="#000000" font-family="sans-serif" font-size="13" lengthAdjust="spacing" textLength="64.3081" x="616.188" y="214.1045">save(book)</text><polygon fill="#454645" points="608.958,246.6582,598.958,250.6582,608.958,254.6582,604.958,250.6582" style="stroke:#454645;stroke-width:1.0;"/><line style="stroke:#454645;stroke-width:1.0;stroke-dasharray:2.0,2.0;" x1="602.958" x2="1041.6631" y1="250.6582" y2="250.6582"/><text fill="#000000" font-family="sans-serif" font-size="13" font-weight="bold" lengthAdjust="spacing" textLength="7.23" x="614.958" y="245.3955">6</text><text fill="#000000" font-family="sans-serif" font-size="13" lengthAdjust="spacing" textLength="28.1899" x="626.188" y="245.3955">book</text><polygon fill="#454645" points="463.2236,277.9492,453.2236,281.9492,463.2236,285.9492,459.2236,281.9492" style="stroke:#454645;stroke-width:1.0;"/><line style="stroke:#454645;stroke-width:1.0;stroke-dasharray:2.0,2.0;" x1="457.2236" x2="591.958" y1="281.9492" y2="281.9492"/><text fill="#000000" font-family="sans-serif" font-size="13" font-weight="bold" lengthAdjust="spacing" textLength="7.23" x="469.2236" y="276.6865">7</text><text fill="#000000" font-family="sans-serif" font-size="13" lengthAdjust="spacing" textLength="28.1899" x="480.4536" y="276.6865">book</text><polygon fill="#454645" points="697.6094,309.2402,707.6094,313.2402,697.6094,317.2402,701.6094,313.2402" style="stroke:#454645;stroke-width:1.0;"/><line style="stroke:#454645;stroke-width:1.0;" x1="452.2236" x2="703.6094" y1="313.2402" y2="313.2402"/><text fill="#000000" font-family="sans-serif" font-size="13" font-weight="bold" lengthAdjust="spacing" textLength="7.23" x="459.2236" y="307.9775">8</text><text fill="#000000" font-family="sans-serif" font-size="13" lengthAdjust="spacing" textLength="105.5044" x="470.4536" y="307.9775">save(lendingJson)</text><polygon fill="#454645" points="1145.3418,340.5313,1155.3418,344.5313,1145.3418,348.5313,1149.3418,344.5313" style="stroke:#454645;stroke-width:1.0;"/><line style="stroke:#454645;stroke-width:1.0;" x1="719.6094" x2="1151.3418" y1="344.5313" y2="344.5313"/><text fill="#000000" font-family="sans-serif" font-size="13" font-weight="bold" lengthAdjust="spacing" textLength="7.23" x="726.6094" y="339.2686">9</text><text fill="#000000" font-family="sans-serif" font-size="13" lengthAdjust="spacing" textLength="36.1309" x="737.8394" y="339.2686">create</text><polygon fill="#454645" points="1025.6631,371.8223,1035.6631,375.8223,1025.6631,379.8223,1029.6631,375.8223" style="stroke:#454645;stroke-width:1.0;"/><line style="stroke:#454645;stroke-width:1.0;" x1="719.6094" x2="1031.6631" y1="375.8223" y2="375.8223"/><text fill="#000000" font-family="sans-serif" font-size="13" font-weight="bold" lengthAdjust="spacing" textLength="14.46" x="726.6094" y="370.5596">10</text><text fill="#000000" font-family="sans-serif" font-size="13" lengthAdjust="spacing" textLength="61.4072" x="745.0693" y="370.5596">save(user)</text><polygon fill="#454645" points="730.6094,403.1133,720.6094,407.1133,730.6094,411.1133,726.6094,407.1133" style="stroke:#454645;stroke-width:1.0;"/><line style="stroke:#454645;stroke-width:1.0;stroke-dasharray:2.0,2.0;" x1="724.6094" x2="1041.6631" y1="407.1133" y2="407.1133"/><text fill="#000000" font-family="sans-serif" font-size="13" font-weight="bold" lengthAdjust="spacing" textLength="14.46" x="736.6094" y="401.8506">11</text><text fill="#000000" font-family="sans-serif" font-size="13" lengthAdjust="spacing" textLength="25.2891" x="755.0693" y="401.8506">user</text><polygon fill="#454645" points="463.2236,434.4043,453.2236,438.4043,463.2236,442.4043,459.2236,438.4043" style="stroke:#454645;stroke-width:1.0;"/><line style="stroke:#454645;stroke-width:1.0;stroke-dasharray:2.0,2.0;" x1="457.2236" x2="713.6094" y1="438.4043" y2="438.4043"/><text fill="#000000" font-family="sans-serif" font-size="13" font-weight="bold" lengthAdjust="spacing" textLength="14.46" x="469.2236" y="433.1416">12</text><text fill="#000000" font-family="sans-serif" font-size="13" lengthAdjust="spacing" textLength="25.2891" x="487.6836" y="433.1416">user</text><polygon fill="#454645" points="828.2192,465.6953,838.2192,469.6953,828.2192,473.6953,832.2192,469.6953" style="stroke:#454645;stroke-width:1.0;"/><line style="stroke:#454645;stroke-width:1.0;" x1="452.2236" x2="834.2192" y1="469.6953" y2="469.6953"/><text fill="#000000" font-family="sans-serif" font-size="13" font-weight="bold" lengthAdjust="spacing" textLength="14.46" x="459.2236" y="464.4326">13</text><text fill="#000000" font-family="sans-serif" font-size="13" lengthAdjust="spacing" textLength="182.1016" x="477.6836" y="464.4326">create(lendingJson, book, user)</text><polygon fill="#454645" points="1150.3418,496.9863,1160.3418,500.9863,1150.3418,504.9863,1154.3418,500.9863" style="stroke:#454645;stroke-width:1.0;"/><line style="stroke:#454645;stroke-width:1.0;" x1="850.2192" x2="1156.3418" y1="500.9863" y2="500.9863"/><text fill="#000000" font-family="sans-serif" font-size="13" font-weight="bold" lengthAdjust="spacing" textLength="14.46" x="857.2192" y="495.7236">14</text><text fill="#000000" font-family="sans-serif" font-size="13" lengthAdjust="spacing" textLength="36.1309" x="875.6792" y="495.7236">create</text><polygon fill="#454645" points="1025.6631,528.2773,1035.6631,532.2773,1025.6631,536.2773,1029.6631,532.2773" style="stroke:#454645;stroke-width:1.0;"/><line style="stroke:#454645;stroke-width:1.0;" x1="850.2192" x2="1031.6631" y1="532.2773" y2="532.2773"/><text fill="#000000" font-family="sans-serif" font-size="13" font-weight="bold" lengthAdjust="spacing" textLength="14.46" x="857.2192" y="527.0146">15</text><text fill="#000000" font-family="sans-serif" font-size="13" lengthAdjust="spacing" textLength="78.0444" x="875.6792" y="527.0146">save(lending)</text><polygon fill="#454645" points="861.2192,559.5684,851.2192,563.5684,861.2192,567.5684,857.2192,563.5684" style="stroke:#454645;stroke-width:1.0;"/><line style="stroke:#454645;stroke-width:1.0;stroke-dasharray:2.0,2.0;" x1="855.2192" x2="1041.6631" y1="563.5684" y2="563.5684"/><text fill="#000000" font-family="sans-serif" font-size="13" font-weight="bold" lengthAdjust="spacing" textLength="14.46" x="867.2192" y="558.3057">16</text><text fill="#000000" font-family="sans-serif" font-size="13" lengthAdjust="spacing" textLength="41.9263" x="885.6792" y="558.3057">lending</text><polygon fill="#454645" points="463.2236,590.8594,453.2236,594.8594,463.2236,598.8594,459.2236,594.8594" style="stroke:#454645;stroke-width:1.0;"/><line style="stroke:#454645;stroke-width:1.0;stroke-dasharray:2.0,2.0;" x1="457.2236" x2="844.2192" y1="594.8594" y2="594.8594"/><text fill="#000000" font-family="sans-serif" font-size="13" font-weight="bold" lengthAdjust="spacing" textLength="14.46" x="469.2236" y="589.5967">17</text><text fill="#000000" font-family="sans-serif" font-size="13" lengthAdjust="spacing" textLength="41.9263" x="487.6836" y="589.5967">lending</text><polygon fill="#454645" points="322.4893,622.1504,312.4893,626.1504,322.4893,630.1504,318.4893,626.1504" style="stroke:#454645;stroke-width:1.0;"/><line style="stroke:#454645;stroke-width:1.0;" x1="316.4893" x2="441.2236" y1="626.1504" y2="626.1504"/><text fill="#000000" font-family="sans-serif" font-size="13" font-weight="bold" lengthAdjust="spacing" textLength="14.46" x="328.4893" y="620.8877">18</text><text fill="#000000" font-family="sans-serif" font-size="13" lengthAdjust="spacing" textLength="41.9263" x="346.9492" y="620.8877">lending</text><!--SRC=[TPFDKiCW58NtF0NMXNQcF_iiNDHnu-YcZWz0aclAb424cunzUsb2Qe1hLfcJxnpk0V9mGknSiTztIcZiMxMhJBjtyDs3hc1RIz5OqJ8cUZIwRqkmuwkeK0u2WHlDs1sUe0MEvi9OQNxuwXsS4mtmWpLdi2j-hsHpmbBrmBX_Ec5HLhBp2_A0JYGNxcOENWQwvZwKiQNhpQjIDyz6epLA1MTGZr217AvUml81Tf0LBFaWnVZ1cFCHEkCa6diPyLYAyKy7Di5ZYHmcSMGgQLgYCL2NIU1IYD4NZH8dI4rHnIsInMUoVIAsk-3QeFowF0RthhBWhqEzuK5uTKQlMMxyIvjFek1E3F18-MR4cvBpe4m9uasXPS6dwGWYsh8GMdfgpQ8lMsg2AvT5Klr6aEYKN1ggKu8GdNA2wjHxYkYKJN3biaYgqmWIdVARFK-wBBOPzsJ3fx5o3z6JXAYgOHcYBJLRe1cLJ_MU-N-RHp_9JFy2]--></g></svg>