<svg xmlns="http://www.w3.org/2000/svg" xmlns:xlink="http://www.w3.org/1999/xlink" contentStyleType="text/css" height="1155px" preserveAspectRatio="none" style="width:753px;height:1155px;background:#DDDDDD;" version="1.1" viewBox="0 0 753 1155" width="753px" zoomAndPan="magnify"><defs/><g><rect fill="#DDDDDD" height="1155" style="stroke:none;stroke-width:1.0;" width="753" x="0" y="0"/><!--cluster lends--><g id="cluster_lends"><rect fill="none" height="893" rx="3.5" ry="3.5" style="stroke:#454645;stroke-width:1.0;" width="740" x="7" y="256"/><rect fill="none" height="10" style="stroke:#454645;stroke-width:1.0;" width="15" x="727" y="261"/><rect fill="none" height="2" style="stroke:#454645;stroke-width:1.0;" width="4" x="725" y="263"/><rect fill="none" height="2" style="stroke:#454645;stroke-width:1.0;" width="4" x="725" y="267"/><text fill="#000000" font-family="sans-serif" font-size="14" font-weight="bold" lengthAdjust="spacing" textLength="154.0273" x="299.9863" y="284.1074">&#171;LendingsCommands&#187;</text></g><text fill="#000000" font-family="sans-serif" font-size="14" lengthAdjust="spacing" textLength="124.5098" x="140.7451" y="234.4863">REST API Lendings</text><rect fill="#F1F1F1" height="12" style="stroke:#181818;stroke-width:1.5;" width="12" x="197" y="250"/><text fill="#000000" font-family="sans-serif" font-size="14" lengthAdjust="spacing" textLength="63.0205" x="51.9897" y="234.4863">RabbitMQ</text><rect fill="#F1F1F1" height="12" style="stroke:#181818;stroke-width:1.5;" width="12" x="77.5" y="250"/><text fill="#000000" font-family="sans-serif" font-size="14" lengthAdjust="spacing" textLength="19.4482" x="505.2759" y="234.4863">DB</text><rect fill="#F1F1F1" height="12" style="stroke:#181818;stroke-width:1.5;" width="12" x="509" y="250"/><!--entity routes--><g id="elem_routes"><rect fill="#F1F1F1" height="48.6211" rx="3.5" ry="3.5" style="stroke:#181818;stroke-width:0.5;" width="84.3584" x="120" y="334"/><rect fill="#F1F1F1" height="10" style="stroke:#181818;stroke-width:0.5;" width="15" x="184.3584" y="339"/><rect fill="#F1F1F1" height="2" style="stroke:#181818;stroke-width:0.5;" width="4" x="182.3584" y="341"/><rect fill="#F1F1F1" height="2" style="stroke:#181818;stroke-width:0.5;" width="4" x="182.3584" y="345"/><text fill="#000000" font-family="sans-serif" font-size="14" lengthAdjust="spacing" textLength="44.3584" x="135" y="369.1074">Routes</text></g><!--entity ctrl--><g id="elem_ctrl"><rect fill="#F1F1F1" height="48.6211" rx="3.5" ry="3.5" style="stroke:#181818;stroke-width:0.5;" width="150.5166" x="311.5" y="552"/><rect fill="#F1F1F1" height="10" style="stroke:#181818;stroke-width:0.5;" width="15" x="442.0166" y="557"/><rect fill="#F1F1F1" height="2" style="stroke:#181818;stroke-width:0.5;" width="4" x="440.0166" y="559"/><rect fill="#F1F1F1" height="2" style="stroke:#181818;stroke-width:0.5;" width="4" x="440.0166" y="563"/><text fill="#000000" font-family="sans-serif" font-size="14" lengthAdjust="spacing" textLength="110.5166" x="326.5" y="587.1074">LendingController</text></g><!--entity service--><g id="elem_service"><rect fill="#F1F1F1" height="48.6211" rx="3.5" ry="3.5" style="stroke:#181818;stroke-width:0.5;" width="136.5098" x="347.5" y="879"/><rect fill="#F1F1F1" height="10" style="stroke:#181818;stroke-width:0.5;" width="15" x="464.0098" y="884"/><rect fill="#F1F1F1" height="2" style="stroke:#181818;stroke-width:0.5;" width="4" x="462.0098" y="886"/><rect fill="#F1F1F1" height="2" style="stroke:#181818;stroke-width:0.5;" width="4" x="462.0098" y="890"/><text fill="#000000" font-family="sans-serif" font-size="14" lengthAdjust="spacing" textLength="96.5098" x="362.5" y="914.1074">LendingService</text></g><!--entity lend--><g id="elem_lend"><rect fill="#F1F1F1" height="48.6211" rx="3.5" ry="3.5" style="stroke:#181818;stroke-width:0.5;" width="89.8271" x="371" y="1084"/><rect fill="#F1F1F1" height="10" style="stroke:#181818;stroke-width:0.5;" width="15" x="440.8271" y="1089"/><rect fill="#F1F1F1" height="2" style="stroke:#181818;stroke-width:0.5;" width="4" x="438.8271" y="1091"/><rect fill="#F1F1F1" height="2" style="stroke:#181818;stroke-width:0.5;" width="4" x="438.8271" y="1095"/><text fill="#000000" font-family="sans-serif" font-size="14" lengthAdjust="spacing" textLength="49.8271" x="386" y="1119.1074">Lending</text></g><!--entity uRepo--><g id="elem_uRepo"><rect fill="#F1F1F1" height="48.6211" rx="3.5" ry="3.5" style="stroke:#181818;stroke-width:0.5;" width="162.9238" x="23.5" y="552"/><rect fill="#F1F1F1" height="10" style="stroke:#181818;stroke-width:0.5;" width="15" x="166.4238" y="557"/><rect fill="#F1F1F1" height="2" style="stroke:#181818;stroke-width:0.5;" width="4" x="164.4238" y="559"/><rect fill="#F1F1F1" height="2" style="stroke:#181818;stroke-width:0.5;" width="4" x="164.4238" y="563"/><text fill="#000000" font-family="sans-serif" font-size="14" lengthAdjust="spacing" textLength="122.9238" x="38.5" y="587.1074">UsersDBRepository</text></g><!--entity sRepo--><g id="elem_sRepo"><rect fill="#F1F1F1" height="48.6211" rx="3.5" ry="3.5" style="stroke:#181818;stroke-width:0.5;" width="145.0684" x="240.5" y="661"/><rect fill="#F1F1F1" height="10" style="stroke:#181818;stroke-width:0.5;" width="15" x="365.5684" y="666"/><rect fill="#F1F1F1" height="2" style="stroke:#181818;stroke-width:0.5;" width="4" x="363.5684" y="668"/><rect fill="#F1F1F1" height="2" style="stroke:#181818;stroke-width:0.5;" width="4" x="363.5684" y="672"/><text fill="#000000" font-family="sans-serif" font-size="14" lengthAdjust="spacing" textLength="105.0684" x="255.5" y="696.1074">LendingReceiver</text></g><!--entity repo--><g id="elem_repo"><rect fill="#F1F1F1" height="48.6211" rx="3.5" ry="3.5" style="stroke:#181818;stroke-width:0.5;" width="183.1924" x="547.5" y="661"/><rect fill="#F1F1F1" height="10" style="stroke:#181818;stroke-width:0.5;" width="15" x="710.6924" y="666"/><rect fill="#F1F1F1" height="2" style="stroke:#181818;stroke-width:0.5;" width="4" x="708.6924" y="668"/><rect fill="#F1F1F1" height="2" style="stroke:#181818;stroke-width:0.5;" width="4" x="708.6924" y="672"/><text fill="#000000" font-family="sans-serif" font-size="14" lengthAdjust="spacing" textLength="143.1924" x="562.5" y="696.1074">LendingsDBRepository</text></g><!--entity uDriver--><g id="elem_uDriver"><rect fill="#F1F1F1" height="48.6211" rx="3.5" ry="3.5" style="stroke:#181818;stroke-width:0.5;" width="136.4756" x="23" y="770"/><rect fill="#F1F1F1" height="10" style="stroke:#181818;stroke-width:0.5;" width="15" x="139.4756" y="775"/><rect fill="#F1F1F1" height="2" style="stroke:#181818;stroke-width:0.5;" width="4" x="137.4756" y="777"/><rect fill="#F1F1F1" height="2" style="stroke:#181818;stroke-width:0.5;" width="4" x="137.4756" y="781"/><text fill="#000000" font-family="sans-serif" font-size="14" lengthAdjust="spacing" textLength="96.4756" x="38" y="805.1074">UserRepository</text></g><!--entity driver--><g id="elem_driver"><rect fill="#F1F1F1" height="48.6211" rx="3.5" ry="3.5" style="stroke:#181818;stroke-width:0.5;" width="156.7441" x="573.5" y="879"/><rect fill="#F1F1F1" height="10" style="stroke:#181818;stroke-width:0.5;" width="15" x="710.2441" y="884"/><rect fill="#F1F1F1" height="2" style="stroke:#181818;stroke-width:0.5;" width="4" x="708.2441" y="886"/><rect fill="#F1F1F1" height="2" style="stroke:#181818;stroke-width:0.5;" width="4" x="708.2441" y="890"/><text fill="#000000" font-family="sans-serif" font-size="14" lengthAdjust="spacing" textLength="116.7441" x="588.5" y="914.1074">LendingRepository</text></g><!--entity userHTTPDriver--><g id="elem_userHTTPDriver"><rect fill="#F1F1F1" height="48.6211" rx="3.5" ry="3.5" style="stroke:#181818;stroke-width:0.5;" width="141.1172" x="444.5" y="334"/><rect fill="#F1F1F1" height="10" style="stroke:#181818;stroke-width:0.5;" width="15" x="565.6172" y="339"/><rect fill="#F1F1F1" height="2" style="stroke:#181818;stroke-width:0.5;" width="4" x="563.6172" y="341"/><rect fill="#F1F1F1" height="2" style="stroke:#181818;stroke-width:0.5;" width="4" x="563.6172" y="345"/><text fill="#000000" font-family="sans-serif" font-size="14" lengthAdjust="spacing" textLength="101.1172" x="459.5" y="369.1074">Driver Users DB</text></g><!--entity lendDBDriver--><g id="elem_lendDBDriver"><rect fill="#F1F1F1" height="48.6211" rx="3.5" ry="3.5" style="stroke:#181818;stroke-width:0.5;" width="161.3857" x="446.5" y="443"/><rect fill="#F1F1F1" height="10" style="stroke:#181818;stroke-width:0.5;" width="15" x="587.8857" y="448"/><rect fill="#F1F1F1" height="2" style="stroke:#181818;stroke-width:0.5;" width="4" x="585.8857" y="450"/><rect fill="#F1F1F1" height="2" style="stroke:#181818;stroke-width:0.5;" width="4" x="585.8857" y="454"/><text fill="#000000" font-family="sans-serif" font-size="14" lengthAdjust="spacing" textLength="121.3857" x="461.5" y="478.1074">Driver Lendings DB</text></g><!--entity lendHTTPDriver--><g id="elem_lendHTTPDriver"><rect fill="#F1F1F1" height="48.6211" rx="3.5" ry="3.5" style="stroke:#181818;stroke-width:0.5;" width="138.041" x="95" y="443"/><rect fill="#F1F1F1" height="10" style="stroke:#181818;stroke-width:0.5;" width="15" x="213.041" y="448"/><rect fill="#F1F1F1" height="2" style="stroke:#181818;stroke-width:0.5;" width="4" x="211.041" y="450"/><rect fill="#F1F1F1" height="2" style="stroke:#181818;stroke-width:0.5;" width="4" x="211.041" y="454"/><text fill="#000000" font-family="sans-serif" font-size="14" lengthAdjust="spacing" textLength="98.041" x="110" y="478.1074">MessageBroker</text></g><!--entity ctrlSer--><g id="elem_ctrlSer"><ellipse cx="649" cy="794.5" fill="#F1F1F1" rx="8" ry="8" style="stroke:#181818;stroke-width:0.5;"/></g><!--entity routesCtr--><g id="elem_routesCtr"><ellipse cx="384" cy="467.5" fill="#F1F1F1" rx="8" ry="8" style="stroke:#181818;stroke-width:0.5;"/></g><!--entity model--><g id="elem_model"><ellipse cx="416" cy="1006" fill="#F1F1F1" rx="8" ry="8" style="stroke:#181818;stroke-width:0.5;"/></g><!--entity lendDriver--><g id="elem_lendDriver"><ellipse cx="529" cy="903.5" fill="#F1F1F1" rx="8" ry="8" style="stroke:#181818;stroke-width:0.5;"/></g><!--entity userDriver--><g id="elem_userDriver"><ellipse cx="578" cy="794.5" fill="#F1F1F1" rx="8" ry="8" style="stroke:#181818;stroke-width:0.5;"/></g><!--entity userHttpInterface--><g id="elem_userHttpInterface"><ellipse cx="89" cy="685.5" fill="#F1F1F1" rx="8" ry="8" style="stroke:#181818;stroke-width:0.5;"/></g><!--entity lendHttpInterface--><g id="elem_lendHttpInterface"><ellipse cx="249" cy="576.5" fill="#F1F1F1" rx="8" ry="8" style="stroke:#181818;stroke-width:0.5;"/></g><!--entity lendDBInterface--><g id="elem_lendDBInterface"><ellipse cx="525" cy="576.5" fill="#F1F1F1" rx="8" ry="8" style="stroke:#181818;stroke-width:0.5;"/></g><!--entity userHttpInterface2--><g id="elem_userHttpInterface2"><ellipse cx="295" cy="467.5" fill="#F1F1F1" rx="8" ry="8" style="stroke:#181818;stroke-width:0.5;"/></g><!--entity bDriver--><g id="elem_bDriver"><rect fill="#F1F1F1" height="48.6211" rx="3.5" ry="3.5" style="stroke:#181818;stroke-width:0.5;" width="138.8271" x="194.5" y="770"/><rect fill="#F1F1F1" height="10" style="stroke:#181818;stroke-width:0.5;" width="15" x="313.3271" y="775"/><rect fill="#F1F1F1" height="2" style="stroke:#181818;stroke-width:0.5;" width="4" x="311.3271" y="777"/><rect fill="#F1F1F1" height="2" style="stroke:#181818;stroke-width:0.5;" width="4" x="311.3271" y="781"/><text fill="#000000" font-family="sans-serif" font-size="14" lengthAdjust="spacing" textLength="98.8271" x="209.5" y="805.1074">BookRepository</text></g><!--entity bRepo--><g id="elem_bRepo"><rect fill="#F1F1F1" height="48.6211" rx="3.5" ry="3.5" style="stroke:#181818;stroke-width:0.5;" width="165.2754" x="368.5" y="770"/><rect fill="#F1F1F1" height="10" style="stroke:#181818;stroke-width:0.5;" width="15" x="513.7754" y="775"/><rect fill="#F1F1F1" height="2" style="stroke:#181818;stroke-width:0.5;" width="4" x="511.7754" y="777"/><rect fill="#F1F1F1" height="2" style="stroke:#181818;stroke-width:0.5;" width="4" x="511.7754" y="781"/><text fill="#000000" font-family="sans-serif" font-size="14" lengthAdjust="spacing" textLength="125.2754" x="383.5" y="805.1074">BooksDBRepository</text></g><!--entity bookHTTPDriver--><g id="elem_bookHTTPDriver"><rect fill="#F1F1F1" height="48.6211" rx="3.5" ry="3.5" style="stroke:#181818;stroke-width:0.5;" width="143.4688" x="587.5" y="552"/><rect fill="#F1F1F1" height="10" style="stroke:#181818;stroke-width:0.5;" width="15" x="710.9688" y="557"/><rect fill="#F1F1F1" height="2" style="stroke:#181818;stroke-width:0.5;" width="4" x="708.9688" y="559"/><rect fill="#F1F1F1" height="2" style="stroke:#181818;stroke-width:0.5;" width="4" x="708.9688" y="563"/><text fill="#000000" font-family="sans-serif" font-size="14" lengthAdjust="spacing" textLength="103.4688" x="602.5" y="587.1074">Driver Books DB</text></g><!--entity bookDriver--><g id="elem_bookDriver"><ellipse cx="283" cy="903.5" fill="#F1F1F1" rx="8" ry="8" style="stroke:#181818;stroke-width:0.5;"/></g><!--entity bookHttpInterface--><g id="elem_bookHttpInterface"><ellipse cx="178" cy="685.5" fill="#F1F1F1" rx="8" ry="8" style="stroke:#181818;stroke-width:0.5;"/></g><!--entity bookHttpInterface2--><g id="elem_bookHttpInterface2"><ellipse cx="448" cy="685.5" fill="#F1F1F1" rx="8" ry="8" style="stroke:#181818;stroke-width:0.5;"/></g><!--entity LendingsDBInter--><g id="elem_LendingsDBInter"><ellipse cx="515" cy="147" fill="#F1F1F1" rx="8" ry="8" style="stroke:#181818;stroke-width:0.5;"/><text fill="#000000" font-family="sans-serif" font-size="14" lengthAdjust="spacing" textLength="57.6064" x="486.1968" y="179.1074">database</text></g><!--entity HttpClient--><g id="elem_HttpClient"><ellipse cx="208" cy="147" fill="#F1F1F1" rx="8" ry="8" style="stroke:#181818;stroke-width:0.5;"/></g><!--entity LendingsCompInter--><g id="elem_LendingsCompInter"><ellipse cx="74" cy="147" fill="#F1F1F1" rx="8" ry="8" style="stroke:#181818;stroke-width:0.5;"/></g><!--entity NodeHTTP--><g id="elem_NodeHTTP"><rect fill="#F1F1F1" height="48.6211" rx="3.5" ry="3.5" style="stroke:#181818;stroke-width:0.5;" width="105.3584" x="158.5" y="7"/><rect fill="#F1F1F1" height="10" style="stroke:#181818;stroke-width:0.5;" width="15" x="243.8584" y="12"/><rect fill="#F1F1F1" height="2" style="stroke:#181818;stroke-width:0.5;" width="4" x="241.8584" y="14"/><rect fill="#F1F1F1" height="2" style="stroke:#181818;stroke-width:0.5;" width="4" x="241.8584" y="18"/><text fill="#000000" font-family="sans-serif" font-size="14" lengthAdjust="spacing" textLength="65.3584" x="173.5" y="42.1074">Http Client</text></g><!--entity LendingsComp--><g id="elem_LendingsComp"><rect fill="#F1F1F1" height="48.6211" rx="3.5" ry="3.5" style="stroke:#181818;stroke-width:0.5;" width="103.0205" x="20.5" y="7"/><rect fill="#F1F1F1" height="10" style="stroke:#181818;stroke-width:0.5;" width="15" x="103.5205" y="12"/><rect fill="#F1F1F1" height="2" style="stroke:#181818;stroke-width:0.5;" width="4" x="101.5205" y="14"/><rect fill="#F1F1F1" height="2" style="stroke:#181818;stroke-width:0.5;" width="4" x="101.5205" y="18"/><text fill="#000000" font-family="sans-serif" font-size="14" lengthAdjust="spacing" textLength="63.0205" x="35.5" y="42.1074">RabbitMQ</text></g><!--entity LendingsDB--><g id="elem_LendingsDB"><rect fill="#F1F1F1" height="48.6211" rx="3.5" ry="3.5" style="stroke:#181818;stroke-width:0.5;" width="180.1025" x="425" y="7"/><rect fill="#F1F1F1" height="10" style="stroke:#181818;stroke-width:0.5;" width="15" x="585.1025" y="12"/><rect fill="#F1F1F1" height="2" style="stroke:#181818;stroke-width:0.5;" width="4" x="583.1025" y="14"/><rect fill="#F1F1F1" height="2" style="stroke:#181818;stroke-width:0.5;" width="4" x="583.1025" y="18"/><text fill="#000000" font-family="sans-serif" font-size="14" lengthAdjust="spacing" textLength="140.1025" x="440" y="42.1074">LendingsComanndads</text></g><!--link HttpClient to out--><g id="link_HttpClient_out"><path d="M207.62,156.04 C206.65,176.94 204.05,232.54 203.24,249.81 " fill="none" id="HttpClient-out" style="stroke:#454645;stroke-width:1.0;"/></g><!--reverse link LendingsCompInter to apiLendings--><g id="link_LendingsCompInter_apiLendings"><path d="M75.679,165.9968 C77.629,186.8968 81.9,232.54 83.51,249.81 " fill="none" id="LendingsCompInter-backto-apiLendings" style="stroke:#454645;stroke-width:1.0;"/><path d="M66.6153,159.8905 A9,9 0 0 0 83.4566 158.3192" fill="none" style="stroke:#454645;stroke-width:1.5;"/></g><!--reverse link LendingsDBInter to dbLendings--><g id="link_LendingsDBInter_dbLendings"><path d="M515,166.04 C515,186.94 515,232.54 515,249.81 " fill="none" id="LendingsDBInter-backto-dbLendings" style="stroke:#454645;stroke-width:1.0;"/><path d="M506.5428,159.1182 A9,9 0 0 0 523.4572 159.1182" fill="none" style="stroke:#454645;stroke-width:1.5;"/></g><!--link NodeHTTP to HttpClient--><g id="link_NodeHTTP_HttpClient"><path d="M210.38,56.02 C209.7,81.6 208.9271,111.1036 208.4771,127.9436 " fill="none" id="NodeHTTP-to-HttpClient" style="stroke:#454645;stroke-width:1.0;"/><path d="M216.7464,135.0888 A9,9 0 0 0 199.838 134.637" fill="none" style="stroke:#454645;stroke-width:1.5;"/></g><!--link LendingsDB to LendingsDBInter--><g id="link_LendingsDB_LendingsDBInter"><path d="M515,56.02 C515,81.6 515,121.1 515,137.94 " fill="none" id="LendingsDB-LendingsDBInter" style="stroke:#454645;stroke-width:1.0;"/></g><!--link LendingsComp to LendingsCompInter--><g id="link_LendingsComp_LendingsCompInter"><path d="M72.41,56.02 C72.87,81.6 73.56,121.1 73.86,137.94 " fill="none" id="LendingsComp-LendingsCompInter" style="stroke:#454645;stroke-width:1.0;"/></g><!--link out to routes--><g id="link_out_routes"><path d="M200.91,262.12 C195.62,275.08 181.45,309.83 171.75,333.61 " fill="none" id="out-routes" style="stroke:#454645;stroke-width:1.0;"/></g><!--link routes to routesCtr--><g id="link_routes_routesCtr"><path d="M204.01,378.46 C240.27,395.01 293.92,419.91 340,443 C352.23,449.13 357.3628,451.84 366.2028,456.69 " fill="none" id="routes-to-routesCtr" style="stroke:#454645;stroke-width:1.0;"/><path d="M376.3393,452.6048 A9,9 0 0 0 368.2033 467.434" fill="none" style="stroke:#454645;stroke-width:1.5;"/></g><!--link routesCtr to ctrl--><g id="link_routesCtr_ctrl"><path d="M384.23,476.54 C384.67,492.29 385.66,527.73 386.33,551.64 " fill="none" id="routesCtr-ctrl" style="stroke:#454645;stroke-width:1.0;"/></g><!--link uRepo to ctrl--><!--link ctrl to ctrlSer--><g id="link_ctrl_ctrlSer"><path d="M421.31,601.04 C443.02,616.75 471.03,638.58 493,661 C512.1,680.49 510.37,691.04 530,710 C566.49,745.24 610.342,771.686 631.232,783.536 " fill="none" id="ctrl-to-ctrlSer" style="stroke:#454645;stroke-width:1.0;"/><path d="M641.4254,779.5951 A9,9 0 0 0 633.0798 794.3073" fill="none" style="stroke:#454645;stroke-width:1.5;"/></g><!--link ctrlSer to service--><g id="link_ctrlSer_service"><path d="M639.66,800.75 C630.83,805.65 617.15,813.08 605,819 C560.98,840.44 510.17,862.76 472.32,878.92 " fill="none" id="ctrlSer-service" style="stroke:#454645;stroke-width:1.0;"/></g><!--link service to model--><g id="link_service_model"><path d="M416,928.06 C416,950.11 416,971.81 416,986.69 " fill="none" id="service-to-model" style="stroke:#454645;stroke-width:1.0;"/><path d="M424.4572,993.6118 A9,9 0 0 0 407.5428 993.6118" fill="none" style="stroke:#454645;stroke-width:1.5;"/></g><!--link model to lend--><g id="link_model_lend"><path d="M416,1015.22 C416,1030.04 416,1061.72 416,1083.8 " fill="none" id="model-lend" style="stroke:#454645;stroke-width:1.0;"/></g><!--link service to lendDriver--><g id="link_service_lendDriver"><path d="M484.86,903.5 C496.47,903.5 498.08,903.5 509.69,903.5 " fill="none" id="service-to-lendDriver" style="stroke:#454645;stroke-width:1.0;"/><path d="M516.6118,895.0428 A9,9 0 0 0 516.6118 911.9572" fill="none" style="stroke:#454645;stroke-width:1.5;"/></g><!--link lendDriver to driver--><g id="link_lendDriver_driver"><path d="M538.13,903.5 C549.84,903.5 561.56,903.5 573.27,903.5 " fill="none" id="lendDriver-driver" style="stroke:#454645;stroke-width:1.0;"/></g><!--reverse link userDriver to service--><g id="link_userDriver_service"><path d="M559.1123,799.6336 C546.1223,803.3836 544.41,811.33 534,819 C504.05,841.07 468.15,863.08 443.39,878.96 " fill="none" id="userDriver-backto-service" style="stroke:#454645;stroke-width:1.0;"/><path d="M563.4169,789.5883 A9,9 0 0 0 568.1083 805.8392" fill="none" style="stroke:#454645;stroke-width:1.5;"/></g><!--reverse link userDriver to service--><g id="link_userDriver_service"><path d="M579.7989,812.2204 C576.8989,816.9204 575.4,814.28 569,819 C539.05,841.07 503.15,863.08 473.26,878.96 " fill="none" id="userDriver-backto-service-1" style="stroke:#454645;stroke-width:1.0;"/><path d="M576.2362,801.8887 A9,9 0 0 0 590.631 810.7706" fill="none" style="stroke:#454645;stroke-width:1.5;"/></g><!--link uDriver to userDriver--><g id="link_uDriver_userDriver"><path d="M127.09,769.94 C146.22,758.39 170.65,745.9 194.5,740 C267.63,721.92 465.44,707.71 533.5,740 C553.36,749.43 567.29,772.54 573.81,785.43 " fill="none" id="uDriver-userDriver" style="stroke:#454645;stroke-width:1.0;"/></g><!--link sRepo to repo--><g id="link_sRepo_repo"><path d="M350.99,660.92 C371.08,649.38 396.68,636.88 421.5,631 C480.78,616.95 539.798,636.2331 583.768,656.6231 " fill="none" id="sRepo-to-repo" style="stroke:#454645;stroke-width:1.0;"/><path d="M593.6054,651.8626 A9,9 0 0 0 586.4896 667.2075" fill="none" style="stroke:#454645;stroke-width:1.5;"/></g><!--link sRepo to bRepo--><g id="link_sRepo_bRepo"><path d="M343.63,710.25 C366.5,727.98 389.7077,745.9719 412.5577,763.6919 " fill="none" id="sRepo-to-bRepo" style="stroke:#454645;stroke-width:1.0;"/><path d="M423.2103,761.2505 A9,9 0 0 0 412.8448 774.6168" fill="none" style="stroke:#454645;stroke-width:1.5;"/></g><!--reverse link uRepo to sRepo--><g id="link_uRepo_sRepo"><path d="M159.7923,605.6847 C194.3723,623.4747 232.67,643.17 267.21,660.95 " fill="none" id="uRepo-backto-sRepo" style="stroke:#454645;stroke-width:1.0;"/><path d="M149.7683,610.0386 A9,9 0 0 0 157.5061 594.9978" fill="none" style="stroke:#454645;stroke-width:1.5;"/></g><!--reverse link repo to driver--><g id="link_repo_driver"><path d="M666.2488,717.9632 C678.7888,733.7132 687.32,747.72 694,770 C705.43,808.14 684.68,852.16 668.48,878.63 " fill="none" id="repo-backto-driver" style="stroke:#454645;stroke-width:1.0;"/><path d="M655.3211,717.8159 A9,9 0 0 0 668.5536 707.2803" fill="none" style="stroke:#454645;stroke-width:1.5;"/></g><!--reverse link userHttpInterface to uDriver--><g id="link_userHttpInterface_uDriver"><path d="M89.3341,704.5383 C89.6241,720.2883 90.11,745.73 90.55,769.64 " fill="none" id="userHttpInterface-backto-uDriver" style="stroke:#454645;stroke-width:1.0;"/><path d="M80.7509,697.7734 A9,9 0 0 0 97.6625 697.462" fill="none" style="stroke:#454645;stroke-width:1.5;"/></g><!--link uRepo to userHttpInterface--><g id="link_uRepo_userHttpInterface"><path d="M101.45,601.25 C97.88,625.14 92.57,660.63 90.21,676.42 " fill="none" id="uRepo-userHttpInterface" style="stroke:#454645;stroke-width:1.0;"/></g><!--reverse link lendHttpInterface to sRepo--><g id="link_lendHttpInterface_sRepo"><path d="M258.9429,594.1221 C268.3629,609.8721 284.43,636.73 298.73,660.64 " fill="none" id="lendHttpInterface-backto-sRepo" style="stroke:#454645;stroke-width:1.0;"/><path d="M248.1319,592.5228 A9,9 0 0 0 262.6481 583.8407" fill="none" style="stroke:#454645;stroke-width:1.5;"/></g><!--link lendHTTPDriver to lendHttpInterface--><g id="link_lendHTTPDriver_lendHttpInterface"><path d="M182.86,492.25 C201.84,516.14 230.04,551.63 242.58,567.42 " fill="none" id="lendHTTPDriver-lendHttpInterface" style="stroke:#454645;stroke-width:1.0;"/></g><!--reverse link lendDBInterface to repo--><g id="link_lendDBInterface_repo"><path d="M540.8613,592.3837 C557.6413,608.1337 588.11,636.73 613.58,660.64 " fill="none" id="lendDBInterface-backto-repo" style="stroke:#454645;stroke-width:1.0;"/><path d="M530.0265,593.8131 A9,9 0 0 0 541.6023 581.4802" fill="none" style="stroke:#454645;stroke-width:1.5;"/></g><!--link lendDBDriver to lendDBInterface--><g id="link_lendDBDriver_lendDBInterface"><path d="M526.56,492.25 C526.11,516.14 525.45,551.63 525.15,567.42 " fill="none" id="lendDBDriver-lendDBInterface" style="stroke:#454645;stroke-width:1.0;"/></g><!--reverse link userHttpInterface2 to uRepo--><g id="link_userHttpInterface2_uRepo"><path d="M277.126,478.5658 C252.436,492.4658 192.08,526.46 146.8,551.96 " fill="none" id="userHttpInterface2-backto-uRepo" style="stroke:#454645;stroke-width:1.0;"/><path d="M279.0087,467.8005 A9,9 0 0 0 287.3066 482.5397" fill="none" style="stroke:#454645;stroke-width:1.5;"/></g><!--link userHTTPDriver to userHttpInterface2--><g id="link_userHTTPDriver_userHttpInterface2"><path d="M464.22,383.14 C429.17,399.6 381.56,422.24 340,443 C327.54,449.22 313.32,456.72 304.26,461.54 " fill="none" id="userHTTPDriver-userHttpInterface2" style="stroke:#454645;stroke-width:1.0;"/></g><!--link dbLendings to userHTTPDriver--><g id="link_dbLendings_userHTTPDriver"><path d="M515,262.12 C515,275.08 515,309.83 515,333.61 " fill="none" id="dbLendings-userHTTPDriver" style="stroke:#454645;stroke-width:1.0;"/></g><!--link dbLendings to bookHTTPDriver--><g id="link_dbLendings_bookHTTPDriver"><path d="M521.21,259.27 C539.11,266.17 591.07,288.72 615,326 C661.21,397.99 662.6,504.61 660.6,551.69 " fill="none" id="dbLendings-bookHTTPDriver" style="stroke:#454645;stroke-width:1.0;"/></g><!--link apiLendings to lendHTTPDriver--><g id="link_apiLendings_lendHTTPDriver"><path d="M83.92,262.03 C83.79,279.49 84.82,338.81 103,383 C112.15,405.25 128.44,427.08 141.88,442.84 " fill="none" id="apiLendings-lendHTTPDriver" style="stroke:#454645;stroke-width:1.0;"/></g><!--link dbLendings to lendDBDriver--><g id="link_dbLendings_lendDBDriver"><path d="M521.26,259.54 C538.28,266.83 585.33,289.69 603,326 C614.09,348.78 612.14,359.37 603,383 C593.8,406.77 574.35,427.93 557.43,443 " fill="none" id="dbLendings-lendDBDriver" style="stroke:#454645;stroke-width:1.0;"/></g><!--link lendHTTPDriver to lendDBDriver--><!--reverse link bookDriver to service--><g id="link_bookDriver_service"><path d="M302.09,903.5 C320.48,903.5 328.88,903.5 347.27,903.5 " fill="none" id="bookDriver-backto-service" style="stroke:#454645;stroke-width:1.0;"/><path d="M295.1682,911.9572 A9,9 0 0 0 295.1682 895.0428" fill="none" style="stroke:#454645;stroke-width:1.5;"/></g><!--link bDriver to bookDriver--><g id="link_bDriver_bookDriver"><path d="M268.22,819.25 C272.46,843.14 278.76,878.63 281.57,894.42 " fill="none" id="bDriver-bookDriver" style="stroke:#454645;stroke-width:1.0;"/></g><!--reverse link bookHttpInterface to bRepo--><g id="link_bookHttpInterface_bRepo"><path d="M195.8664,696.6037 C204.8364,701.6237 210.26,704.37 223,710 C274.38,732.71 334.04,754.4 379.45,769.98 " fill="none" id="bookHttpInterface-backto-bRepo" style="stroke:#454645;stroke-width:1.0;"/><path d="M185.6959,700.6034 A9,9 0 0 0 193.9564 685.8432" fill="none" style="stroke:#454645;stroke-width:1.5;"/></g><!--reverse link bookHttpInterface to bDriver--><g id="link_bookHttpInterface_bDriver"><path d="M190.725,702.3342 C203.385,718.0842 225.61,745.73 244.82,769.64 " fill="none" id="bookHttpInterface-backto-bDriver" style="stroke:#454645;stroke-width:1.0;"/><path d="M179.7968,702.2377 A9,9 0 0 0 192.9802 691.6407" fill="none" style="stroke:#454645;stroke-width:1.5;"/></g><!--link bookHTTPDriver to bookHttpInterface2--><g id="link_bookHTTPDriver_bookHttpInterface2"><path d="M612.43,601.11 C561.46,626.96 483.47,666.51 457.08,679.89 " fill="none" id="bookHTTPDriver-bookHttpInterface2" style="stroke:#454645;stroke-width:1.0;"/></g><!--reverse link bookHttpInterface2 to bRepo--><g id="link_bookHttpInterface2_bRepo"><path d="M448.5093,704.5361 C448.9493,720.2861 449.66,745.73 450.33,769.64 " fill="none" id="bookHttpInterface2-backto-bRepo" style="stroke:#454645;stroke-width:1.0;"/><path d="M439.862,697.8532 A9,9 0 0 0 456.7699 697.3808" fill="none" style="stroke:#454645;stroke-width:1.5;"/></g><!--link sRepo to userDriver--><g id="link_sRepo_userDriver"><path d="M385.56,708.64 C444.5,727.23 522.37,753.35 551,770 C558.09,774.12 557.9018,773.2469 562.9718,778.2069 " fill="none" id="sRepo-to-userDriver" style="stroke:#454645;stroke-width:1.0;"/><path d="M573.8339,777.002 A9,9 0 0 0 562.0054 789.0928" fill="none" style="stroke:#454645;stroke-width:1.5;"/></g><!--SRC=[ZLLDQnin4BthLwYvj3ri3JwM4EZQXHYQajhkgVIWjLHxoNgrIDf0AFtlrQSradQTE1YicJVpPgIPb_SdfGRvUR4OEjAhyTnzEl3pGdy7thDULRGbHq7E2BrJ9tPcMF4NrFQAYJ_amF2D_YCIVsCzRVkZNDSRuq8bubwphBfMPvoFNcbI5myWb2ZI4CccUIvruXl3W1s5nNxdbDtlzuy9Q4kQfbKFFmfU209sqlUKK9cH9oblRm5U1r1vTsVndJPB_1SXh3y35whjTG5VTtlyvN5poMQXV5Gf2fP9XZQ04z2wjcxQNBpM3RlLUPbZ4FPd3l2HAzuhmRkE2OizAD7D87TCFBS7znZI_Pv1NguWz__KSVeEjspWibLSl5ZaQCupgRRimDfdNvoy0YpJYWcmAI1dNmj3CCkVWEaarcN0jZlidsRK1pE2wsiHeVOGPEviNK-7F30foP7LWZ_vwp1eG643YWKp3xhpsGgdcuoLcd6VzHfrqovRQQopy9lsN_ERhTq4nppD6s5U5-P11UMoM9gQywVinPlfrp38SkIQgG7rRsqZmaCt-f1DHr6lmRpcVyFT5B0b-eTGr6HSqSgAK275-ADnGGdADDW1e0W5uJL9Fq3XZv6MBnTpo9q0uly5v8OLLwChDnmDKPnZC-uMafkwNwUMKjR_hhpUUBi93plYLSt61riq6gJR23Dk5kIE4I8q16o6KmlDNK5hX7SQ3XR5Av590yrMzLnkAsd-RCfny-ODDfjhBH2F8IRc7ZrdEZbZo3dX2_b7trpgJKN8fYX1I2GPuAf2oRj4Gq2eRRBm9KfrThe5lUWvR4pcDbt7t5lqEAPRaRQGnkQX8evX8lRfK83LRy1G03DgugsKGj30roxTHR-qcfA9QnHB1ESGJclSeSJ-7m00]--></g></svg>