<?xml version="1.0" encoding="us-ascii" standalone="no"?><svg xmlns="http://www.w3.org/2000/svg" xmlns:xlink="http://www.w3.org/1999/xlink" contentStyleType="text/css" height="476px" preserveAspectRatio="none" style="width:1158px;height:476px;background:#FFFFFF;" version="1.1" viewBox="0 0 1158 476" width="1158px" zoomAndPan="magnify"><defs><linearGradient id="g1jwezhs4h9vmy0" x1="0%" x2="100%" y1="0%" y2="100%"><stop offset="0%" stop-color="#F2AA4C"/><stop offset="100%" stop-color="#CE4A7E"/></linearGradient></defs><g><text fill="#000000" font-family="sans-serif" font-size="14" font-weight="bold" lengthAdjust="spacing" textLength="171" x="492.75" y="30.1074">US11 Sequence Diagram</text><rect fill="#FFFFFF" height="251.3281" style="stroke:#181818;stroke-width:1.0;" width="10" x="40" y="133.2422"/><rect fill="#FFFFFF" height="219.0371" style="stroke:#181818;stroke-width:1.0;" width="10" x="330" y="156.5332"/><rect fill="#FFFFFF" height="156.4551" style="stroke:#181818;stroke-width:1.0;" width="10" x="441" y="187.8242"/><rect fill="#FFFFFF" height="31.291" style="stroke:#181818;stroke-width:1.0;" width="10" x="1005" y="219.1152"/><rect fill="#FFFFFF" height="31.291" style="stroke:#181818;stroke-width:1.0;" width="10" x="1092" y="281.6973"/><line style="stroke:#181818;stroke-width:0.5;stroke-dasharray:5.0,5.0;" x1="45" x2="45" y1="123.2422" y2="393.5703"/><line style="stroke:#181818;stroke-width:0.5;stroke-dasharray:5.0,5.0;" x1="334.5" x2="334.5" y1="123.2422" y2="393.5703"/><line style="stroke:#181818;stroke-width:0.5;stroke-dasharray:5.0,5.0;" x1="446" x2="446" y1="123.2422" y2="393.5703"/><line style="stroke:#181818;stroke-width:0.5;stroke-dasharray:5.0,5.0;" x1="1009.5" x2="1009.5" y1="123.2422" y2="393.5703"/><line style="stroke:#181818;stroke-width:0.5;stroke-dasharray:5.0,5.0;" x1="1096.5" x2="1096.5" y1="123.2422" y2="393.5703"/><text fill="#000000" font-family="sans-serif" font-size="14" lengthAdjust="spacing" textLength="74" x="5" y="119.7285">Anonymous</text><ellipse cx="45" cy="53.1211" fill="url(#g1jwezhs4h9vmy0)" rx="8" ry="8" style="stroke:#181818;stroke-width:0.5;"/><path d="M45,61.1211 L45,88.1211 M32,69.1211 L58,69.1211 M45,88.1211 L32,103.1211 M45,88.1211 L58,103.1211 " fill="none" style="stroke:#181818;stroke-width:0.5;"/><text fill="#000000" font-family="sans-serif" font-size="14" lengthAdjust="spacing" textLength="74" x="5" y="407.6777">Anonymous</text><ellipse cx="45" cy="419.6914" fill="url(#g1jwezhs4h9vmy0)" rx="8" ry="8" style="stroke:#181818;stroke-width:0.5;"/><path d="M45,427.6914 L45,454.6914 M32,435.6914 L58,435.6914 M45,454.6914 L32,469.6914 M45,454.6914 L58,469.6914 " fill="none" style="stroke:#181818;stroke-width:0.5;"/><rect fill="url(#g1jwezhs4h9vmy0)" height="32.6211" rx="2.5" ry="2.5" style="stroke:#181818;stroke-width:0.5;" width="105" x="282.5" y="89.6211"/><text fill="#000000" font-family="sans-serif" font-size="14" lengthAdjust="spacing" textLength="91" x="289.5" y="111.7285">UserController</text><rect fill="url(#g1jwezhs4h9vmy0)" height="32.6211" rx="2.5" ry="2.5" style="stroke:#181818;stroke-width:0.5;" width="105" x="282.5" y="392.5703"/><text fill="#000000" font-family="sans-serif" font-size="14" lengthAdjust="spacing" textLength="91" x="289.5" y="414.6777">UserController</text><rect fill="url(#g1jwezhs4h9vmy0)" height="32.6211" rx="2.5" ry="2.5" style="stroke:#181818;stroke-width:0.5;" width="90" x="401" y="89.6211"/><text fill="#000000" font-family="sans-serif" font-size="14" lengthAdjust="spacing" textLength="76" x="408" y="111.7285">UserService</text><rect fill="url(#g1jwezhs4h9vmy0)" height="32.6211" rx="2.5" ry="2.5" style="stroke:#181818;stroke-width:0.5;" width="90" x="401" y="392.5703"/><text fill="#000000" font-family="sans-serif" font-size="14" lengthAdjust="spacing" textLength="76" x="408" y="414.6777">UserService</text><rect fill="url(#g1jwezhs4h9vmy0)" height="32.6211" rx="2.5" ry="2.5" style="stroke:#181818;stroke-width:0.5;" width="43" x="988.5" y="89.6211"/><text fill="#000000" font-family="sans-serif" font-size="14" lengthAdjust="spacing" textLength="29" x="995.5" y="111.7285">User</text><rect fill="url(#g1jwezhs4h9vmy0)" height="32.6211" rx="2.5" ry="2.5" style="stroke:#181818;stroke-width:0.5;" width="43" x="988.5" y="392.5703"/><text fill="#000000" font-family="sans-serif" font-size="14" lengthAdjust="spacing" textLength="29" x="995.5" y="414.6777">User</text><rect fill="url(#g1jwezhs4h9vmy0)" height="32.6211" rx="2.5" ry="2.5" style="stroke:#181818;stroke-width:0.5;" width="111" x="1041.5" y="89.6211"/><text fill="#000000" font-family="sans-serif" font-size="14" lengthAdjust="spacing" textLength="97" x="1048.5" y="111.7285">UserRepository</text><rect fill="url(#g1jwezhs4h9vmy0)" height="32.6211" rx="2.5" ry="2.5" style="stroke:#181818;stroke-width:0.5;" width="111" x="1041.5" y="392.5703"/><text fill="#000000" font-family="sans-serif" font-size="14" lengthAdjust="spacing" textLength="97" x="1048.5" y="414.6777">UserRepository</text><rect fill="#FFFFFF" height="251.3281" style="stroke:#181818;stroke-width:1.0;" width="10" x="40" y="133.2422"/><rect fill="#FFFFFF" height="219.0371" style="stroke:#181818;stroke-width:1.0;" width="10" x="330" y="156.5332"/><rect fill="#FFFFFF" height="156.4551" style="stroke:#181818;stroke-width:1.0;" width="10" x="441" y="187.8242"/><rect fill="#FFFFFF" height="31.291" style="stroke:#181818;stroke-width:1.0;" width="10" x="1005" y="219.1152"/><rect fill="#FFFFFF" height="31.291" style="stroke:#181818;stroke-width:1.0;" width="10" x="1092" y="281.6973"/><polygon fill="#181818" points="318,152.5332,328,156.5332,318,160.5332,322,156.5332" style="stroke:#181818;stroke-width:1.0;"/><line style="stroke:#181818;stroke-width:1.0;" x1="50" x2="324" y1="156.5332" y2="156.5332"/><text fill="#000000" font-family="sans-serif" font-size="13" font-weight="bold" lengthAdjust="spacing" textLength="7" x="57" y="151.2705">1</text><text fill="#000000" font-family="sans-serif" font-size="13" lengthAdjust="spacing" textLength="250" x="68" y="151.2705">request to register as a reader (POST/user)</text><polygon fill="#181818" points="429,183.8242,439,187.8242,429,191.8242,433,187.8242" style="stroke:#181818;stroke-width:1.0;"/><line style="stroke:#181818;stroke-width:1.0;" x1="340" x2="435" y1="187.8242" y2="187.8242"/><text fill="#000000" font-family="sans-serif" font-size="13" font-weight="bold" lengthAdjust="spacing" textLength="7" x="347" y="182.5615">2</text><text fill="#000000" font-family="sans-serif" font-size="13" lengthAdjust="spacing" textLength="71" x="358" y="182.5615">createUser()</text><polygon fill="#181818" points="993,215.1152,1003,219.1152,993,223.1152,997,219.1152" style="stroke:#181818;stroke-width:1.0;"/><line style="stroke:#181818;stroke-width:1.0;" x1="451" x2="999" y1="219.1152" y2="219.1152"/><text fill="#000000" font-family="sans-serif" font-size="13" font-weight="bold" lengthAdjust="spacing" textLength="7" x="458" y="213.8525">3</text><text fill="#000000" font-family="sans-serif" font-size="13" lengthAdjust="spacing" textLength="524" x="469" y="213.8525">createUser(username, password, name, email, dateOfBirth, phoneNumber, GDPRConsent)</text><polygon fill="#181818" points="462,246.4063,452,250.4063,462,254.4063,458,250.4063" style="stroke:#181818;stroke-width:1.0;"/><line style="stroke:#181818;stroke-width:1.0;stroke-dasharray:2.0,2.0;" x1="456" x2="1009" y1="250.4063" y2="250.4063"/><text fill="#000000" font-family="sans-serif" font-size="13" font-weight="bold" lengthAdjust="spacing" textLength="7" x="468" y="245.1436">4</text><text fill="#000000" font-family="sans-serif" font-size="13" lengthAdjust="spacing" textLength="25" x="479" y="245.1436">user</text><polygon fill="#181818" points="1080,277.6973,1090,281.6973,1080,285.6973,1084,281.6973" style="stroke:#181818;stroke-width:1.0;"/><line style="stroke:#181818;stroke-width:1.0;" x1="451" x2="1086" y1="281.6973" y2="281.6973"/><text fill="#000000" font-family="sans-serif" font-size="13" font-weight="bold" lengthAdjust="spacing" textLength="7" x="458" y="276.4346">5</text><text fill="#000000" font-family="sans-serif" font-size="13" lengthAdjust="spacing" textLength="86" x="469" y="276.4346">saveUser(user)</text><polygon fill="#181818" points="462,308.9883,452,312.9883,462,316.9883,458,312.9883" style="stroke:#181818;stroke-width:1.0;"/><line style="stroke:#181818;stroke-width:1.0;stroke-dasharray:2.0,2.0;" x1="456" x2="1096" y1="312.9883" y2="312.9883"/><text fill="#000000" font-family="sans-serif" font-size="13" font-weight="bold" lengthAdjust="spacing" textLength="7" x="468" y="307.7256">6</text><text fill="#000000" font-family="sans-serif" font-size="13" lengthAdjust="spacing" textLength="25" x="479" y="307.7256">user</text><polygon fill="#181818" points="351,340.2793,341,344.2793,351,348.2793,347,344.2793" style="stroke:#181818;stroke-width:1.0;"/><line style="stroke:#181818;stroke-width:1.0;stroke-dasharray:2.0,2.0;" x1="345" x2="445" y1="344.2793" y2="344.2793"/><text fill="#000000" font-family="sans-serif" font-size="13" font-weight="bold" lengthAdjust="spacing" textLength="7" x="357" y="339.0166">7</text><text fill="#000000" font-family="sans-serif" font-size="13" lengthAdjust="spacing" textLength="25" x="368" y="339.0166">user</text><polygon fill="#181818" points="61,371.5703,51,375.5703,61,379.5703,57,375.5703" style="stroke:#181818;stroke-width:1.0;"/><line style="stroke:#181818;stroke-width:1.0;stroke-dasharray:2.0,2.0;" x1="55" x2="334" y1="375.5703" y2="375.5703"/><text fill="#000000" font-family="sans-serif" font-size="13" font-weight="bold" lengthAdjust="spacing" textLength="7" x="67" y="370.3076">8</text><text fill="#000000" font-family="sans-serif" font-size="13" lengthAdjust="spacing" textLength="152" x="78" y="370.3076">informs operation success</text><!--SRC=[ZPB1JW8n48RlVOe97eHaSOCXCU50Wi1w4yBg0vGoG9FTTkrCCRozirtG63rmwtJ-lzFlR- -Fp0rDyhoCMpB1DcozAp6Sh46ETVLWV9qJVaHq1eSxgmz1rqgnvGhXlHoDeBmqON5jwiXU6xOdpGZUfTh5Uej1ITEm3z2REU_EjO_K0qqG2GFS5O-psNXU5FbyEPuzBOj2DJgmDRRHZg7tBgAvTnnyLM58FiEXkibt8KgcMsSbSK2zkqczmSQJ5RPpHnIa_i_u7KpBB7aazE4qeKnad8H93EnbUR34qfJJTBg7hFlhLVcMjvw1Il3Yb682HWICxKNw0tKvilNywhG-fslCeD54dpxiCkXghBMjCjY9ShL_je6FeZbwXw_ftJ9uMQmt4ZwXuu5AeGolenF8PMJ2dW3fqy_4WUh2-6EGZOuwRNGumsbC6klsFjG4li6Wspy958r18gM-0000]--></g></svg>