<?xml version="1.0" encoding="us-ascii" standalone="no"?><svg xmlns="http://www.w3.org/2000/svg" xmlns:xlink="http://www.w3.org/1999/xlink" contentStyleType="text/css" height="652px" preserveAspectRatio="none" style="width:816px;height:652px;background:#FFFFFF;" version="1.1" viewBox="0 0 816 652" width="816px" zoomAndPan="magnify"><defs><linearGradient id="g8ngzd227hnh40" x1="0%" x2="100%" y1="0%" y2="100%"><stop offset="0%" stop-color="#F2AA4C"/><stop offset="100%" stop-color="#CE4A7E"/></linearGradient></defs><g><text fill="#000000" font-family="sans-serif" font-size="14" font-weight="bold" lengthAdjust="spacing" textLength="138" x="332.25" y="25.1074">US11 Class Diagram</text><!--class UserController--><g id="elem_UserController"><rect codeLine="8" fill="url(#g8ngzd227hnh40)" height="44.6211" id="UserController" rx="2.5" ry="2.5" style="stroke:#181818;stroke-width:0.5;" width="97" x="283.5" y="46.6211"/><text fill="#000000" font-family="sans-serif" font-size="14" lengthAdjust="spacing" textLength="91" x="286.5" y="66.7285">UserController</text><line style="stroke:#181818;stroke-width:0.5;" x1="284.5" x2="379.5" y1="75.2422" y2="75.2422"/><line style="stroke:#181818;stroke-width:0.5;" x1="284.5" x2="379.5" y1="83.2422" y2="83.2422"/></g><!--class UserService--><g id="elem_UserService"><rect codeLine="11" fill="url(#g8ngzd227hnh40)" height="63.2422" id="UserService" rx="2.5" ry="2.5" style="stroke:#181818;stroke-width:0.5;" width="138" x="263" y="170.6211"/><text fill="#000000" font-family="sans-serif" font-size="14" lengthAdjust="spacing" textLength="76" x="294" y="190.7285">UserService</text><line style="stroke:#181818;stroke-width:0.5;" x1="264" x2="400" y1="199.2422" y2="199.2422"/><line style="stroke:#181818;stroke-width:0.5;" x1="264" x2="400" y1="207.2422" y2="207.2422"/><ellipse cx="274" cy="222.0527" fill="#84BE84" rx="3" ry="3" style="stroke:#038048;stroke-width:1.0;"/><text fill="#000000" font-family="sans-serif" font-size="14" lengthAdjust="spacing" textLength="112" x="283" y="226.3496">CreateUser():void</text></g><!--class UserRepository--><g id="elem_UserRepository"><rect codeLine="16" fill="url(#g8ngzd227hnh40)" height="79.2031" id="UserRepository" rx="2.5" ry="2.5" style="stroke:#181818;stroke-width:0.5;" width="194" x="235" y="312.6211"/><text fill="#000000" font-family="sans-serif" font-size="12" font-style="italic" lengthAdjust="spacing" textLength="61" x="301.5" y="330.5703">&#171;interface&#187;</text><text fill="#000000" font-family="sans-serif" font-size="14" font-style="italic" lengthAdjust="spacing" textLength="98" x="283" y="348.6895">UserRepository</text><line style="stroke:#181818;stroke-width:0.5;" x1="236" x2="428" y1="357.2031" y2="357.2031"/><line style="stroke:#181818;stroke-width:0.5;" x1="236" x2="428" y1="365.2031" y2="365.2031"/><ellipse cx="246" cy="380.0137" fill="#84BE84" rx="3" ry="3" style="stroke:#038048;stroke-width:1.0;"/><text fill="#000000" font-family="sans-serif" font-size="14" lengthAdjust="spacing" textLength="168" x="255" y="384.3105">saveUser(user obj): Result</text></g><!--class User--><g id="elem_User"><rect codeLine="21" fill="url(#g8ngzd227hnh40)" height="174.9688" id="User" rx="2.5" ry="2.5" style="stroke:#181818;stroke-width:0.5;" width="650" x="7" y="470.6211"/><text fill="#000000" font-family="sans-serif" font-size="14" lengthAdjust="spacing" textLength="29" x="317.5" y="490.7285">User</text><line style="stroke:#181818;stroke-width:0.5;" x1="8" x2="656" y1="499.2422" y2="499.2422"/><rect fill="none" height="6" style="stroke:#C82930;stroke-width:1.0;" width="6" x="15" y="511.0527"/><text fill="#000000" font-family="sans-serif" font-size="14" lengthAdjust="spacing" textLength="35" x="27" y="518.3496">name</text><rect fill="none" height="6" style="stroke:#C82930;stroke-width:1.0;" width="6" x="15" y="529.6738"/><text fill="#000000" font-family="sans-serif" font-size="14" lengthAdjust="spacing" textLength="33" x="27" y="536.9707">email</text><rect fill="none" height="6" style="stroke:#C82930;stroke-width:1.0;" width="6" x="15" y="548.2949"/><text fill="#000000" font-family="sans-serif" font-size="14" lengthAdjust="spacing" textLength="72" x="27" y="555.5918">dateOfBirth</text><rect fill="none" height="6" style="stroke:#C82930;stroke-width:1.0;" width="6" x="15" y="566.916"/><text fill="#000000" font-family="sans-serif" font-size="14" lengthAdjust="spacing" textLength="89" x="27" y="574.2129">phoneNumber</text><rect fill="none" height="6" style="stroke:#C82930;stroke-width:1.0;" width="6" x="15" y="585.5371"/><text fill="#000000" font-family="sans-serif" font-size="14" lengthAdjust="spacing" textLength="40" x="27" y="592.834">GDPR</text><rect fill="none" height="6" style="stroke:#C82930;stroke-width:1.0;" width="6" x="15" y="604.1582"/><text fill="#000000" font-family="sans-serif" font-size="14" lengthAdjust="spacing" textLength="24" x="27" y="611.4551">role</text><line style="stroke:#181818;stroke-width:0.5;" x1="8" x2="656" y1="618.9688" y2="618.9688"/><ellipse cx="18" cy="633.7793" fill="#84BE84" rx="3" ry="3" style="stroke:#038048;stroke-width:1.0;"/><text fill="#000000" font-family="sans-serif" font-size="14" lengthAdjust="spacing" textLength="624" x="27" y="638.0762">createUser(string name, string email, string dateOfBirth, int phoneNumber, boolean GDPRConsent)</text></g><!--class Role--><g id="elem_Role"><rect codeLine="31" fill="url(#g8ngzd227hnh40)" height="81.8633" id="Role" rx="2.5" ry="2.5" style="stroke:#181818;stroke-width:0.5;" width="77" x="732.5" y="517.1211"/><text fill="#000000" font-family="sans-serif" font-size="14" lengthAdjust="spacing" textLength="29" x="756.5" y="537.2285">Role</text><line style="stroke:#181818;stroke-width:0.5;" x1="733.5" x2="808.5" y1="545.7422" y2="545.7422"/><rect fill="none" height="6" style="stroke:#C82930;stroke-width:1.0;" width="6" x="740.5" y="557.5527"/><text fill="#000000" font-family="sans-serif" font-size="14" lengthAdjust="spacing" textLength="51" x="752.5" y="564.8496">librarian</text><rect fill="none" height="6" style="stroke:#C82930;stroke-width:1.0;" width="6" x="740.5" y="576.1738"/><text fill="#000000" font-family="sans-serif" font-size="14" lengthAdjust="spacing" textLength="42" x="752.5" y="583.4707">reader</text><line style="stroke:#181818;stroke-width:0.5;" x1="733.5" x2="808.5" y1="590.9844" y2="590.9844"/></g><!--link UserController to UserService--><g id="link_UserController_UserService"><path codeLine="37" d="M332,91.7511 C332,113.1211 332,140.0111 332,164.1411 " fill="none" id="UserController-to-UserService" style="stroke:#181818;stroke-width:1.0;stroke-dasharray:7.0,7.0;"/><polygon fill="#181818" points="332,170.1411,336,161.1411,332,165.1411,328,161.1411,332,170.1411" style="stroke:#181818;stroke-width:1.0;"/><text fill="#000000" font-family="sans-serif" font-size="13" lengthAdjust="spacing" textLength="28" x="333" y="136.6494">uses</text></g><!--link UserService to UserRepository--><g id="link_UserService_UserRepository"><path codeLine="38" d="M332,233.7911 C332,256.6511 332,282.0311 332,306.5811 " fill="none" id="UserService-to-UserRepository" style="stroke:#181818;stroke-width:1.0;stroke-dasharray:7.0,7.0;"/><polygon fill="#181818" points="332,312.5811,336,303.5811,332,307.5811,328,303.5811,332,312.5811" style="stroke:#181818;stroke-width:1.0;"/><text fill="#000000" font-family="sans-serif" font-size="13" lengthAdjust="spacing" textLength="28" x="333" y="278.6494">uses</text></g><!--link User to Role--><g id="link_User_Role"><path codeLine="39" d="M657.09,558.1211 C686.45,558.1211 712.51,558.1211 732.26,558.1211 " fill="none" id="User-Role" style="stroke:#181818;stroke-width:1.0;"/><polygon fill="#000000" points="684.25,545.7666,675.2049,542.8277,675.2049,548.7055,684.25,545.7666" style="stroke:#000000;stroke-width:1.0;"/><text fill="#000000" font-family="sans-serif" font-size="13" lengthAdjust="spacing" textLength="26" x="688.25" y="551.1494">have</text><text fill="#000000" font-family="sans-serif" font-size="13" lengthAdjust="spacing" textLength="7" x="664.7913" y="554.954">1</text><text fill="#000000" font-family="sans-serif" font-size="13" lengthAdjust="spacing" textLength="7" x="717.472" y="553.6217">1</text></g><!--link UserRepository to User--><g id="link_UserRepository_User"><path codeLine="40" d="M332,391.9711 C332,414.1711 332,436.9411 332,464.2411 " fill="none" id="UserRepository-to-User" style="stroke:#181818;stroke-width:1.0;"/><polygon fill="#181818" points="332,470.2411,336,461.2411,332,465.2411,328,461.2411,332,470.2411" style="stroke:#181818;stroke-width:1.0;"/><text fill="#000000" font-family="sans-serif" font-size="13" lengthAdjust="spacing" textLength="48" x="333" y="436.6494">Records</text><text fill="#000000" font-family="sans-serif" font-size="13" lengthAdjust="spacing" textLength="7" x="324.4422" y="413.7122">1</text><text fill="#000000" font-family="sans-serif" font-size="13" lengthAdjust="spacing" textLength="20" x="311.1719" y="459.3013">0..*</text></g><!--SRC=[RP5XIyCm48Q_twyuvWUTBfqJGIXIc9trcyh6Va3QdciaJSOb7OZutqsgRdNiIqYuzvxSlUzvu_tMfTFfgYjTnMhhbJKhufsgo7UjJYhRJYijdHEraXkMBK2ZQi9ASQK9m2kl2TUhsGppACF5dmpwDbmxujmQprPhOZmhRkRpsxmefldZxVpkiIZm4xw6uj_VJoW_uIfdafwYx6ASxgogOoyeuudVP6YAbILjhLFUyWVUt-zBMNQQwEJkXzU50stvFavnIQxJlaSVvZhPBeni2GIrKcaGTPZjvUr1iMz0R1jhwBbhIs8GJulN9OZW0S4LLeSbd6TbDXWf4_nzzB3zQy2SODW61zm9bZOWfS783ouxCdvyi7CPYgST5rgLB5b94wOYMOSPuxR_mqgIR9X86XnoC8me2euiFuXmD1kXOBLflEZl_JGfPjW4o-4egLuiij5raboEUcQCeR9SE_W6]--></g></svg>