<?xml version="1.0" encoding="us-ascii" standalone="no"?><svg xmlns="http://www.w3.org/2000/svg" xmlns:xlink="http://www.w3.org/1999/xlink" contentStyleType="text/css" height="596px" preserveAspectRatio="none" style="width:214px;height:596px;background:#FFFFFF;" version="1.1" viewBox="0 0 214 596" width="214px" zoomAndPan="magnify"><defs/><g><text fill="#000000" font-family="sans-serif" font-size="14" font-weight="bold" lengthAdjust="spacing" textLength="138" x="31" y="25.1074">US07 Class Diagram</text><!--class BookController--><g id="elem_BookController"><rect codeLine="8" fill="#F1F1F1" height="44.6211" id="BookController" rx="2.5" ry="2.5" style="stroke:#181818;stroke-width:0.5;" width="100" x="57" y="46.6211"/><text fill="#000000" font-family="sans-serif" font-size="14" lengthAdjust="spacing" textLength="94" x="60" y="66.7285">BookController</text><line style="stroke:#181818;stroke-width:0.5;" x1="58" x2="156" y1="75.2422" y2="75.2422"/><line style="stroke:#181818;stroke-width:0.5;" x1="58" x2="156" y1="83.2422" y2="83.2422"/></g><!--class BookService--><g id="elem_BookService"><rect codeLine="11" fill="#F1F1F1" height="63.2422" id="BookService" rx="2.5" ry="2.5" style="stroke:#181818;stroke-width:0.5;" width="146" x="34" y="170.6211"/><text fill="#000000" font-family="sans-serif" font-size="14" lengthAdjust="spacing" textLength="79" x="67.5" y="190.7285">BookService</text><line style="stroke:#181818;stroke-width:0.5;" x1="35" x2="179" y1="199.2422" y2="199.2422"/><line style="stroke:#181818;stroke-width:0.5;" x1="35" x2="179" y1="207.2422" y2="207.2422"/><ellipse cx="45" cy="222.0527" fill="#84BE84" rx="3" ry="3" style="stroke:#038048;stroke-width:1.0;"/><text fill="#000000" font-family="sans-serif" font-size="14" lengthAdjust="spacing" textLength="120" x="54" y="226.3496">registerBook():void</text></g><!--class BookRepository--><g id="elem_BookRepository"><rect codeLine="15" fill="#F1F1F1" height="79.2031" id="BookRepository" rx="2.5" ry="2.5" style="stroke:#181818;stroke-width:0.5;" width="200" x="7" y="312.6211"/><text fill="#000000" font-family="sans-serif" font-size="12" font-style="italic" lengthAdjust="spacing" textLength="61" x="76.5" y="330.5703">&#171;interface&#187;</text><text fill="#000000" font-family="sans-serif" font-size="14" font-style="italic" lengthAdjust="spacing" textLength="101" x="56.5" y="348.6895">BookRepository</text><line style="stroke:#181818;stroke-width:0.5;" x1="8" x2="206" y1="357.2031" y2="357.2031"/><line style="stroke:#181818;stroke-width:0.5;" x1="8" x2="206" y1="365.2031" y2="365.2031"/><ellipse cx="18" cy="380.0137" fill="#84BE84" rx="3" ry="3" style="stroke:#038048;stroke-width:1.0;"/><text fill="#000000" font-family="sans-serif" font-size="14" lengthAdjust="spacing" textLength="174" x="27" y="384.3105">saveBook(book obj): Result</text></g><!--class Book--><g id="elem_Book"><rect codeLine="19" fill="#F1F1F1" height="119.1055" id="Book" rx="2.5" ry="2.5" style="stroke:#181818;stroke-width:0.5;" width="95" x="59.5" y="470.6211"/><text fill="#000000" font-family="sans-serif" font-size="14" lengthAdjust="spacing" textLength="32" x="91" y="490.7285">Book</text><line style="stroke:#181818;stroke-width:0.5;" x1="60.5" x2="153.5" y1="499.2422" y2="499.2422"/><ellipse cx="70.5" cy="514.0527" fill="none" rx="3" ry="3" style="stroke:#038048;stroke-width:1.0;"/><text fill="#000000" font-family="sans-serif" font-size="14" lengthAdjust="spacing" textLength="26" x="79.5" y="518.3496">isbn</text><ellipse cx="70.5" cy="532.6738" fill="none" rx="3" ry="3" style="stroke:#038048;stroke-width:1.0;"/><text fill="#000000" font-family="sans-serif" font-size="14" lengthAdjust="spacing" textLength="22" x="79.5" y="536.9707">title</text><ellipse cx="70.5" cy="551.2949" fill="none" rx="3" ry="3" style="stroke:#038048;stroke-width:1.0;"/><text fill="#000000" font-family="sans-serif" font-size="14" lengthAdjust="spacing" textLength="69" x="79.5" y="555.5918">description</text><ellipse cx="70.5" cy="569.916" fill="none" rx="3" ry="3" style="stroke:#038048;stroke-width:1.0;"/><text fill="#000000" font-family="sans-serif" font-size="14" lengthAdjust="spacing" textLength="41" x="79.5" y="574.2129">author</text><line style="stroke:#181818;stroke-width:0.5;" x1="60.5" x2="153.5" y1="581.7266" y2="581.7266"/></g><!--link BookController to BookService--><g id="link_BookController_BookService"><path codeLine="27" d="M107,91.7511 C107,113.1211 107,140.0111 107,164.1411 " fill="none" id="BookController-to-BookService" style="stroke:#181818;stroke-width:1.0;stroke-dasharray:7.0,7.0;"/><polygon fill="#181818" points="107,170.1411,111,161.1411,107,165.1411,103,161.1411,107,170.1411" style="stroke:#181818;stroke-width:1.0;"/><text fill="#000000" font-family="sans-serif" font-size="13" lengthAdjust="spacing" textLength="28" x="108" y="136.6494">uses</text></g><!--link BookService to BookRepository--><g id="link_BookService_BookRepository"><path codeLine="28" d="M107,233.7911 C107,256.6511 107,282.0311 107,306.5811 " fill="none" id="BookService-to-BookRepository" style="stroke:#181818;stroke-width:1.0;stroke-dasharray:7.0,7.0;"/><polygon fill="#181818" points="107,312.5811,111,303.5811,107,307.5811,103,303.5811,107,312.5811" style="stroke:#181818;stroke-width:1.0;"/><text fill="#000000" font-family="sans-serif" font-size="13" lengthAdjust="spacing" textLength="28" x="108" y="278.6494">uses</text></g><!--link BookRepository to Book--><g id="link_BookRepository_Book"><path codeLine="29" d="M107,391.7411 C107,414.8111 107,438.5811 107,464.5011 " fill="none" id="BookRepository-to-Book" style="stroke:#181818;stroke-width:1.0;"/><polygon fill="#181818" points="107,470.5011,111,461.5011,107,465.5011,103,461.5011,107,470.5011" style="stroke:#181818;stroke-width:1.0;"/><text fill="#000000" font-family="sans-serif" font-size="13" lengthAdjust="spacing" textLength="48" x="108" y="436.6494">Records</text><text fill="#000000" font-family="sans-serif" font-size="13" lengthAdjust="spacing" textLength="7" x="99.4203" y="413.7466">1</text><text fill="#000000" font-family="sans-serif" font-size="13" lengthAdjust="spacing" textLength="20" x="85.7813" y="459.2386">0..*</text></g><!--SRC=[NO_1JeH038RlVOg6Ywu4M4ycPCF1zGcM-033K9Uk0oNJWSGOtrs6wCfwcSFVxvz-lUj26BKiYdfgr7eU0yjGav_PKfXwbrlf2-kCQjQoENlJ0tJS4bhsrX50uE08N-lz4nuZXY-_6AmrV1PvFyeGl3X77l4JlhQZdrrBd7ewimRoCRxVbRDm6raUbkpDB4mSd6WKvI3-0m-7wwYguWTgPbhBpVAWD9TTYIVIoONRdHWjKjPcW7JrXxIbw_MGcYbqucC7RktplDfAbvEImlQA2FpJ_8CswibZWbbM9ViyVqZMGZIrubk5Rm00]--></g></svg>
