<?xml version="1.0" encoding="us-ascii" standalone="no"?><svg xmlns="http://www.w3.org/2000/svg" xmlns:xlink="http://www.w3.org/1999/xlink" contentStyleType="text/css" height="1019px" preserveAspectRatio="none" style="width:997px;height:1019px;background:#FFFFFF;" version="1.1" viewBox="0 0 997 1019" width="997px" zoomAndPan="magnify"><defs><linearGradient id="g1srsap01dl74q0" x1="0%" x2="100%" y1="0%" y2="100%"><stop offset="0%" stop-color="#3B5323"/><stop offset="100%" stop-color="#B0C4DE"/></linearGradient></defs><g><text fill="#000000" font-family="sans-serif" font-size="14" font-weight="bold" lengthAdjust="spacing" textLength="138" x="422.75" y="25.1074">US15 Class Diagram</text><!--class LendingController--><g id="elem_LendingController"><rect codeLine="7" fill="url(#g1srsap01dl74q0)" height="63.2422" id="LendingController" rx="2.5" ry="2.5" style="stroke:#181818;stroke-width:0.5;" width="539" x="253.5" y="46.6211"/><text fill="#000000" font-family="sans-serif" font-size="14" lengthAdjust="spacing" textLength="113" x="466.5" y="66.7285">LendingController</text><line style="stroke:#181818;stroke-width:0.5;" x1="254.5" x2="791.5" y1="75.2422" y2="75.2422"/><line style="stroke:#181818;stroke-width:0.5;" x1="254.5" x2="791.5" y1="83.2422" y2="83.2422"/><ellipse cx="264.5" cy="98.0527" fill="#84BE84" rx="3" ry="3" style="stroke:#038048;stroke-width:1.0;"/><text fill="#000000" font-family="sans-serif" font-size="14" lengthAdjust="spacing" textLength="513" x="273.5" y="102.3496">POST /lending(lib_id: long, reader_id: long, isbn: String): ResponseEntity&lt;String&gt;</text></g><!--class UserService--><g id="elem_UserService"><rect codeLine="11" fill="url(#g1srsap01dl74q0)" height="63.2422" id="UserService" rx="2.5" ry="2.5" style="stroke:#181818;stroke-width:0.5;" width="248" x="7" y="207.1211"/><text fill="#000000" font-family="sans-serif" font-size="14" lengthAdjust="spacing" textLength="76" x="93" y="227.2285">UserService</text><line style="stroke:#181818;stroke-width:0.5;" x1="8" x2="254" y1="235.7422" y2="235.7422"/><line style="stroke:#181818;stroke-width:0.5;" x1="8" x2="254" y1="243.7422" y2="243.7422"/><ellipse cx="18" cy="258.5527" fill="#84BE84" rx="3" ry="3" style="stroke:#038048;stroke-width:1.0;"/><text fill="#000000" font-family="sans-serif" font-size="14" lengthAdjust="spacing" textLength="222" x="27" y="262.8496">getUser(readerNumber: long): User</text></g><!--class LendingService--><g id="elem_LendingService"><rect codeLine="15" fill="url(#g1srsap01dl74q0)" height="100.4844" id="LendingService" rx="2.5" ry="2.5" style="stroke:#181818;stroke-width:0.5;" width="466" x="290" y="188.6211"/><text fill="#000000" font-family="sans-serif" font-size="14" lengthAdjust="spacing" textLength="98" x="474" y="208.7285">LendingService</text><line style="stroke:#181818;stroke-width:0.5;" x1="291" x2="755" y1="217.2422" y2="217.2422"/><line style="stroke:#181818;stroke-width:0.5;" x1="291" x2="755" y1="225.2422" y2="225.2422"/><ellipse cx="301" cy="240.0527" fill="#84BE84" rx="3" ry="3" style="stroke:#038048;stroke-width:1.0;"/><text fill="#000000" font-family="sans-serif" font-size="14" lengthAdjust="spacing" textLength="348" x="310" y="244.3496">checkForOverdueBooks(readerNumber: long): boolean</text><ellipse cx="301" cy="258.6738" fill="#84BE84" rx="3" ry="3" style="stroke:#038048;stroke-width:1.0;"/><text fill="#000000" font-family="sans-serif" font-size="14" lengthAdjust="spacing" textLength="357" x="310" y="262.9707">checkMaximumBooksLent(readerNumber: long): boolean</text><ellipse cx="301" cy="277.2949" fill="#84BE84" rx="3" ry="3" style="stroke:#038048;stroke-width:1.0;"/><text fill="#000000" font-family="sans-serif" font-size="14" lengthAdjust="spacing" textLength="440" x="310" y="281.5918">registerLending(librarianId: long, readerId: long, isbn: String): Lending</text></g><!--class BookService--><g id="elem_BookService"><rect codeLine="21" fill="url(#g1srsap01dl74q0)" height="63.2422" id="BookService" rx="2.5" ry="2.5" style="stroke:#181818;stroke-width:0.5;" width="199" x="791.5" y="207.1211"/><text fill="#000000" font-family="sans-serif" font-size="14" lengthAdjust="spacing" textLength="79" x="851.5" y="227.2285">BookService</text><line style="stroke:#181818;stroke-width:0.5;" x1="792.5" x2="989.5" y1="235.7422" y2="235.7422"/><line style="stroke:#181818;stroke-width:0.5;" x1="792.5" x2="989.5" y1="243.7422" y2="243.7422"/><ellipse cx="802.5" cy="258.5527" fill="#84BE84" rx="3" ry="3" style="stroke:#038048;stroke-width:1.0;"/><text fill="#000000" font-family="sans-serif" font-size="14" lengthAdjust="spacing" textLength="173" x="811.5" y="262.8496">getBook(isbn: String): Book</text></g><!--class UserRepository--><g id="elem_UserRepository"><rect codeLine="25" fill="url(#g1srsap01dl74q0)" height="63.2422" id="UserRepository" rx="2.5" ry="2.5" style="stroke:#181818;stroke-width:0.5;" width="248" x="7" y="386.1211"/><text fill="#000000" font-family="sans-serif" font-size="14" lengthAdjust="spacing" textLength="97" x="82.5" y="406.2285">UserRepository</text><line style="stroke:#181818;stroke-width:0.5;" x1="8" x2="254" y1="414.7422" y2="414.7422"/><line style="stroke:#181818;stroke-width:0.5;" x1="8" x2="254" y1="422.7422" y2="422.7422"/><ellipse cx="18" cy="437.5527" fill="#84BE84" rx="3" ry="3" style="stroke:#038048;stroke-width:1.0;"/><text fill="#000000" font-family="sans-serif" font-size="14" lengthAdjust="spacing" textLength="222" x="27" y="441.8496">getUser(readerNumber: long): User</text></g><!--class LendingRepository--><g id="elem_LendingRepository"><rect codeLine="29" fill="url(#g1srsap01dl74q0)" height="100.4844" id="LendingRepository" rx="2.5" ry="2.5" style="stroke:#181818;stroke-width:0.5;" width="392" x="327" y="367.6211"/><text fill="#000000" font-family="sans-serif" font-size="14" lengthAdjust="spacing" textLength="119" x="463.5" y="387.7285">LendingRepository</text><line style="stroke:#181818;stroke-width:0.5;" x1="328" x2="718" y1="396.2422" y2="396.2422"/><line style="stroke:#181818;stroke-width:0.5;" x1="328" x2="718" y1="404.2422" y2="404.2422"/><ellipse cx="338" cy="419.0527" fill="#84BE84" rx="3" ry="3" style="stroke:#038048;stroke-width:1.0;"/><text fill="#000000" font-family="sans-serif" font-size="14" lengthAdjust="spacing" textLength="366" x="347" y="423.3496">getOverdueLendings(readerNumber: long): List&lt;Lending&gt;</text><ellipse cx="338" cy="437.6738" fill="#84BE84" rx="3" ry="3" style="stroke:#038048;stroke-width:1.0;"/><text fill="#000000" font-family="sans-serif" font-size="14" lengthAdjust="spacing" textLength="349" x="347" y="441.9707">getActiveLendings(readerNumber: long): List&lt;Lending&gt;</text><ellipse cx="338" cy="456.2949" fill="#84BE84" rx="3" ry="3" style="stroke:#038048;stroke-width:1.0;"/><text fill="#000000" font-family="sans-serif" font-size="14" lengthAdjust="spacing" textLength="230" x="347" y="460.5918">saveLending(lending: Lending): void</text></g><!--class BookRepository--><g id="elem_BookRepository"><rect codeLine="35" fill="url(#g1srsap01dl74q0)" height="63.2422" id="BookRepository" rx="2.5" ry="2.5" style="stroke:#181818;stroke-width:0.5;" width="199" x="791.5" y="386.1211"/><text fill="#000000" font-family="sans-serif" font-size="14" lengthAdjust="spacing" textLength="100" x="841" y="406.2285">BookRepository</text><line style="stroke:#181818;stroke-width:0.5;" x1="792.5" x2="989.5" y1="414.7422" y2="414.7422"/><line style="stroke:#181818;stroke-width:0.5;" x1="792.5" x2="989.5" y1="422.7422" y2="422.7422"/><ellipse cx="802.5" cy="437.5527" fill="#84BE84" rx="3" ry="3" style="stroke:#038048;stroke-width:1.0;"/><text fill="#000000" font-family="sans-serif" font-size="14" lengthAdjust="spacing" textLength="173" x="811.5" y="441.8496">getBook(isbn: String): Book</text></g><!--class Lending--><g id="elem_Lending"><rect codeLine="39" fill="url(#g1srsap01dl74q0)" height="119.1055" id="Lending" rx="2.5" ry="2.5" style="stroke:#181818;stroke-width:0.5;" width="166" x="440" y="546.6211"/><text fill="#000000" font-family="sans-serif" font-size="14" lengthAdjust="spacing" textLength="51" x="497.5" y="566.7285">Lending</text><line style="stroke:#181818;stroke-width:0.5;" x1="441" x2="605" y1="575.2422" y2="575.2422"/><rect fill="none" height="6" style="stroke:#C82930;stroke-width:1.0;" width="6" x="448" y="587.0527"/><text fill="#000000" font-family="sans-serif" font-size="14" lengthAdjust="spacing" textLength="71" x="460" y="594.3496">book: Book</text><rect fill="none" height="6" style="stroke:#C82930;stroke-width:1.0;" width="6" x="448" y="605.6738"/><text fill="#000000" font-family="sans-serif" font-size="14" lengthAdjust="spacing" textLength="65" x="460" y="612.9707">user: User</text><rect fill="none" height="6" style="stroke:#C82930;stroke-width:1.0;" width="6" x="448" y="624.2949"/><text fill="#000000" font-family="sans-serif" font-size="14" lengthAdjust="spacing" textLength="130" x="460" y="631.5918">startDate: LocalDate</text><rect fill="none" height="6" style="stroke:#C82930;stroke-width:1.0;" width="6" x="448" y="642.916"/><text fill="#000000" font-family="sans-serif" font-size="14" lengthAdjust="spacing" textLength="140" x="460" y="650.2129">returnDate: LocalDate</text><line style="stroke:#181818;stroke-width:0.5;" x1="441" x2="605" y1="657.7266" y2="657.7266"/></g><!--class Book--><g id="elem_Book"><rect codeLine="46" fill="url(#g1srsap01dl74q0)" height="100.4844" id="Book" rx="2.5" ry="2.5" style="stroke:#181818;stroke-width:0.5;" width="140" x="345" y="828.6211"/><text fill="#000000" font-family="sans-serif" font-size="14" lengthAdjust="spacing" textLength="32" x="399" y="848.7285">Book</text><line style="stroke:#181818;stroke-width:0.5;" x1="346" x2="484" y1="857.2422" y2="857.2422"/><rect fill="none" height="6" style="stroke:#C82930;stroke-width:1.0;" width="6" x="353" y="869.0527"/><text fill="#000000" font-family="sans-serif" font-size="14" lengthAdjust="spacing" textLength="71" x="365" y="876.3496">isbn: String</text><rect fill="none" height="6" style="stroke:#C82930;stroke-width:1.0;" width="6" x="353" y="887.6738"/><text fill="#000000" font-family="sans-serif" font-size="14" lengthAdjust="spacing" textLength="67" x="365" y="894.9707">title: String</text><rect fill="none" height="6" style="stroke:#C82930;stroke-width:1.0;" width="6" x="353" y="906.2949"/><text fill="#000000" font-family="sans-serif" font-size="14" lengthAdjust="spacing" textLength="114" x="365" y="913.5918">description: String</text><line style="stroke:#181818;stroke-width:0.5;" x1="346" x2="484" y1="921.1055" y2="921.1055"/></g><!--class User--><g id="elem_User"><rect codeLine="52" fill="url(#g1srsap01dl74q0)" height="268.0742" id="User" rx="2.5" ry="2.5" style="stroke:#181818;stroke-width:0.5;" width="222" x="520" y="744.6211"/><text fill="#000000" font-family="sans-serif" font-size="14" lengthAdjust="spacing" textLength="29" x="616.5" y="764.7285">User</text><line style="stroke:#181818;stroke-width:0.5;" x1="521" x2="741" y1="773.2422" y2="773.2422"/><rect fill="none" height="6" style="stroke:#C82930;stroke-width:1.0;" width="6" x="528" y="785.0527"/><text fill="#000000" font-family="sans-serif" font-size="14" lengthAdjust="spacing" textLength="126" x="540" y="792.3496">readerNumber: long</text><rect fill="none" height="6" style="stroke:#C82930;stroke-width:1.0;" width="6" x="528" y="803.6738"/><text fill="#000000" font-family="sans-serif" font-size="14" lengthAdjust="spacing" textLength="108" x="540" y="810.9707">username: String</text><rect fill="none" height="6" style="stroke:#C82930;stroke-width:1.0;" width="6" x="528" y="822.2949"/><text fill="#000000" font-family="sans-serif" font-size="14" lengthAdjust="spacing" textLength="105" x="540" y="829.5918">password: String</text><rect fill="none" height="6" style="stroke:#C82930;stroke-width:1.0;" width="6" x="528" y="840.916"/><text fill="#000000" font-family="sans-serif" font-size="14" lengthAdjust="spacing" textLength="80" x="540" y="848.2129">name: String</text><rect fill="none" height="6" style="stroke:#C82930;stroke-width:1.0;" width="6" x="528" y="859.5371"/><text fill="#000000" font-family="sans-serif" font-size="14" lengthAdjust="spacing" textLength="110" x="540" y="866.834">enabled: boolean</text><rect fill="none" height="6" style="stroke:#C82930;stroke-width:1.0;" width="6" x="528" y="878.1582"/><text fill="#000000" font-family="sans-serif" font-size="14" lengthAdjust="spacing" textLength="144" x="540" y="885.4551">dateOfBirth: LocalDate</text><rect fill="none" height="6" style="stroke:#C82930;stroke-width:1.0;" width="6" x="528" y="896.7793"/><text fill="#000000" font-family="sans-serif" font-size="14" lengthAdjust="spacing" textLength="134" x="540" y="904.0762">phoneNumber: String</text><rect fill="none" height="6" style="stroke:#C82930;stroke-width:1.0;" width="6" x="528" y="915.4004"/><text fill="#000000" font-family="sans-serif" font-size="14" lengthAdjust="spacing" textLength="88" x="540" y="922.6973">gdpr: boolean</text><rect fill="none" height="6" style="stroke:#C82930;stroke-width:1.0;" width="6" x="528" y="934.0215"/><text fill="#000000" font-family="sans-serif" font-size="14" lengthAdjust="spacing" textLength="196" x="540" y="941.3184">authorities: Set&lt;AuthorityRole&gt;</text><rect fill="none" height="6" style="stroke:#C82930;stroke-width:1.0;" width="6" x="528" y="952.6426"/><text fill="#000000" font-family="sans-serif" font-size="14" lengthAdjust="spacing" textLength="116" x="540" y="959.9395">books: List&lt;Book&gt;</text><rect fill="none" height="6" style="stroke:#C82930;stroke-width:1.0;" width="6" x="528" y="971.2637"/><text fill="#000000" font-family="sans-serif" font-size="14" lengthAdjust="spacing" textLength="130" x="540" y="978.5605">genres: List&lt;Genre&gt;</text><rect fill="none" height="6" style="stroke:#C82930;stroke-width:1.0;" width="6" x="528" y="989.8848"/><text fill="#000000" font-family="sans-serif" font-size="14" lengthAdjust="spacing" textLength="69" x="540" y="997.1816">role: String</text><line style="stroke:#181818;stroke-width:0.5;" x1="521" x2="741" y1="1004.6953" y2="1004.6953"/></g><!--link LendingController to UserService--><g id="link_LendingController_UserService"><path codeLine="67" d="M447.42,109.6811 C378.12,137.7011 281.5824,176.7317 212.2424,204.7717 " fill="none" id="LendingController-to-UserService" style="stroke:#181818;stroke-width:1.0;"/><polygon fill="#181818" points="206.68,207.0211,216.5232,207.3553,211.3153,205.1466,213.524,199.9388,206.68,207.0211" style="stroke:#181818;stroke-width:1.0;"/><text fill="#000000" font-family="sans-serif" font-size="13" lengthAdjust="spacing" textLength="28" x="364" y="154.6494">uses</text></g><!--link LendingController to LendingService--><g id="link_LendingController_LendingService"><path codeLine="68" d="M523,109.6811 C523,131.9911 523,156.7011 523,182.4511 " fill="none" id="LendingController-to-LendingService" style="stroke:#181818;stroke-width:1.0;"/><polygon fill="#181818" points="523,188.4511,527,179.4511,523,183.4511,519,179.4511,523,188.4511" style="stroke:#181818;stroke-width:1.0;"/><text fill="#000000" font-family="sans-serif" font-size="13" lengthAdjust="spacing" textLength="28" x="524" y="154.6494">uses</text></g><!--link LendingController to BookService--><g id="link_LendingController_BookService"><path codeLine="69" d="M593.95,109.6811 C659.01,137.7011 749.3496,176.6073 814.4396,204.6473 " fill="none" id="LendingController-to-BookService" style="stroke:#181818;stroke-width:1.0;"/><polygon fill="#181818" points="819.95,207.0211,813.2669,199.7867,815.358,205.0429,810.1018,207.134,819.95,207.0211" style="stroke:#181818;stroke-width:1.0;"/><text fill="#000000" font-family="sans-serif" font-size="13" lengthAdjust="spacing" textLength="28" x="708" y="154.6494">uses</text></g><!--link UserService to UserRepository--><g id="link_UserService_UserRepository"><path codeLine="70" d="M131,270.4511 C131,302.8411 131,347.4811 131,379.8511 " fill="none" id="UserService-to-UserRepository" style="stroke:#181818;stroke-width:1.0;"/><polygon fill="#181818" points="131,385.8511,135,376.8511,131,380.8511,127,376.8511,131,385.8511" style="stroke:#181818;stroke-width:1.0;"/><text fill="#000000" font-family="sans-serif" font-size="13" lengthAdjust="spacing" textLength="28" x="132" y="333.6494">uses</text></g><!--link LendingService to LendingRepository--><g id="link_LendingService_LendingRepository"><path codeLine="71" d="M523,288.9211 C523,313.4711 523,337.0711 523,361.5811 " fill="none" id="LendingService-to-LendingRepository" style="stroke:#181818;stroke-width:1.0;"/><polygon fill="#181818" points="523,367.5811,527,358.5811,523,362.5811,519,358.5811,523,367.5811" style="stroke:#181818;stroke-width:1.0;"/><text fill="#000000" font-family="sans-serif" font-size="13" lengthAdjust="spacing" textLength="28" x="524" y="333.6494">uses</text></g><!--link BookService to BookRepository--><g id="link_BookService_BookRepository"><path codeLine="72" d="M891,270.4511 C891,302.8411 891,347.4811 891,379.8511 " fill="none" id="BookService-to-BookRepository" style="stroke:#181818;stroke-width:1.0;"/><polygon fill="#181818" points="891,385.8511,895,376.8511,891,380.8511,887,376.8511,891,385.8511" style="stroke:#181818;stroke-width:1.0;"/><text fill="#000000" font-family="sans-serif" font-size="13" lengthAdjust="spacing" textLength="28" x="892" y="333.6494">uses</text></g><!--link Lending to Book--><g id="link_Lending_Book"><path codeLine="73" d="M499.57,665.8111 C480.15,714.4511 455.0958,777.2092 436.8158,822.9692 " fill="none" id="Lending-to-Book" style="stroke:#181818;stroke-width:1.0;"/><polygon fill="#181818" points="434.59,828.5411,441.6433,821.6672,436.4449,823.8979,434.2142,818.6994,434.59,828.5411" style="stroke:#181818;stroke-width:1.0;"/><text fill="#000000" font-family="sans-serif" font-size="13" lengthAdjust="spacing" textLength="49" x="486" y="710.6494">contains</text><text fill="#000000" font-family="sans-serif" font-size="13" lengthAdjust="spacing" textLength="7" x="489.4562" y="687.7346">1</text><text fill="#000000" font-family="sans-serif" font-size="13" lengthAdjust="spacing" textLength="7" x="429.8527" y="817.318">1</text></g><!--link Lending to User--><g id="link_Lending_User"><path codeLine="74" d="M546.43,665.8111 C555.71,689.0411 564.5558,711.1986 575.5758,738.8086 " fill="none" id="Lending-to-User" style="stroke:#181818;stroke-width:1.0;"/><polygon fill="#181818" points="577.8,744.3811,578.1788,734.5395,575.9465,739.7373,570.7487,737.5051,577.8,744.3811" style="stroke:#181818;stroke-width:1.0;"/><text fill="#000000" font-family="sans-serif" font-size="13" lengthAdjust="spacing" textLength="49" x="566" y="710.6494">contains</text><text fill="#000000" font-family="sans-serif" font-size="13" lengthAdjust="spacing" textLength="7" x="541.7344" y="687.7346">1</text><text fill="#000000" font-family="sans-serif" font-size="13" lengthAdjust="spacing" textLength="7" x="567.522" y="733.1635">2</text></g><!--link LendingRepository to Lending--><g id="link_LendingRepository_Lending"><path codeLine="75" d="M523,467.6211 C523,491.8011 523,515.1411 523,540.4911 " fill="none" id="LendingRepository-to-Lending" style="stroke:#181818;stroke-width:1.0;"/><polygon fill="#181818" points="523,546.4911,527,537.4911,523,541.4911,519,537.4911,523,546.4911" style="stroke:#181818;stroke-width:1.0;"/><text fill="#000000" font-family="sans-serif" font-size="13" lengthAdjust="spacing" textLength="43" x="524" y="512.6494">records</text><text fill="#000000" font-family="sans-serif" font-size="13" lengthAdjust="spacing" textLength="7" x="515.4859" y="490.2274">1</text><text fill="#000000" font-family="sans-serif" font-size="13" lengthAdjust="spacing" textLength="20" x="501.7813" y="535.2274">0..*</text></g><!--SRC=[hLJRZjem47tFLrZqeVG2x2xTbmWXBR1KAz5IGVUvSf9fOk7OqTYXNQtwxxKJ1t9PM2gL5s3cdBcS6S_RHEjC-QFHDWzKY2pJJ8eju9w5eFEK3qEPZa9EbHf4ZCP8KyzBM0GaP1Xoy3pDD0VokBs-9NCB8uiALh382aJ4H3oNGgFa792y6SzknpVZvN8qkvf_Mjmlb-JP8-RpuTjw-vsCUCdeSnRyO95Fk1JnHu908y2QWQb0-6IhqM3V-MG3AfD2mRqm5JrDIllK-rFLyQW0NLzdAeX1Ms2_pFOrJmF0Cg59OJt7WAwnrsE62OIxfSJr7Z3AOIRbJhsS892I0nKrsXVwcwLvMd1CGdq13o5cIWEkZZ8YHKR5GqlBXrDIEkQnLPl-8kqiiD-APctDCMmWauffYK__THANXdLpSAmJerWP3ISECZrGxqBDzl_ELFH0whljFgXi67l9egRObxRokjuko-am0xizEqSh3RcoxHGQbmQbAUe5rM2gbY7bzgTpeRaIADg-HZFdSjThTwRYeBHi4Hnkqy7JMAbpERfJglKfQDfEbfcWloH6BVCBI10qu10r7w2fraYm_ZbZg9EkO5aY1LJ5DAB5KORjK3JNYKIc6IY31ZsvSuQdZO5DQnDKRlEiufKz1e5GEJxRFvN7d6AeAzczqeF1j7upVQkMEe5hdiApqDefSRZwOQwI7lU_6QoEwxnw1wqVgohZgNYaTzqhGFPxLho3qDHBcUX0UZUzehGkelPOA-pLSFY-LrNecmqCpJufxoy0]--></g></svg>