<?xml version="1.0" encoding="us-ascii" standalone="no"?><svg xmlns="http://www.w3.org/2000/svg" xmlns:xlink="http://www.w3.org/1999/xlink" contentStyleType="text/css" height="1128px" preserveAspectRatio="none" style="width:1855px;height:1128px;background:#FFFFFF;" version="1.1" viewBox="0 0 1855 1128" width="1855px" zoomAndPan="magnify"><defs><linearGradient id="g154qx7441ur8h0" x1="0%" x2="100%" y1="0%" y2="100%"><stop offset="0%" stop-color="#3B5323"/><stop offset="100%" stop-color="#B0C4DE"/></linearGradient></defs><g><text fill="#000000" font-family="sans-serif" font-size="14" font-weight="bold" lengthAdjust="spacing" textLength="171" x="841.25" y="30.1074">US15 Sequence Diagram</text><rect fill="#FFFFFF" height="903.1484" style="stroke:#181818;stroke-width:1.0;" width="10" x="31" y="133.2422"/><rect fill="#FFFFFF" height="870.8574" style="stroke:#181818;stroke-width:1.0;" width="10" x="400" y="156.5332"/><rect fill="#FFFFFF" height="93.873" style="stroke:#181818;stroke-width:1.0;" width="10" x="555" y="187.8242"/><rect fill="#FFFFFF" height="31.291" style="stroke:#181818;stroke-width:1.0;" width="10" x="555" y="469.4434"/><rect fill="#FFFFFF" height="598.2383" style="stroke:#181818;stroke-width:1.0;" width="10" x="741" y="438.1523"/><rect fill="#FFFFFF" height="36.291" style="stroke:#181818;stroke-width:1.0;" width="10" x="746" y="602.6074"/><rect fill="#FFFFFF" height="366.2012" style="stroke:#181818;stroke-width:1.0;" width="10" x="746" y="670.1895"/><rect fill="#FFFFFF" height="36.291" style="stroke:#181818;stroke-width:1.0;" width="10" x="751" y="772.0625"/><rect fill="#FFFFFF" height="156.4551" style="stroke:#181818;stroke-width:1.0;" width="10" x="751" y="839.6445"/><rect fill="#FFFFFF" height="93.873" style="stroke:#181818;stroke-width:1.0;" width="10" x="981" y="312.9883"/><rect fill="#FFFFFF" height="31.291" style="stroke:#181818;stroke-width:1.0;" width="10" x="1093" y="219.1152"/><rect fill="#FFFFFF" height="31.291" style="stroke:#181818;stroke-width:1.0;" width="10" x="1225" y="532.0254"/><rect fill="#FFFFFF" height="31.291" style="stroke:#181818;stroke-width:1.0;" width="10" x="1225" y="701.4805"/><rect fill="#FFFFFF" height="31.291" style="stroke:#181818;stroke-width:1.0;" width="10" x="1225" y="933.5176"/><rect fill="#FFFFFF" height="31.291" style="stroke:#181818;stroke-width:1.0;" width="10" x="1358.5" y="344.2793"/><rect fill="#FFFFFF" height="31.291" style="stroke:#181818;stroke-width:1.0;" width="10" x="1812" y="870.9355"/><line style="stroke:#181818;stroke-width:0.5;stroke-dasharray:5.0,5.0;" x1="36" x2="36" y1="123.2422" y2="1045.3906"/><line style="stroke:#181818;stroke-width:0.5;stroke-dasharray:5.0,5.0;" x1="404.5" x2="404.5" y1="123.2422" y2="1045.3906"/><line style="stroke:#181818;stroke-width:0.5;stroke-dasharray:5.0,5.0;" x1="560" x2="560" y1="123.2422" y2="1045.3906"/><line style="stroke:#181818;stroke-width:0.5;stroke-dasharray:5.0,5.0;" x1="746" x2="746" y1="123.2422" y2="1045.3906"/><line style="stroke:#181818;stroke-width:0.5;stroke-dasharray:5.0,5.0;" x1="985.5" x2="985.5" y1="123.2422" y2="1045.3906"/><line style="stroke:#181818;stroke-width:0.5;stroke-dasharray:5.0,5.0;" x1="1097.5" x2="1097.5" y1="123.2422" y2="1045.3906"/><line style="stroke:#181818;stroke-width:0.5;stroke-dasharray:5.0,5.0;" x1="1229.5" x2="1229.5" y1="123.2422" y2="1045.3906"/><line style="stroke:#181818;stroke-width:0.5;stroke-dasharray:5.0,5.0;" x1="1363.5" x2="1363.5" y1="123.2422" y2="1045.3906"/><line style="stroke:#181818;stroke-width:0.5;stroke-dasharray:5.0,5.0;" x1="1816.5" x2="1816.5" y1="123.2422" y2="1045.3906"/><text fill="#000000" font-family="sans-serif" font-size="14" lengthAdjust="spacing" textLength="56" x="5" y="119.7285">Librarian</text><ellipse cx="36" cy="53.1211" fill="url(#g154qx7441ur8h0)" rx="8" ry="8" style="stroke:#181818;stroke-width:0.5;"/><path d="M36,61.1211 L36,88.1211 M23,69.1211 L49,69.1211 M36,88.1211 L23,103.1211 M36,88.1211 L49,103.1211 " fill="none" style="stroke:#181818;stroke-width:0.5;"/><text fill="#000000" font-family="sans-serif" font-size="14" lengthAdjust="spacing" textLength="56" x="5" y="1059.498">Librarian</text><ellipse cx="36" cy="1071.5117" fill="url(#g154qx7441ur8h0)" rx="8" ry="8" style="stroke:#181818;stroke-width:0.5;"/><path d="M36,1079.5117 L36,1106.5117 M23,1087.5117 L49,1087.5117 M36,1106.5117 L23,1121.5117 M36,1106.5117 L49,1121.5117 " fill="none" style="stroke:#181818;stroke-width:0.5;"/><rect fill="url(#g154qx7441ur8h0)" height="32.6211" rx="2.5" ry="2.5" style="stroke:#181818;stroke-width:0.5;" width="127" x="341.5" y="89.6211"/><text fill="#000000" font-family="sans-serif" font-size="14" lengthAdjust="spacing" textLength="113" x="348.5" y="111.7285">LendingController</text><rect fill="url(#g154qx7441ur8h0)" height="32.6211" rx="2.5" ry="2.5" style="stroke:#181818;stroke-width:0.5;" width="127" x="341.5" y="1044.3906"/><text fill="#000000" font-family="sans-serif" font-size="14" lengthAdjust="spacing" textLength="113" x="348.5" y="1066.498">LendingController</text><rect fill="url(#g154qx7441ur8h0)" height="32.6211" rx="2.5" ry="2.5" style="stroke:#181818;stroke-width:0.5;" width="90" x="515" y="89.6211"/><text fill="#000000" font-family="sans-serif" font-size="14" lengthAdjust="spacing" textLength="76" x="522" y="111.7285">UserService</text><rect fill="url(#g154qx7441ur8h0)" height="32.6211" rx="2.5" ry="2.5" style="stroke:#181818;stroke-width:0.5;" width="90" x="515" y="1044.3906"/><text fill="#000000" font-family="sans-serif" font-size="14" lengthAdjust="spacing" textLength="76" x="522" y="1066.498">UserService</text><rect fill="url(#g154qx7441ur8h0)" height="32.6211" rx="2.5" ry="2.5" style="stroke:#181818;stroke-width:0.5;" width="112" x="690" y="89.6211"/><text fill="#000000" font-family="sans-serif" font-size="14" lengthAdjust="spacing" textLength="98" x="697" y="111.7285">LendingService</text><rect fill="url(#g154qx7441ur8h0)" height="32.6211" rx="2.5" ry="2.5" style="stroke:#181818;stroke-width:0.5;" width="112" x="690" y="1044.3906"/><text fill="#000000" font-family="sans-serif" font-size="14" lengthAdjust="spacing" textLength="98" x="697" y="1066.498">LendingService</text><rect fill="url(#g154qx7441ur8h0)" height="32.6211" rx="2.5" ry="2.5" style="stroke:#181818;stroke-width:0.5;" width="93" x="939.5" y="89.6211"/><text fill="#000000" font-family="sans-serif" font-size="14" lengthAdjust="spacing" textLength="79" x="946.5" y="111.7285">BookService</text><rect fill="url(#g154qx7441ur8h0)" height="32.6211" rx="2.5" ry="2.5" style="stroke:#181818;stroke-width:0.5;" width="93" x="939.5" y="1044.3906"/><text fill="#000000" font-family="sans-serif" font-size="14" lengthAdjust="spacing" textLength="79" x="946.5" y="1066.498">BookService</text><rect fill="url(#g154qx7441ur8h0)" height="32.6211" rx="2.5" ry="2.5" style="stroke:#181818;stroke-width:0.5;" width="111" x="1042.5" y="89.6211"/><text fill="#000000" font-family="sans-serif" font-size="14" lengthAdjust="spacing" textLength="97" x="1049.5" y="111.7285">UserRepository</text><rect fill="url(#g154qx7441ur8h0)" height="32.6211" rx="2.5" ry="2.5" style="stroke:#181818;stroke-width:0.5;" width="111" x="1042.5" y="1044.3906"/><text fill="#000000" font-family="sans-serif" font-size="14" lengthAdjust="spacing" textLength="97" x="1049.5" y="1066.498">UserRepository</text><rect fill="url(#g154qx7441ur8h0)" height="32.6211" rx="2.5" ry="2.5" style="stroke:#181818;stroke-width:0.5;" width="133" x="1163.5" y="89.6211"/><text fill="#000000" font-family="sans-serif" font-size="14" lengthAdjust="spacing" textLength="119" x="1170.5" y="111.7285">LendingRepository</text><rect fill="url(#g154qx7441ur8h0)" height="32.6211" rx="2.5" ry="2.5" style="stroke:#181818;stroke-width:0.5;" width="133" x="1163.5" y="1044.3906"/><text fill="#000000" font-family="sans-serif" font-size="14" lengthAdjust="spacing" textLength="119" x="1170.5" y="1066.498">LendingRepository</text><rect fill="url(#g154qx7441ur8h0)" height="32.6211" rx="2.5" ry="2.5" style="stroke:#181818;stroke-width:0.5;" width="114" x="1306.5" y="89.6211"/><text fill="#000000" font-family="sans-serif" font-size="14" lengthAdjust="spacing" textLength="100" x="1313.5" y="111.7285">BookRepository</text><rect fill="url(#g154qx7441ur8h0)" height="32.6211" rx="2.5" ry="2.5" style="stroke:#181818;stroke-width:0.5;" width="114" x="1306.5" y="1044.3906"/><text fill="#000000" font-family="sans-serif" font-size="14" lengthAdjust="spacing" textLength="100" x="1313.5" y="1066.498">BookRepository</text><rect fill="url(#g154qx7441ur8h0)" height="32.6211" rx="2.5" ry="2.5" style="stroke:#181818;stroke-width:0.5;" width="65" x="1784.5" y="89.6211"/><text fill="#000000" font-family="sans-serif" font-size="14" lengthAdjust="spacing" textLength="51" x="1791.5" y="111.7285">Lending</text><rect fill="url(#g154qx7441ur8h0)" height="32.6211" rx="2.5" ry="2.5" style="stroke:#181818;stroke-width:0.5;" width="65" x="1784.5" y="1044.3906"/><text fill="#000000" font-family="sans-serif" font-size="14" lengthAdjust="spacing" textLength="51" x="1791.5" y="1066.498">Lending</text><rect fill="#FFFFFF" height="903.1484" style="stroke:#181818;stroke-width:1.0;" width="10" x="31" y="133.2422"/><rect fill="#FFFFFF" height="870.8574" style="stroke:#181818;stroke-width:1.0;" width="10" x="400" y="156.5332"/><rect fill="#FFFFFF" height="93.873" style="stroke:#181818;stroke-width:1.0;" width="10" x="555" y="187.8242"/><rect fill="#FFFFFF" height="31.291" style="stroke:#181818;stroke-width:1.0;" width="10" x="555" y="469.4434"/><rect fill="#FFFFFF" height="598.2383" style="stroke:#181818;stroke-width:1.0;" width="10" x="741" y="438.1523"/><rect fill="#FFFFFF" height="36.291" style="stroke:#181818;stroke-width:1.0;" width="10" x="746" y="602.6074"/><rect fill="#FFFFFF" height="366.2012" style="stroke:#181818;stroke-width:1.0;" width="10" x="746" y="670.1895"/><rect fill="#FFFFFF" height="36.291" style="stroke:#181818;stroke-width:1.0;" width="10" x="751" y="772.0625"/><rect fill="#FFFFFF" height="156.4551" style="stroke:#181818;stroke-width:1.0;" width="10" x="751" y="839.6445"/><rect fill="#FFFFFF" height="93.873" style="stroke:#181818;stroke-width:1.0;" width="10" x="981" y="312.9883"/><rect fill="#FFFFFF" height="31.291" style="stroke:#181818;stroke-width:1.0;" width="10" x="1093" y="219.1152"/><rect fill="#FFFFFF" height="31.291" style="stroke:#181818;stroke-width:1.0;" width="10" x="1225" y="532.0254"/><rect fill="#FFFFFF" height="31.291" style="stroke:#181818;stroke-width:1.0;" width="10" x="1225" y="701.4805"/><rect fill="#FFFFFF" height="31.291" style="stroke:#181818;stroke-width:1.0;" width="10" x="1225" y="933.5176"/><rect fill="#FFFFFF" height="31.291" style="stroke:#181818;stroke-width:1.0;" width="10" x="1358.5" y="344.2793"/><rect fill="#FFFFFF" height="31.291" style="stroke:#181818;stroke-width:1.0;" width="10" x="1812" y="870.9355"/><polygon fill="#181818" points="388,152.5332,398,156.5332,388,160.5332,392,156.5332" style="stroke:#181818;stroke-width:1.0;"/><line style="stroke:#181818;stroke-width:1.0;" x1="41" x2="394" y1="156.5332" y2="156.5332"/><text fill="#000000" font-family="sans-serif" font-size="13" font-weight="bold" lengthAdjust="spacing" textLength="7" x="48" y="151.2705">1</text><text fill="#000000" font-family="sans-serif" font-size="13" lengthAdjust="spacing" textLength="329" x="59" y="151.2705">POST  /lending/{librarian_number}/{reader_number}/{isbn}</text><polygon fill="#181818" points="543,183.8242,553,187.8242,543,191.8242,547,187.8242" style="stroke:#181818;stroke-width:1.0;"/><line style="stroke:#181818;stroke-width:1.0;" x1="410" x2="549" y1="187.8242" y2="187.8242"/><text fill="#000000" font-family="sans-serif" font-size="13" font-weight="bold" lengthAdjust="spacing" textLength="7" x="417" y="182.5615">2</text><text fill="#000000" font-family="sans-serif" font-size="13" lengthAdjust="spacing" textLength="115" x="428" y="182.5615">getUserRepository()</text><polygon fill="#181818" points="1081,215.1152,1091,219.1152,1081,223.1152,1085,219.1152" style="stroke:#181818;stroke-width:1.0;"/><line style="stroke:#181818;stroke-width:1.0;" x1="565" x2="1087" y1="219.1152" y2="219.1152"/><text fill="#000000" font-family="sans-serif" font-size="13" font-weight="bold" lengthAdjust="spacing" textLength="7" x="572" y="213.8525">3</text><text fill="#000000" font-family="sans-serif" font-size="13" lengthAdjust="spacing" textLength="115" x="583" y="213.8525">getUserRepository()</text><polygon fill="#181818" points="576,246.4063,566,250.4063,576,254.4063,572,250.4063" style="stroke:#181818;stroke-width:1.0;"/><line style="stroke:#181818;stroke-width:1.0;stroke-dasharray:2.0,2.0;" x1="570" x2="1097" y1="250.4063" y2="250.4063"/><text fill="#000000" font-family="sans-serif" font-size="13" font-weight="bold" lengthAdjust="spacing" textLength="7" x="582" y="245.1436">4</text><text fill="#000000" font-family="sans-serif" font-size="13" lengthAdjust="spacing" textLength="87" x="593" y="245.1436">userRepository</text><polygon fill="#181818" points="421,277.6973,411,281.6973,421,285.6973,417,281.6973" style="stroke:#181818;stroke-width:1.0;"/><line style="stroke:#181818;stroke-width:1.0;stroke-dasharray:2.0,2.0;" x1="415" x2="559" y1="281.6973" y2="281.6973"/><text fill="#000000" font-family="sans-serif" font-size="13" font-weight="bold" lengthAdjust="spacing" textLength="7" x="427" y="276.4346">5</text><text fill="#000000" font-family="sans-serif" font-size="13" lengthAdjust="spacing" textLength="14" x="438" y="276.4346">ok</text><polygon fill="#181818" points="969,308.9883,979,312.9883,969,316.9883,973,312.9883" style="stroke:#181818;stroke-width:1.0;"/><line style="stroke:#181818;stroke-width:1.0;" x1="410" x2="975" y1="312.9883" y2="312.9883"/><text fill="#000000" font-family="sans-serif" font-size="13" font-weight="bold" lengthAdjust="spacing" textLength="7" x="417" y="307.7256">6</text><text fill="#000000" font-family="sans-serif" font-size="13" lengthAdjust="spacing" textLength="118" x="428" y="307.7256">getBookRepository()</text><polygon fill="#181818" points="1346.5,340.2793,1356.5,344.2793,1346.5,348.2793,1350.5,344.2793" style="stroke:#181818;stroke-width:1.0;"/><line style="stroke:#181818;stroke-width:1.0;" x1="991" x2="1352.5" y1="344.2793" y2="344.2793"/><text fill="#000000" font-family="sans-serif" font-size="13" font-weight="bold" lengthAdjust="spacing" textLength="7" x="998" y="339.0166">7</text><text fill="#000000" font-family="sans-serif" font-size="13" lengthAdjust="spacing" textLength="118" x="1009" y="339.0166">getBookRepository()</text><polygon fill="#181818" points="1002,371.5703,992,375.5703,1002,379.5703,998,375.5703" style="stroke:#181818;stroke-width:1.0;"/><line style="stroke:#181818;stroke-width:1.0;stroke-dasharray:2.0,2.0;" x1="996" x2="1362.5" y1="375.5703" y2="375.5703"/><text fill="#000000" font-family="sans-serif" font-size="13" font-weight="bold" lengthAdjust="spacing" textLength="7" x="1008" y="370.3076">8</text><text fill="#000000" font-family="sans-serif" font-size="13" lengthAdjust="spacing" textLength="90" x="1019" y="370.3076">bookRepository</text><polygon fill="#181818" points="421,402.8613,411,406.8613,421,410.8613,417,406.8613" style="stroke:#181818;stroke-width:1.0;"/><line style="stroke:#181818;stroke-width:1.0;stroke-dasharray:2.0,2.0;" x1="415" x2="985" y1="406.8613" y2="406.8613"/><text fill="#000000" font-family="sans-serif" font-size="13" font-weight="bold" lengthAdjust="spacing" textLength="7" x="427" y="401.5986">9</text><text fill="#000000" font-family="sans-serif" font-size="13" lengthAdjust="spacing" textLength="14" x="438" y="401.5986">ok</text><polygon fill="#181818" points="729,434.1523,739,438.1523,729,442.1523,733,438.1523" style="stroke:#181818;stroke-width:1.0;"/><line style="stroke:#181818;stroke-width:1.0;" x1="410" x2="735" y1="438.1523" y2="438.1523"/><text fill="#000000" font-family="sans-serif" font-size="13" font-weight="bold" lengthAdjust="spacing" textLength="14" x="417" y="432.8896">10</text><text fill="#000000" font-family="sans-serif" font-size="13" lengthAdjust="spacing" textLength="146" x="435" y="432.8896">checkForOverdueBooks()</text><polygon fill="#181818" points="576,465.4434,566,469.4434,576,473.4434,572,469.4434" style="stroke:#181818;stroke-width:1.0;"/><line style="stroke:#181818;stroke-width:1.0;" x1="570" x2="740" y1="469.4434" y2="469.4434"/><text fill="#000000" font-family="sans-serif" font-size="13" font-weight="bold" lengthAdjust="spacing" textLength="14" x="582" y="464.1807">11</text><text fill="#000000" font-family="sans-serif" font-size="13" lengthAdjust="spacing" textLength="139" x="600" y="464.1807">getUser(reader_number)</text><polygon fill="#181818" points="729,496.7344,739,500.7344,729,504.7344,733,500.7344" style="stroke:#181818;stroke-width:1.0;"/><line style="stroke:#181818;stroke-width:1.0;stroke-dasharray:2.0,2.0;" x1="560" x2="735" y1="500.7344" y2="500.7344"/><text fill="#000000" font-family="sans-serif" font-size="13" font-weight="bold" lengthAdjust="spacing" textLength="14" x="567" y="495.4717">12</text><text fill="#000000" font-family="sans-serif" font-size="13" lengthAdjust="spacing" textLength="25" x="585" y="495.4717">user</text><polygon fill="#181818" points="1213,528.0254,1223,532.0254,1213,536.0254,1217,532.0254" style="stroke:#181818;stroke-width:1.0;"/><line style="stroke:#181818;stroke-width:1.0;" x1="751" x2="1219" y1="532.0254" y2="532.0254"/><text fill="#000000" font-family="sans-serif" font-size="13" font-weight="bold" lengthAdjust="spacing" textLength="14" x="758" y="526.7627">13</text><text fill="#000000" font-family="sans-serif" font-size="13" lengthAdjust="spacing" textLength="211" x="776" y="526.7627">getOverdueLendings(reader_number)</text><polygon fill="#181818" points="762,559.3164,752,563.3164,762,567.3164,758,563.3164" style="stroke:#181818;stroke-width:1.0;"/><line style="stroke:#181818;stroke-width:1.0;stroke-dasharray:2.0,2.0;" x1="756" x2="1229" y1="563.3164" y2="563.3164"/><text fill="#000000" font-family="sans-serif" font-size="13" font-weight="bold" lengthAdjust="spacing" textLength="14" x="768" y="558.0537">14</text><text fill="#000000" font-family="sans-serif" font-size="13" lengthAdjust="spacing" textLength="96" x="786" y="558.0537">overdueLendings</text><line style="stroke:#181818;stroke-width:1.0;" x1="751" x2="798" y1="589.6074" y2="589.6074"/><line style="stroke:#181818;stroke-width:1.0;" x1="798" x2="798" y1="589.6074" y2="602.6074"/><line style="stroke:#181818;stroke-width:1.0;" x1="757" x2="798" y1="602.6074" y2="602.6074"/><polygon fill="#181818" points="767,598.6074,757,602.6074,767,606.6074,763,602.6074" style="stroke:#181818;stroke-width:1.0;"/><text fill="#000000" font-family="sans-serif" font-size="13" font-weight="bold" lengthAdjust="spacing" textLength="14" x="763" y="584.3447">15</text><text fill="#000000" font-family="sans-serif" font-size="13" lengthAdjust="spacing" textLength="168" x="781" y="584.3447">check if overdueLendings &gt; 0</text><polygon fill="#181818" points="421,634.8984,411,638.8984,421,642.8984,417,638.8984" style="stroke:#181818;stroke-width:1.0;"/><line style="stroke:#181818;stroke-width:1.0;stroke-dasharray:2.0,2.0;" x1="415" x2="740" y1="638.8984" y2="638.8984"/><text fill="#000000" font-family="sans-serif" font-size="13" font-weight="bold" lengthAdjust="spacing" textLength="14" x="427" y="633.6357">16</text><text fill="#000000" font-family="sans-serif" font-size="13" lengthAdjust="spacing" textLength="14" x="445" y="633.6357">ok</text><polygon fill="#181818" points="734,666.1895,744,670.1895,734,674.1895,738,670.1895" style="stroke:#181818;stroke-width:1.0;"/><line style="stroke:#181818;stroke-width:1.0;" x1="410" x2="740" y1="670.1895" y2="670.1895"/><text fill="#000000" font-family="sans-serif" font-size="13" font-weight="bold" lengthAdjust="spacing" textLength="14" x="417" y="664.9268">17</text><text fill="#000000" font-family="sans-serif" font-size="13" lengthAdjust="spacing" textLength="162" x="435" y="664.9268">checkMaximumBooksLent()</text><polygon fill="#181818" points="1213,697.4805,1223,701.4805,1213,705.4805,1217,701.4805" style="stroke:#181818;stroke-width:1.0;"/><line style="stroke:#181818;stroke-width:1.0;" x1="756" x2="1219" y1="701.4805" y2="701.4805"/><text fill="#000000" font-family="sans-serif" font-size="13" font-weight="bold" lengthAdjust="spacing" textLength="14" x="763" y="696.2178">18</text><text fill="#000000" font-family="sans-serif" font-size="13" lengthAdjust="spacing" textLength="199" x="781" y="696.2178">getActiveLendings(reader_number)</text><polygon fill="#181818" points="767,728.7715,757,732.7715,767,736.7715,763,732.7715" style="stroke:#181818;stroke-width:1.0;"/><line style="stroke:#181818;stroke-width:1.0;stroke-dasharray:2.0,2.0;" x1="761" x2="1229" y1="732.7715" y2="732.7715"/><text fill="#000000" font-family="sans-serif" font-size="13" font-weight="bold" lengthAdjust="spacing" textLength="14" x="773" y="727.5088">19</text><text fill="#000000" font-family="sans-serif" font-size="13" lengthAdjust="spacing" textLength="85" x="791" y="727.5088">activeLendings</text><line style="stroke:#181818;stroke-width:1.0;" x1="756" x2="803" y1="759.0625" y2="759.0625"/><line style="stroke:#181818;stroke-width:1.0;" x1="803" x2="803" y1="759.0625" y2="772.0625"/><line style="stroke:#181818;stroke-width:1.0;" x1="762" x2="803" y1="772.0625" y2="772.0625"/><polygon fill="#181818" points="772,768.0625,762,772.0625,772,776.0625,768,772.0625" style="stroke:#181818;stroke-width:1.0;"/><text fill="#000000" font-family="sans-serif" font-size="13" font-weight="bold" lengthAdjust="spacing" textLength="14" x="768" y="753.7998">20</text><text fill="#000000" font-family="sans-serif" font-size="13" lengthAdjust="spacing" textLength="193" x="786" y="753.7998">check if activeLendings.size() &lt; 3</text><polygon fill="#181818" points="421,804.3535,411,808.3535,421,812.3535,417,808.3535" style="stroke:#181818;stroke-width:1.0;"/><line style="stroke:#181818;stroke-width:1.0;stroke-dasharray:2.0,2.0;" x1="415" x2="745" y1="808.3535" y2="808.3535"/><text fill="#000000" font-family="sans-serif" font-size="13" font-weight="bold" lengthAdjust="spacing" textLength="14" x="427" y="803.0908">21</text><text fill="#000000" font-family="sans-serif" font-size="13" lengthAdjust="spacing" textLength="14" x="445" y="803.0908">ok</text><polygon fill="#181818" points="739,835.6445,749,839.6445,739,843.6445,743,839.6445" style="stroke:#181818;stroke-width:1.0;"/><line style="stroke:#181818;stroke-width:1.0;" x1="410" x2="745" y1="839.6445" y2="839.6445"/><text fill="#000000" font-family="sans-serif" font-size="13" font-weight="bold" lengthAdjust="spacing" textLength="14" x="417" y="834.3818">22</text><text fill="#000000" font-family="sans-serif" font-size="13" lengthAdjust="spacing" textLength="96" x="435" y="834.3818">registerLending()</text><polygon fill="#181818" points="1800,866.9355,1810,870.9355,1800,874.9355,1804,870.9355" style="stroke:#181818;stroke-width:1.0;"/><line style="stroke:#181818;stroke-width:1.0;" x1="761" x2="1806" y1="870.9355" y2="870.9355"/><text fill="#000000" font-family="sans-serif" font-size="13" font-weight="bold" lengthAdjust="spacing" textLength="14" x="768" y="865.6729">23</text><text fill="#000000" font-family="sans-serif" font-size="13" lengthAdjust="spacing" textLength="1014" x="786" y="865.6729">registerLending(lending_number,librarian_number,reader_number,book_title,lending_date,return_date,number_of_days_till_return_date,number_of_days_in_overdue,fine_amount)</text><polygon fill="#181818" points="772,898.2266,762,902.2266,772,906.2266,768,902.2266" style="stroke:#181818;stroke-width:1.0;"/><line style="stroke:#181818;stroke-width:1.0;stroke-dasharray:2.0,2.0;" x1="766" x2="1816" y1="902.2266" y2="902.2266"/><text fill="#000000" font-family="sans-serif" font-size="13" font-weight="bold" lengthAdjust="spacing" textLength="14" x="778" y="896.9639">24</text><text fill="#000000" font-family="sans-serif" font-size="13" lengthAdjust="spacing" textLength="78" x="796" y="896.9639">return lending</text><polygon fill="#181818" points="1213,929.5176,1223,933.5176,1213,937.5176,1217,933.5176" style="stroke:#181818;stroke-width:1.0;"/><line style="stroke:#181818;stroke-width:1.0;" x1="761" x2="1219" y1="933.5176" y2="933.5176"/><text fill="#000000" font-family="sans-serif" font-size="13" font-weight="bold" lengthAdjust="spacing" textLength="14" x="768" y="928.2549">25</text><text fill="#000000" font-family="sans-serif" font-size="13" lengthAdjust="spacing" textLength="120" x="786" y="928.2549">saveLending(lending)</text><polygon fill="#181818" points="772,960.8086,762,964.8086,772,968.8086,768,964.8086" style="stroke:#181818;stroke-width:1.0;"/><line style="stroke:#181818;stroke-width:1.0;stroke-dasharray:2.0,2.0;" x1="766" x2="1229" y1="964.8086" y2="964.8086"/><text fill="#000000" font-family="sans-serif" font-size="13" font-weight="bold" lengthAdjust="spacing" textLength="14" x="778" y="959.5459">26</text><text fill="#000000" font-family="sans-serif" font-size="13" lengthAdjust="spacing" textLength="14" x="796" y="959.5459">ok</text><polygon fill="#181818" points="421,992.0996,411,996.0996,421,1000.0996,417,996.0996" style="stroke:#181818;stroke-width:1.0;"/><line style="stroke:#181818;stroke-width:1.0;stroke-dasharray:2.0,2.0;" x1="415" x2="745" y1="996.0996" y2="996.0996"/><text fill="#000000" font-family="sans-serif" font-size="13" font-weight="bold" lengthAdjust="spacing" textLength="14" x="427" y="990.8369">27</text><text fill="#000000" font-family="sans-serif" font-size="13" lengthAdjust="spacing" textLength="14" x="445" y="990.8369">ok</text><polygon fill="#181818" points="52,1023.3906,42,1027.3906,52,1031.3906,48,1027.3906" style="stroke:#181818;stroke-width:1.0;"/><line style="stroke:#181818;stroke-width:1.0;stroke-dasharray:2.0,2.0;" x1="46" x2="404" y1="1027.3906" y2="1027.3906"/><text fill="#000000" font-family="sans-serif" font-size="13" font-weight="bold" lengthAdjust="spacing" textLength="14" x="58" y="1022.1279">28</text><text fill="#000000" font-family="sans-serif" font-size="13" lengthAdjust="spacing" textLength="14" x="76" y="1022.1279">ok</text><!--SRC=[dLNBRjim4BppAuZqK1kmexHkBaOHe4wgKuiKTN8MA7hj49P8bG-ZQP1_BqbJ3yfkBFTcYZkpCxiZ-VsJrfMQ9ydIv8fALcac-1BaZb7GfYmkgIWJ1RyCS0hJ5ICRIKg4DDC5uCVbXsky39VuhhuaHWj2DTiH3LXmV-Qcp44YUqcraFZY6yibaOpm2qmKDWeaVZTRNCy-pj8qMLpTVhhxcgQe8b8poYh2jOK0Np6-kHLSIr4K83sKQbcSX3vQ_c2gwNT6oowqs3yQWbu8iUr2StiUWdDgVq8b5BEZUcu4I_jegE8UF8WUnE1Kz-1E-3dTFKW2MHq3e2OQpXH2VlVJ6x_8EVvnltp0E0c2avUYpacsJz1hykA8GRPdfdB-Yf0FWkK9kvtZ3UXuagCngXSVwfofVnTwozCkfOdAMhP6ljYsGiAwFNyyLCjVPo7KDKAE5ZP26ieyAclPZWff8pl7z0deDXNoVWToPS2rKxPB9zL7HZYAHZwEV7V9_K9ZgaxoF5te6uAY-ipTeFRPHGmztgWrYTcw3y4t-2g23HlNT_ARbQRqix9K-c1UVPDVNCB_ooE9a4CineXBnVx0Q8m_uzbvHYLicD8W0z61HUVXi2hK16kJ_iiwYPnFN4ep_yyngO4h-nsmLTf8ll-zByt4sXwVbQqkYkoDUyQpiEF9cd78I2aCrsFaFpxJ0u-EftxqrWuLQKPQUpoHpUsfSOVNoZ_w2m00]--></g></svg>